%TF.GenerationSoftware,KiCad,Pcbnew,8.0.7*%
%TF.CreationDate,2025-04-08T16:05:58+09:00*%
%TF.ProjectId,Choc2,43686f63-322e-46b6-9963-61645f706362,rev?*%
%TF.SameCoordinates,Original*%
%TF.FileFunction,Copper,L1,Top*%
%TF.FilePolarity,Positive*%
%FSLAX46Y46*%
G04 Gerber Fmt 4.6, Leading zero omitted, Abs format (unit mm)*
G04 Created by KiCad (PCBNEW 8.0.7) date 2025-04-08 16:05:58*
%MOMM*%
%LPD*%
G01*
G04 APERTURE LIST*
G04 Aperture macros list*
%AMRoundRect*
0 Rectangle with rounded corners*
0 $1 Rounding radius*
0 $2 $3 $4 $5 $6 $7 $8 $9 X,Y pos of 4 corners*
0 Add a 4 corners polygon primitive as box body*
4,1,4,$2,$3,$4,$5,$6,$7,$8,$9,$2,$3,0*
0 Add four circle primitives for the rounded corners*
1,1,$1+$1,$2,$3*
1,1,$1+$1,$4,$5*
1,1,$1+$1,$6,$7*
1,1,$1+$1,$8,$9*
0 Add four rect primitives between the rounded corners*
20,1,$1+$1,$2,$3,$4,$5,0*
20,1,$1+$1,$4,$5,$6,$7,0*
20,1,$1+$1,$6,$7,$8,$9,0*
20,1,$1+$1,$8,$9,$2,$3,0*%
G04 Aperture macros list end*
%TA.AperFunction,ComponentPad*%
%ADD10O,4.140000X2.070000*%
%TD*%
%TA.AperFunction,SMDPad,CuDef*%
%ADD11R,2.000000X1.020000*%
%TD*%
%TA.AperFunction,ComponentPad*%
%ADD12C,1.800000*%
%TD*%
%TA.AperFunction,SMDPad,CuDef*%
%ADD13R,3.000000X3.500000*%
%TD*%
%TA.AperFunction,ComponentPad*%
%ADD14RoundRect,0.250000X-0.625000X0.350000X-0.625000X-0.350000X0.625000X-0.350000X0.625000X0.350000X0*%
%TD*%
%TA.AperFunction,ComponentPad*%
%ADD15O,1.750000X1.200000*%
%TD*%
%TA.AperFunction,ComponentPad*%
%ADD16RoundRect,0.250000X0.625000X-0.350000X0.625000X0.350000X-0.625000X0.350000X-0.625000X-0.350000X0*%
%TD*%
%TA.AperFunction,ComponentPad*%
%ADD17R,1.508000X1.508000*%
%TD*%
%TA.AperFunction,ComponentPad*%
%ADD18C,1.508000*%
%TD*%
%TA.AperFunction,ComponentPad*%
%ADD19C,3.000000*%
%TD*%
%TA.AperFunction,ViaPad*%
%ADD20C,0.600000*%
%TD*%
%TA.AperFunction,Conductor*%
%ADD21C,0.250000*%
%TD*%
%TA.AperFunction,Conductor*%
%ADD22C,1.000000*%
%TD*%
%TA.AperFunction,Conductor*%
%ADD23C,0.500000*%
%TD*%
G04 APERTURE END LIST*
D10*
%TO.P,BT1,+*%
%TO.N,VCC*%
X70000000Y-74900000D03*
%TO.P,BT1,-*%
%TO.N,GND*%
X70000000Y-147800000D03*
%TD*%
D11*
%TO.P,LED7,1,VDD*%
%TO.N,VCC*%
X82150000Y-134342500D03*
%TO.P,LED7,2,DOUT*%
%TO.N,unconnected-(LED7-DOUT-Pad2)*%
X82150000Y-136042500D03*
%TO.P,LED7,3,GND*%
%TO.N,GND*%
X76550000Y-136042500D03*
%TO.P,LED7,4,DIN*%
%TO.N,unconnected-(LED6-DOUT-Pad2)*%
X76550000Y-134342500D03*
%TD*%
%TO.P,LED6,1,VDD*%
%TO.N,VCC*%
X63850000Y-134192500D03*
%TO.P,LED6,2,DOUT*%
%TO.N,unconnected-(LED6-DOUT-Pad2)*%
X63850000Y-135892500D03*
%TO.P,LED6,3,GND*%
%TO.N,GND*%
X58250000Y-135892500D03*
%TO.P,LED6,4,DIN*%
%TO.N,unconnected-(LED5-DOUT-Pad2)*%
X58250000Y-134192500D03*
%TD*%
%TO.P,LED1,1,VDD*%
%TO.N,VCC*%
X64800000Y-90067500D03*
%TO.P,LED1,2,DOUT*%
%TO.N,Net-(LED1-DOUT)*%
X64800000Y-91767500D03*
%TO.P,LED1,3,GND*%
%TO.N,GND*%
X59200000Y-91767500D03*
%TO.P,LED1,4,DIN*%
%TO.N,LED*%
X59200000Y-90067500D03*
%TD*%
D12*
%TO.P,U1,1,LP_A_IO0*%
%TO.N,SW4*%
X77620000Y-71620000D03*
%TO.P,U1,2,LP_A_IO1*%
%TO.N,SW3*%
X75080000Y-71620000D03*
%TO.P,U1,3,LP_A_IO2*%
%TO.N,SW5*%
X72540000Y-71620000D03*
%TO.P,U1,4,IO21*%
%TO.N,SW6*%
X70000000Y-71620000D03*
%TO.P,U1,5,IO22_SDA*%
%TO.N,SDA*%
X67460000Y-71620000D03*
%TO.P,U1,6,IO23_SCL*%
%TO.N,SCL*%
X64920000Y-71620000D03*
%TO.P,U1,7,IO16_TX*%
%TO.N,LED*%
X62380000Y-71620000D03*
%TO.P,U1,8,IO17_RX*%
%TO.N,SW1*%
X62380000Y-56380000D03*
%TO.P,U1,9,IO19_SCK*%
%TO.N,LED2*%
X64920000Y-56380000D03*
%TO.P,U1,10,IO20_MISO*%
%TO.N,SW2*%
X67460000Y-56380000D03*
%TO.P,U1,11,IO18_MOSI*%
%TO.N,SW7*%
X70000000Y-56380000D03*
%TO.P,U1,12,3V3*%
%TO.N,VCC*%
X72540000Y-56380000D03*
%TO.P,U1,13,GND*%
%TO.N,GND*%
X75080000Y-56380000D03*
%TO.P,U1,14,5V*%
%TO.N,unconnected-(U1-5V-Pad14)*%
X77620000Y-56380000D03*
%TD*%
D13*
%TO.P,SW1,1,1*%
%TO.N,SW1*%
X70350000Y-99700000D03*
%TO.P,SW1,2,2*%
%TO.N,GND*%
X58450000Y-101900000D03*
%TD*%
%TO.P,SW2,1,1*%
%TO.N,SW2*%
X86350000Y-91700000D03*
%TO.P,SW2,2,2*%
%TO.N,GND*%
X74450000Y-93900000D03*
%TD*%
%TO.P,SW6,1,1*%
%TO.N,SW6*%
X69350000Y-143700000D03*
%TO.P,SW6,2,2*%
%TO.N,GND*%
X57450000Y-145900000D03*
%TD*%
D11*
%TO.P,LED5,1,VDD*%
%TO.N,VCC*%
X81800000Y-116067500D03*
%TO.P,LED5,2,DOUT*%
%TO.N,unconnected-(LED5-DOUT-Pad2)*%
X81800000Y-117767500D03*
%TO.P,LED5,3,GND*%
%TO.N,GND*%
X76200000Y-117767500D03*
%TO.P,LED5,4,DIN*%
%TO.N,Net-(LED4-DOUT)*%
X76200000Y-116067500D03*
%TD*%
D13*
%TO.P,SW7,1,1*%
%TO.N,SW7*%
X87350000Y-143700000D03*
%TO.P,SW7,2,2*%
%TO.N,GND*%
X75450000Y-145900000D03*
%TD*%
%TO.P,SW5,1,1*%
%TO.N,SW5*%
X87350000Y-125700000D03*
%TO.P,SW5,2,2*%
%TO.N,GND*%
X75450000Y-127900000D03*
%TD*%
D11*
%TO.P,LED2,1,VDD*%
%TO.N,VCC*%
X80800000Y-82067500D03*
%TO.P,LED2,2,DOUT*%
%TO.N,Net-(LED2-DOUT)*%
X80800000Y-83767500D03*
%TO.P,LED2,3,GND*%
%TO.N,GND*%
X75200000Y-83767500D03*
%TO.P,LED2,4,DIN*%
%TO.N,Net-(LED1-DOUT)*%
X75200000Y-82067500D03*
%TD*%
%TO.P,LED4,1,VDD*%
%TO.N,VCC*%
X63800000Y-116142500D03*
%TO.P,LED4,2,DOUT*%
%TO.N,Net-(LED4-DOUT)*%
X63800000Y-117842500D03*
%TO.P,LED4,3,GND*%
%TO.N,GND*%
X58200000Y-117842500D03*
%TO.P,LED4,4,DIN*%
%TO.N,Net-(LED3-DOUT)*%
X58200000Y-116142500D03*
%TD*%
D13*
%TO.P,SW3,1,1*%
%TO.N,SW3*%
X86350000Y-107700000D03*
%TO.P,SW3,2,2*%
%TO.N,GND*%
X74450000Y-109900000D03*
%TD*%
D11*
%TO.P,LED3,1,VDD*%
%TO.N,VCC*%
X80800000Y-98067500D03*
%TO.P,LED3,2,DOUT*%
%TO.N,Net-(LED3-DOUT)*%
X80800000Y-99767500D03*
%TO.P,LED3,3,GND*%
%TO.N,GND*%
X75200000Y-99767500D03*
%TO.P,LED3,4,DIN*%
%TO.N,Net-(LED2-DOUT)*%
X75200000Y-98067500D03*
%TD*%
D13*
%TO.P,SW4,1,1*%
%TO.N,SW4*%
X69350000Y-125700000D03*
%TO.P,SW4,2,2*%
%TO.N,GND*%
X57450000Y-127900000D03*
%TD*%
D14*
%TO.P,J4,1,Pin_1*%
%TO.N,GND*%
X82550000Y-62000000D03*
D15*
%TO.P,J4,2,Pin_2*%
%TO.N,LED2*%
X82550000Y-64000000D03*
%TO.P,J4,3,Pin_3*%
%TO.N,VCC*%
X82550000Y-66000000D03*
%TD*%
D16*
%TO.P,J1,1,Pin_1*%
%TO.N,GND*%
X57450000Y-65000000D03*
D15*
%TO.P,J1,2,Pin_2*%
%TO.N,VCC*%
X57450000Y-63000000D03*
%TD*%
D17*
%TO.P,OL1,1,SDA*%
%TO.N,GND*%
X73810000Y-52500000D03*
D18*
%TO.P,OL1,2,SCL*%
%TO.N,VCC*%
X71270000Y-52500000D03*
%TO.P,OL1,3,VCC*%
%TO.N,SCL*%
X68730000Y-52500000D03*
%TO.P,OL1,4,GND*%
%TO.N,SDA*%
X66190000Y-52500000D03*
D19*
%TO.P,OL1,S1*%
%TO.N,N/C*%
X81000000Y-53000000D03*
%TO.P,OL1,S2*%
X59000000Y-53000000D03*
%TO.P,OL1,S3*%
X59000000Y-75000000D03*
%TO.P,OL1,S4*%
X81000000Y-75000000D03*
%TD*%
D20*
%TO.N,VCC*%
X83000000Y-83500000D03*
X66000000Y-116000000D03*
X66000000Y-134000000D03*
X67000000Y-90000000D03*
X84000000Y-134000000D03*
X83000000Y-98000000D03*
X84000000Y-116000000D03*
%TO.N,GND*%
X72000000Y-94000000D03*
X73000000Y-146000000D03*
X55000000Y-146000000D03*
X74000000Y-118000000D03*
X73000000Y-128000000D03*
X73000000Y-84000000D03*
X56000000Y-118000000D03*
X75000000Y-136000000D03*
X56000000Y-102000000D03*
X72000000Y-110000000D03*
X56000000Y-136000000D03*
X73000000Y-100000000D03*
X55000000Y-128000000D03*
X57000000Y-92000000D03*
%TO.N,SW4*%
X70000000Y-103000000D03*
%TO.N,SW1*%
X58037779Y-95962221D03*
X58000000Y-86000000D03*
%TO.N,SW2*%
X86350000Y-84183274D03*
X67500000Y-68500000D03*
%TO.N,Net-(LED1-DOUT)*%
X75000000Y-81000000D03*
X69000000Y-91000000D03*
%TO.N,unconnected-(LED6-DOUT-Pad2)*%
X66000000Y-136000000D03*
X74000000Y-136000000D03*
%TO.N,SW6*%
X69000000Y-131000000D03*
%TD*%
D21*
%TO.N,unconnected-(LED5-DOUT-Pad2)*%
X61903984Y-130000000D02*
X58250000Y-133653984D01*
X73761396Y-125825000D02*
X69586396Y-130000000D01*
X81800000Y-117767500D02*
X81800000Y-119200000D01*
X81775000Y-123149443D02*
X79099443Y-125825000D01*
X79099443Y-125825000D02*
X73761396Y-125825000D01*
X81775000Y-119225000D02*
X81775000Y-123149443D01*
X58250000Y-133653984D02*
X58250000Y-134192500D01*
X69586396Y-130000000D02*
X61903984Y-130000000D01*
X81800000Y-119200000D02*
X81775000Y-119225000D01*
D22*
%TO.N,VCC*%
X83657500Y-134342500D02*
X84000000Y-134000000D01*
X80800000Y-98067500D02*
X82932500Y-98067500D01*
X64800000Y-90067500D02*
X66932500Y-90067500D01*
X63800000Y-116142500D02*
X65857500Y-116142500D01*
X72540000Y-59460000D02*
X72500000Y-59500000D01*
X72540000Y-56380000D02*
X72540000Y-59460000D01*
X66932500Y-90067500D02*
X67000000Y-90000000D01*
X81800000Y-116067500D02*
X83932500Y-116067500D01*
X82932500Y-98067500D02*
X83000000Y-98000000D01*
X63850000Y-134192500D02*
X65807500Y-134192500D01*
X79000000Y-66000000D02*
X82550000Y-66000000D01*
X71270000Y-53770000D02*
X72540000Y-55040000D01*
X72540000Y-55040000D02*
X72540000Y-56380000D01*
X82010000Y-82067500D02*
X83000000Y-83057500D01*
X72500000Y-59500000D02*
X79000000Y-66000000D01*
X83932500Y-116067500D02*
X84000000Y-116000000D01*
X65807500Y-134192500D02*
X66000000Y-134000000D01*
X83000000Y-83057500D02*
X83000000Y-83500000D01*
X71270000Y-52500000D02*
X71270000Y-53770000D01*
X74842500Y-74900000D02*
X83000000Y-83057500D01*
X65857500Y-116142500D02*
X66000000Y-116000000D01*
X80800000Y-82067500D02*
X82010000Y-82067500D01*
X70000000Y-74900000D02*
X74842500Y-74900000D01*
X82150000Y-134342500D02*
X83657500Y-134342500D01*
D23*
%TO.N,GND*%
X58450000Y-101900000D02*
X56100000Y-101900000D01*
X74450000Y-109900000D02*
X72100000Y-109900000D01*
X73232500Y-83767500D02*
X73000000Y-84000000D01*
X56100000Y-101900000D02*
X56000000Y-102000000D01*
X55100000Y-127900000D02*
X55000000Y-128000000D01*
X73100000Y-145900000D02*
X73000000Y-146000000D01*
X75200000Y-99767500D02*
X73232500Y-99767500D01*
X73100000Y-127900000D02*
X73000000Y-128000000D01*
X57450000Y-127900000D02*
X55100000Y-127900000D01*
X55100000Y-145900000D02*
X55000000Y-146000000D01*
X57450000Y-145900000D02*
X55100000Y-145900000D01*
X73232500Y-99767500D02*
X73000000Y-100000000D01*
X75450000Y-127900000D02*
X73100000Y-127900000D01*
X58250000Y-135892500D02*
X56107500Y-135892500D01*
X72100000Y-109900000D02*
X72000000Y-110000000D01*
X75200000Y-83767500D02*
X73232500Y-83767500D01*
X75042500Y-136042500D02*
X75000000Y-136000000D01*
X74450000Y-93900000D02*
X72100000Y-93900000D01*
X76200000Y-117767500D02*
X74232500Y-117767500D01*
X59200000Y-91767500D02*
X57232500Y-91767500D01*
X76550000Y-136042500D02*
X75042500Y-136042500D01*
X75450000Y-145900000D02*
X73100000Y-145900000D01*
X58200000Y-117842500D02*
X56157500Y-117842500D01*
X72100000Y-93900000D02*
X72000000Y-94000000D01*
X57232500Y-91767500D02*
X57000000Y-92000000D01*
X56157500Y-117842500D02*
X56000000Y-118000000D01*
X74232500Y-117767500D02*
X74000000Y-118000000D01*
X56107500Y-135892500D02*
X56000000Y-136000000D01*
D21*
%TO.N,LED*%
X59200000Y-89528984D02*
X59200000Y-90067500D01*
X62380000Y-86348984D02*
X59200000Y-89528984D01*
X62380000Y-71620000D02*
X62380000Y-86348984D01*
%TO.N,SW4*%
X69350000Y-125700000D02*
X69350000Y-103650000D01*
X69350000Y-103650000D02*
X70000000Y-103000000D01*
%TO.N,SW3*%
X88175000Y-85124390D02*
X75080000Y-72029390D01*
X88175000Y-105875000D02*
X88175000Y-85124390D01*
X75080000Y-72029390D02*
X75080000Y-71620000D01*
X86350000Y-107700000D02*
X88175000Y-105875000D01*
%TO.N,SW1*%
X57175000Y-85175000D02*
X58000000Y-86000000D01*
X63149443Y-98775000D02*
X60850557Y-98775000D01*
X62380000Y-56380000D02*
X60000000Y-58760000D01*
X60000000Y-71419060D02*
X57175000Y-74244060D01*
X64424443Y-97500000D02*
X63149443Y-98775000D01*
X60850557Y-98775000D02*
X58037779Y-95962221D01*
X57175000Y-74244060D02*
X57175000Y-85175000D01*
X70350000Y-99700000D02*
X68150000Y-97500000D01*
X68150000Y-97500000D02*
X64424443Y-97500000D01*
X60000000Y-58760000D02*
X60000000Y-71419060D01*
%TO.N,SW5*%
X88000000Y-82500000D02*
X88000000Y-79419060D01*
X87350000Y-125700000D02*
X88625000Y-124425000D01*
X88000000Y-79419060D02*
X86488120Y-79419060D01*
X86488120Y-79419060D02*
X82825000Y-75755940D01*
X88625000Y-124425000D02*
X88625000Y-83125000D01*
X73765000Y-70395000D02*
X72540000Y-71620000D01*
X82825000Y-74244060D02*
X78975940Y-70395000D01*
X82825000Y-75755940D02*
X82825000Y-74244060D01*
X78975940Y-70395000D02*
X73765000Y-70395000D01*
X88625000Y-83125000D02*
X88000000Y-82500000D01*
%TO.N,SW2*%
X86350000Y-91700000D02*
X86350000Y-84183274D01*
X67460000Y-56380000D02*
X67460000Y-68460000D01*
X67460000Y-68460000D02*
X67500000Y-68500000D01*
%TO.N,Net-(LED1-DOUT)*%
X68232500Y-91767500D02*
X69000000Y-91000000D01*
X75200000Y-81200000D02*
X75000000Y-81000000D01*
X75200000Y-82067500D02*
X75200000Y-81200000D01*
X64800000Y-91767500D02*
X68232500Y-91767500D01*
%TO.N,Net-(LED2-DOUT)*%
X80800000Y-93751650D02*
X78551650Y-96000000D01*
X78551650Y-96000000D02*
X76507500Y-96000000D01*
X75200000Y-97307500D02*
X75200000Y-98067500D01*
X80800000Y-83767500D02*
X80800000Y-93751650D01*
X76507500Y-96000000D02*
X75200000Y-97307500D01*
%TO.N,Net-(LED3-DOUT)*%
X80800000Y-99767500D02*
X80800000Y-100527500D01*
X71625000Y-102375000D02*
X69625000Y-102375000D01*
X72800000Y-101200000D02*
X71625000Y-102375000D01*
X58200000Y-113800000D02*
X58200000Y-116142500D01*
X80800000Y-100527500D02*
X80127500Y-101200000D01*
X80127500Y-101200000D02*
X72800000Y-101200000D01*
X69625000Y-102375000D02*
X58200000Y-113800000D01*
%TO.N,Net-(LED4-DOUT)*%
X63800000Y-126151650D02*
X65423350Y-127775000D01*
X75865000Y-116067500D02*
X76200000Y-116067500D01*
X71175000Y-127775000D02*
X71175000Y-118037563D01*
X71175000Y-118037563D02*
X73637563Y-115575000D01*
X65423350Y-127775000D02*
X71175000Y-127775000D01*
X75707500Y-115575000D02*
X76200000Y-116067500D01*
X63800000Y-117842500D02*
X63800000Y-126151650D01*
X73637563Y-115575000D02*
X75707500Y-115575000D01*
%TO.N,SCL*%
X68730000Y-72082412D02*
X68730000Y-52500000D01*
X67967412Y-72845000D02*
X68730000Y-72082412D01*
X66145000Y-72845000D02*
X67967412Y-72845000D01*
X64920000Y-71620000D02*
X66145000Y-72845000D01*
%TO.N,SDA*%
X67460000Y-71620000D02*
X66190000Y-70350000D01*
X66190000Y-70350000D02*
X66190000Y-52500000D01*
%TO.N,unconnected-(LED6-DOUT-Pad2)*%
X76550000Y-134342500D02*
X75657500Y-134342500D01*
X65892500Y-135892500D02*
X66000000Y-136000000D01*
X75657500Y-134342500D02*
X74000000Y-136000000D01*
X63850000Y-135892500D02*
X65892500Y-135892500D01*
%TO.N,SW6*%
X71975000Y-133975000D02*
X69000000Y-131000000D01*
X69350000Y-143700000D02*
X71975000Y-141075000D01*
X68025000Y-142375000D02*
X69350000Y-143700000D01*
X71975000Y-141075000D02*
X71975000Y-133975000D01*
%TO.N,SW7*%
X63695000Y-58835000D02*
X63695000Y-53469063D01*
X69176937Y-51421000D02*
X70000000Y-52244063D01*
X63695000Y-53469063D02*
X65743063Y-51421000D01*
X60075557Y-143000000D02*
X54000000Y-136924443D01*
X70000000Y-52244063D02*
X70000000Y-56380000D01*
X54000000Y-91500000D02*
X61155000Y-84345000D01*
X74175000Y-142775000D02*
X71175000Y-145775000D01*
X65743063Y-51421000D02*
X69176937Y-51421000D01*
X80149443Y-142775000D02*
X74175000Y-142775000D01*
X54000000Y-136924443D02*
X54000000Y-91500000D01*
X85150000Y-141500000D02*
X81424443Y-141500000D01*
X62648350Y-143000000D02*
X60075557Y-143000000D01*
X61155000Y-61375000D02*
X63695000Y-58835000D01*
X71175000Y-145775000D02*
X65423350Y-145775000D01*
X61155000Y-84345000D02*
X61155000Y-61375000D01*
X87350000Y-143700000D02*
X85150000Y-141500000D01*
X65423350Y-145775000D02*
X62648350Y-143000000D01*
X81424443Y-141500000D02*
X80149443Y-142775000D01*
%TD*%
%TA.AperFunction,Conductor*%
%TO.N,GND*%
G36*
X87003736Y-50500726D02*
G01*
X87293796Y-50518271D01*
X87308659Y-50520076D01*
X87590798Y-50571780D01*
X87605335Y-50575363D01*
X87879172Y-50660695D01*
X87893163Y-50666000D01*
X88154743Y-50783727D01*
X88167989Y-50790680D01*
X88413465Y-50939075D01*
X88425776Y-50947573D01*
X88589227Y-51075628D01*
X88651573Y-51124473D01*
X88662781Y-51134403D01*
X88865596Y-51337218D01*
X88875526Y-51348426D01*
X88907164Y-51388809D01*
X89048743Y-51569522D01*
X89052422Y-51574217D01*
X89060926Y-51586537D01*
X89128412Y-51698172D01*
X89209316Y-51832004D01*
X89216275Y-51845263D01*
X89333997Y-52106831D01*
X89339306Y-52120832D01*
X89424635Y-52394663D01*
X89428219Y-52409201D01*
X89479923Y-52691340D01*
X89481728Y-52706205D01*
X89499274Y-52996263D01*
X89499500Y-53003750D01*
X89499500Y-123609896D01*
X89479815Y-123676935D01*
X89427011Y-123722690D01*
X89357853Y-123732634D01*
X89294297Y-123703609D01*
X89276255Y-123684237D01*
X89275255Y-123682902D01*
X89250819Y-123617445D01*
X89250500Y-123608561D01*
X89250500Y-83063394D01*
X89248692Y-83054304D01*
X89248692Y-83054303D01*
X89229727Y-82958959D01*
X89226463Y-82942548D01*
X89179311Y-82828714D01*
X89169282Y-82813704D01*
X89159391Y-82798900D01*
X89110859Y-82726268D01*
X89077586Y-82692995D01*
X89023733Y-82639142D01*
X89023732Y-82639141D01*
X88661819Y-82277228D01*
X88628334Y-82215905D01*
X88625500Y-82189547D01*
X88625500Y-79357453D01*
X88625499Y-79357449D01*
X88601464Y-79236615D01*
X88601463Y-79236608D01*
X88554311Y-79122774D01*
X88554310Y-79122773D01*
X88554307Y-79122767D01*
X88485858Y-79020327D01*
X88485855Y-79020323D01*
X88398736Y-78933204D01*
X88398732Y-78933201D01*
X88296292Y-78864752D01*
X88296283Y-78864747D01*
X88182454Y-78817598D01*
X88182455Y-78817598D01*
X88182452Y-78817597D01*
X88182448Y-78817596D01*
X88182444Y-78817595D01*
X88061610Y-78793560D01*
X88061606Y-78793560D01*
X86798572Y-78793560D01*
X86731533Y-78773875D01*
X86710891Y-78757241D01*
X83486819Y-75533169D01*
X83453334Y-75471846D01*
X83450500Y-75445488D01*
X83450500Y-74499994D01*
X83994556Y-74499994D01*
X83994556Y-74500005D01*
X84014310Y-74814004D01*
X84014311Y-74814011D01*
X84043790Y-74968547D01*
X84049790Y-75000000D01*
X84073270Y-75123083D01*
X84170497Y-75422316D01*
X84170499Y-75422321D01*
X84304461Y-75707003D01*
X84304464Y-75707009D01*
X84473051Y-75972661D01*
X84473054Y-75972665D01*
X84673606Y-76215090D01*
X84673608Y-76215092D01*
X84673610Y-76215094D01*
X84868056Y-76397691D01*
X84902968Y-76430476D01*
X84902978Y-76430484D01*
X85157504Y-76615408D01*
X85157509Y-76615410D01*
X85157516Y-76615416D01*
X85433234Y-76766994D01*
X85433239Y-76766996D01*
X85433241Y-76766997D01*
X85433242Y-76766998D01*
X85725771Y-76882818D01*
X85725774Y-76882819D01*
X85887609Y-76924371D01*
X86030527Y-76961066D01*
X86096010Y-76969338D01*
X86342670Y-77000499D01*
X86342679Y-77000499D01*
X86342682Y-77000500D01*
X86342684Y-77000500D01*
X86657316Y-77000500D01*
X86657318Y-77000500D01*
X86657321Y-77000499D01*
X86657329Y-77000499D01*
X86843593Y-76976968D01*
X86969473Y-76961066D01*
X87274225Y-76882819D01*
X87274228Y-76882818D01*
X87566757Y-76766998D01*
X87566758Y-76766997D01*
X87566756Y-76766997D01*
X87566766Y-76766994D01*
X87842484Y-76615416D01*
X88097030Y-76430478D01*
X88326390Y-76215094D01*
X88526947Y-75972663D01*
X88695537Y-75707007D01*
X88829503Y-75422315D01*
X88926731Y-75123079D01*
X88985688Y-74814015D01*
X88987551Y-74784409D01*
X89005444Y-74500005D01*
X89005444Y-74499994D01*
X88985689Y-74185995D01*
X88985688Y-74185988D01*
X88985688Y-74185985D01*
X88926731Y-73876921D01*
X88829503Y-73577685D01*
X88695537Y-73292993D01*
X88581355Y-73113070D01*
X88526948Y-73027338D01*
X88526945Y-73027334D01*
X88326393Y-72784909D01*
X88326391Y-72784907D01*
X88097031Y-72569523D01*
X88097021Y-72569515D01*
X87842495Y-72384591D01*
X87842488Y-72384586D01*
X87842484Y-72384584D01*
X87566766Y-72233006D01*
X87566763Y-72233004D01*
X87566758Y-72233002D01*
X87566757Y-72233001D01*
X87274228Y-72117181D01*
X87274225Y-72117180D01*
X86969476Y-72038934D01*
X86969463Y-72038932D01*
X86657329Y-71999500D01*
X86657318Y-71999500D01*
X86342682Y-71999500D01*
X86342670Y-71999500D01*
X86030536Y-72038932D01*
X86030523Y-72038934D01*
X85725774Y-72117180D01*
X85725771Y-72117181D01*
X85433242Y-72233001D01*
X85433241Y-72233002D01*
X85157516Y-72384584D01*
X85157504Y-72384591D01*
X84902978Y-72569515D01*
X84902968Y-72569523D01*
X84673608Y-72784907D01*
X84673606Y-72784909D01*
X84473054Y-73027334D01*
X84473051Y-73027338D01*
X84304464Y-73292990D01*
X84304461Y-73292996D01*
X84170499Y-73577678D01*
X84170497Y-73577683D01*
X84073270Y-73876916D01*
X84014311Y-74185988D01*
X84014310Y-74185995D01*
X83994556Y-74499994D01*
X83450500Y-74499994D01*
X83450500Y-74182453D01*
X83450499Y-74182449D01*
X83438647Y-74122863D01*
X83426463Y-74061608D01*
X83406376Y-74013113D01*
X83379312Y-73947775D01*
X83379308Y-73947769D01*
X83357870Y-73915684D01*
X83357870Y-73915685D01*
X83310858Y-73845327D01*
X83310855Y-73845323D01*
X83220637Y-73755105D01*
X83220606Y-73755076D01*
X79466138Y-70000608D01*
X79466118Y-70000586D01*
X79374673Y-69909141D01*
X79323449Y-69874915D01*
X79272227Y-69840689D01*
X79272226Y-69840688D01*
X79272223Y-69840686D01*
X79272220Y-69840685D01*
X79191732Y-69807347D01*
X79158393Y-69793537D01*
X79148367Y-69791543D01*
X79097969Y-69781518D01*
X79037550Y-69769500D01*
X79037547Y-69769500D01*
X79037546Y-69769500D01*
X73832741Y-69769500D01*
X73832721Y-69769499D01*
X73826607Y-69769499D01*
X73703394Y-69769499D01*
X73602597Y-69789548D01*
X73602592Y-69789548D01*
X73582549Y-69793536D01*
X73582547Y-69793536D01*
X73535397Y-69813067D01*
X73468719Y-69840685D01*
X73468717Y-69840686D01*
X73366266Y-69909141D01*
X73366263Y-69909144D01*
X73038520Y-70236888D01*
X72977197Y-70270373D01*
X72910577Y-70266488D01*
X72884986Y-70257702D01*
X72694204Y-70225867D01*
X72656049Y-70219500D01*
X72423951Y-70219500D01*
X72378164Y-70227140D01*
X72195015Y-70257702D01*
X71975504Y-70333061D01*
X71975495Y-70333064D01*
X71771371Y-70443531D01*
X71771365Y-70443535D01*
X71588222Y-70586081D01*
X71588219Y-70586084D01*
X71431016Y-70756852D01*
X71373809Y-70844416D01*
X71320662Y-70889773D01*
X71251431Y-70899197D01*
X71188095Y-70869695D01*
X71166191Y-70844416D01*
X71108983Y-70756852D01*
X71108980Y-70756849D01*
X71108979Y-70756847D01*
X70951784Y-70586087D01*
X70951779Y-70586083D01*
X70951777Y-70586081D01*
X70768634Y-70443535D01*
X70768628Y-70443531D01*
X70564504Y-70333064D01*
X70564495Y-70333061D01*
X70344984Y-70257702D01*
X70173282Y-70229050D01*
X70116049Y-70219500D01*
X69883951Y-70219500D01*
X69838164Y-70227140D01*
X69655015Y-70257702D01*
X69519763Y-70304135D01*
X69449964Y-70307285D01*
X69389543Y-70272199D01*
X69357682Y-70210016D01*
X69355500Y-70186854D01*
X69355500Y-57813146D01*
X69375185Y-57746107D01*
X69427989Y-57700352D01*
X69497147Y-57690408D01*
X69519763Y-57695865D01*
X69655015Y-57742297D01*
X69655017Y-57742297D01*
X69655019Y-57742298D01*
X69883951Y-57780500D01*
X69883952Y-57780500D01*
X70116048Y-57780500D01*
X70116049Y-57780500D01*
X70344981Y-57742298D01*
X70564503Y-57666936D01*
X70768626Y-57556470D01*
X70951784Y-57413913D01*
X71108979Y-57243153D01*
X71166191Y-57155582D01*
X71219337Y-57110226D01*
X71288568Y-57100802D01*
X71351904Y-57130304D01*
X71373809Y-57155583D01*
X71431016Y-57243147D01*
X71431019Y-57243151D01*
X71431021Y-57243153D01*
X71506731Y-57325396D01*
X71537652Y-57388049D01*
X71539500Y-57409377D01*
X71539500Y-59188155D01*
X71537117Y-59212347D01*
X71499500Y-59401457D01*
X71499500Y-59598544D01*
X71537947Y-59791828D01*
X71537949Y-59791836D01*
X71613367Y-59973910D01*
X71613372Y-59973920D01*
X71722860Y-60137780D01*
X71722863Y-60137784D01*
X78219735Y-66634655D01*
X78219764Y-66634686D01*
X78362214Y-66777136D01*
X78362218Y-66777139D01*
X78526079Y-66886628D01*
X78526092Y-66886635D01*
X78654833Y-66939961D01*
X78657902Y-66941232D01*
X78708164Y-66962051D01*
X78804812Y-66981275D01*
X78853135Y-66990887D01*
X78901458Y-67000500D01*
X78901459Y-67000500D01*
X78901460Y-67000500D01*
X79098540Y-67000500D01*
X81784763Y-67000500D01*
X81841059Y-67014016D01*
X81852550Y-67019871D01*
X81852552Y-67019871D01*
X81852555Y-67019873D01*
X82017299Y-67073402D01*
X82188389Y-67100500D01*
X82188390Y-67100500D01*
X82911610Y-67100500D01*
X82911611Y-67100500D01*
X83082701Y-67073402D01*
X83247445Y-67019873D01*
X83401788Y-66941232D01*
X83541928Y-66839414D01*
X83664414Y-66716928D01*
X83766232Y-66576788D01*
X83844873Y-66422445D01*
X83898402Y-66257701D01*
X83925500Y-66086611D01*
X83925500Y-65913389D01*
X83898402Y-65742299D01*
X83844873Y-65577555D01*
X83766232Y-65423212D01*
X83664414Y-65283072D01*
X83541928Y-65160586D01*
X83458975Y-65100317D01*
X83416311Y-65044988D01*
X83410332Y-64975374D01*
X83442938Y-64913579D01*
X83458976Y-64899682D01*
X83541928Y-64839414D01*
X83664414Y-64716928D01*
X83766232Y-64576788D01*
X83844873Y-64422445D01*
X83898402Y-64257701D01*
X83925500Y-64086611D01*
X83925500Y-63913389D01*
X83898402Y-63742299D01*
X83844873Y-63577555D01*
X83766232Y-63423212D01*
X83664414Y-63283072D01*
X83556508Y-63175166D01*
X83523023Y-63113843D01*
X83528007Y-63044151D01*
X83569879Y-62988218D01*
X83579094Y-62981945D01*
X83643345Y-62942315D01*
X83767315Y-62818345D01*
X83859356Y-62669124D01*
X83859358Y-62669119D01*
X83914504Y-62502701D01*
X83914505Y-62502694D01*
X83914781Y-62500000D01*
X81185219Y-62500000D01*
X81185494Y-62502694D01*
X81185495Y-62502701D01*
X81240641Y-62669119D01*
X81240643Y-62669124D01*
X81332684Y-62818345D01*
X81456656Y-62942317D01*
X81520906Y-62981946D01*
X81567631Y-63033893D01*
X81578854Y-63102856D01*
X81551011Y-63166938D01*
X81543492Y-63175166D01*
X81435585Y-63283073D01*
X81333768Y-63423211D01*
X81255128Y-63577552D01*
X81201597Y-63742302D01*
X81186216Y-63839414D01*
X81174500Y-63913389D01*
X81174500Y-64086611D01*
X81201598Y-64257701D01*
X81255127Y-64422445D01*
X81333768Y-64576788D01*
X81435586Y-64716928D01*
X81435588Y-64716930D01*
X81506477Y-64787819D01*
X81539962Y-64849142D01*
X81534978Y-64918834D01*
X81493106Y-64974767D01*
X81427642Y-64999184D01*
X81418796Y-64999500D01*
X79465782Y-64999500D01*
X79398743Y-64979815D01*
X79378101Y-64963181D01*
X76365550Y-61950630D01*
X82175000Y-61950630D01*
X82175000Y-62049370D01*
X82200556Y-62144745D01*
X82249925Y-62230255D01*
X82319745Y-62300075D01*
X82405255Y-62349444D01*
X82500630Y-62375000D01*
X82599370Y-62375000D01*
X82694745Y-62349444D01*
X82780255Y-62300075D01*
X82850075Y-62230255D01*
X82899444Y-62144745D01*
X82925000Y-62049370D01*
X82925000Y-61950630D01*
X82899444Y-61855255D01*
X82850075Y-61769745D01*
X82780255Y-61699925D01*
X82694745Y-61650556D01*
X82599370Y-61625000D01*
X82500630Y-61625000D01*
X82405255Y-61650556D01*
X82319745Y-61699925D01*
X82249925Y-61769745D01*
X82200556Y-61855255D01*
X82175000Y-61950630D01*
X76365550Y-61950630D01*
X75914920Y-61500000D01*
X81185219Y-61500000D01*
X82050000Y-61500000D01*
X83050000Y-61500000D01*
X83914780Y-61500000D01*
X83914505Y-61497305D01*
X83914504Y-61497298D01*
X83859358Y-61330880D01*
X83859356Y-61330875D01*
X83767315Y-61181654D01*
X83643345Y-61057684D01*
X83494124Y-60965643D01*
X83494119Y-60965641D01*
X83327697Y-60910494D01*
X83327690Y-60910493D01*
X83224986Y-60900000D01*
X83050000Y-60900000D01*
X83050000Y-61500000D01*
X82050000Y-61500000D01*
X82050000Y-60900000D01*
X81875029Y-60900000D01*
X81875012Y-60900001D01*
X81772302Y-60910494D01*
X81605880Y-60965641D01*
X81605875Y-60965643D01*
X81456654Y-61057684D01*
X81332684Y-61181654D01*
X81240643Y-61330875D01*
X81240641Y-61330880D01*
X81185495Y-61497298D01*
X81185494Y-61497305D01*
X81185219Y-61500000D01*
X75914920Y-61500000D01*
X73576819Y-59161899D01*
X73543334Y-59100576D01*
X73540500Y-59074218D01*
X73540500Y-57661184D01*
X74505920Y-57661184D01*
X74515700Y-57666477D01*
X74515709Y-57666481D01*
X74735139Y-57741811D01*
X74963993Y-57780000D01*
X75196007Y-57780000D01*
X75424860Y-57741811D01*
X75644301Y-57666476D01*
X75654077Y-57661185D01*
X75654078Y-57661184D01*
X75080001Y-57087106D01*
X75080000Y-57087106D01*
X74505920Y-57661184D01*
X73540500Y-57661184D01*
X73540500Y-57409377D01*
X73560185Y-57342338D01*
X73573264Y-57325401D01*
X73648979Y-57243153D01*
X73775924Y-57048849D01*
X73822718Y-56942167D01*
X73848591Y-56904300D01*
X74372893Y-56380000D01*
X74319389Y-56326496D01*
X74673600Y-56326496D01*
X74673600Y-56433504D01*
X74701295Y-56536865D01*
X74754799Y-56629536D01*
X74830464Y-56705201D01*
X74923135Y-56758705D01*
X75026496Y-56786400D01*
X75133504Y-56786400D01*
X75236865Y-56758705D01*
X75329536Y-56705201D01*
X75405201Y-56629536D01*
X75458705Y-56536865D01*
X75486400Y-56433504D01*
X75486400Y-56379999D01*
X75787106Y-56379999D01*
X75787106Y-56380000D01*
X76311406Y-56904300D01*
X76337280Y-56942170D01*
X76384073Y-57048845D01*
X76511016Y-57243147D01*
X76511019Y-57243151D01*
X76511021Y-57243153D01*
X76668216Y-57413913D01*
X76668219Y-57413915D01*
X76668222Y-57413918D01*
X76851365Y-57556464D01*
X76851371Y-57556468D01*
X76851374Y-57556470D01*
X77055497Y-57666936D01*
X77168867Y-57705856D01*
X77275015Y-57742297D01*
X77275017Y-57742297D01*
X77275019Y-57742298D01*
X77503951Y-57780500D01*
X77503952Y-57780500D01*
X77736048Y-57780500D01*
X77736049Y-57780500D01*
X77964981Y-57742298D01*
X78184503Y-57666936D01*
X78388626Y-57556470D01*
X78571784Y-57413913D01*
X78728979Y-57243153D01*
X78855924Y-57048849D01*
X78949157Y-56836300D01*
X79006134Y-56611305D01*
X79006135Y-56611297D01*
X79025300Y-56380006D01*
X79025300Y-56379993D01*
X79006135Y-56148702D01*
X79006133Y-56148691D01*
X78949157Y-55923699D01*
X78855924Y-55711151D01*
X78728983Y-55516852D01*
X78728980Y-55516849D01*
X78728979Y-55516847D01*
X78571784Y-55346087D01*
X78571779Y-55346083D01*
X78571777Y-55346081D01*
X78388634Y-55203535D01*
X78388628Y-55203531D01*
X78184504Y-55093064D01*
X78184495Y-55093061D01*
X77964984Y-55017702D01*
X77770177Y-54985195D01*
X77736049Y-54979500D01*
X77503951Y-54979500D01*
X77469823Y-54985195D01*
X77275015Y-55017702D01*
X77055504Y-55093061D01*
X77055495Y-55093064D01*
X76851371Y-55203531D01*
X76851365Y-55203535D01*
X76668222Y-55346081D01*
X76668219Y-55346084D01*
X76668216Y-55346086D01*
X76668216Y-55346087D01*
X76619501Y-55399006D01*
X76511016Y-55516852D01*
X76384073Y-55711154D01*
X76337281Y-55817828D01*
X76311407Y-55855698D01*
X75787106Y-56379999D01*
X75486400Y-56379999D01*
X75486400Y-56326496D01*
X75458705Y-56223135D01*
X75405201Y-56130464D01*
X75329536Y-56054799D01*
X75236865Y-56001295D01*
X75133504Y-55973600D01*
X75026496Y-55973600D01*
X74923135Y-56001295D01*
X74830464Y-56054799D01*
X74754799Y-56130464D01*
X74701295Y-56223135D01*
X74673600Y-56326496D01*
X74319389Y-56326496D01*
X73848591Y-55855698D01*
X73822717Y-55817828D01*
X73775924Y-55711151D01*
X73722706Y-55629695D01*
X73648979Y-55516846D01*
X73648977Y-55516844D01*
X73573270Y-55434603D01*
X73542348Y-55371948D01*
X73540500Y-55350621D01*
X73540500Y-55098814D01*
X74505920Y-55098814D01*
X75080000Y-55672893D01*
X75080001Y-55672893D01*
X75654078Y-55098814D01*
X75654078Y-55098813D01*
X75644307Y-55093526D01*
X75644296Y-55093521D01*
X75424860Y-55018188D01*
X75196007Y-54980000D01*
X74963993Y-54980000D01*
X74735139Y-55018188D01*
X74515699Y-55093522D01*
X74505921Y-55098813D01*
X74505920Y-55098814D01*
X73540500Y-55098814D01*
X73540500Y-54941456D01*
X73506494Y-54770501D01*
X73506494Y-54770500D01*
X73502051Y-54748164D01*
X73442012Y-54603218D01*
X73426632Y-54566086D01*
X73392985Y-54515729D01*
X73317139Y-54402217D01*
X73174686Y-54259764D01*
X73174655Y-54259735D01*
X72876596Y-53961676D01*
X72843111Y-53900353D01*
X72848095Y-53830661D01*
X72889967Y-53774728D01*
X72955431Y-53750311D01*
X72977535Y-53750706D01*
X73008160Y-53753999D01*
X73008172Y-53754000D01*
X73310000Y-53754000D01*
X74310000Y-53754000D01*
X74611828Y-53754000D01*
X74611844Y-53753999D01*
X74671372Y-53747598D01*
X74671379Y-53747596D01*
X74806086Y-53697354D01*
X74806093Y-53697350D01*
X74921187Y-53611190D01*
X74921190Y-53611187D01*
X75007350Y-53496093D01*
X75007354Y-53496086D01*
X75057596Y-53361379D01*
X75057598Y-53361372D01*
X75063999Y-53301844D01*
X75064000Y-53301827D01*
X75064000Y-53000000D01*
X74310000Y-53000000D01*
X74310000Y-53754000D01*
X73310000Y-53754000D01*
X73310000Y-52565826D01*
X73344075Y-52692993D01*
X73409901Y-52807007D01*
X73502993Y-52900099D01*
X73617007Y-52965925D01*
X73744174Y-53000000D01*
X73875826Y-53000000D01*
X73875833Y-52999998D01*
X78994390Y-52999998D01*
X78994390Y-53000000D01*
X79014804Y-53285433D01*
X79075628Y-53565037D01*
X79075630Y-53565043D01*
X79075631Y-53565046D01*
X79168492Y-53814015D01*
X79175635Y-53833166D01*
X79312770Y-54084309D01*
X79312775Y-54084317D01*
X79484254Y-54313387D01*
X79484270Y-54313405D01*
X79686594Y-54515729D01*
X79686612Y-54515745D01*
X79915682Y-54687224D01*
X79915690Y-54687229D01*
X80166833Y-54824364D01*
X80166832Y-54824364D01*
X80166836Y-54824365D01*
X80166839Y-54824367D01*
X80434954Y-54924369D01*
X80434960Y-54924370D01*
X80434962Y-54924371D01*
X80714566Y-54985195D01*
X80714568Y-54985195D01*
X80714572Y-54985196D01*
X80968220Y-55003337D01*
X80999999Y-55005610D01*
X81000000Y-55005610D01*
X81000001Y-55005610D01*
X81028595Y-55003564D01*
X81285428Y-54985196D01*
X81311613Y-54979500D01*
X81565037Y-54924371D01*
X81565037Y-54924370D01*
X81565046Y-54924369D01*
X81833161Y-54824367D01*
X82084315Y-54687226D01*
X82313395Y-54515739D01*
X82515739Y-54313395D01*
X82687226Y-54084315D01*
X82824367Y-53833161D01*
X82924369Y-53565046D01*
X82938520Y-53499994D01*
X83994556Y-53499994D01*
X83994556Y-53500005D01*
X84014310Y-53814004D01*
X84014311Y-53814011D01*
X84014312Y-53814015D01*
X84065874Y-54084315D01*
X84073270Y-54123083D01*
X84170497Y-54422316D01*
X84170499Y-54422321D01*
X84304461Y-54707003D01*
X84304464Y-54707009D01*
X84473051Y-54972661D01*
X84473054Y-54972665D01*
X84673606Y-55215090D01*
X84673608Y-55215092D01*
X84902968Y-55430476D01*
X84902978Y-55430484D01*
X85157504Y-55615408D01*
X85157509Y-55615410D01*
X85157516Y-55615416D01*
X85433234Y-55766994D01*
X85433239Y-55766996D01*
X85433241Y-55766997D01*
X85433242Y-55766998D01*
X85725771Y-55882818D01*
X85725774Y-55882819D01*
X86030523Y-55961065D01*
X86030527Y-55961066D01*
X86096010Y-55969338D01*
X86342670Y-56000499D01*
X86342679Y-56000499D01*
X86342682Y-56000500D01*
X86342684Y-56000500D01*
X86657316Y-56000500D01*
X86657318Y-56000500D01*
X86657321Y-56000499D01*
X86657329Y-56000499D01*
X86870255Y-55973600D01*
X86969473Y-55961066D01*
X87274225Y-55882819D01*
X87274228Y-55882818D01*
X87566757Y-55766998D01*
X87566758Y-55766997D01*
X87566756Y-55766997D01*
X87566766Y-55766994D01*
X87842484Y-55615416D01*
X88097030Y-55430478D01*
X88326390Y-55215094D01*
X88526947Y-54972663D01*
X88695537Y-54707007D01*
X88829503Y-54422315D01*
X88926731Y-54123079D01*
X88985688Y-53814015D01*
X88991090Y-53728153D01*
X89005444Y-53500005D01*
X89005444Y-53499994D01*
X88985689Y-53185995D01*
X88985688Y-53185988D01*
X88985688Y-53185985D01*
X88926731Y-52876921D01*
X88829503Y-52577685D01*
X88695537Y-52292993D01*
X88632075Y-52192993D01*
X88526948Y-52027338D01*
X88526945Y-52027334D01*
X88326393Y-51784909D01*
X88326391Y-51784907D01*
X88149177Y-51618491D01*
X88097030Y-51569522D01*
X88097027Y-51569520D01*
X88097021Y-51569515D01*
X87842495Y-51384591D01*
X87842488Y-51384586D01*
X87842484Y-51384584D01*
X87566766Y-51233006D01*
X87566763Y-51233004D01*
X87566758Y-51233002D01*
X87566757Y-51233001D01*
X87274228Y-51117181D01*
X87274225Y-51117180D01*
X86969476Y-51038934D01*
X86969463Y-51038932D01*
X86657329Y-50999500D01*
X86657318Y-50999500D01*
X86342682Y-50999500D01*
X86342670Y-50999500D01*
X86030536Y-51038932D01*
X86030523Y-51038934D01*
X85725774Y-51117180D01*
X85725771Y-51117181D01*
X85433242Y-51233001D01*
X85433241Y-51233002D01*
X85157516Y-51384584D01*
X85157504Y-51384591D01*
X84902978Y-51569515D01*
X84902968Y-51569523D01*
X84673608Y-51784907D01*
X84673606Y-51784909D01*
X84473054Y-52027334D01*
X84473051Y-52027338D01*
X84304464Y-52292990D01*
X84304461Y-52292996D01*
X84170499Y-52577678D01*
X84170497Y-52577683D01*
X84073270Y-52876916D01*
X84014311Y-53185988D01*
X84014310Y-53185995D01*
X83994556Y-53499994D01*
X82938520Y-53499994D01*
X82968674Y-53361379D01*
X82985195Y-53285433D01*
X82985195Y-53285432D01*
X82985196Y-53285428D01*
X83005610Y-53000000D01*
X82985196Y-52714572D01*
X82981747Y-52698719D01*
X82924371Y-52434962D01*
X82924370Y-52434960D01*
X82924369Y-52434954D01*
X82824367Y-52166839D01*
X82758593Y-52046384D01*
X82687229Y-51915690D01*
X82687224Y-51915682D01*
X82515745Y-51686612D01*
X82515729Y-51686594D01*
X82313405Y-51484270D01*
X82313387Y-51484254D01*
X82084317Y-51312775D01*
X82084309Y-51312770D01*
X81833166Y-51175635D01*
X81833167Y-51175635D01*
X81695996Y-51124473D01*
X81565046Y-51075631D01*
X81565043Y-51075630D01*
X81565037Y-51075628D01*
X81285433Y-51014804D01*
X81000001Y-50994390D01*
X80999999Y-50994390D01*
X80714566Y-51014804D01*
X80434962Y-51075628D01*
X80166833Y-51175635D01*
X79915690Y-51312770D01*
X79915682Y-51312775D01*
X79686612Y-51484254D01*
X79686594Y-51484270D01*
X79484270Y-51686594D01*
X79484254Y-51686612D01*
X79312775Y-51915682D01*
X79312770Y-51915690D01*
X79175635Y-52166833D01*
X79075628Y-52434962D01*
X79014804Y-52714566D01*
X78994390Y-52999998D01*
X73875833Y-52999998D01*
X74002993Y-52965925D01*
X74117007Y-52900099D01*
X74210099Y-52807007D01*
X74275925Y-52692993D01*
X74310000Y-52565826D01*
X74310000Y-52434174D01*
X74275925Y-52307007D01*
X74210099Y-52192993D01*
X74117007Y-52099901D01*
X74002993Y-52034075D01*
X73875826Y-52000000D01*
X74310000Y-52000000D01*
X75064000Y-52000000D01*
X75064000Y-51698172D01*
X75063999Y-51698155D01*
X75057598Y-51638627D01*
X75057596Y-51638620D01*
X75007354Y-51503913D01*
X75007350Y-51503906D01*
X74921190Y-51388812D01*
X74921187Y-51388809D01*
X74806093Y-51302649D01*
X74806086Y-51302645D01*
X74671379Y-51252403D01*
X74671372Y-51252401D01*
X74611844Y-51246000D01*
X74310000Y-51246000D01*
X74310000Y-52000000D01*
X73875826Y-52000000D01*
X73744174Y-52000000D01*
X73617007Y-52034075D01*
X73502993Y-52099901D01*
X73409901Y-52192993D01*
X73344075Y-52307007D01*
X73310000Y-52434174D01*
X73310000Y-51246000D01*
X73008155Y-51246000D01*
X72948627Y-51252401D01*
X72948620Y-51252403D01*
X72813913Y-51302645D01*
X72813906Y-51302649D01*
X72698812Y-51388809D01*
X72698809Y-51388812D01*
X72612649Y-51503906D01*
X72612645Y-51503913D01*
X72562403Y-51638620D01*
X72562401Y-51638627D01*
X72556000Y-51698155D01*
X72556000Y-51756166D01*
X72536315Y-51823205D01*
X72483511Y-51868960D01*
X72414353Y-51878904D01*
X72350797Y-51849879D01*
X72330425Y-51827289D01*
X72280624Y-51756166D01*
X72234674Y-51690543D01*
X72079457Y-51535326D01*
X72079455Y-51535325D01*
X72079452Y-51535322D01*
X71899650Y-51409423D01*
X71899642Y-51409419D01*
X71700708Y-51316655D01*
X71700706Y-51316654D01*
X71700703Y-51316653D01*
X71549885Y-51276240D01*
X71488675Y-51259839D01*
X71488668Y-51259838D01*
X71270002Y-51240708D01*
X71269998Y-51240708D01*
X71051331Y-51259838D01*
X71051324Y-51259839D01*
X70928902Y-51292642D01*
X70839297Y-51316653D01*
X70839295Y-51316653D01*
X70839291Y-51316655D01*
X70640357Y-51409419D01*
X70640349Y-51409423D01*
X70460547Y-51535322D01*
X70460541Y-51535327D01*
X70405879Y-51589990D01*
X70344556Y-51623475D01*
X70274864Y-51618491D01*
X70230517Y-51589990D01*
X69667135Y-51026608D01*
X69667115Y-51026586D01*
X69575670Y-50935141D01*
X69524446Y-50900915D01*
X69473224Y-50866689D01*
X69473223Y-50866688D01*
X69473220Y-50866686D01*
X69473217Y-50866685D01*
X69392729Y-50833347D01*
X69359390Y-50819537D01*
X69349364Y-50817543D01*
X69298966Y-50807518D01*
X69238547Y-50795500D01*
X69238544Y-50795500D01*
X69238543Y-50795500D01*
X65804669Y-50795500D01*
X65681456Y-50795500D01*
X65681451Y-50795500D01*
X65560618Y-50819535D01*
X65560610Y-50819537D01*
X65446779Y-50866687D01*
X65378606Y-50912240D01*
X65378605Y-50912241D01*
X65344326Y-50935144D01*
X65344325Y-50935145D01*
X63793722Y-52485750D01*
X63296269Y-52983203D01*
X63296267Y-52983205D01*
X63272866Y-53006606D01*
X63209144Y-53070327D01*
X63177227Y-53118093D01*
X63140688Y-53172777D01*
X63140685Y-53172782D01*
X63107380Y-53253191D01*
X63107379Y-53253193D01*
X63093539Y-53286602D01*
X63093538Y-53286607D01*
X63093537Y-53286610D01*
X63093537Y-53286611D01*
X63078666Y-53361379D01*
X63069500Y-53407459D01*
X63069500Y-54962302D01*
X63049815Y-55029341D01*
X62997011Y-55075096D01*
X62927853Y-55085040D01*
X62905237Y-55079583D01*
X62724984Y-55017702D01*
X62530177Y-54985195D01*
X62496049Y-54979500D01*
X62263951Y-54979500D01*
X62229823Y-54985195D01*
X62035015Y-55017702D01*
X61815504Y-55093061D01*
X61815495Y-55093064D01*
X61611371Y-55203531D01*
X61611365Y-55203535D01*
X61428222Y-55346081D01*
X61428219Y-55346084D01*
X61428216Y-55346086D01*
X61428216Y-55346087D01*
X61379501Y-55399006D01*
X61271016Y-55516852D01*
X61144075Y-55711151D01*
X61050842Y-55923699D01*
X60993866Y-56148691D01*
X60993864Y-56148702D01*
X60974700Y-56379993D01*
X60974700Y-56380006D01*
X60993864Y-56611297D01*
X60993866Y-56611309D01*
X61031175Y-56758637D01*
X61028550Y-56828457D01*
X60998650Y-56876758D01*
X59601270Y-58274139D01*
X59514144Y-58361264D01*
X59514138Y-58361272D01*
X59445690Y-58463708D01*
X59445688Y-58463713D01*
X59414939Y-58537950D01*
X59414939Y-58537952D01*
X59398537Y-58577546D01*
X59374500Y-58698396D01*
X59374500Y-71108607D01*
X59354815Y-71175646D01*
X59338181Y-71196288D01*
X58051322Y-72483147D01*
X56776270Y-73758199D01*
X56776267Y-73758202D01*
X56748152Y-73786317D01*
X56689142Y-73845326D01*
X56668031Y-73876922D01*
X56668030Y-73876923D01*
X56620690Y-73947769D01*
X56620688Y-73947773D01*
X56620687Y-73947776D01*
X56593624Y-74013113D01*
X56573538Y-74061604D01*
X56573535Y-74061616D01*
X56549500Y-74182449D01*
X56549500Y-85236611D01*
X56573535Y-85357444D01*
X56573540Y-85357461D01*
X56620685Y-85471280D01*
X56620687Y-85471283D01*
X56620688Y-85471286D01*
X56638362Y-85497737D01*
X56654914Y-85522507D01*
X56654915Y-85522509D01*
X56689141Y-85573733D01*
X56780586Y-85665178D01*
X56780608Y-85665198D01*
X57173787Y-86058377D01*
X57207272Y-86119700D01*
X57209326Y-86132173D01*
X57214630Y-86179249D01*
X57274210Y-86349521D01*
X57312583Y-86410591D01*
X57370184Y-86502262D01*
X57497738Y-86629816D01*
X57522333Y-86645270D01*
X57650479Y-86725790D01*
X57654429Y-86727692D01*
X57706291Y-86774512D01*
X57724606Y-86841938D01*
X57703561Y-86908563D01*
X57688313Y-86927095D01*
X53601270Y-91014139D01*
X53514144Y-91101264D01*
X53514140Y-91101269D01*
X53504908Y-91115086D01*
X53445689Y-91203712D01*
X53445685Y-91203719D01*
X53398540Y-91317538D01*
X53398537Y-91317546D01*
X53375272Y-91434517D01*
X53375268Y-91434536D01*
X53374500Y-91438393D01*
X53374500Y-136986054D01*
X53398535Y-137106887D01*
X53398540Y-137106904D01*
X53445685Y-137220724D01*
X53445687Y-137220727D01*
X53467884Y-137253946D01*
X53467885Y-137253948D01*
X53514141Y-137323175D01*
X53514144Y-137323179D01*
X53605586Y-137414621D01*
X53605608Y-137414641D01*
X59586573Y-143395606D01*
X59586602Y-143395637D01*
X59676821Y-143485856D01*
X59676824Y-143485858D01*
X59710490Y-143508353D01*
X59724252Y-143517548D01*
X59724254Y-143517550D01*
X59779266Y-143554309D01*
X59779268Y-143554310D01*
X59779271Y-143554312D01*
X59854002Y-143585266D01*
X59893105Y-143601463D01*
X59953528Y-143613481D01*
X60013950Y-143625500D01*
X60013951Y-143625500D01*
X62337898Y-143625500D01*
X62404937Y-143645185D01*
X62425579Y-143661819D01*
X65024613Y-146260855D01*
X65024617Y-146260858D01*
X65127060Y-146329309D01*
X65127061Y-146329309D01*
X65127065Y-146329312D01*
X65193746Y-146356931D01*
X65193748Y-146356933D01*
X65240893Y-146376461D01*
X65240898Y-146376463D01*
X65260947Y-146380451D01*
X65294546Y-146387134D01*
X65361742Y-146400501D01*
X65361744Y-146400501D01*
X65491071Y-146400501D01*
X65491091Y-146400500D01*
X67898115Y-146400500D01*
X67965154Y-146420185D01*
X68010909Y-146472989D01*
X68020853Y-146542147D01*
X67991828Y-146605703D01*
X67971000Y-146624819D01*
X67965010Y-146629170D01*
X67794169Y-146800011D01*
X67794164Y-146800017D01*
X67652152Y-146995480D01*
X67542460Y-147210759D01*
X67513464Y-147300000D01*
X69014192Y-147300000D01*
X68954042Y-147360150D01*
X68878530Y-147473162D01*
X68826516Y-147598734D01*
X68800000Y-147732041D01*
X68800000Y-147867959D01*
X68826516Y-148001266D01*
X68878530Y-148126838D01*
X68954042Y-148239850D01*
X69014192Y-148300000D01*
X67513464Y-148300000D01*
X67542460Y-148389240D01*
X67652152Y-148604519D01*
X67794164Y-148799982D01*
X67794169Y-148799988D01*
X67965011Y-148970830D01*
X67965017Y-148970835D01*
X68160480Y-149112847D01*
X68375761Y-149222539D01*
X68483569Y-149257569D01*
X68541245Y-149297007D01*
X68568443Y-149361365D01*
X68556528Y-149430212D01*
X68509284Y-149481687D01*
X68445251Y-149499500D01*
X53003751Y-149499500D01*
X52996264Y-149499274D01*
X52706205Y-149481728D01*
X52691340Y-149479923D01*
X52409201Y-149428219D01*
X52394663Y-149424635D01*
X52120832Y-149339306D01*
X52106831Y-149333997D01*
X51845263Y-149216275D01*
X51832004Y-149209316D01*
X51586540Y-149060928D01*
X51574217Y-149052422D01*
X51348426Y-148875526D01*
X51337218Y-148865596D01*
X51134403Y-148662781D01*
X51124473Y-148651573D01*
X51087609Y-148604519D01*
X50947573Y-148425776D01*
X50939075Y-148413465D01*
X50790680Y-148167989D01*
X50783727Y-148154743D01*
X50666000Y-147893163D01*
X50660693Y-147879167D01*
X50657200Y-147867959D01*
X50604190Y-147697844D01*
X55450000Y-147697844D01*
X55456401Y-147757372D01*
X55456403Y-147757379D01*
X55506645Y-147892086D01*
X55506649Y-147892093D01*
X55592809Y-148007187D01*
X55592812Y-148007190D01*
X55707906Y-148093350D01*
X55707913Y-148093354D01*
X55842620Y-148143596D01*
X55842627Y-148143598D01*
X55902155Y-148149999D01*
X55902172Y-148150000D01*
X56950000Y-148150000D01*
X57950000Y-148150000D01*
X58997828Y-148150000D01*
X58997844Y-148149999D01*
X59057372Y-148143598D01*
X59057379Y-148143596D01*
X59192086Y-148093354D01*
X59192093Y-148093350D01*
X59307187Y-148007190D01*
X59307190Y-148007187D01*
X59393350Y-147892093D01*
X59393354Y-147892086D01*
X59443596Y-147757379D01*
X59443598Y-147757372D01*
X59449999Y-147697844D01*
X59450000Y-147697827D01*
X59450000Y-147120802D01*
X59469685Y-147053763D01*
X59522489Y-147008008D01*
X59591647Y-146998064D01*
X59655203Y-147027089D01*
X59672375Y-147045315D01*
X59681081Y-147056661D01*
X59681089Y-147056670D01*
X59843330Y-147218911D01*
X59843338Y-147218918D01*
X60025382Y-147358607D01*
X60025385Y-147358608D01*
X60025388Y-147358611D01*
X60224112Y-147473344D01*
X60224117Y-147473346D01*
X60224123Y-147473349D01*
X60315480Y-147511190D01*
X60436113Y-147561158D01*
X60657762Y-147620548D01*
X60885266Y-147650500D01*
X60885273Y-147650500D01*
X61114727Y-147650500D01*
X61114734Y-147650500D01*
X61342238Y-147620548D01*
X61563887Y-147561158D01*
X61775888Y-147473344D01*
X61974612Y-147358611D01*
X62156661Y-147218919D01*
X62156665Y-147218914D01*
X62156670Y-147218911D01*
X62318911Y-147056670D01*
X62318914Y-147056665D01*
X62318919Y-147056661D01*
X62458611Y-146874612D01*
X62573344Y-146675888D01*
X62661158Y-146463887D01*
X62720548Y-146242238D01*
X62750500Y-146014734D01*
X62750500Y-145785266D01*
X62720548Y-145557762D01*
X62661158Y-145336113D01*
X62587634Y-145158611D01*
X62573349Y-145124123D01*
X62573346Y-145124117D01*
X62573344Y-145124112D01*
X62458611Y-144925388D01*
X62458608Y-144925385D01*
X62458607Y-144925382D01*
X62318918Y-144743338D01*
X62318911Y-144743330D01*
X62156670Y-144581089D01*
X62156661Y-144581081D01*
X61974617Y-144441392D01*
X61775890Y-144326657D01*
X61775876Y-144326650D01*
X61563887Y-144238842D01*
X61342238Y-144179452D01*
X61304215Y-144174446D01*
X61114741Y-144149500D01*
X61114734Y-144149500D01*
X60885266Y-144149500D01*
X60885258Y-144149500D01*
X60668715Y-144178009D01*
X60657762Y-144179452D01*
X60564076Y-144204554D01*
X60436112Y-144238842D01*
X60224123Y-144326650D01*
X60224109Y-144326657D01*
X60025382Y-144441392D01*
X59843338Y-144581081D01*
X59681082Y-144743337D01*
X59672373Y-144754687D01*
X59615944Y-144795888D01*
X59546197Y-144800040D01*
X59485278Y-144765825D01*
X59452528Y-144704107D01*
X59450000Y-144679197D01*
X59450000Y-144102172D01*
X59449999Y-144102155D01*
X59443598Y-144042627D01*
X59443596Y-144042620D01*
X59393354Y-143907913D01*
X59393350Y-143907906D01*
X59307190Y-143792812D01*
X59307187Y-143792809D01*
X59192093Y-143706649D01*
X59192086Y-143706645D01*
X59057379Y-143656403D01*
X59057372Y-143656401D01*
X58997844Y-143650000D01*
X57950000Y-143650000D01*
X57950000Y-148150000D01*
X56950000Y-148150000D01*
X56950000Y-146400000D01*
X55450000Y-146400000D01*
X55450000Y-147697844D01*
X50604190Y-147697844D01*
X50575363Y-147605335D01*
X50571780Y-147590798D01*
X50520076Y-147308659D01*
X50518271Y-147293794D01*
X50513741Y-147218911D01*
X50500726Y-147003736D01*
X50500500Y-146996249D01*
X50500500Y-144102155D01*
X55450000Y-144102155D01*
X55450000Y-145400000D01*
X56950000Y-145400000D01*
X56950000Y-143650000D01*
X55902155Y-143650000D01*
X55842627Y-143656401D01*
X55842620Y-143656403D01*
X55707913Y-143706645D01*
X55707906Y-143706649D01*
X55592812Y-143792809D01*
X55592809Y-143792812D01*
X55506649Y-143907906D01*
X55506645Y-143907913D01*
X55456403Y-144042620D01*
X55456401Y-144042627D01*
X55450000Y-144102155D01*
X50500500Y-144102155D01*
X50500500Y-74499994D01*
X50994556Y-74499994D01*
X50994556Y-74500005D01*
X51014310Y-74814004D01*
X51014311Y-74814011D01*
X51043790Y-74968547D01*
X51049790Y-75000000D01*
X51073270Y-75123083D01*
X51170497Y-75422316D01*
X51170499Y-75422321D01*
X51304461Y-75707003D01*
X51304464Y-75707009D01*
X51473051Y-75972661D01*
X51473054Y-75972665D01*
X51673606Y-76215090D01*
X51673608Y-76215092D01*
X51673610Y-76215094D01*
X51868056Y-76397691D01*
X51902968Y-76430476D01*
X51902978Y-76430484D01*
X52157504Y-76615408D01*
X52157509Y-76615410D01*
X52157516Y-76615416D01*
X52433234Y-76766994D01*
X52433239Y-76766996D01*
X52433241Y-76766997D01*
X52433242Y-76766998D01*
X52725771Y-76882818D01*
X52725774Y-76882819D01*
X52887609Y-76924371D01*
X53030527Y-76961066D01*
X53096010Y-76969338D01*
X53342670Y-77000499D01*
X53342679Y-77000499D01*
X53342682Y-77000500D01*
X53342684Y-77000500D01*
X53657316Y-77000500D01*
X53657318Y-77000500D01*
X53657321Y-77000499D01*
X53657329Y-77000499D01*
X53843593Y-76976968D01*
X53969473Y-76961066D01*
X54274225Y-76882819D01*
X54274228Y-76882818D01*
X54566757Y-76766998D01*
X54566758Y-76766997D01*
X54566756Y-76766997D01*
X54566766Y-76766994D01*
X54842484Y-76615416D01*
X55097030Y-76430478D01*
X55326390Y-76215094D01*
X55526947Y-75972663D01*
X55695537Y-75707007D01*
X55829503Y-75422315D01*
X55926731Y-75123079D01*
X55985688Y-74814015D01*
X55987551Y-74784409D01*
X56005444Y-74500005D01*
X56005444Y-74499994D01*
X55985689Y-74185995D01*
X55985688Y-74185988D01*
X55985688Y-74185985D01*
X55926731Y-73876921D01*
X55829503Y-73577685D01*
X55695537Y-73292993D01*
X55581355Y-73113070D01*
X55526948Y-73027338D01*
X55526945Y-73027334D01*
X55326393Y-72784909D01*
X55326391Y-72784907D01*
X55097031Y-72569523D01*
X55097021Y-72569515D01*
X54842495Y-72384591D01*
X54842488Y-72384586D01*
X54842484Y-72384584D01*
X54566766Y-72233006D01*
X54566763Y-72233004D01*
X54566758Y-72233002D01*
X54566757Y-72233001D01*
X54274228Y-72117181D01*
X54274225Y-72117180D01*
X53969476Y-72038934D01*
X53969463Y-72038932D01*
X53657329Y-71999500D01*
X53657318Y-71999500D01*
X53342682Y-71999500D01*
X53342670Y-71999500D01*
X53030536Y-72038932D01*
X53030523Y-72038934D01*
X52725774Y-72117180D01*
X52725771Y-72117181D01*
X52433242Y-72233001D01*
X52433241Y-72233002D01*
X52157516Y-72384584D01*
X52157504Y-72384591D01*
X51902978Y-72569515D01*
X51902968Y-72569523D01*
X51673608Y-72784907D01*
X51673606Y-72784909D01*
X51473054Y-73027334D01*
X51473051Y-73027338D01*
X51304464Y-73292990D01*
X51304461Y-73292996D01*
X51170499Y-73577678D01*
X51170497Y-73577683D01*
X51073270Y-73876916D01*
X51014311Y-74185988D01*
X51014310Y-74185995D01*
X50994556Y-74499994D01*
X50500500Y-74499994D01*
X50500500Y-65500000D01*
X56085219Y-65500000D01*
X56085494Y-65502694D01*
X56085495Y-65502701D01*
X56140641Y-65669119D01*
X56140643Y-65669124D01*
X56232684Y-65818345D01*
X56356654Y-65942315D01*
X56505875Y-66034356D01*
X56505880Y-66034358D01*
X56672302Y-66089505D01*
X56672309Y-66089506D01*
X56775019Y-66099999D01*
X56949999Y-66099999D01*
X57950000Y-66099999D01*
X58124972Y-66099999D01*
X58124986Y-66099998D01*
X58227697Y-66089505D01*
X58394119Y-66034358D01*
X58394124Y-66034356D01*
X58543345Y-65942315D01*
X58667315Y-65818345D01*
X58759356Y-65669124D01*
X58759358Y-65669119D01*
X58814504Y-65502701D01*
X58814505Y-65502694D01*
X58814781Y-65500000D01*
X57950000Y-65500000D01*
X57950000Y-66099999D01*
X56949999Y-66099999D01*
X56950000Y-66099998D01*
X56950000Y-65500000D01*
X56085219Y-65500000D01*
X50500500Y-65500000D01*
X50500500Y-64950630D01*
X57075000Y-64950630D01*
X57075000Y-65049370D01*
X57100556Y-65144745D01*
X57149925Y-65230255D01*
X57219745Y-65300075D01*
X57305255Y-65349444D01*
X57400630Y-65375000D01*
X57499370Y-65375000D01*
X57594745Y-65349444D01*
X57680255Y-65300075D01*
X57750075Y-65230255D01*
X57799444Y-65144745D01*
X57825000Y-65049370D01*
X57825000Y-64950630D01*
X57799444Y-64855255D01*
X57750075Y-64769745D01*
X57680255Y-64699925D01*
X57594745Y-64650556D01*
X57499370Y-64625000D01*
X57400630Y-64625000D01*
X57305255Y-64650556D01*
X57219745Y-64699925D01*
X57149925Y-64769745D01*
X57100556Y-64855255D01*
X57075000Y-64950630D01*
X50500500Y-64950630D01*
X50500500Y-62913389D01*
X56074500Y-62913389D01*
X56074500Y-63086610D01*
X56087222Y-63166938D01*
X56101598Y-63257701D01*
X56155127Y-63422445D01*
X56233768Y-63576788D01*
X56335586Y-63716928D01*
X56335588Y-63716930D01*
X56443491Y-63824833D01*
X56476976Y-63886156D01*
X56471992Y-63955848D01*
X56430120Y-64011781D01*
X56420907Y-64018053D01*
X56356654Y-64057684D01*
X56232684Y-64181654D01*
X56140643Y-64330875D01*
X56140641Y-64330880D01*
X56085495Y-64497298D01*
X56085494Y-64497305D01*
X56085219Y-64500000D01*
X58814780Y-64500000D01*
X58814505Y-64497305D01*
X58814504Y-64497298D01*
X58759358Y-64330880D01*
X58759356Y-64330875D01*
X58667315Y-64181654D01*
X58543343Y-64057682D01*
X58479093Y-64018053D01*
X58432368Y-63966105D01*
X58421145Y-63897143D01*
X58448988Y-63833061D01*
X58456486Y-63824855D01*
X58564414Y-63716928D01*
X58666232Y-63576788D01*
X58744873Y-63422445D01*
X58798402Y-63257701D01*
X58825500Y-63086611D01*
X58825500Y-62913389D01*
X58798402Y-62742299D01*
X58744873Y-62577555D01*
X58666232Y-62423212D01*
X58564414Y-62283072D01*
X58441928Y-62160586D01*
X58301788Y-62058768D01*
X58147445Y-61980127D01*
X57982701Y-61926598D01*
X57982699Y-61926597D01*
X57982698Y-61926597D01*
X57851271Y-61905781D01*
X57811611Y-61899500D01*
X57088389Y-61899500D01*
X57048728Y-61905781D01*
X56917302Y-61926597D01*
X56752552Y-61980128D01*
X56598211Y-62058768D01*
X56518256Y-62116859D01*
X56458072Y-62160586D01*
X56458070Y-62160588D01*
X56458069Y-62160588D01*
X56335588Y-62283069D01*
X56335588Y-62283070D01*
X56335586Y-62283072D01*
X56323233Y-62300075D01*
X56233768Y-62423211D01*
X56155128Y-62577552D01*
X56101597Y-62742302D01*
X56074500Y-62913389D01*
X50500500Y-62913389D01*
X50500500Y-53499994D01*
X50994556Y-53499994D01*
X50994556Y-53500005D01*
X51014310Y-53814004D01*
X51014311Y-53814011D01*
X51014312Y-53814015D01*
X51065874Y-54084315D01*
X51073270Y-54123083D01*
X51170497Y-54422316D01*
X51170499Y-54422321D01*
X51304461Y-54707003D01*
X51304464Y-54707009D01*
X51473051Y-54972661D01*
X51473054Y-54972665D01*
X51673606Y-55215090D01*
X51673608Y-55215092D01*
X51902968Y-55430476D01*
X51902978Y-55430484D01*
X52157504Y-55615408D01*
X52157509Y-55615410D01*
X52157516Y-55615416D01*
X52433234Y-55766994D01*
X52433239Y-55766996D01*
X52433241Y-55766997D01*
X52433242Y-55766998D01*
X52725771Y-55882818D01*
X52725774Y-55882819D01*
X53030523Y-55961065D01*
X53030527Y-55961066D01*
X53096010Y-55969338D01*
X53342670Y-56000499D01*
X53342679Y-56000499D01*
X53342682Y-56000500D01*
X53342684Y-56000500D01*
X53657316Y-56000500D01*
X53657318Y-56000500D01*
X53657321Y-56000499D01*
X53657329Y-56000499D01*
X53870255Y-55973600D01*
X53969473Y-55961066D01*
X54274225Y-55882819D01*
X54274228Y-55882818D01*
X54566757Y-55766998D01*
X54566758Y-55766997D01*
X54566756Y-55766997D01*
X54566766Y-55766994D01*
X54842484Y-55615416D01*
X55097030Y-55430478D01*
X55326390Y-55215094D01*
X55526947Y-54972663D01*
X55695537Y-54707007D01*
X55829503Y-54422315D01*
X55926731Y-54123079D01*
X55985688Y-53814015D01*
X55991090Y-53728153D01*
X56005444Y-53500005D01*
X56005444Y-53499994D01*
X55985689Y-53185995D01*
X55985688Y-53185988D01*
X55985688Y-53185985D01*
X55950209Y-52999998D01*
X56994390Y-52999998D01*
X56994390Y-53000000D01*
X57014804Y-53285433D01*
X57075628Y-53565037D01*
X57075630Y-53565043D01*
X57075631Y-53565046D01*
X57168492Y-53814015D01*
X57175635Y-53833166D01*
X57312770Y-54084309D01*
X57312775Y-54084317D01*
X57484254Y-54313387D01*
X57484270Y-54313405D01*
X57686594Y-54515729D01*
X57686612Y-54515745D01*
X57915682Y-54687224D01*
X57915690Y-54687229D01*
X58166833Y-54824364D01*
X58166832Y-54824364D01*
X58166836Y-54824365D01*
X58166839Y-54824367D01*
X58434954Y-54924369D01*
X58434960Y-54924370D01*
X58434962Y-54924371D01*
X58714566Y-54985195D01*
X58714568Y-54985195D01*
X58714572Y-54985196D01*
X58968220Y-55003337D01*
X58999999Y-55005610D01*
X59000000Y-55005610D01*
X59000001Y-55005610D01*
X59028595Y-55003564D01*
X59285428Y-54985196D01*
X59311613Y-54979500D01*
X59565037Y-54924371D01*
X59565037Y-54924370D01*
X59565046Y-54924369D01*
X59833161Y-54824367D01*
X60084315Y-54687226D01*
X60313395Y-54515739D01*
X60515739Y-54313395D01*
X60687226Y-54084315D01*
X60824367Y-53833161D01*
X60924369Y-53565046D01*
X60968674Y-53361379D01*
X60985195Y-53285433D01*
X60985195Y-53285432D01*
X60985196Y-53285428D01*
X61005610Y-53000000D01*
X60985196Y-52714572D01*
X60981747Y-52698719D01*
X60924371Y-52434962D01*
X60924370Y-52434960D01*
X60924369Y-52434954D01*
X60824367Y-52166839D01*
X60758593Y-52046384D01*
X60687229Y-51915690D01*
X60687224Y-51915682D01*
X60515745Y-51686612D01*
X60515729Y-51686594D01*
X60313405Y-51484270D01*
X60313387Y-51484254D01*
X60084317Y-51312775D01*
X60084309Y-51312770D01*
X59833166Y-51175635D01*
X59833167Y-51175635D01*
X59695996Y-51124473D01*
X59565046Y-51075631D01*
X59565043Y-51075630D01*
X59565037Y-51075628D01*
X59285433Y-51014804D01*
X59000001Y-50994390D01*
X58999999Y-50994390D01*
X58714566Y-51014804D01*
X58434962Y-51075628D01*
X58166833Y-51175635D01*
X57915690Y-51312770D01*
X57915682Y-51312775D01*
X57686612Y-51484254D01*
X57686594Y-51484270D01*
X57484270Y-51686594D01*
X57484254Y-51686612D01*
X57312775Y-51915682D01*
X57312770Y-51915690D01*
X57175635Y-52166833D01*
X57075628Y-52434962D01*
X57014804Y-52714566D01*
X56994390Y-52999998D01*
X55950209Y-52999998D01*
X55926731Y-52876921D01*
X55829503Y-52577685D01*
X55695537Y-52292993D01*
X55632075Y-52192993D01*
X55526948Y-52027338D01*
X55526945Y-52027334D01*
X55326393Y-51784909D01*
X55326391Y-51784907D01*
X55149177Y-51618491D01*
X55097030Y-51569522D01*
X55097027Y-51569520D01*
X55097021Y-51569515D01*
X54842495Y-51384591D01*
X54842488Y-51384586D01*
X54842484Y-51384584D01*
X54566766Y-51233006D01*
X54566763Y-51233004D01*
X54566758Y-51233002D01*
X54566757Y-51233001D01*
X54274228Y-51117181D01*
X54274225Y-51117180D01*
X53969476Y-51038934D01*
X53969463Y-51038932D01*
X53657329Y-50999500D01*
X53657318Y-50999500D01*
X53342682Y-50999500D01*
X53342670Y-50999500D01*
X53030536Y-51038932D01*
X53030523Y-51038934D01*
X52725774Y-51117180D01*
X52725771Y-51117181D01*
X52433242Y-51233001D01*
X52433241Y-51233002D01*
X52157516Y-51384584D01*
X52157504Y-51384591D01*
X51902978Y-51569515D01*
X51902968Y-51569523D01*
X51673608Y-51784907D01*
X51673606Y-51784909D01*
X51473054Y-52027334D01*
X51473051Y-52027338D01*
X51304464Y-52292990D01*
X51304461Y-52292996D01*
X51170499Y-52577678D01*
X51170497Y-52577683D01*
X51073270Y-52876916D01*
X51014311Y-53185988D01*
X51014310Y-53185995D01*
X50994556Y-53499994D01*
X50500500Y-53499994D01*
X50500500Y-53003750D01*
X50500726Y-52996263D01*
X50518271Y-52706205D01*
X50520076Y-52691340D01*
X50540666Y-52578988D01*
X50571780Y-52409197D01*
X50575364Y-52394663D01*
X50607047Y-52292990D01*
X50660696Y-52120822D01*
X50665998Y-52106841D01*
X50783731Y-51845249D01*
X50790676Y-51832016D01*
X50939080Y-51586526D01*
X50947567Y-51574230D01*
X51124480Y-51348417D01*
X51134395Y-51337226D01*
X51337226Y-51134395D01*
X51348417Y-51124480D01*
X51574230Y-50947567D01*
X51586526Y-50939080D01*
X51832016Y-50790676D01*
X51845249Y-50783731D01*
X52106841Y-50665998D01*
X52120822Y-50660696D01*
X52394668Y-50575362D01*
X52409197Y-50571780D01*
X52691344Y-50520075D01*
X52706201Y-50518271D01*
X52996264Y-50500726D01*
X53003751Y-50500500D01*
X53065892Y-50500500D01*
X86934108Y-50500500D01*
X86996249Y-50500500D01*
X87003736Y-50500726D01*
G37*
%TD.AperFunction*%
%TA.AperFunction,Conductor*%
G36*
X82878166Y-142145185D02*
G01*
X82923921Y-142197989D01*
X82933865Y-142267147D01*
X82904840Y-142330703D01*
X82886621Y-142347869D01*
X82849613Y-142376267D01*
X82843329Y-142381089D01*
X82681089Y-142543330D01*
X82681081Y-142543338D01*
X82541392Y-142725382D01*
X82426657Y-142924109D01*
X82426650Y-142924123D01*
X82338842Y-143136112D01*
X82279453Y-143357759D01*
X82279451Y-143357770D01*
X82249500Y-143585258D01*
X82249500Y-143814741D01*
X82261767Y-143907913D01*
X82279452Y-144042238D01*
X82316218Y-144179451D01*
X82338842Y-144263887D01*
X82426650Y-144475876D01*
X82426657Y-144475890D01*
X82541392Y-144674617D01*
X82681081Y-144856661D01*
X82681089Y-144856670D01*
X82843330Y-145018911D01*
X82843338Y-145018918D01*
X82843339Y-145018919D01*
X82893962Y-145057764D01*
X83025382Y-145158607D01*
X83025385Y-145158608D01*
X83025388Y-145158611D01*
X83224112Y-145273344D01*
X83224117Y-145273346D01*
X83224123Y-145273349D01*
X83315480Y-145311190D01*
X83436113Y-145361158D01*
X83657762Y-145420548D01*
X83885266Y-145450500D01*
X83885273Y-145450500D01*
X84114727Y-145450500D01*
X84114734Y-145450500D01*
X84342238Y-145420548D01*
X84563887Y-145361158D01*
X84775888Y-145273344D01*
X84974612Y-145158611D01*
X85150016Y-145024017D01*
X85215182Y-144998824D01*
X85283627Y-145012862D01*
X85333617Y-145061675D01*
X85349500Y-145122394D01*
X85349500Y-145497869D01*
X85349501Y-145497876D01*
X85355908Y-145557483D01*
X85406202Y-145692328D01*
X85406206Y-145692335D01*
X85492452Y-145807544D01*
X85492455Y-145807547D01*
X85607664Y-145893793D01*
X85607671Y-145893797D01*
X85742517Y-145944091D01*
X85742516Y-145944091D01*
X85749444Y-145944835D01*
X85802127Y-145950500D01*
X88897872Y-145950499D01*
X88957483Y-145944091D01*
X89092331Y-145893796D01*
X89207546Y-145807546D01*
X89276234Y-145715789D01*
X89332167Y-145673920D01*
X89401859Y-145668936D01*
X89463182Y-145702421D01*
X89496666Y-145763745D01*
X89499500Y-145790102D01*
X89499500Y-146996249D01*
X89499274Y-147003736D01*
X89481728Y-147293794D01*
X89479923Y-147308659D01*
X89428219Y-147590798D01*
X89424635Y-147605336D01*
X89339306Y-147879167D01*
X89333997Y-147893168D01*
X89216275Y-148154736D01*
X89209316Y-148167995D01*
X89060928Y-148413459D01*
X89052422Y-148425782D01*
X88875526Y-148651573D01*
X88865596Y-148662781D01*
X88662781Y-148865596D01*
X88651573Y-148875526D01*
X88425782Y-149052422D01*
X88413459Y-149060928D01*
X88167995Y-149209316D01*
X88154736Y-149216275D01*
X87893168Y-149333997D01*
X87879167Y-149339306D01*
X87605336Y-149424635D01*
X87590798Y-149428219D01*
X87308659Y-149479923D01*
X87293794Y-149481728D01*
X87003736Y-149499274D01*
X86996249Y-149499500D01*
X71554749Y-149499500D01*
X71487710Y-149479815D01*
X71441955Y-149427011D01*
X71432011Y-149357853D01*
X71461036Y-149294297D01*
X71516431Y-149257569D01*
X71624238Y-149222539D01*
X71839519Y-149112847D01*
X72034982Y-148970835D01*
X72034988Y-148970830D01*
X72205830Y-148799988D01*
X72205835Y-148799982D01*
X72347847Y-148604519D01*
X72457539Y-148389240D01*
X72486536Y-148300000D01*
X70985808Y-148300000D01*
X71045958Y-148239850D01*
X71121470Y-148126838D01*
X71173484Y-148001266D01*
X71200000Y-147867959D01*
X71200000Y-147732041D01*
X71193198Y-147697844D01*
X73450000Y-147697844D01*
X73456401Y-147757372D01*
X73456403Y-147757379D01*
X73506645Y-147892086D01*
X73506649Y-147892093D01*
X73592809Y-148007187D01*
X73592812Y-148007190D01*
X73707906Y-148093350D01*
X73707913Y-148093354D01*
X73842620Y-148143596D01*
X73842627Y-148143598D01*
X73902155Y-148149999D01*
X73902172Y-148150000D01*
X74950000Y-148150000D01*
X75950000Y-148150000D01*
X76997828Y-148150000D01*
X76997844Y-148149999D01*
X77057372Y-148143598D01*
X77057379Y-148143596D01*
X77192086Y-148093354D01*
X77192093Y-148093350D01*
X77307187Y-148007190D01*
X77307190Y-148007187D01*
X77393350Y-147892093D01*
X77393354Y-147892086D01*
X77443596Y-147757379D01*
X77443598Y-147757372D01*
X77449999Y-147697844D01*
X77450000Y-147697827D01*
X77450000Y-147120802D01*
X77469685Y-147053763D01*
X77522489Y-147008008D01*
X77591647Y-146998064D01*
X77655203Y-147027089D01*
X77672375Y-147045315D01*
X77681081Y-147056661D01*
X77681089Y-147056670D01*
X77843330Y-147218911D01*
X77843338Y-147218918D01*
X78025382Y-147358607D01*
X78025385Y-147358608D01*
X78025388Y-147358611D01*
X78224112Y-147473344D01*
X78224117Y-147473346D01*
X78224123Y-147473349D01*
X78315480Y-147511190D01*
X78436113Y-147561158D01*
X78657762Y-147620548D01*
X78885266Y-147650500D01*
X78885273Y-147650500D01*
X79114727Y-147650500D01*
X79114734Y-147650500D01*
X79342238Y-147620548D01*
X79563887Y-147561158D01*
X79775888Y-147473344D01*
X79974612Y-147358611D01*
X80156661Y-147218919D01*
X80156665Y-147218914D01*
X80156670Y-147218911D01*
X80318911Y-147056670D01*
X80318914Y-147056665D01*
X80318919Y-147056661D01*
X80458611Y-146874612D01*
X80573344Y-146675888D01*
X80661158Y-146463887D01*
X80720548Y-146242238D01*
X80750500Y-146014734D01*
X80750500Y-145785266D01*
X80720548Y-145557762D01*
X80661158Y-145336113D01*
X80587634Y-145158611D01*
X80573349Y-145124123D01*
X80573346Y-145124117D01*
X80573344Y-145124112D01*
X80458611Y-144925388D01*
X80458608Y-144925385D01*
X80458607Y-144925382D01*
X80318918Y-144743338D01*
X80318911Y-144743330D01*
X80156670Y-144581089D01*
X80156661Y-144581081D01*
X79974617Y-144441392D01*
X79775890Y-144326657D01*
X79775876Y-144326650D01*
X79563887Y-144238842D01*
X79342238Y-144179452D01*
X79304215Y-144174446D01*
X79114741Y-144149500D01*
X79114734Y-144149500D01*
X78885266Y-144149500D01*
X78885258Y-144149500D01*
X78668715Y-144178009D01*
X78657762Y-144179452D01*
X78564076Y-144204554D01*
X78436112Y-144238842D01*
X78224123Y-144326650D01*
X78224109Y-144326657D01*
X78025382Y-144441392D01*
X77843338Y-144581081D01*
X77681082Y-144743337D01*
X77672373Y-144754687D01*
X77615944Y-144795888D01*
X77546197Y-144800040D01*
X77485278Y-144765825D01*
X77452528Y-144704107D01*
X77450000Y-144679197D01*
X77450000Y-144102172D01*
X77449999Y-144102155D01*
X77443598Y-144042627D01*
X77443596Y-144042620D01*
X77393354Y-143907913D01*
X77393350Y-143907906D01*
X77307190Y-143792812D01*
X77307187Y-143792809D01*
X77192093Y-143706649D01*
X77192086Y-143706645D01*
X77057379Y-143656403D01*
X77057372Y-143656401D01*
X76997844Y-143650000D01*
X75950000Y-143650000D01*
X75950000Y-148150000D01*
X74950000Y-148150000D01*
X74950000Y-146400000D01*
X73450000Y-146400000D01*
X73450000Y-147697844D01*
X71193198Y-147697844D01*
X71173484Y-147598734D01*
X71121470Y-147473162D01*
X71045958Y-147360150D01*
X70985808Y-147300000D01*
X72486535Y-147300000D01*
X72457539Y-147210759D01*
X72347847Y-146995480D01*
X72205835Y-146800017D01*
X72205830Y-146800011D01*
X72034988Y-146629169D01*
X72034982Y-146629164D01*
X71839519Y-146487152D01*
X71665605Y-146398537D01*
X71614809Y-146350562D01*
X71598014Y-146282741D01*
X71620552Y-146216606D01*
X71634214Y-146200376D01*
X71660858Y-146173733D01*
X71660858Y-146173731D01*
X71671062Y-146163528D01*
X71671065Y-146163523D01*
X73238321Y-144596268D01*
X73299642Y-144562785D01*
X73369334Y-144567769D01*
X73425267Y-144609641D01*
X73449684Y-144675105D01*
X73450000Y-144683951D01*
X73450000Y-145400000D01*
X74950000Y-145400000D01*
X74950000Y-143650000D01*
X74483953Y-143650000D01*
X74416914Y-143630315D01*
X74371159Y-143577511D01*
X74361215Y-143508353D01*
X74390240Y-143444797D01*
X74396272Y-143438319D01*
X74397772Y-143436819D01*
X74459095Y-143403334D01*
X74485453Y-143400500D01*
X80211050Y-143400500D01*
X80271472Y-143388481D01*
X80331895Y-143376463D01*
X80377043Y-143357762D01*
X80445729Y-143329312D01*
X80496952Y-143295084D01*
X80548176Y-143260858D01*
X80635301Y-143173733D01*
X80635302Y-143173731D01*
X80642368Y-143166665D01*
X80642370Y-143166661D01*
X81647214Y-142161819D01*
X81708537Y-142128334D01*
X81734895Y-142125500D01*
X82811127Y-142125500D01*
X82878166Y-142145185D01*
G37*
%TD.AperFunction*%
%TA.AperFunction,Conductor*%
G36*
X81630703Y-92795160D02*
G01*
X81647869Y-92813378D01*
X81681081Y-92856661D01*
X81681085Y-92856665D01*
X81681089Y-92856670D01*
X81843330Y-93018911D01*
X81843338Y-93018918D01*
X81843339Y-93018919D01*
X81893962Y-93057764D01*
X82025382Y-93158607D01*
X82025385Y-93158608D01*
X82025388Y-93158611D01*
X82224112Y-93273344D01*
X82224117Y-93273346D01*
X82224123Y-93273349D01*
X82315480Y-93311190D01*
X82436113Y-93361158D01*
X82657762Y-93420548D01*
X82885266Y-93450500D01*
X82885273Y-93450500D01*
X83114727Y-93450500D01*
X83114734Y-93450500D01*
X83342238Y-93420548D01*
X83563887Y-93361158D01*
X83775888Y-93273344D01*
X83974612Y-93158611D01*
X84150016Y-93024017D01*
X84215182Y-92998824D01*
X84283627Y-93012862D01*
X84333617Y-93061675D01*
X84349500Y-93122394D01*
X84349500Y-93497869D01*
X84349501Y-93497876D01*
X84355908Y-93557483D01*
X84406202Y-93692328D01*
X84406206Y-93692335D01*
X84492452Y-93807544D01*
X84492455Y-93807547D01*
X84607664Y-93893793D01*
X84607671Y-93893797D01*
X84742517Y-93944091D01*
X84742516Y-93944091D01*
X84749444Y-93944835D01*
X84802127Y-93950500D01*
X87425500Y-93950499D01*
X87492539Y-93970184D01*
X87538294Y-94022987D01*
X87549500Y-94074499D01*
X87549500Y-105325500D01*
X87529815Y-105392539D01*
X87477011Y-105438294D01*
X87425500Y-105449500D01*
X84802129Y-105449500D01*
X84802123Y-105449501D01*
X84742516Y-105455908D01*
X84607671Y-105506202D01*
X84607664Y-105506206D01*
X84492455Y-105592452D01*
X84492452Y-105592455D01*
X84406206Y-105707664D01*
X84406202Y-105707671D01*
X84355908Y-105842517D01*
X84349501Y-105902116D01*
X84349500Y-105902135D01*
X84349500Y-106277604D01*
X84329815Y-106344643D01*
X84277011Y-106390398D01*
X84207853Y-106400342D01*
X84150013Y-106375980D01*
X83974612Y-106241389D01*
X83775890Y-106126657D01*
X83775876Y-106126650D01*
X83563887Y-106038842D01*
X83342238Y-105979452D01*
X83304215Y-105974446D01*
X83114741Y-105949500D01*
X83114734Y-105949500D01*
X82885266Y-105949500D01*
X82885258Y-105949500D01*
X82668715Y-105978009D01*
X82657762Y-105979452D01*
X82564076Y-106004554D01*
X82436112Y-106038842D01*
X82224123Y-106126650D01*
X82224109Y-106126657D01*
X82025382Y-106241392D01*
X81843338Y-106381081D01*
X81681081Y-106543338D01*
X81541392Y-106725382D01*
X81426657Y-106924109D01*
X81426650Y-106924123D01*
X81338842Y-107136112D01*
X81279453Y-107357759D01*
X81279451Y-107357770D01*
X81249500Y-107585258D01*
X81249500Y-107814741D01*
X81261767Y-107907913D01*
X81279452Y-108042238D01*
X81316218Y-108179451D01*
X81338842Y-108263887D01*
X81426650Y-108475876D01*
X81426657Y-108475890D01*
X81541392Y-108674617D01*
X81681081Y-108856661D01*
X81681089Y-108856670D01*
X81843330Y-109018911D01*
X81843338Y-109018918D01*
X81843339Y-109018919D01*
X81893962Y-109057764D01*
X82025382Y-109158607D01*
X82025385Y-109158608D01*
X82025388Y-109158611D01*
X82224112Y-109273344D01*
X82224117Y-109273346D01*
X82224123Y-109273349D01*
X82315480Y-109311190D01*
X82436113Y-109361158D01*
X82657762Y-109420548D01*
X82885266Y-109450500D01*
X82885273Y-109450500D01*
X83114727Y-109450500D01*
X83114734Y-109450500D01*
X83342238Y-109420548D01*
X83563887Y-109361158D01*
X83775888Y-109273344D01*
X83974612Y-109158611D01*
X84150016Y-109024017D01*
X84215182Y-108998824D01*
X84283627Y-109012862D01*
X84333617Y-109061675D01*
X84349500Y-109122394D01*
X84349500Y-109497869D01*
X84349501Y-109497876D01*
X84355908Y-109557483D01*
X84406202Y-109692328D01*
X84406206Y-109692335D01*
X84492452Y-109807544D01*
X84492455Y-109807547D01*
X84607664Y-109893793D01*
X84607671Y-109893797D01*
X84742517Y-109944091D01*
X84742516Y-109944091D01*
X84749444Y-109944835D01*
X84802127Y-109950500D01*
X87875500Y-109950499D01*
X87942539Y-109970184D01*
X87988294Y-110022988D01*
X87999500Y-110074499D01*
X87999500Y-123325500D01*
X87979815Y-123392539D01*
X87927011Y-123438294D01*
X87875500Y-123449500D01*
X85802129Y-123449500D01*
X85802123Y-123449501D01*
X85742516Y-123455908D01*
X85607671Y-123506202D01*
X85607664Y-123506206D01*
X85492455Y-123592452D01*
X85492452Y-123592455D01*
X85406206Y-123707664D01*
X85406202Y-123707671D01*
X85355908Y-123842517D01*
X85349501Y-123902116D01*
X85349500Y-123902135D01*
X85349500Y-124277604D01*
X85329815Y-124344643D01*
X85277011Y-124390398D01*
X85207853Y-124400342D01*
X85150013Y-124375980D01*
X84974612Y-124241389D01*
X84775890Y-124126657D01*
X84775876Y-124126650D01*
X84563887Y-124038842D01*
X84342238Y-123979452D01*
X84304215Y-123974446D01*
X84114741Y-123949500D01*
X84114734Y-123949500D01*
X83885266Y-123949500D01*
X83885258Y-123949500D01*
X83668715Y-123978009D01*
X83657762Y-123979452D01*
X83564076Y-124004554D01*
X83436112Y-124038842D01*
X83224123Y-124126650D01*
X83224109Y-124126657D01*
X83025382Y-124241392D01*
X82843338Y-124381081D01*
X82681081Y-124543338D01*
X82541392Y-124725382D01*
X82426657Y-124924109D01*
X82426650Y-124924123D01*
X82338842Y-125136112D01*
X82338842Y-125136113D01*
X82284442Y-125339141D01*
X82279453Y-125357759D01*
X82279451Y-125357770D01*
X82249500Y-125585258D01*
X82249500Y-125814741D01*
X82261767Y-125907913D01*
X82279452Y-126042238D01*
X82325275Y-126213254D01*
X82338842Y-126263887D01*
X82426650Y-126475876D01*
X82426653Y-126475881D01*
X82426656Y-126475888D01*
X82519967Y-126637508D01*
X82541392Y-126674617D01*
X82681081Y-126856661D01*
X82681089Y-126856670D01*
X82843330Y-127018911D01*
X82843338Y-127018918D01*
X82843339Y-127018919D01*
X82893962Y-127057764D01*
X83025382Y-127158607D01*
X83025385Y-127158608D01*
X83025388Y-127158611D01*
X83224112Y-127273344D01*
X83224117Y-127273346D01*
X83224123Y-127273349D01*
X83315480Y-127311190D01*
X83436113Y-127361158D01*
X83657762Y-127420548D01*
X83885266Y-127450500D01*
X83885273Y-127450500D01*
X84114727Y-127450500D01*
X84114734Y-127450500D01*
X84342238Y-127420548D01*
X84563887Y-127361158D01*
X84775888Y-127273344D01*
X84974612Y-127158611D01*
X85150016Y-127024017D01*
X85215182Y-126998824D01*
X85283627Y-127012862D01*
X85333617Y-127061675D01*
X85349500Y-127122394D01*
X85349500Y-127497869D01*
X85349501Y-127497876D01*
X85355908Y-127557483D01*
X85406202Y-127692328D01*
X85406206Y-127692335D01*
X85492452Y-127807544D01*
X85492455Y-127807547D01*
X85607664Y-127893793D01*
X85607671Y-127893797D01*
X85742517Y-127944091D01*
X85742516Y-127944091D01*
X85749444Y-127944835D01*
X85802127Y-127950500D01*
X88897872Y-127950499D01*
X88957483Y-127944091D01*
X89092331Y-127893796D01*
X89207546Y-127807546D01*
X89276234Y-127715789D01*
X89332167Y-127673920D01*
X89401859Y-127668936D01*
X89463182Y-127702421D01*
X89496666Y-127763745D01*
X89499500Y-127790102D01*
X89499500Y-141609897D01*
X89479815Y-141676936D01*
X89427011Y-141722691D01*
X89357853Y-141732635D01*
X89294297Y-141703610D01*
X89276234Y-141684208D01*
X89207547Y-141592455D01*
X89207544Y-141592452D01*
X89092335Y-141506206D01*
X89092328Y-141506202D01*
X88957482Y-141455908D01*
X88957483Y-141455908D01*
X88897883Y-141449501D01*
X88897881Y-141449500D01*
X88897873Y-141449500D01*
X88897865Y-141449500D01*
X86035452Y-141449500D01*
X85968413Y-141429815D01*
X85947771Y-141413181D01*
X85640198Y-141105608D01*
X85640178Y-141105586D01*
X85548733Y-141014141D01*
X85497509Y-140979915D01*
X85446287Y-140945689D01*
X85446286Y-140945688D01*
X85446283Y-140945686D01*
X85446280Y-140945685D01*
X85365792Y-140912347D01*
X85332453Y-140898537D01*
X85322427Y-140896543D01*
X85272029Y-140886518D01*
X85211610Y-140874500D01*
X85211607Y-140874500D01*
X85211606Y-140874500D01*
X81674554Y-140874500D01*
X81607515Y-140854815D01*
X81561760Y-140802011D01*
X81551816Y-140732853D01*
X81553663Y-140722907D01*
X81617168Y-140444675D01*
X81650500Y-140148849D01*
X81650500Y-139851151D01*
X81617168Y-139555325D01*
X81550924Y-139265091D01*
X81452601Y-138984099D01*
X81323435Y-138715883D01*
X81165050Y-138463815D01*
X80979438Y-138231066D01*
X80768934Y-138020562D01*
X80536185Y-137834950D01*
X80284117Y-137676565D01*
X80284114Y-137676563D01*
X80015904Y-137547400D01*
X79734920Y-137449079D01*
X79734912Y-137449076D01*
X79517233Y-137399393D01*
X79444675Y-137382832D01*
X79444671Y-137382831D01*
X79444662Y-137382830D01*
X79148853Y-137349500D01*
X79148849Y-137349500D01*
X78851151Y-137349500D01*
X78851146Y-137349500D01*
X78555337Y-137382830D01*
X78555325Y-137382832D01*
X78265087Y-137449076D01*
X78265079Y-137449079D01*
X77984095Y-137547400D01*
X77715885Y-137676563D01*
X77463816Y-137834949D01*
X77231066Y-138020561D01*
X77020561Y-138231066D01*
X76834949Y-138463816D01*
X76676563Y-138715885D01*
X76547400Y-138984095D01*
X76449079Y-139265079D01*
X76449076Y-139265087D01*
X76382832Y-139555325D01*
X76382830Y-139555337D01*
X76349500Y-139851146D01*
X76349500Y-140148853D01*
X76382830Y-140444662D01*
X76382831Y-140444671D01*
X76382832Y-140444675D01*
X76394941Y-140497726D01*
X76449076Y-140734912D01*
X76449079Y-140734920D01*
X76547400Y-141015904D01*
X76676563Y-141284114D01*
X76676565Y-141284117D01*
X76834950Y-141536185D01*
X76879824Y-141592455D01*
X77020561Y-141768933D01*
X77189447Y-141937819D01*
X77222932Y-141999142D01*
X77217948Y-142068834D01*
X77176076Y-142124767D01*
X77110612Y-142149184D01*
X77101766Y-142149500D01*
X74242741Y-142149500D01*
X74242721Y-142149499D01*
X74236607Y-142149499D01*
X74113394Y-142149499D01*
X74012597Y-142169548D01*
X74012592Y-142169548D01*
X73992548Y-142173536D01*
X73946649Y-142192549D01*
X73946648Y-142192549D01*
X73878721Y-142220684D01*
X73878708Y-142220691D01*
X73776267Y-142289141D01*
X73776263Y-142289144D01*
X71562180Y-144503228D01*
X71500857Y-144536713D01*
X71431165Y-144531729D01*
X71375232Y-144489857D01*
X71350815Y-144424393D01*
X71350499Y-144415547D01*
X71350499Y-142635453D01*
X71370184Y-142568414D01*
X71386818Y-142547772D01*
X72460855Y-141473736D01*
X72460855Y-141473735D01*
X72460858Y-141473733D01*
X72529312Y-141371285D01*
X72576463Y-141257451D01*
X72600501Y-141136606D01*
X72600501Y-141013393D01*
X72600501Y-141008283D01*
X72600500Y-141008257D01*
X72600500Y-134450000D01*
X72994659Y-134450000D01*
X73013975Y-134646129D01*
X73013976Y-134646132D01*
X73069836Y-134830278D01*
X73071188Y-134834733D01*
X73164086Y-135008532D01*
X73164090Y-135008539D01*
X73289116Y-135160883D01*
X73328251Y-135193000D01*
X73412901Y-135262471D01*
X73452235Y-135320215D01*
X73454106Y-135390060D01*
X73421918Y-135446003D01*
X73370184Y-135497737D01*
X73274211Y-135650476D01*
X73214631Y-135820745D01*
X73214630Y-135820750D01*
X73194435Y-135999996D01*
X73194435Y-136000003D01*
X73214630Y-136179249D01*
X73214631Y-136179254D01*
X73274211Y-136349523D01*
X73337562Y-136450344D01*
X73370184Y-136502262D01*
X73497738Y-136629816D01*
X73650478Y-136725789D01*
X73748379Y-136760046D01*
X73820745Y-136785368D01*
X73820750Y-136785369D01*
X73999996Y-136805565D01*
X74000000Y-136805565D01*
X74000004Y-136805565D01*
X74179249Y-136785369D01*
X74179252Y-136785368D01*
X74179255Y-136785368D01*
X74349522Y-136725789D01*
X74502262Y-136629816D01*
X74531734Y-136600344D01*
X75050000Y-136600344D01*
X75056401Y-136659872D01*
X75056403Y-136659879D01*
X75106645Y-136794586D01*
X75106649Y-136794593D01*
X75192809Y-136909687D01*
X75192812Y-136909690D01*
X75307906Y-136995850D01*
X75307913Y-136995854D01*
X75442620Y-137046096D01*
X75442627Y-137046098D01*
X75502155Y-137052499D01*
X75502172Y-137052500D01*
X76050000Y-137052500D01*
X76050000Y-136542500D01*
X75050000Y-136542500D01*
X75050000Y-136600344D01*
X74531734Y-136600344D01*
X74629816Y-136502262D01*
X74725789Y-136349522D01*
X74785368Y-136179255D01*
X74790672Y-136132173D01*
X74817737Y-136067763D01*
X74826201Y-136058387D01*
X75305770Y-135578819D01*
X75367093Y-135545334D01*
X75393451Y-135542500D01*
X76426000Y-135542500D01*
X76493039Y-135562185D01*
X76538794Y-135614989D01*
X76550000Y-135666500D01*
X76550000Y-136042500D01*
X76926000Y-136042500D01*
X76993039Y-136062185D01*
X77038794Y-136114989D01*
X77050000Y-136166500D01*
X77050000Y-137052500D01*
X77526322Y-137052500D01*
X77588321Y-137069112D01*
X77595413Y-137073207D01*
X77697273Y-137100500D01*
X77697275Y-137100500D01*
X81002725Y-137100500D01*
X81002727Y-137100500D01*
X81104587Y-137073207D01*
X81110810Y-137069614D01*
X81172814Y-137052999D01*
X83197871Y-137052999D01*
X83197872Y-137052999D01*
X83257483Y-137046591D01*
X83392331Y-136996296D01*
X83507546Y-136910046D01*
X83593796Y-136794831D01*
X83644091Y-136659983D01*
X83650500Y-136600373D01*
X83650499Y-135484628D01*
X83649912Y-135479170D01*
X83662314Y-135410412D01*
X83709921Y-135359272D01*
X83750423Y-135345992D01*
X83750065Y-135344189D01*
X83774999Y-135339228D01*
X83852688Y-135323775D01*
X83949336Y-135304551D01*
X84020637Y-135275017D01*
X84131414Y-135229132D01*
X84295282Y-135119639D01*
X84434639Y-134980282D01*
X84434641Y-134980278D01*
X84777139Y-134637781D01*
X84886631Y-134473914D01*
X84962051Y-134291836D01*
X85000500Y-134098540D01*
X85000500Y-133901460D01*
X85000500Y-133901457D01*
X85000499Y-133901455D01*
X84978835Y-133792545D01*
X84962051Y-133708164D01*
X84886631Y-133526086D01*
X84886629Y-133526083D01*
X84886627Y-133526079D01*
X84777139Y-133362219D01*
X84777136Y-133362215D01*
X84637784Y-133222863D01*
X84637780Y-133222860D01*
X84473920Y-133113372D01*
X84473910Y-133113367D01*
X84291836Y-133037949D01*
X84291828Y-133037947D01*
X84098543Y-132999500D01*
X84098540Y-132999500D01*
X83901460Y-132999500D01*
X83901457Y-132999500D01*
X83708171Y-133037947D01*
X83708163Y-133037949D01*
X83526089Y-133113367D01*
X83526079Y-133113372D01*
X83362222Y-133222858D01*
X83362217Y-133222862D01*
X83289370Y-133295708D01*
X83228047Y-133329193D01*
X83201194Y-133331369D01*
X83201194Y-133332000D01*
X81140345Y-133332000D01*
X81108252Y-133327775D01*
X81097716Y-133324952D01*
X81002727Y-133299500D01*
X77802727Y-133299500D01*
X77697273Y-133299500D01*
X77595413Y-133326793D01*
X77595411Y-133326793D01*
X77591750Y-133327775D01*
X77559657Y-133332000D01*
X75502129Y-133332000D01*
X75502123Y-133332001D01*
X75442516Y-133338408D01*
X75307671Y-133388702D01*
X75307664Y-133388706D01*
X75192455Y-133474952D01*
X75192452Y-133474955D01*
X75106206Y-133590164D01*
X75106202Y-133590171D01*
X75055908Y-133725017D01*
X75049501Y-133784616D01*
X75049500Y-133784635D01*
X75049500Y-133805165D01*
X75029815Y-133872204D01*
X74977011Y-133917959D01*
X74907853Y-133927903D01*
X74844297Y-133898878D01*
X74829647Y-133883830D01*
X74710883Y-133739116D01*
X74558539Y-133614090D01*
X74558532Y-133614086D01*
X74384733Y-133521188D01*
X74384727Y-133521186D01*
X74232325Y-133474955D01*
X74196129Y-133463975D01*
X74000000Y-133444659D01*
X73803870Y-133463975D01*
X73615266Y-133521188D01*
X73441467Y-133614086D01*
X73441460Y-133614090D01*
X73289116Y-133739116D01*
X73164090Y-133891460D01*
X73164086Y-133891467D01*
X73071188Y-134065266D01*
X73013975Y-134253870D01*
X72994659Y-134450000D01*
X72600500Y-134450000D01*
X72600500Y-133913393D01*
X72600499Y-133913389D01*
X72596137Y-133891460D01*
X72576463Y-133792548D01*
X72529311Y-133678714D01*
X72529310Y-133678713D01*
X72529307Y-133678707D01*
X72460859Y-133576268D01*
X72450897Y-133566306D01*
X72373733Y-133489142D01*
X72373732Y-133489141D01*
X69826210Y-130941620D01*
X69792726Y-130880298D01*
X69790673Y-130867838D01*
X69785368Y-130820745D01*
X69785367Y-130820742D01*
X69785367Y-130820740D01*
X69754979Y-130733899D01*
X69751416Y-130664120D01*
X69786145Y-130603492D01*
X69824567Y-130578382D01*
X69882682Y-130554312D01*
X69933905Y-130520084D01*
X69985129Y-130485858D01*
X70072254Y-130398733D01*
X70072254Y-130398731D01*
X70082462Y-130388524D01*
X70082463Y-130388521D01*
X70773140Y-129697844D01*
X73450000Y-129697844D01*
X73456401Y-129757372D01*
X73456403Y-129757379D01*
X73506645Y-129892086D01*
X73506649Y-129892093D01*
X73592809Y-130007187D01*
X73592812Y-130007190D01*
X73707906Y-130093350D01*
X73707913Y-130093354D01*
X73842620Y-130143596D01*
X73842627Y-130143598D01*
X73902155Y-130149999D01*
X73902172Y-130150000D01*
X74950000Y-130150000D01*
X74950000Y-128400000D01*
X73450000Y-128400000D01*
X73450000Y-129697844D01*
X70773140Y-129697844D01*
X73238322Y-127232664D01*
X73299642Y-127199181D01*
X73369334Y-127204165D01*
X73425267Y-127246037D01*
X73449684Y-127311501D01*
X73450000Y-127320347D01*
X73450000Y-127400000D01*
X75326000Y-127400000D01*
X75393039Y-127419685D01*
X75438794Y-127472489D01*
X75450000Y-127524000D01*
X75450000Y-127900000D01*
X75826000Y-127900000D01*
X75893039Y-127919685D01*
X75938794Y-127972489D01*
X75950000Y-128024000D01*
X75950000Y-130150000D01*
X76997828Y-130150000D01*
X76997844Y-130149999D01*
X77057372Y-130143598D01*
X77057379Y-130143596D01*
X77192086Y-130093354D01*
X77192093Y-130093350D01*
X77307187Y-130007190D01*
X77307190Y-130007187D01*
X77393350Y-129892093D01*
X77393354Y-129892086D01*
X77443596Y-129757379D01*
X77443598Y-129757372D01*
X77449999Y-129697844D01*
X77450000Y-129697827D01*
X77450000Y-129120802D01*
X77469685Y-129053763D01*
X77522489Y-129008008D01*
X77591647Y-128998064D01*
X77655203Y-129027089D01*
X77672375Y-129045315D01*
X77681081Y-129056661D01*
X77681089Y-129056670D01*
X77843330Y-129218911D01*
X77843338Y-129218918D01*
X78025382Y-129358607D01*
X78025385Y-129358608D01*
X78025388Y-129358611D01*
X78224112Y-129473344D01*
X78224117Y-129473346D01*
X78224123Y-129473349D01*
X78315480Y-129511190D01*
X78436113Y-129561158D01*
X78657762Y-129620548D01*
X78885266Y-129650500D01*
X78885273Y-129650500D01*
X79114727Y-129650500D01*
X79114734Y-129650500D01*
X79342238Y-129620548D01*
X79563887Y-129561158D01*
X79775888Y-129473344D01*
X79974612Y-129358611D01*
X80156661Y-129218919D01*
X80156665Y-129218914D01*
X80156670Y-129218911D01*
X80318911Y-129056670D01*
X80318914Y-129056665D01*
X80318919Y-129056661D01*
X80458611Y-128874612D01*
X80573344Y-128675888D01*
X80661158Y-128463887D01*
X80720548Y-128242238D01*
X80750500Y-128014734D01*
X80750500Y-127785266D01*
X80720548Y-127557762D01*
X80661158Y-127336113D01*
X80587634Y-127158611D01*
X80573349Y-127124123D01*
X80573346Y-127124117D01*
X80573344Y-127124112D01*
X80458611Y-126925388D01*
X80458608Y-126925385D01*
X80458607Y-126925382D01*
X80318918Y-126743338D01*
X80318911Y-126743330D01*
X80156670Y-126581089D01*
X80156661Y-126581081D01*
X79974617Y-126441392D01*
X79775897Y-126326661D01*
X79775891Y-126326658D01*
X79775892Y-126326658D01*
X79775888Y-126326656D01*
X79739792Y-126311704D01*
X79685391Y-126267864D01*
X79663327Y-126201570D01*
X79680607Y-126133870D01*
X79699563Y-126109468D01*
X82173729Y-123635303D01*
X82173733Y-123635301D01*
X82260858Y-123548176D01*
X82295084Y-123496952D01*
X82329312Y-123445729D01*
X82376463Y-123331894D01*
X82400500Y-123211050D01*
X82400500Y-123087836D01*
X82400500Y-119399504D01*
X82402883Y-119375313D01*
X82425499Y-119261610D01*
X82425500Y-119261607D01*
X82425500Y-118901999D01*
X82445185Y-118834960D01*
X82497989Y-118789205D01*
X82549500Y-118777999D01*
X82847871Y-118777999D01*
X82847872Y-118777999D01*
X82907483Y-118771591D01*
X83042331Y-118721296D01*
X83157546Y-118635046D01*
X83243796Y-118519831D01*
X83294091Y-118384983D01*
X83300500Y-118325373D01*
X83300499Y-117209628D01*
X83300498Y-117209618D01*
X83300029Y-117205251D01*
X83312437Y-117136492D01*
X83360049Y-117085356D01*
X83423319Y-117068000D01*
X84031042Y-117068000D01*
X84052034Y-117063824D01*
X84127688Y-117048775D01*
X84224336Y-117029551D01*
X84277665Y-117007461D01*
X84406414Y-116954132D01*
X84570282Y-116844639D01*
X84709639Y-116705282D01*
X84743388Y-116671531D01*
X84777139Y-116637782D01*
X84886631Y-116473915D01*
X84962051Y-116291836D01*
X85000500Y-116098541D01*
X85000500Y-115901460D01*
X85000500Y-115901457D01*
X85000499Y-115901455D01*
X84998511Y-115891460D01*
X84962051Y-115708165D01*
X84886631Y-115526086D01*
X84886630Y-115526085D01*
X84886627Y-115526079D01*
X84777139Y-115362219D01*
X84777136Y-115362215D01*
X84637784Y-115222863D01*
X84637780Y-115222860D01*
X84473920Y-115113372D01*
X84473911Y-115113367D01*
X84291835Y-115037949D01*
X84291827Y-115037947D01*
X84098543Y-114999500D01*
X84098540Y-114999500D01*
X83901459Y-114999500D01*
X83901456Y-114999500D01*
X83708171Y-115037947D01*
X83708163Y-115037949D01*
X83660817Y-115057561D01*
X83613364Y-115067000D01*
X82937132Y-115067000D01*
X82908620Y-115063678D01*
X82907484Y-115063409D01*
X82907483Y-115063409D01*
X82907481Y-115063408D01*
X82907478Y-115063408D01*
X82847883Y-115057001D01*
X82847881Y-115057000D01*
X82847873Y-115057000D01*
X82847865Y-115057000D01*
X80790345Y-115057000D01*
X80758252Y-115052775D01*
X80749968Y-115050555D01*
X80652727Y-115024500D01*
X77452727Y-115024500D01*
X77347273Y-115024500D01*
X77245413Y-115051793D01*
X77245411Y-115051793D01*
X77241750Y-115052775D01*
X77209657Y-115057000D01*
X76095745Y-115057000D01*
X76028706Y-115037315D01*
X76026852Y-115036101D01*
X76003785Y-115020687D01*
X75963539Y-115004017D01*
X75923292Y-114987347D01*
X75889953Y-114973537D01*
X75879927Y-114971543D01*
X75829529Y-114961518D01*
X75769110Y-114949500D01*
X75769107Y-114949500D01*
X75769106Y-114949500D01*
X73699170Y-114949500D01*
X73575956Y-114949500D01*
X73575952Y-114949500D01*
X73515534Y-114961518D01*
X73477822Y-114969019D01*
X73455113Y-114973536D01*
X73455111Y-114973537D01*
X73421770Y-114987347D01*
X73341281Y-115020685D01*
X73341272Y-115020690D01*
X73294726Y-115051793D01*
X73294725Y-115051794D01*
X73238831Y-115089140D01*
X73215657Y-115112315D01*
X73151705Y-115176267D01*
X70689141Y-117638830D01*
X70680599Y-117651615D01*
X70674965Y-117660048D01*
X70653223Y-117692584D01*
X70620687Y-117741277D01*
X70620685Y-117741281D01*
X70601672Y-117787185D01*
X70587347Y-117821770D01*
X70581823Y-117835106D01*
X70573537Y-117855108D01*
X70573535Y-117855116D01*
X70549500Y-117975952D01*
X70549500Y-123325500D01*
X70529815Y-123392539D01*
X70477011Y-123438294D01*
X70425500Y-123449500D01*
X70099500Y-123449500D01*
X70032461Y-123429815D01*
X69986706Y-123377011D01*
X69975500Y-123325500D01*
X69975500Y-111697844D01*
X72450000Y-111697844D01*
X72456401Y-111757372D01*
X72456403Y-111757379D01*
X72506645Y-111892086D01*
X72506649Y-111892093D01*
X72592809Y-112007187D01*
X72592812Y-112007190D01*
X72707906Y-112093350D01*
X72707913Y-112093354D01*
X72842620Y-112143596D01*
X72842627Y-112143598D01*
X72902155Y-112149999D01*
X72902172Y-112150000D01*
X73950000Y-112150000D01*
X74950000Y-112150000D01*
X75997828Y-112150000D01*
X75997844Y-112149999D01*
X76057372Y-112143598D01*
X76057379Y-112143596D01*
X76192086Y-112093354D01*
X76192093Y-112093350D01*
X76307187Y-112007190D01*
X76307190Y-112007187D01*
X76393350Y-111892093D01*
X76393354Y-111892086D01*
X76443596Y-111757379D01*
X76443598Y-111757372D01*
X76449999Y-111697844D01*
X76450000Y-111697827D01*
X76450000Y-111120802D01*
X76469685Y-111053763D01*
X76522489Y-111008008D01*
X76591647Y-110998064D01*
X76655203Y-111027089D01*
X76672375Y-111045315D01*
X76681081Y-111056661D01*
X76681089Y-111056670D01*
X76843330Y-111218911D01*
X76843338Y-111218918D01*
X77025382Y-111358607D01*
X77025385Y-111358608D01*
X77025388Y-111358611D01*
X77224112Y-111473344D01*
X77224117Y-111473346D01*
X77224123Y-111473349D01*
X77315480Y-111511190D01*
X77436113Y-111561158D01*
X77657762Y-111620548D01*
X77885266Y-111650500D01*
X77885273Y-111650500D01*
X78114727Y-111650500D01*
X78114734Y-111650500D01*
X78342238Y-111620548D01*
X78563887Y-111561158D01*
X78775888Y-111473344D01*
X78974612Y-111358611D01*
X79156661Y-111218919D01*
X79156665Y-111218914D01*
X79156670Y-111218911D01*
X79318911Y-111056670D01*
X79318914Y-111056665D01*
X79318919Y-111056661D01*
X79458611Y-110874612D01*
X79573344Y-110675888D01*
X79661158Y-110463887D01*
X79720548Y-110242238D01*
X79750500Y-110014734D01*
X79750500Y-109785266D01*
X79720548Y-109557762D01*
X79661158Y-109336113D01*
X79587634Y-109158611D01*
X79573349Y-109124123D01*
X79573346Y-109124117D01*
X79573344Y-109124112D01*
X79458611Y-108925388D01*
X79458608Y-108925385D01*
X79458607Y-108925382D01*
X79318918Y-108743338D01*
X79318911Y-108743330D01*
X79156670Y-108581089D01*
X79156661Y-108581081D01*
X78974617Y-108441392D01*
X78775890Y-108326657D01*
X78775876Y-108326650D01*
X78563887Y-108238842D01*
X78342238Y-108179452D01*
X78304215Y-108174446D01*
X78114741Y-108149500D01*
X78114734Y-108149500D01*
X77885266Y-108149500D01*
X77885258Y-108149500D01*
X77668715Y-108178009D01*
X77657762Y-108179452D01*
X77564076Y-108204554D01*
X77436112Y-108238842D01*
X77224123Y-108326650D01*
X77224109Y-108326657D01*
X77025382Y-108441392D01*
X76843338Y-108581081D01*
X76681082Y-108743337D01*
X76672373Y-108754687D01*
X76615944Y-108795888D01*
X76546197Y-108800040D01*
X76485278Y-108765825D01*
X76452528Y-108704107D01*
X76450000Y-108679197D01*
X76450000Y-108102172D01*
X76449999Y-108102155D01*
X76443598Y-108042627D01*
X76443596Y-108042620D01*
X76393354Y-107907913D01*
X76393350Y-107907906D01*
X76307190Y-107792812D01*
X76307187Y-107792809D01*
X76192093Y-107706649D01*
X76192086Y-107706645D01*
X76057379Y-107656403D01*
X76057372Y-107656401D01*
X75997844Y-107650000D01*
X74950000Y-107650000D01*
X74950000Y-112150000D01*
X73950000Y-112150000D01*
X73950000Y-110400000D01*
X72450000Y-110400000D01*
X72450000Y-111697844D01*
X69975500Y-111697844D01*
X69975500Y-108102155D01*
X72450000Y-108102155D01*
X72450000Y-109400000D01*
X73950000Y-109400000D01*
X73950000Y-107650000D01*
X72902155Y-107650000D01*
X72842627Y-107656401D01*
X72842620Y-107656403D01*
X72707913Y-107706645D01*
X72707906Y-107706649D01*
X72592812Y-107792809D01*
X72592809Y-107792812D01*
X72506649Y-107907906D01*
X72506645Y-107907913D01*
X72456403Y-108042620D01*
X72456401Y-108042627D01*
X72450000Y-108102155D01*
X69975500Y-108102155D01*
X69975500Y-103960452D01*
X69995185Y-103893413D01*
X70011818Y-103872772D01*
X70058377Y-103826212D01*
X70119700Y-103792726D01*
X70132159Y-103790674D01*
X70179255Y-103785368D01*
X70349522Y-103725789D01*
X70502262Y-103629816D01*
X70629816Y-103502262D01*
X70725789Y-103349522D01*
X70785368Y-103179255D01*
X70793102Y-103110617D01*
X70820168Y-103046203D01*
X70877763Y-103006648D01*
X70916322Y-103000500D01*
X71686608Y-103000500D01*
X71686608Y-103000499D01*
X71769062Y-102984099D01*
X71769063Y-102984099D01*
X71782094Y-102981506D01*
X71807452Y-102976463D01*
X71840792Y-102962652D01*
X71921286Y-102929312D01*
X71972509Y-102895084D01*
X72023733Y-102860858D01*
X72110858Y-102773733D01*
X72110859Y-102773731D01*
X72117925Y-102766665D01*
X72117927Y-102766661D01*
X73022771Y-101861819D01*
X73084094Y-101828334D01*
X73110452Y-101825500D01*
X76126766Y-101825500D01*
X76193805Y-101845185D01*
X76239560Y-101897989D01*
X76249504Y-101967147D01*
X76220479Y-102030703D01*
X76214447Y-102037181D01*
X76020561Y-102231066D01*
X75834949Y-102463816D01*
X75676563Y-102715885D01*
X75547400Y-102984095D01*
X75449079Y-103265079D01*
X75449076Y-103265087D01*
X75382832Y-103555325D01*
X75382830Y-103555337D01*
X75349500Y-103851146D01*
X75349500Y-104148853D01*
X75382830Y-104444662D01*
X75382832Y-104444674D01*
X75449076Y-104734912D01*
X75449079Y-104734920D01*
X75547400Y-105015904D01*
X75676563Y-105284114D01*
X75676565Y-105284117D01*
X75834950Y-105536185D01*
X76020562Y-105768934D01*
X76231066Y-105979438D01*
X76463815Y-106165050D01*
X76715883Y-106323435D01*
X76984099Y-106452601D01*
X77195135Y-106526445D01*
X77265079Y-106550920D01*
X77265087Y-106550923D01*
X77265090Y-106550923D01*
X77265091Y-106550924D01*
X77555325Y-106617168D01*
X77851147Y-106650499D01*
X77851148Y-106650500D01*
X77851151Y-106650500D01*
X78148852Y-106650500D01*
X78148852Y-106650499D01*
X78444675Y-106617168D01*
X78734909Y-106550924D01*
X79015901Y-106452601D01*
X79284117Y-106323435D01*
X79536185Y-106165050D01*
X79768934Y-105979438D01*
X79979438Y-105768934D01*
X80165050Y-105536185D01*
X80323435Y-105284117D01*
X80452601Y-105015901D01*
X80550924Y-104734909D01*
X80617168Y-104444675D01*
X80650500Y-104148849D01*
X80650500Y-103851151D01*
X80617168Y-103555325D01*
X80550924Y-103265091D01*
X80452601Y-102984099D01*
X80323435Y-102715883D01*
X80165050Y-102463815D01*
X79979438Y-102231066D01*
X79785553Y-102037181D01*
X79752068Y-101975858D01*
X79757052Y-101906166D01*
X79798924Y-101850233D01*
X79864388Y-101825816D01*
X79873234Y-101825500D01*
X80189107Y-101825500D01*
X80249529Y-101813481D01*
X80309952Y-101801463D01*
X80349055Y-101785266D01*
X80423786Y-101754312D01*
X80475009Y-101720084D01*
X80526233Y-101685858D01*
X80613358Y-101598733D01*
X80613359Y-101598730D01*
X81285858Y-100926233D01*
X81348083Y-100833108D01*
X81401695Y-100788303D01*
X81451185Y-100777999D01*
X81847871Y-100777999D01*
X81847872Y-100777999D01*
X81907483Y-100771591D01*
X82042331Y-100721296D01*
X82157546Y-100635046D01*
X82243796Y-100519831D01*
X82294091Y-100384983D01*
X82300500Y-100325373D01*
X82300499Y-99209628D01*
X82300498Y-99209618D01*
X82300029Y-99205251D01*
X82312437Y-99136492D01*
X82360049Y-99085356D01*
X82423319Y-99068000D01*
X83031042Y-99068000D01*
X83050370Y-99064155D01*
X83127688Y-99048775D01*
X83224336Y-99029551D01*
X83277665Y-99007461D01*
X83406414Y-98954132D01*
X83570282Y-98844639D01*
X83709639Y-98705282D01*
X83743388Y-98671531D01*
X83777139Y-98637782D01*
X83886631Y-98473915D01*
X83962051Y-98291836D01*
X84000500Y-98098541D01*
X84000500Y-97901460D01*
X84000500Y-97901457D01*
X84000499Y-97901455D01*
X83962051Y-97708165D01*
X83886631Y-97526086D01*
X83886630Y-97526085D01*
X83886627Y-97526079D01*
X83777139Y-97362219D01*
X83777136Y-97362215D01*
X83637784Y-97222863D01*
X83637780Y-97222860D01*
X83473920Y-97113372D01*
X83473911Y-97113367D01*
X83291835Y-97037949D01*
X83291827Y-97037947D01*
X83098543Y-96999500D01*
X83098540Y-96999500D01*
X82901459Y-96999500D01*
X82901456Y-96999500D01*
X82708171Y-97037947D01*
X82708163Y-97037949D01*
X82660817Y-97057561D01*
X82613364Y-97067000D01*
X81937132Y-97067000D01*
X81908620Y-97063678D01*
X81907484Y-97063409D01*
X81907483Y-97063409D01*
X81907481Y-97063408D01*
X81907478Y-97063408D01*
X81847883Y-97057001D01*
X81847881Y-97057000D01*
X81847873Y-97057000D01*
X81847865Y-97057000D01*
X79790345Y-97057000D01*
X79758252Y-97052775D01*
X79749968Y-97050555D01*
X79652727Y-97024500D01*
X79652726Y-97024500D01*
X76666952Y-97024500D01*
X76599913Y-97004815D01*
X76554158Y-96952011D01*
X76544214Y-96882853D01*
X76573239Y-96819297D01*
X76579271Y-96812819D01*
X76730271Y-96661819D01*
X76791594Y-96628334D01*
X76817952Y-96625500D01*
X78613258Y-96625500D01*
X78613258Y-96625499D01*
X78677502Y-96612721D01*
X78677503Y-96612721D01*
X78696718Y-96608898D01*
X78734102Y-96601463D01*
X78767442Y-96587652D01*
X78847936Y-96554312D01*
X78899159Y-96520084D01*
X78950383Y-96485858D01*
X79037508Y-96398733D01*
X79037509Y-96398731D01*
X79044575Y-96391665D01*
X79044578Y-96391661D01*
X81198729Y-94237510D01*
X81198733Y-94237508D01*
X81285858Y-94150383D01*
X81320084Y-94099159D01*
X81354312Y-94047936D01*
X81387652Y-93967442D01*
X81401463Y-93934102D01*
X81425500Y-93813256D01*
X81425500Y-92888873D01*
X81445185Y-92821834D01*
X81497989Y-92776079D01*
X81567147Y-92766135D01*
X81630703Y-92795160D01*
G37*
%TD.AperFunction*%
%TA.AperFunction,Conductor*%
G36*
X63731904Y-72370304D02*
G01*
X63753809Y-72395583D01*
X63811016Y-72483147D01*
X63811019Y-72483151D01*
X63811021Y-72483153D01*
X63968216Y-72653913D01*
X63968219Y-72653915D01*
X63968222Y-72653918D01*
X64151365Y-72796464D01*
X64151371Y-72796468D01*
X64151374Y-72796470D01*
X64355497Y-72906936D01*
X64382369Y-72916161D01*
X64575015Y-72982297D01*
X64575017Y-72982297D01*
X64575019Y-72982298D01*
X64803951Y-73020500D01*
X64803952Y-73020500D01*
X65036048Y-73020500D01*
X65036049Y-73020500D01*
X65264981Y-72982298D01*
X65290576Y-72973510D01*
X65360371Y-72970359D01*
X65418518Y-73003108D01*
X65695794Y-73280385D01*
X65746268Y-73330859D01*
X65848710Y-73399309D01*
X65848711Y-73399309D01*
X65848715Y-73399312D01*
X65915396Y-73426931D01*
X65915398Y-73426933D01*
X65962543Y-73446461D01*
X65962548Y-73446463D01*
X65982597Y-73450451D01*
X66016196Y-73457134D01*
X66083392Y-73470501D01*
X66083394Y-73470501D01*
X66212721Y-73470501D01*
X66212741Y-73470500D01*
X67938556Y-73470500D01*
X68005595Y-73490185D01*
X68051350Y-73542989D01*
X68061294Y-73612147D01*
X68032269Y-73675703D01*
X68011441Y-73694818D01*
X67964694Y-73728780D01*
X67793784Y-73899690D01*
X67793780Y-73899695D01*
X67651725Y-74095219D01*
X67541997Y-74310568D01*
X67467308Y-74540435D01*
X67429500Y-74779148D01*
X67429500Y-75020851D01*
X67467308Y-75259564D01*
X67541997Y-75489431D01*
X67651725Y-75704780D01*
X67793780Y-75900304D01*
X67793784Y-75900309D01*
X67964690Y-76071215D01*
X67964695Y-76071219D01*
X68135241Y-76195126D01*
X68160223Y-76213277D01*
X68297441Y-76283193D01*
X68375568Y-76323002D01*
X68375570Y-76323002D01*
X68375573Y-76323004D01*
X68498786Y-76363038D01*
X68605435Y-76397691D01*
X68844149Y-76435500D01*
X68844154Y-76435500D01*
X71155851Y-76435500D01*
X71394564Y-76397691D01*
X71624427Y-76323004D01*
X71839777Y-76213277D01*
X72035311Y-76071214D01*
X72169706Y-75936819D01*
X72231029Y-75903334D01*
X72257387Y-75900500D01*
X74376718Y-75900500D01*
X74443757Y-75920185D01*
X74464399Y-75936819D01*
X79340399Y-80812819D01*
X79373884Y-80874142D01*
X79368900Y-80943834D01*
X79327028Y-80999767D01*
X79261564Y-81024184D01*
X79252718Y-81024500D01*
X76452727Y-81024500D01*
X76347273Y-81024500D01*
X76245413Y-81051793D01*
X76245411Y-81051793D01*
X76241750Y-81052775D01*
X76209657Y-81057000D01*
X75922801Y-81057000D01*
X75855762Y-81037315D01*
X75810007Y-80984511D01*
X75799581Y-80946884D01*
X75785369Y-80820749D01*
X75785368Y-80820745D01*
X75725788Y-80650476D01*
X75629815Y-80497737D01*
X75502262Y-80370184D01*
X75349523Y-80274211D01*
X75179254Y-80214631D01*
X75179249Y-80214630D01*
X75000004Y-80194435D01*
X74999996Y-80194435D01*
X74820750Y-80214630D01*
X74820745Y-80214631D01*
X74650476Y-80274211D01*
X74497737Y-80370184D01*
X74370184Y-80497737D01*
X74274211Y-80650476D01*
X74214631Y-80820745D01*
X74214630Y-80820750D01*
X74199582Y-80954313D01*
X74172516Y-81018727D01*
X74114921Y-81058283D01*
X74100034Y-81061482D01*
X74100068Y-81061624D01*
X74092520Y-81063407D01*
X73957671Y-81113702D01*
X73957664Y-81113706D01*
X73842455Y-81199952D01*
X73842452Y-81199955D01*
X73756206Y-81315164D01*
X73756202Y-81315171D01*
X73705908Y-81450016D01*
X73700866Y-81496920D01*
X73674128Y-81561471D01*
X73616736Y-81601319D01*
X73546910Y-81603812D01*
X73519124Y-81593022D01*
X73384732Y-81521188D01*
X73384729Y-81521187D01*
X73384727Y-81521186D01*
X73196132Y-81463976D01*
X73196129Y-81463975D01*
X73000000Y-81444659D01*
X72803870Y-81463975D01*
X72615266Y-81521188D01*
X72441467Y-81614086D01*
X72441460Y-81614090D01*
X72289116Y-81739116D01*
X72164090Y-81891460D01*
X72164086Y-81891467D01*
X72071188Y-82065266D01*
X72013975Y-82253870D01*
X71994659Y-82450000D01*
X72013975Y-82646129D01*
X72013976Y-82646132D01*
X72071185Y-82834725D01*
X72071188Y-82834733D01*
X72164086Y-83008532D01*
X72164090Y-83008539D01*
X72289116Y-83160883D01*
X72441460Y-83285909D01*
X72441467Y-83285913D01*
X72615266Y-83378811D01*
X72615269Y-83378811D01*
X72615273Y-83378814D01*
X72803868Y-83436024D01*
X73000000Y-83455341D01*
X73196132Y-83436024D01*
X73384727Y-83378814D01*
X73558538Y-83285910D01*
X73559468Y-83285146D01*
X73560047Y-83284900D01*
X73563601Y-83282526D01*
X73564051Y-83283199D01*
X73623773Y-83257832D01*
X73680260Y-83267500D01*
X75076000Y-83267500D01*
X75143039Y-83287185D01*
X75188794Y-83339989D01*
X75200000Y-83391500D01*
X75200000Y-83767500D01*
X75576000Y-83767500D01*
X75643039Y-83787185D01*
X75688794Y-83839989D01*
X75700000Y-83891500D01*
X75700000Y-84777500D01*
X76176322Y-84777500D01*
X76238321Y-84794112D01*
X76245413Y-84798207D01*
X76347273Y-84825500D01*
X76347275Y-84825500D01*
X79652725Y-84825500D01*
X79652727Y-84825500D01*
X79754587Y-84798207D01*
X79760810Y-84794614D01*
X79822814Y-84777999D01*
X80050500Y-84777999D01*
X80117539Y-84797684D01*
X80163294Y-84850488D01*
X80174500Y-84901999D01*
X80174500Y-86126766D01*
X80154815Y-86193805D01*
X80102011Y-86239560D01*
X80032853Y-86249504D01*
X79969297Y-86220479D01*
X79962819Y-86214447D01*
X79768933Y-86020561D01*
X79709825Y-85973424D01*
X79536185Y-85834950D01*
X79284117Y-85676565D01*
X79284114Y-85676563D01*
X79015904Y-85547400D01*
X78734920Y-85449079D01*
X78734912Y-85449076D01*
X78517233Y-85399393D01*
X78444675Y-85382832D01*
X78444671Y-85382831D01*
X78444662Y-85382830D01*
X78148853Y-85349500D01*
X78148849Y-85349500D01*
X77851151Y-85349500D01*
X77851146Y-85349500D01*
X77555337Y-85382830D01*
X77555325Y-85382832D01*
X77265087Y-85449076D01*
X77265079Y-85449079D01*
X76984095Y-85547400D01*
X76715885Y-85676563D01*
X76463816Y-85834949D01*
X76231066Y-86020561D01*
X76020561Y-86231066D01*
X75834949Y-86463816D01*
X75676563Y-86715885D01*
X75547400Y-86984095D01*
X75449079Y-87265079D01*
X75449076Y-87265087D01*
X75382832Y-87555325D01*
X75382830Y-87555337D01*
X75349500Y-87851146D01*
X75349500Y-88148853D01*
X75382830Y-88444662D01*
X75382832Y-88444674D01*
X75449076Y-88734912D01*
X75449079Y-88734920D01*
X75547400Y-89015904D01*
X75676563Y-89284114D01*
X75702568Y-89325500D01*
X75834950Y-89536185D01*
X76020562Y-89768934D01*
X76231066Y-89979438D01*
X76463815Y-90165050D01*
X76715883Y-90323435D01*
X76984099Y-90452601D01*
X77195135Y-90526445D01*
X77265079Y-90550920D01*
X77265087Y-90550923D01*
X77265090Y-90550923D01*
X77265091Y-90550924D01*
X77555325Y-90617168D01*
X77851147Y-90650499D01*
X77851148Y-90650500D01*
X77851151Y-90650500D01*
X78148852Y-90650500D01*
X78148852Y-90650499D01*
X78444675Y-90617168D01*
X78734909Y-90550924D01*
X79015901Y-90452601D01*
X79284117Y-90323435D01*
X79536185Y-90165050D01*
X79768934Y-89979438D01*
X79962819Y-89785553D01*
X80024142Y-89752068D01*
X80093834Y-89757052D01*
X80149767Y-89798924D01*
X80174184Y-89864388D01*
X80174500Y-89873234D01*
X80174500Y-93441198D01*
X80154815Y-93508237D01*
X80138181Y-93528879D01*
X79943573Y-93723486D01*
X79882250Y-93756971D01*
X79812558Y-93751987D01*
X79756625Y-93710115D01*
X79732953Y-93651992D01*
X79720548Y-93557762D01*
X79661158Y-93336113D01*
X79587634Y-93158611D01*
X79573349Y-93124123D01*
X79573346Y-93124117D01*
X79573344Y-93124112D01*
X79458611Y-92925388D01*
X79458608Y-92925385D01*
X79458607Y-92925382D01*
X79318918Y-92743338D01*
X79318911Y-92743330D01*
X79156670Y-92581089D01*
X79156661Y-92581081D01*
X78974617Y-92441392D01*
X78775890Y-92326657D01*
X78775876Y-92326650D01*
X78563887Y-92238842D01*
X78342238Y-92179452D01*
X78304215Y-92174446D01*
X78114741Y-92149500D01*
X78114734Y-92149500D01*
X77885266Y-92149500D01*
X77885258Y-92149500D01*
X77668715Y-92178009D01*
X77657762Y-92179452D01*
X77564076Y-92204554D01*
X77436112Y-92238842D01*
X77224123Y-92326650D01*
X77224109Y-92326657D01*
X77025382Y-92441392D01*
X76843338Y-92581081D01*
X76681082Y-92743337D01*
X76672373Y-92754687D01*
X76615944Y-92795888D01*
X76546197Y-92800040D01*
X76485278Y-92765825D01*
X76452528Y-92704107D01*
X76450000Y-92679197D01*
X76450000Y-92102172D01*
X76449999Y-92102155D01*
X76443598Y-92042627D01*
X76443596Y-92042620D01*
X76393354Y-91907913D01*
X76393350Y-91907906D01*
X76307190Y-91792812D01*
X76307187Y-91792809D01*
X76192093Y-91706649D01*
X76192086Y-91706645D01*
X76057379Y-91656403D01*
X76057372Y-91656401D01*
X75997844Y-91650000D01*
X74950000Y-91650000D01*
X74950000Y-96150000D01*
X75173547Y-96150000D01*
X75240586Y-96169685D01*
X75286341Y-96222489D01*
X75296285Y-96291647D01*
X75267260Y-96355203D01*
X75261228Y-96361681D01*
X74714144Y-96908764D01*
X74714138Y-96908772D01*
X74679914Y-96959991D01*
X74651916Y-97001892D01*
X74598304Y-97046696D01*
X74548815Y-97057000D01*
X74152129Y-97057000D01*
X74152123Y-97057001D01*
X74092516Y-97063408D01*
X73957671Y-97113702D01*
X73957664Y-97113706D01*
X73842455Y-97199952D01*
X73842452Y-97199955D01*
X73756206Y-97315164D01*
X73756202Y-97315171D01*
X73705908Y-97450016D01*
X73700866Y-97496920D01*
X73674128Y-97561471D01*
X73616736Y-97601319D01*
X73546910Y-97603812D01*
X73519124Y-97593022D01*
X73384732Y-97521188D01*
X73384729Y-97521187D01*
X73384727Y-97521186D01*
X73196132Y-97463976D01*
X73196129Y-97463975D01*
X73000000Y-97444659D01*
X72803870Y-97463975D01*
X72615266Y-97521188D01*
X72441467Y-97614086D01*
X72441460Y-97614090D01*
X72406825Y-97642515D01*
X72342515Y-97669827D01*
X72273647Y-97658035D01*
X72228895Y-97620973D01*
X72207546Y-97592454D01*
X72166158Y-97561471D01*
X72092335Y-97506206D01*
X72092328Y-97506202D01*
X71957482Y-97455908D01*
X71957483Y-97455908D01*
X71897883Y-97449501D01*
X71897881Y-97449500D01*
X71897873Y-97449500D01*
X71897865Y-97449500D01*
X69035452Y-97449500D01*
X68968413Y-97429815D01*
X68947771Y-97413181D01*
X68640198Y-97105608D01*
X68640178Y-97105586D01*
X68548733Y-97014141D01*
X68497509Y-96979915D01*
X68467690Y-96959990D01*
X68446286Y-96945688D01*
X68357149Y-96908767D01*
X68357142Y-96908764D01*
X68332453Y-96898537D01*
X68322427Y-96896543D01*
X68272029Y-96886518D01*
X68211610Y-96874500D01*
X68211607Y-96874500D01*
X68211606Y-96874500D01*
X64674554Y-96874500D01*
X64607515Y-96854815D01*
X64561760Y-96802011D01*
X64551816Y-96732853D01*
X64553663Y-96722907D01*
X64561628Y-96688010D01*
X64617168Y-96444675D01*
X64650500Y-96148849D01*
X64650500Y-95851151D01*
X64633226Y-95697844D01*
X72450000Y-95697844D01*
X72456401Y-95757372D01*
X72456403Y-95757379D01*
X72506645Y-95892086D01*
X72506649Y-95892093D01*
X72592809Y-96007187D01*
X72592812Y-96007190D01*
X72707906Y-96093350D01*
X72707913Y-96093354D01*
X72842620Y-96143596D01*
X72842627Y-96143598D01*
X72902155Y-96149999D01*
X72902172Y-96150000D01*
X73950000Y-96150000D01*
X73950000Y-94400000D01*
X72450000Y-94400000D01*
X72450000Y-95697844D01*
X64633226Y-95697844D01*
X64617168Y-95555325D01*
X64550924Y-95265091D01*
X64452601Y-94984099D01*
X64323435Y-94715883D01*
X64165050Y-94463815D01*
X63979438Y-94231066D01*
X63768934Y-94020562D01*
X63536185Y-93834950D01*
X63358791Y-93723486D01*
X63284114Y-93676563D01*
X63015904Y-93547400D01*
X62734920Y-93449079D01*
X62734912Y-93449076D01*
X62517233Y-93399393D01*
X62444675Y-93382832D01*
X62444671Y-93382831D01*
X62444662Y-93382830D01*
X62148853Y-93349500D01*
X62148849Y-93349500D01*
X61851151Y-93349500D01*
X61851146Y-93349500D01*
X61555337Y-93382830D01*
X61555325Y-93382832D01*
X61265087Y-93449076D01*
X61265079Y-93449079D01*
X60984095Y-93547400D01*
X60715885Y-93676563D01*
X60463816Y-93834949D01*
X60231066Y-94020561D01*
X60020561Y-94231066D01*
X59834949Y-94463816D01*
X59676563Y-94715885D01*
X59547400Y-94984095D01*
X59449079Y-95265079D01*
X59449076Y-95265087D01*
X59382832Y-95555325D01*
X59382830Y-95555337D01*
X59349500Y-95851146D01*
X59349500Y-96089990D01*
X59329815Y-96157029D01*
X59277011Y-96202784D01*
X59207853Y-96212728D01*
X59144297Y-96183703D01*
X59137819Y-96177671D01*
X58863990Y-95903842D01*
X58830505Y-95842519D01*
X58828452Y-95830059D01*
X58823147Y-95782966D01*
X58763568Y-95612699D01*
X58727517Y-95555325D01*
X58667594Y-95459958D01*
X58540041Y-95332405D01*
X58387302Y-95236432D01*
X58217033Y-95176852D01*
X58217028Y-95176851D01*
X58037783Y-95156656D01*
X58037775Y-95156656D01*
X57858529Y-95176851D01*
X57858524Y-95176852D01*
X57688255Y-95236432D01*
X57535516Y-95332405D01*
X57407963Y-95459958D01*
X57311990Y-95612697D01*
X57252410Y-95782966D01*
X57252409Y-95782971D01*
X57232214Y-95962217D01*
X57232214Y-95962224D01*
X57252409Y-96141470D01*
X57252410Y-96141475D01*
X57311990Y-96311744D01*
X57343368Y-96361681D01*
X57407963Y-96464483D01*
X57535517Y-96592037D01*
X57688257Y-96688010D01*
X57858524Y-96747589D01*
X57905602Y-96752893D01*
X57970015Y-96779958D01*
X57979400Y-96788432D01*
X60451820Y-99260855D01*
X60451824Y-99260858D01*
X60554267Y-99329309D01*
X60554268Y-99329309D01*
X60554272Y-99329312D01*
X60620953Y-99356931D01*
X60620955Y-99356933D01*
X60661197Y-99373601D01*
X60668105Y-99376463D01*
X60679925Y-99378814D01*
X60734438Y-99389657D01*
X60788949Y-99400501D01*
X60788951Y-99400501D01*
X60918278Y-99400501D01*
X60918298Y-99400500D01*
X63211051Y-99400500D01*
X63211051Y-99400499D01*
X63320075Y-99378814D01*
X63331895Y-99376463D01*
X63377043Y-99357762D01*
X63445729Y-99329312D01*
X63510683Y-99285910D01*
X63548176Y-99260858D01*
X63635301Y-99173733D01*
X63635302Y-99173731D01*
X63642368Y-99166665D01*
X63642370Y-99166661D01*
X64647214Y-98161819D01*
X64708537Y-98128334D01*
X64734895Y-98125500D01*
X65811127Y-98125500D01*
X65878166Y-98145185D01*
X65923921Y-98197989D01*
X65933865Y-98267147D01*
X65904840Y-98330703D01*
X65886621Y-98347869D01*
X65843339Y-98381081D01*
X65843329Y-98381089D01*
X65681089Y-98543330D01*
X65681081Y-98543338D01*
X65541392Y-98725382D01*
X65426657Y-98924109D01*
X65426650Y-98924123D01*
X65362913Y-99078000D01*
X65338842Y-99136113D01*
X65279675Y-99356932D01*
X65279453Y-99357759D01*
X65279451Y-99357770D01*
X65249500Y-99585258D01*
X65249500Y-99814741D01*
X65261767Y-99907913D01*
X65279452Y-100042238D01*
X65338842Y-100263887D01*
X65426650Y-100475876D01*
X65426656Y-100475888D01*
X65520328Y-100638134D01*
X65541392Y-100674617D01*
X65681081Y-100856661D01*
X65681089Y-100856670D01*
X65843330Y-101018911D01*
X65843338Y-101018918D01*
X65843339Y-101018919D01*
X65893962Y-101057764D01*
X66025382Y-101158607D01*
X66025385Y-101158608D01*
X66025388Y-101158611D01*
X66224112Y-101273344D01*
X66224117Y-101273346D01*
X66224123Y-101273349D01*
X66315480Y-101311190D01*
X66436113Y-101361158D01*
X66657762Y-101420548D01*
X66885266Y-101450500D01*
X66885273Y-101450500D01*
X67114727Y-101450500D01*
X67114734Y-101450500D01*
X67342238Y-101420548D01*
X67563887Y-101361158D01*
X67775888Y-101273344D01*
X67974612Y-101158611D01*
X68150016Y-101024017D01*
X68215182Y-100998824D01*
X68283627Y-101012862D01*
X68333617Y-101061675D01*
X68349500Y-101122394D01*
X68349500Y-101497869D01*
X68349501Y-101497876D01*
X68355908Y-101557483D01*
X68406202Y-101692328D01*
X68406206Y-101692335D01*
X68492452Y-101807544D01*
X68492455Y-101807547D01*
X68607664Y-101893793D01*
X68607671Y-101893797D01*
X68618911Y-101897989D01*
X68742517Y-101944091D01*
X68802127Y-101950500D01*
X68865547Y-101950499D01*
X68932585Y-101970183D01*
X68978341Y-102022986D01*
X68988285Y-102092144D01*
X68959261Y-102155700D01*
X68953228Y-102162180D01*
X57801270Y-113314139D01*
X57714144Y-113401264D01*
X57714138Y-113401272D01*
X57645692Y-113503705D01*
X57645684Y-113503719D01*
X57612347Y-113584207D01*
X57606823Y-113597543D01*
X57598537Y-113617545D01*
X57598535Y-113617553D01*
X57574500Y-113738389D01*
X57574500Y-115008000D01*
X57554815Y-115075039D01*
X57502011Y-115120794D01*
X57450500Y-115132000D01*
X57152130Y-115132000D01*
X57152123Y-115132001D01*
X57092516Y-115138408D01*
X56957671Y-115188702D01*
X56957664Y-115188706D01*
X56842455Y-115274952D01*
X56842452Y-115274955D01*
X56756206Y-115390164D01*
X56756202Y-115390171D01*
X56703273Y-115532082D01*
X56661402Y-115588016D01*
X56595937Y-115612433D01*
X56528638Y-115598107D01*
X56384733Y-115521188D01*
X56384727Y-115521186D01*
X56196132Y-115463976D01*
X56196129Y-115463975D01*
X56000000Y-115444659D01*
X55803870Y-115463975D01*
X55615266Y-115521188D01*
X55441467Y-115614086D01*
X55441460Y-115614090D01*
X55289116Y-115739116D01*
X55164090Y-115891460D01*
X55164086Y-115891467D01*
X55071188Y-116065266D01*
X55013975Y-116253870D01*
X54994659Y-116450000D01*
X55013975Y-116646129D01*
X55071188Y-116834733D01*
X55164086Y-117008532D01*
X55164090Y-117008539D01*
X55289116Y-117160883D01*
X55441460Y-117285909D01*
X55441467Y-117285913D01*
X55615266Y-117378811D01*
X55615269Y-117378811D01*
X55615273Y-117378814D01*
X55803868Y-117436024D01*
X56000000Y-117455341D01*
X56196132Y-117436024D01*
X56384727Y-117378814D01*
X56452666Y-117342500D01*
X56532742Y-117299699D01*
X56601145Y-117285457D01*
X56666388Y-117310457D01*
X56678876Y-117321376D01*
X56700000Y-117342500D01*
X58076000Y-117342500D01*
X58143039Y-117362185D01*
X58188794Y-117414989D01*
X58200000Y-117466500D01*
X58200000Y-117842500D01*
X58576000Y-117842500D01*
X58643039Y-117862185D01*
X58688794Y-117914989D01*
X58700000Y-117966500D01*
X58700000Y-118852500D01*
X59176322Y-118852500D01*
X59238321Y-118869112D01*
X59245413Y-118873207D01*
X59347273Y-118900500D01*
X59347275Y-118900500D01*
X62652725Y-118900500D01*
X62652727Y-118900500D01*
X62754587Y-118873207D01*
X62760810Y-118869614D01*
X62822814Y-118852999D01*
X63050500Y-118852999D01*
X63117539Y-118872684D01*
X63163294Y-118925488D01*
X63174500Y-118976999D01*
X63174500Y-120126766D01*
X63154815Y-120193805D01*
X63102011Y-120239560D01*
X63032853Y-120249504D01*
X62969297Y-120220479D01*
X62962819Y-120214447D01*
X62768933Y-120020561D01*
X62709825Y-119973424D01*
X62536185Y-119834950D01*
X62284117Y-119676565D01*
X62284114Y-119676563D01*
X62015904Y-119547400D01*
X61734920Y-119449079D01*
X61734912Y-119449076D01*
X61517233Y-119399393D01*
X61444675Y-119382832D01*
X61444671Y-119382831D01*
X61444662Y-119382830D01*
X61148853Y-119349500D01*
X61148849Y-119349500D01*
X60851151Y-119349500D01*
X60851146Y-119349500D01*
X60555337Y-119382830D01*
X60555325Y-119382832D01*
X60265087Y-119449076D01*
X60265079Y-119449079D01*
X59984095Y-119547400D01*
X59715885Y-119676563D01*
X59463816Y-119834949D01*
X59231066Y-120020561D01*
X59020561Y-120231066D01*
X58834949Y-120463816D01*
X58676563Y-120715885D01*
X58547400Y-120984095D01*
X58449079Y-121265079D01*
X58449076Y-121265087D01*
X58382832Y-121555325D01*
X58382830Y-121555337D01*
X58349500Y-121851146D01*
X58349500Y-122148853D01*
X58382830Y-122444662D01*
X58382832Y-122444674D01*
X58449076Y-122734912D01*
X58449079Y-122734920D01*
X58547400Y-123015904D01*
X58676563Y-123284114D01*
X58676565Y-123284117D01*
X58834950Y-123536185D01*
X59020562Y-123768934D01*
X59231066Y-123979438D01*
X59463815Y-124165050D01*
X59715883Y-124323435D01*
X59984099Y-124452601D01*
X60195135Y-124526445D01*
X60265079Y-124550920D01*
X60265087Y-124550923D01*
X60265090Y-124550923D01*
X60265091Y-124550924D01*
X60555325Y-124617168D01*
X60851147Y-124650499D01*
X60851148Y-124650500D01*
X60851151Y-124650500D01*
X61148852Y-124650500D01*
X61148852Y-124650499D01*
X61444675Y-124617168D01*
X61734909Y-124550924D01*
X62015901Y-124452601D01*
X62284117Y-124323435D01*
X62536185Y-124165050D01*
X62768934Y-123979438D01*
X62962819Y-123785553D01*
X63024142Y-123752068D01*
X63093834Y-123757052D01*
X63149767Y-123798924D01*
X63174184Y-123864388D01*
X63174500Y-123873234D01*
X63174500Y-126213256D01*
X63193913Y-126310857D01*
X63193913Y-126310859D01*
X63198534Y-126334094D01*
X63198537Y-126334101D01*
X63242977Y-126441392D01*
X63245690Y-126447940D01*
X63247401Y-126450500D01*
X63264362Y-126475882D01*
X63264364Y-126475889D01*
X63264366Y-126475889D01*
X63314138Y-126550378D01*
X63314139Y-126550379D01*
X63314142Y-126550383D01*
X63401267Y-126637508D01*
X63401269Y-126637509D01*
X63408335Y-126644575D01*
X63408334Y-126644575D01*
X63408338Y-126644578D01*
X65024613Y-128260855D01*
X65024617Y-128260858D01*
X65127060Y-128329309D01*
X65127061Y-128329309D01*
X65127065Y-128329312D01*
X65193746Y-128356931D01*
X65193748Y-128356933D01*
X65240893Y-128376461D01*
X65240898Y-128376463D01*
X65260947Y-128380451D01*
X65294546Y-128387134D01*
X65361742Y-128400501D01*
X65361744Y-128400501D01*
X65491071Y-128400501D01*
X65491091Y-128400500D01*
X70001944Y-128400500D01*
X70068983Y-128420185D01*
X70114738Y-128472989D01*
X70124682Y-128542147D01*
X70095657Y-128605703D01*
X70089625Y-128612181D01*
X69363625Y-129338181D01*
X69302302Y-129371666D01*
X69275944Y-129374500D01*
X62300443Y-129374500D01*
X62233404Y-129354815D01*
X62187649Y-129302011D01*
X62177705Y-129232853D01*
X62206730Y-129169297D01*
X62212762Y-129162819D01*
X62318911Y-129056670D01*
X62318914Y-129056665D01*
X62318919Y-129056661D01*
X62458611Y-128874612D01*
X62573344Y-128675888D01*
X62661158Y-128463887D01*
X62720548Y-128242238D01*
X62750500Y-128014734D01*
X62750500Y-127785266D01*
X62720548Y-127557762D01*
X62661158Y-127336113D01*
X62587634Y-127158611D01*
X62573349Y-127124123D01*
X62573346Y-127124117D01*
X62573344Y-127124112D01*
X62458611Y-126925388D01*
X62458608Y-126925385D01*
X62458607Y-126925382D01*
X62318918Y-126743338D01*
X62318911Y-126743330D01*
X62156670Y-126581089D01*
X62156661Y-126581081D01*
X61974617Y-126441392D01*
X61775890Y-126326657D01*
X61775876Y-126326650D01*
X61563887Y-126238842D01*
X61342238Y-126179452D01*
X61304215Y-126174446D01*
X61114741Y-126149500D01*
X61114734Y-126149500D01*
X60885266Y-126149500D01*
X60885258Y-126149500D01*
X60668715Y-126178009D01*
X60657762Y-126179452D01*
X60575216Y-126201570D01*
X60436112Y-126238842D01*
X60224123Y-126326650D01*
X60224109Y-126326657D01*
X60025382Y-126441392D01*
X59843338Y-126581081D01*
X59681082Y-126743337D01*
X59672373Y-126754687D01*
X59615944Y-126795888D01*
X59546197Y-126800040D01*
X59485278Y-126765825D01*
X59452528Y-126704107D01*
X59450000Y-126679197D01*
X59450000Y-126102172D01*
X59449999Y-126102155D01*
X59443598Y-126042627D01*
X59443596Y-126042620D01*
X59393354Y-125907913D01*
X59393350Y-125907906D01*
X59307190Y-125792812D01*
X59307187Y-125792809D01*
X59192093Y-125706649D01*
X59192086Y-125706645D01*
X59057379Y-125656403D01*
X59057372Y-125656401D01*
X58997844Y-125650000D01*
X57950000Y-125650000D01*
X57950000Y-130150000D01*
X58997828Y-130150000D01*
X58997844Y-130149999D01*
X59057372Y-130143598D01*
X59057379Y-130143596D01*
X59192086Y-130093354D01*
X59192093Y-130093350D01*
X59307187Y-130007190D01*
X59307190Y-130007187D01*
X59393350Y-129892093D01*
X59393354Y-129892086D01*
X59443596Y-129757379D01*
X59443598Y-129757372D01*
X59449999Y-129697844D01*
X59450000Y-129697827D01*
X59450000Y-129120802D01*
X59469685Y-129053763D01*
X59522489Y-129008008D01*
X59591647Y-128998064D01*
X59655203Y-129027089D01*
X59672375Y-129045315D01*
X59681081Y-129056661D01*
X59681089Y-129056670D01*
X59843330Y-129218911D01*
X59843338Y-129218918D01*
X60025382Y-129358607D01*
X60025385Y-129358608D01*
X60025388Y-129358611D01*
X60224112Y-129473344D01*
X60224117Y-129473346D01*
X60224123Y-129473349D01*
X60315480Y-129511190D01*
X60436113Y-129561158D01*
X60657762Y-129620548D01*
X60885266Y-129650500D01*
X60885273Y-129650500D01*
X61069530Y-129650500D01*
X61136569Y-129670185D01*
X61182324Y-129722989D01*
X61192268Y-129792147D01*
X61163243Y-129855703D01*
X61157211Y-129862181D01*
X57873711Y-133145681D01*
X57812388Y-133179166D01*
X57786030Y-133182000D01*
X57202129Y-133182000D01*
X57202123Y-133182001D01*
X57142516Y-133188408D01*
X57007671Y-133238702D01*
X57007664Y-133238706D01*
X56892455Y-133324952D01*
X56892452Y-133324955D01*
X56806206Y-133440164D01*
X56806202Y-133440171D01*
X56759157Y-133566306D01*
X56717286Y-133622240D01*
X56651821Y-133646657D01*
X56583548Y-133631805D01*
X56564313Y-133618829D01*
X56558537Y-133614089D01*
X56558532Y-133614086D01*
X56384733Y-133521188D01*
X56384727Y-133521186D01*
X56232325Y-133474955D01*
X56196129Y-133463975D01*
X56000000Y-133444659D01*
X55803870Y-133463975D01*
X55615266Y-133521188D01*
X55441467Y-133614086D01*
X55441460Y-133614090D01*
X55289116Y-133739116D01*
X55164090Y-133891460D01*
X55164086Y-133891467D01*
X55071188Y-134065266D01*
X55013975Y-134253870D01*
X54994659Y-134450000D01*
X55013975Y-134646129D01*
X55013976Y-134646132D01*
X55069836Y-134830278D01*
X55071188Y-134834733D01*
X55164086Y-135008532D01*
X55164090Y-135008539D01*
X55289116Y-135160883D01*
X55441460Y-135285909D01*
X55441467Y-135285913D01*
X55615266Y-135378811D01*
X55615269Y-135378811D01*
X55615273Y-135378814D01*
X55803868Y-135436024D01*
X56000000Y-135455341D01*
X56196132Y-135436024D01*
X56384727Y-135378814D01*
X56400873Y-135370184D01*
X56563911Y-135283039D01*
X56564688Y-135284493D01*
X56623775Y-135265987D01*
X56691157Y-135284465D01*
X56737852Y-135336440D01*
X56750000Y-135389967D01*
X56750000Y-135392500D01*
X58126000Y-135392500D01*
X58193039Y-135412185D01*
X58238794Y-135464989D01*
X58250000Y-135516500D01*
X58250000Y-135892500D01*
X58626000Y-135892500D01*
X58693039Y-135912185D01*
X58738794Y-135964989D01*
X58750000Y-136016500D01*
X58750000Y-136902500D01*
X59226322Y-136902500D01*
X59288321Y-136919112D01*
X59295413Y-136923207D01*
X59397273Y-136950500D01*
X59397275Y-136950500D01*
X62702725Y-136950500D01*
X62702727Y-136950500D01*
X62804587Y-136923207D01*
X62810810Y-136919614D01*
X62872814Y-136902999D01*
X64897871Y-136902999D01*
X64897872Y-136902999D01*
X64957483Y-136896591D01*
X65092331Y-136846296D01*
X65207546Y-136760046D01*
X65251245Y-136701672D01*
X65299112Y-136637731D01*
X65301109Y-136639226D01*
X65341142Y-136599188D01*
X65409413Y-136584331D01*
X65474880Y-136608744D01*
X65488257Y-136620335D01*
X65497738Y-136629816D01*
X65650478Y-136725789D01*
X65748379Y-136760046D01*
X65820745Y-136785368D01*
X65820750Y-136785369D01*
X65999996Y-136805565D01*
X66000000Y-136805565D01*
X66000004Y-136805565D01*
X66179249Y-136785369D01*
X66179252Y-136785368D01*
X66179255Y-136785368D01*
X66349522Y-136725789D01*
X66502262Y-136629816D01*
X66629816Y-136502262D01*
X66725789Y-136349522D01*
X66785368Y-136179255D01*
X66786805Y-136166500D01*
X66805565Y-136000003D01*
X66805565Y-135999996D01*
X66785369Y-135820750D01*
X66785368Y-135820745D01*
X66725788Y-135650476D01*
X66670311Y-135562185D01*
X66629816Y-135497738D01*
X66502262Y-135370184D01*
X66349522Y-135274211D01*
X66349519Y-135274209D01*
X66347776Y-135273599D01*
X66346800Y-135272899D01*
X66343247Y-135271188D01*
X66343546Y-135270565D01*
X66291000Y-135232877D01*
X66265253Y-135167924D01*
X66278710Y-135099363D01*
X66319838Y-135053457D01*
X66445282Y-134969639D01*
X66584639Y-134830282D01*
X66584641Y-134830278D01*
X66777139Y-134637781D01*
X66886631Y-134473914D01*
X66962051Y-134291836D01*
X67000500Y-134098540D01*
X67000500Y-133901460D01*
X67000500Y-133901457D01*
X67000499Y-133901455D01*
X66978835Y-133792545D01*
X66962051Y-133708164D01*
X66886631Y-133526086D01*
X66886629Y-133526083D01*
X66886627Y-133526079D01*
X66777139Y-133362219D01*
X66777136Y-133362215D01*
X66637784Y-133222863D01*
X66637780Y-133222860D01*
X66473920Y-133113372D01*
X66473910Y-133113367D01*
X66291836Y-133037949D01*
X66291828Y-133037947D01*
X66098543Y-132999500D01*
X66098540Y-132999500D01*
X65901460Y-132999500D01*
X65901457Y-132999500D01*
X65708171Y-133037947D01*
X65708163Y-133037949D01*
X65526089Y-133113367D01*
X65526079Y-133113372D01*
X65439682Y-133171102D01*
X65373005Y-133191980D01*
X65370791Y-133192000D01*
X64987132Y-133192000D01*
X64958620Y-133188678D01*
X64957484Y-133188409D01*
X64957483Y-133188409D01*
X64957481Y-133188408D01*
X64957478Y-133188408D01*
X64897883Y-133182001D01*
X64897881Y-133182000D01*
X64897873Y-133182000D01*
X64897865Y-133182000D01*
X62840345Y-133182000D01*
X62808252Y-133177775D01*
X62799968Y-133175555D01*
X62702727Y-133149500D01*
X62702726Y-133149500D01*
X59938436Y-133149500D01*
X59871397Y-133129815D01*
X59825642Y-133077011D01*
X59815698Y-133007853D01*
X59844723Y-132944297D01*
X59850755Y-132937819D01*
X60962364Y-131826211D01*
X62126756Y-130661819D01*
X62188079Y-130628334D01*
X62214437Y-130625500D01*
X68108189Y-130625500D01*
X68175228Y-130645185D01*
X68220983Y-130697989D01*
X68230927Y-130767147D01*
X68225230Y-130790455D01*
X68214633Y-130820737D01*
X68214630Y-130820750D01*
X68194435Y-130999996D01*
X68194435Y-131000003D01*
X68214630Y-131179249D01*
X68214631Y-131179254D01*
X68274211Y-131349523D01*
X68370184Y-131502262D01*
X68497738Y-131629816D01*
X68650478Y-131725789D01*
X68820745Y-131785368D01*
X68867823Y-131790672D01*
X68932236Y-131817737D01*
X68941621Y-131826211D01*
X71313181Y-134197771D01*
X71346666Y-134259094D01*
X71349500Y-134285452D01*
X71349500Y-137461555D01*
X71329815Y-137528594D01*
X71277011Y-137574349D01*
X71207853Y-137584293D01*
X71150014Y-137559931D01*
X71030293Y-137468067D01*
X71030292Y-137468066D01*
X71030289Y-137468064D01*
X70820212Y-137346776D01*
X70763244Y-137323179D01*
X70596104Y-137253947D01*
X70361785Y-137191161D01*
X70121289Y-137159500D01*
X70121288Y-137159500D01*
X69878712Y-137159500D01*
X69878711Y-137159500D01*
X69638214Y-137191161D01*
X69403895Y-137253947D01*
X69179794Y-137346773D01*
X69179785Y-137346777D01*
X68969706Y-137468067D01*
X68777263Y-137615733D01*
X68777256Y-137615739D01*
X68605739Y-137787256D01*
X68605733Y-137787263D01*
X68458067Y-137979706D01*
X68336777Y-138189785D01*
X68336773Y-138189794D01*
X68243947Y-138413895D01*
X68181161Y-138648214D01*
X68149500Y-138888711D01*
X68149500Y-139131288D01*
X68181161Y-139371785D01*
X68243947Y-139606104D01*
X68336773Y-139830205D01*
X68336776Y-139830212D01*
X68458064Y-140040289D01*
X68458066Y-140040292D01*
X68458067Y-140040293D01*
X68605733Y-140232736D01*
X68605739Y-140232743D01*
X68777256Y-140404260D01*
X68777263Y-140404266D01*
X68829924Y-140444674D01*
X68969711Y-140551936D01*
X69179788Y-140673224D01*
X69403900Y-140766054D01*
X69638211Y-140828838D01*
X69815879Y-140852228D01*
X69878711Y-140860500D01*
X69878712Y-140860500D01*
X70121289Y-140860500D01*
X70184121Y-140852228D01*
X70361789Y-140828838D01*
X70596100Y-140766054D01*
X70820212Y-140673224D01*
X71030289Y-140551936D01*
X71150014Y-140460068D01*
X71215183Y-140434874D01*
X71283628Y-140448912D01*
X71333617Y-140497726D01*
X71349500Y-140558444D01*
X71349500Y-140764547D01*
X71329815Y-140831586D01*
X71313181Y-140852228D01*
X70752227Y-141413181D01*
X70690904Y-141446666D01*
X70664546Y-141449500D01*
X67802129Y-141449500D01*
X67802123Y-141449501D01*
X67742516Y-141455908D01*
X67607671Y-141506202D01*
X67607664Y-141506206D01*
X67492455Y-141592452D01*
X67492452Y-141592455D01*
X67406206Y-141707664D01*
X67406202Y-141707671D01*
X67355908Y-141842517D01*
X67349501Y-141902116D01*
X67349500Y-141902135D01*
X67349500Y-142277604D01*
X67329815Y-142344643D01*
X67277011Y-142390398D01*
X67207853Y-142400342D01*
X67150013Y-142375980D01*
X67148084Y-142374500D01*
X66974612Y-142241389D01*
X66850181Y-142169549D01*
X66775890Y-142126657D01*
X66775876Y-142126650D01*
X66563887Y-142038842D01*
X66342238Y-141979452D01*
X66304215Y-141974446D01*
X66114741Y-141949500D01*
X66114734Y-141949500D01*
X65885266Y-141949500D01*
X65885258Y-141949500D01*
X65668715Y-141978009D01*
X65657762Y-141979452D01*
X65584277Y-141999142D01*
X65436112Y-142038842D01*
X65224123Y-142126650D01*
X65224109Y-142126657D01*
X65025382Y-142241392D01*
X64843338Y-142381081D01*
X64681081Y-142543338D01*
X64541392Y-142725382D01*
X64426657Y-142924109D01*
X64426650Y-142924123D01*
X64338842Y-143136112D01*
X64279453Y-143357759D01*
X64279451Y-143357770D01*
X64267046Y-143451990D01*
X64238779Y-143515887D01*
X64180454Y-143554357D01*
X64110589Y-143555188D01*
X64056426Y-143523485D01*
X63141278Y-142608338D01*
X63141275Y-142608334D01*
X63141275Y-142608335D01*
X63134208Y-142601268D01*
X63134208Y-142601267D01*
X63047083Y-142514142D01*
X62994061Y-142478714D01*
X62994062Y-142478714D01*
X62994060Y-142478712D01*
X62944640Y-142445690D01*
X62944636Y-142445688D01*
X62864142Y-142412347D01*
X62830802Y-142398537D01*
X62830798Y-142398536D01*
X62830794Y-142398535D01*
X62718840Y-142376266D01*
X62718839Y-142376266D01*
X62709961Y-142374500D01*
X62709957Y-142374500D01*
X62709956Y-142374500D01*
X62627915Y-142374500D01*
X62560876Y-142354815D01*
X62515121Y-142302011D01*
X62505177Y-142232853D01*
X62534202Y-142169297D01*
X62550602Y-142153553D01*
X62694444Y-142038842D01*
X62768934Y-141979438D01*
X62979438Y-141768934D01*
X63165050Y-141536185D01*
X63323435Y-141284117D01*
X63452601Y-141015901D01*
X63550924Y-140734909D01*
X63617168Y-140444675D01*
X63650500Y-140148849D01*
X63650500Y-139851151D01*
X63617168Y-139555325D01*
X63550924Y-139265091D01*
X63452601Y-138984099D01*
X63323435Y-138715883D01*
X63165050Y-138463815D01*
X62979438Y-138231066D01*
X62768934Y-138020562D01*
X62536185Y-137834950D01*
X62284117Y-137676565D01*
X62284114Y-137676563D01*
X62015904Y-137547400D01*
X61734920Y-137449079D01*
X61734912Y-137449076D01*
X61517233Y-137399393D01*
X61444675Y-137382832D01*
X61444671Y-137382831D01*
X61444662Y-137382830D01*
X61148853Y-137349500D01*
X61148849Y-137349500D01*
X60851151Y-137349500D01*
X60851146Y-137349500D01*
X60555337Y-137382830D01*
X60555325Y-137382832D01*
X60265087Y-137449076D01*
X60265079Y-137449079D01*
X59984095Y-137547400D01*
X59715885Y-137676563D01*
X59463816Y-137834949D01*
X59231066Y-138020561D01*
X59020561Y-138231066D01*
X58834949Y-138463816D01*
X58676563Y-138715885D01*
X58547400Y-138984095D01*
X58449079Y-139265079D01*
X58449076Y-139265087D01*
X58382832Y-139555325D01*
X58382830Y-139555337D01*
X58349500Y-139851146D01*
X58349500Y-140089991D01*
X58329815Y-140157030D01*
X58277011Y-140202785D01*
X58207853Y-140212729D01*
X58144297Y-140183704D01*
X58137819Y-140177672D01*
X54661819Y-136701672D01*
X54628334Y-136640349D01*
X54625500Y-136613991D01*
X54625500Y-136450344D01*
X56750000Y-136450344D01*
X56756401Y-136509872D01*
X56756403Y-136509879D01*
X56806645Y-136644586D01*
X56806649Y-136644593D01*
X56892809Y-136759687D01*
X56892812Y-136759690D01*
X57007906Y-136845850D01*
X57007913Y-136845854D01*
X57142620Y-136896096D01*
X57142627Y-136896098D01*
X57202155Y-136902499D01*
X57202172Y-136902500D01*
X57750000Y-136902500D01*
X57750000Y-136392500D01*
X56750000Y-136392500D01*
X56750000Y-136450344D01*
X54625500Y-136450344D01*
X54625500Y-129697844D01*
X55450000Y-129697844D01*
X55456401Y-129757372D01*
X55456403Y-129757379D01*
X55506645Y-129892086D01*
X55506649Y-129892093D01*
X55592809Y-130007187D01*
X55592812Y-130007190D01*
X55707906Y-130093350D01*
X55707913Y-130093354D01*
X55842620Y-130143596D01*
X55842627Y-130143598D01*
X55902155Y-130149999D01*
X55902172Y-130150000D01*
X56950000Y-130150000D01*
X56950000Y-128400000D01*
X55450000Y-128400000D01*
X55450000Y-129697844D01*
X54625500Y-129697844D01*
X54625500Y-126102155D01*
X55450000Y-126102155D01*
X55450000Y-127400000D01*
X56950000Y-127400000D01*
X56950000Y-125650000D01*
X55902155Y-125650000D01*
X55842627Y-125656401D01*
X55842620Y-125656403D01*
X55707913Y-125706645D01*
X55707906Y-125706649D01*
X55592812Y-125792809D01*
X55592809Y-125792812D01*
X55506649Y-125907906D01*
X55506645Y-125907913D01*
X55456403Y-126042620D01*
X55456401Y-126042627D01*
X55450000Y-126102155D01*
X54625500Y-126102155D01*
X54625500Y-118400344D01*
X56700000Y-118400344D01*
X56706401Y-118459872D01*
X56706403Y-118459879D01*
X56756645Y-118594586D01*
X56756649Y-118594593D01*
X56842809Y-118709687D01*
X56842812Y-118709690D01*
X56957906Y-118795850D01*
X56957913Y-118795854D01*
X57092620Y-118846096D01*
X57092627Y-118846098D01*
X57152155Y-118852499D01*
X57152172Y-118852500D01*
X57700000Y-118852500D01*
X57700000Y-118342500D01*
X56700000Y-118342500D01*
X56700000Y-118400344D01*
X54625500Y-118400344D01*
X54625500Y-103697844D01*
X56450000Y-103697844D01*
X56456401Y-103757372D01*
X56456403Y-103757379D01*
X56506645Y-103892086D01*
X56506649Y-103892093D01*
X56592809Y-104007187D01*
X56592812Y-104007190D01*
X56707906Y-104093350D01*
X56707913Y-104093354D01*
X56842620Y-104143596D01*
X56842627Y-104143598D01*
X56902155Y-104149999D01*
X56902172Y-104150000D01*
X57950000Y-104150000D01*
X58950000Y-104150000D01*
X59997828Y-104150000D01*
X59997844Y-104149999D01*
X60057372Y-104143598D01*
X60057379Y-104143596D01*
X60192086Y-104093354D01*
X60192093Y-104093350D01*
X60307187Y-104007190D01*
X60307190Y-104007187D01*
X60393350Y-103892093D01*
X60393354Y-103892086D01*
X60443596Y-103757379D01*
X60443598Y-103757372D01*
X60449999Y-103697844D01*
X60450000Y-103697827D01*
X60450000Y-103120802D01*
X60469685Y-103053763D01*
X60522489Y-103008008D01*
X60591647Y-102998064D01*
X60655203Y-103027089D01*
X60672375Y-103045315D01*
X60681081Y-103056661D01*
X60681089Y-103056670D01*
X60843330Y-103218911D01*
X60843338Y-103218918D01*
X61025382Y-103358607D01*
X61025385Y-103358608D01*
X61025388Y-103358611D01*
X61224112Y-103473344D01*
X61224117Y-103473346D01*
X61224123Y-103473349D01*
X61293926Y-103502262D01*
X61436113Y-103561158D01*
X61657762Y-103620548D01*
X61885266Y-103650500D01*
X61885273Y-103650500D01*
X62114727Y-103650500D01*
X62114734Y-103650500D01*
X62342238Y-103620548D01*
X62563887Y-103561158D01*
X62775888Y-103473344D01*
X62974612Y-103358611D01*
X63156661Y-103218919D01*
X63156665Y-103218914D01*
X63156670Y-103218911D01*
X63318911Y-103056670D01*
X63318914Y-103056665D01*
X63318919Y-103056661D01*
X63458611Y-102874612D01*
X63573344Y-102675888D01*
X63661158Y-102463887D01*
X63720548Y-102242238D01*
X63750500Y-102014734D01*
X63750500Y-101785266D01*
X63720548Y-101557762D01*
X63661158Y-101336113D01*
X63587634Y-101158611D01*
X63573349Y-101124123D01*
X63573346Y-101124117D01*
X63573344Y-101124112D01*
X63458611Y-100925388D01*
X63458608Y-100925385D01*
X63458607Y-100925382D01*
X63318918Y-100743338D01*
X63318911Y-100743330D01*
X63156670Y-100581089D01*
X63156661Y-100581081D01*
X62974617Y-100441392D01*
X62775890Y-100326657D01*
X62775876Y-100326650D01*
X62563887Y-100238842D01*
X62342238Y-100179452D01*
X62304215Y-100174446D01*
X62114741Y-100149500D01*
X62114734Y-100149500D01*
X61885266Y-100149500D01*
X61885258Y-100149500D01*
X61668715Y-100178009D01*
X61657762Y-100179452D01*
X61564076Y-100204554D01*
X61436112Y-100238842D01*
X61224123Y-100326650D01*
X61224109Y-100326657D01*
X61025382Y-100441392D01*
X60843338Y-100581081D01*
X60681082Y-100743337D01*
X60672373Y-100754687D01*
X60615944Y-100795888D01*
X60546197Y-100800040D01*
X60485278Y-100765825D01*
X60452528Y-100704107D01*
X60450000Y-100679197D01*
X60450000Y-100102172D01*
X60449999Y-100102155D01*
X60443598Y-100042627D01*
X60443596Y-100042620D01*
X60393354Y-99907913D01*
X60393350Y-99907906D01*
X60307190Y-99792812D01*
X60307187Y-99792809D01*
X60192093Y-99706649D01*
X60192086Y-99706645D01*
X60057379Y-99656403D01*
X60057372Y-99656401D01*
X59997844Y-99650000D01*
X58950000Y-99650000D01*
X58950000Y-104150000D01*
X57950000Y-104150000D01*
X57950000Y-102400000D01*
X56450000Y-102400000D01*
X56450000Y-103697844D01*
X54625500Y-103697844D01*
X54625500Y-100102155D01*
X56450000Y-100102155D01*
X56450000Y-101400000D01*
X57950000Y-101400000D01*
X57950000Y-99650000D01*
X56902155Y-99650000D01*
X56842627Y-99656401D01*
X56842620Y-99656403D01*
X56707913Y-99706645D01*
X56707906Y-99706649D01*
X56592812Y-99792809D01*
X56592809Y-99792812D01*
X56506649Y-99907906D01*
X56506645Y-99907913D01*
X56456403Y-100042620D01*
X56456401Y-100042627D01*
X56450000Y-100102155D01*
X54625500Y-100102155D01*
X54625500Y-92325344D01*
X57700000Y-92325344D01*
X57706401Y-92384872D01*
X57706403Y-92384879D01*
X57756645Y-92519586D01*
X57756649Y-92519593D01*
X57842809Y-92634687D01*
X57842812Y-92634690D01*
X57957906Y-92720850D01*
X57957913Y-92720854D01*
X58092620Y-92771096D01*
X58092627Y-92771098D01*
X58152155Y-92777499D01*
X58152172Y-92777500D01*
X58700000Y-92777500D01*
X58700000Y-92267500D01*
X57700000Y-92267500D01*
X57700000Y-92325344D01*
X54625500Y-92325344D01*
X54625500Y-91810451D01*
X54645185Y-91743412D01*
X54661814Y-91722775D01*
X55804226Y-90580362D01*
X55865547Y-90546879D01*
X55935239Y-90551863D01*
X55991172Y-90593735D01*
X56011971Y-90640373D01*
X56012208Y-90640302D01*
X56012778Y-90642184D01*
X56013521Y-90643848D01*
X56013973Y-90646121D01*
X56013975Y-90646130D01*
X56013976Y-90646132D01*
X56015301Y-90650499D01*
X56071188Y-90834733D01*
X56164086Y-91008532D01*
X56164090Y-91008539D01*
X56289116Y-91160883D01*
X56441460Y-91285909D01*
X56441467Y-91285913D01*
X56615266Y-91378811D01*
X56615269Y-91378811D01*
X56615273Y-91378814D01*
X56803868Y-91436024D01*
X57000000Y-91455341D01*
X57196132Y-91436024D01*
X57384727Y-91378814D01*
X57558538Y-91285910D01*
X57559468Y-91285146D01*
X57560047Y-91284900D01*
X57563601Y-91282526D01*
X57564051Y-91283199D01*
X57623773Y-91257832D01*
X57680260Y-91267500D01*
X59076000Y-91267500D01*
X59143039Y-91287185D01*
X59188794Y-91339989D01*
X59200000Y-91391500D01*
X59200000Y-91767500D01*
X59576000Y-91767500D01*
X59643039Y-91787185D01*
X59688794Y-91839989D01*
X59700000Y-91891500D01*
X59700000Y-92777500D01*
X60176322Y-92777500D01*
X60238321Y-92794112D01*
X60245413Y-92798207D01*
X60347273Y-92825500D01*
X60347275Y-92825500D01*
X63652725Y-92825500D01*
X63652727Y-92825500D01*
X63754587Y-92798207D01*
X63760810Y-92794614D01*
X63822814Y-92777999D01*
X65847871Y-92777999D01*
X65847872Y-92777999D01*
X65907483Y-92771591D01*
X66042331Y-92721296D01*
X66157546Y-92635046D01*
X66243796Y-92519831D01*
X66243885Y-92519593D01*
X66261014Y-92473668D01*
X66302884Y-92417734D01*
X66368348Y-92393316D01*
X66377196Y-92393000D01*
X68294107Y-92393000D01*
X68354529Y-92380981D01*
X68414952Y-92368963D01*
X68414955Y-92368961D01*
X68414958Y-92368961D01*
X68448287Y-92355154D01*
X68448286Y-92355154D01*
X68448292Y-92355152D01*
X68528786Y-92321812D01*
X68605708Y-92270413D01*
X68631233Y-92253358D01*
X68718358Y-92166233D01*
X68718359Y-92166231D01*
X68725425Y-92159165D01*
X68725428Y-92159161D01*
X68782434Y-92102155D01*
X72450000Y-92102155D01*
X72450000Y-93400000D01*
X73950000Y-93400000D01*
X73950000Y-91650000D01*
X72902155Y-91650000D01*
X72842627Y-91656401D01*
X72842620Y-91656403D01*
X72707913Y-91706645D01*
X72707906Y-91706649D01*
X72592812Y-91792809D01*
X72592809Y-91792812D01*
X72506649Y-91907906D01*
X72506645Y-91907913D01*
X72456403Y-92042620D01*
X72456401Y-92042627D01*
X72450000Y-92102155D01*
X68782434Y-92102155D01*
X69058379Y-91826209D01*
X69119700Y-91792726D01*
X69132156Y-91790674D01*
X69179255Y-91785368D01*
X69349522Y-91725789D01*
X69502262Y-91629816D01*
X69629816Y-91502262D01*
X69725789Y-91349522D01*
X69785368Y-91179255D01*
X69792598Y-91115086D01*
X69805565Y-91000003D01*
X69805565Y-90999996D01*
X69785369Y-90820750D01*
X69785368Y-90820745D01*
X69744965Y-90705281D01*
X69725789Y-90650478D01*
X69723051Y-90646121D01*
X69629815Y-90497737D01*
X69502262Y-90370184D01*
X69349523Y-90274211D01*
X69179254Y-90214631D01*
X69179249Y-90214630D01*
X69000004Y-90194435D01*
X68999996Y-90194435D01*
X68820750Y-90214630D01*
X68820745Y-90214631D01*
X68650476Y-90274211D01*
X68497737Y-90370184D01*
X68370184Y-90497737D01*
X68274210Y-90650478D01*
X68214630Y-90820750D01*
X68209326Y-90867825D01*
X68182258Y-90932239D01*
X68173788Y-90941621D01*
X68009727Y-91105682D01*
X67948407Y-91139166D01*
X67922048Y-91142000D01*
X67534024Y-91142000D01*
X67466985Y-91122315D01*
X67421230Y-91069511D01*
X67411286Y-91000353D01*
X67440311Y-90936797D01*
X67465133Y-90914898D01*
X67537624Y-90866460D01*
X67570282Y-90844639D01*
X67709639Y-90705282D01*
X67743388Y-90671531D01*
X67777139Y-90637782D01*
X67886631Y-90473915D01*
X67962051Y-90291836D01*
X68000500Y-90098541D01*
X68000500Y-89901460D01*
X68000500Y-89901457D01*
X68000499Y-89901455D01*
X67980104Y-89798924D01*
X67962051Y-89708165D01*
X67886631Y-89526086D01*
X67886630Y-89526085D01*
X67886627Y-89526079D01*
X67777139Y-89362219D01*
X67777136Y-89362215D01*
X67637784Y-89222863D01*
X67637780Y-89222860D01*
X67473920Y-89113372D01*
X67473911Y-89113367D01*
X67291835Y-89037949D01*
X67291827Y-89037947D01*
X67098543Y-88999500D01*
X67098540Y-88999500D01*
X66901459Y-88999500D01*
X66901456Y-88999500D01*
X66708171Y-89037947D01*
X66708163Y-89037949D01*
X66660817Y-89057561D01*
X66613364Y-89067000D01*
X65937132Y-89067000D01*
X65908620Y-89063678D01*
X65907484Y-89063409D01*
X65907483Y-89063409D01*
X65907481Y-89063408D01*
X65907478Y-89063408D01*
X65847883Y-89057001D01*
X65847881Y-89057000D01*
X65847873Y-89057000D01*
X65847865Y-89057000D01*
X63790345Y-89057000D01*
X63758252Y-89052775D01*
X63722241Y-89043126D01*
X63652727Y-89024500D01*
X63652726Y-89024500D01*
X60888436Y-89024500D01*
X60821397Y-89004815D01*
X60775642Y-88952011D01*
X60765698Y-88882853D01*
X60794723Y-88819297D01*
X60800755Y-88812819D01*
X61168912Y-88444662D01*
X62778729Y-86834844D01*
X62778733Y-86834842D01*
X62865858Y-86747717D01*
X62900084Y-86696493D01*
X62934312Y-86645270D01*
X62971988Y-86554311D01*
X62981463Y-86531436D01*
X63005500Y-86410590D01*
X63005500Y-83273711D01*
X68149500Y-83273711D01*
X68149500Y-83516288D01*
X68160328Y-83598541D01*
X68181162Y-83756789D01*
X68201784Y-83833750D01*
X68243947Y-83991104D01*
X68323545Y-84183270D01*
X68336776Y-84215212D01*
X68458064Y-84425289D01*
X68458066Y-84425292D01*
X68458067Y-84425293D01*
X68605733Y-84617736D01*
X68605739Y-84617743D01*
X68777256Y-84789260D01*
X68777263Y-84789266D01*
X68863113Y-84855141D01*
X68969711Y-84936936D01*
X69179788Y-85058224D01*
X69403900Y-85151054D01*
X69638211Y-85213838D01*
X69811162Y-85236607D01*
X69878711Y-85245500D01*
X69878712Y-85245500D01*
X70121289Y-85245500D01*
X70169388Y-85239167D01*
X70361789Y-85213838D01*
X70596100Y-85151054D01*
X70820212Y-85058224D01*
X71030289Y-84936936D01*
X71222738Y-84789265D01*
X71394265Y-84617738D01*
X71541936Y-84425289D01*
X71599639Y-84325344D01*
X73700000Y-84325344D01*
X73706401Y-84384872D01*
X73706403Y-84384879D01*
X73756645Y-84519586D01*
X73756649Y-84519593D01*
X73842809Y-84634687D01*
X73842812Y-84634690D01*
X73957906Y-84720850D01*
X73957913Y-84720854D01*
X74092620Y-84771096D01*
X74092627Y-84771098D01*
X74152155Y-84777499D01*
X74152172Y-84777500D01*
X74700000Y-84777500D01*
X74700000Y-84267500D01*
X73700000Y-84267500D01*
X73700000Y-84325344D01*
X71599639Y-84325344D01*
X71663224Y-84215212D01*
X71756054Y-83991100D01*
X71818838Y-83756789D01*
X71850500Y-83516288D01*
X71850500Y-83273712D01*
X71818838Y-83033211D01*
X71756054Y-82798900D01*
X71663224Y-82574788D01*
X71541936Y-82364711D01*
X71446940Y-82240909D01*
X71394266Y-82172263D01*
X71394260Y-82172256D01*
X71222743Y-82000739D01*
X71222736Y-82000733D01*
X71030293Y-81853067D01*
X71030292Y-81853066D01*
X71030289Y-81853064D01*
X70820212Y-81731776D01*
X70815381Y-81729775D01*
X70596104Y-81638947D01*
X70361785Y-81576161D01*
X70121289Y-81544500D01*
X70121288Y-81544500D01*
X69878712Y-81544500D01*
X69878711Y-81544500D01*
X69638214Y-81576161D01*
X69403895Y-81638947D01*
X69179794Y-81731773D01*
X69179785Y-81731777D01*
X68969706Y-81853067D01*
X68777263Y-82000733D01*
X68777256Y-82000739D01*
X68605739Y-82172256D01*
X68605733Y-82172263D01*
X68458067Y-82364706D01*
X68336778Y-82574784D01*
X68336773Y-82574794D01*
X68243947Y-82798895D01*
X68181161Y-83033214D01*
X68149500Y-83273711D01*
X63005500Y-83273711D01*
X63005500Y-72947814D01*
X63025185Y-72880775D01*
X63070483Y-72838759D01*
X63079200Y-72834041D01*
X63148626Y-72796470D01*
X63163484Y-72784906D01*
X63271804Y-72700597D01*
X63331784Y-72653913D01*
X63488979Y-72483153D01*
X63546191Y-72395582D01*
X63599337Y-72350226D01*
X63668568Y-72340802D01*
X63731904Y-72370304D01*
G37*
%TD.AperFunction*%
%TA.AperFunction,Conductor*%
G36*
X73164342Y-117035323D02*
G01*
X73216861Y-117072840D01*
X73289116Y-117160883D01*
X73441460Y-117285909D01*
X73441467Y-117285913D01*
X73615266Y-117378811D01*
X73615269Y-117378811D01*
X73615273Y-117378814D01*
X73803868Y-117436024D01*
X74000000Y-117455341D01*
X74196132Y-117436024D01*
X74384727Y-117378814D01*
X74558538Y-117285910D01*
X74559468Y-117285146D01*
X74560047Y-117284900D01*
X74563601Y-117282526D01*
X74564051Y-117283199D01*
X74623773Y-117257832D01*
X74680260Y-117267500D01*
X76076000Y-117267500D01*
X76143039Y-117287185D01*
X76188794Y-117339989D01*
X76200000Y-117391500D01*
X76200000Y-117767500D01*
X76576000Y-117767500D01*
X76643039Y-117787185D01*
X76688794Y-117839989D01*
X76700000Y-117891500D01*
X76700000Y-118777500D01*
X77176322Y-118777500D01*
X77238321Y-118794112D01*
X77245413Y-118798207D01*
X77347273Y-118825500D01*
X77347275Y-118825500D01*
X80652725Y-118825500D01*
X80652727Y-118825500D01*
X80754587Y-118798207D01*
X80760810Y-118794614D01*
X80822814Y-118777999D01*
X81050500Y-118777999D01*
X81117539Y-118797684D01*
X81163294Y-118850488D01*
X81174500Y-118901999D01*
X81174500Y-119025494D01*
X81172117Y-119049685D01*
X81149500Y-119163389D01*
X81149500Y-120101766D01*
X81129815Y-120168805D01*
X81077011Y-120214560D01*
X81007853Y-120224504D01*
X80944297Y-120195479D01*
X80937819Y-120189447D01*
X80768933Y-120020561D01*
X80709825Y-119973424D01*
X80536185Y-119834950D01*
X80284117Y-119676565D01*
X80284114Y-119676563D01*
X80015904Y-119547400D01*
X79734920Y-119449079D01*
X79734912Y-119449076D01*
X79517233Y-119399393D01*
X79444675Y-119382832D01*
X79444671Y-119382831D01*
X79444662Y-119382830D01*
X79148853Y-119349500D01*
X79148849Y-119349500D01*
X78851151Y-119349500D01*
X78851146Y-119349500D01*
X78555337Y-119382830D01*
X78555325Y-119382832D01*
X78265087Y-119449076D01*
X78265079Y-119449079D01*
X77984095Y-119547400D01*
X77715885Y-119676563D01*
X77463816Y-119834949D01*
X77231066Y-120020561D01*
X77020561Y-120231066D01*
X76834949Y-120463816D01*
X76676563Y-120715885D01*
X76547400Y-120984095D01*
X76449079Y-121265079D01*
X76449076Y-121265087D01*
X76382832Y-121555325D01*
X76382830Y-121555337D01*
X76349500Y-121851146D01*
X76349500Y-122148853D01*
X76382830Y-122444662D01*
X76382832Y-122444674D01*
X76449076Y-122734912D01*
X76449079Y-122734920D01*
X76547400Y-123015904D01*
X76676563Y-123284114D01*
X76676565Y-123284117D01*
X76834950Y-123536185D01*
X77020562Y-123768934D01*
X77231066Y-123979438D01*
X77463815Y-124165050D01*
X77715883Y-124323435D01*
X77984099Y-124452601D01*
X78195135Y-124526445D01*
X78265079Y-124550920D01*
X78265087Y-124550923D01*
X78265090Y-124550923D01*
X78265091Y-124550924D01*
X78555325Y-124617168D01*
X78851147Y-124650499D01*
X78851148Y-124650500D01*
X79089990Y-124650500D01*
X79157029Y-124670185D01*
X79202784Y-124722989D01*
X79212728Y-124792147D01*
X79183703Y-124855703D01*
X79177671Y-124862181D01*
X78876672Y-125163181D01*
X78815349Y-125196666D01*
X78788991Y-125199500D01*
X73829137Y-125199500D01*
X73829117Y-125199499D01*
X73823003Y-125199499D01*
X73699790Y-125199499D01*
X73598993Y-125219548D01*
X73598988Y-125219548D01*
X73578945Y-125223536D01*
X73578943Y-125223536D01*
X73531793Y-125243067D01*
X73465115Y-125270685D01*
X73465113Y-125270686D01*
X73362662Y-125339141D01*
X73362659Y-125339144D01*
X72012181Y-126689623D01*
X71950858Y-126723108D01*
X71881166Y-126718124D01*
X71825233Y-126676252D01*
X71800816Y-126610788D01*
X71800500Y-126601942D01*
X71800500Y-118348014D01*
X71807157Y-118325344D01*
X74700000Y-118325344D01*
X74706401Y-118384872D01*
X74706403Y-118384879D01*
X74756645Y-118519586D01*
X74756649Y-118519593D01*
X74842809Y-118634687D01*
X74842812Y-118634690D01*
X74957906Y-118720850D01*
X74957913Y-118720854D01*
X75092620Y-118771096D01*
X75092627Y-118771098D01*
X75152155Y-118777499D01*
X75152172Y-118777500D01*
X75700000Y-118777500D01*
X75700000Y-118267500D01*
X74700000Y-118267500D01*
X74700000Y-118325344D01*
X71807157Y-118325344D01*
X71820185Y-118280975D01*
X71836814Y-118260338D01*
X73033329Y-117063822D01*
X73094650Y-117030339D01*
X73164342Y-117035323D01*
G37*
%TD.AperFunction*%
%TA.AperFunction,Conductor*%
G36*
X73680260Y-99267500D02*
G01*
X75076000Y-99267500D01*
X75143039Y-99287185D01*
X75188794Y-99339989D01*
X75200000Y-99391500D01*
X75200000Y-100143500D01*
X75180315Y-100210539D01*
X75127511Y-100256294D01*
X75076000Y-100267500D01*
X73700000Y-100267500D01*
X73700000Y-100325344D01*
X73706401Y-100384872D01*
X73706402Y-100384876D01*
X73714716Y-100407166D01*
X73719700Y-100476858D01*
X73686215Y-100538181D01*
X73624892Y-100571666D01*
X73598534Y-100574500D01*
X72738388Y-100574500D01*
X72712820Y-100579586D01*
X72617554Y-100598535D01*
X72617541Y-100598539D01*
X72585262Y-100611909D01*
X72570397Y-100618067D01*
X72521952Y-100638134D01*
X72452482Y-100645603D01*
X72390003Y-100614328D01*
X72354351Y-100554239D01*
X72350499Y-100523573D01*
X72350499Y-99444171D01*
X72370184Y-99377132D01*
X72422988Y-99331377D01*
X72492146Y-99321433D01*
X72532952Y-99334813D01*
X72615267Y-99378811D01*
X72615273Y-99378814D01*
X72803868Y-99436024D01*
X73000000Y-99455341D01*
X73196132Y-99436024D01*
X73384727Y-99378814D01*
X73558538Y-99285910D01*
X73559468Y-99285146D01*
X73560047Y-99284900D01*
X73563601Y-99282526D01*
X73564051Y-99283199D01*
X73623773Y-99257832D01*
X73680260Y-99267500D01*
G37*
%TD.AperFunction*%
%TD*%
M02*
