M48
; DRILL file {KiCad 8.0.7} date 2025-04-08T15:53:08+0900
; FORMAT={-:-/ absolute / inch / decimal}
; #@! TF.CreationDate,2025-04-08T15:53:08+09:00
; #@! TF.GenerationSoftware,Kicad,Pcbnew,8.0.7
; #@! TF.FileFunction,NonPlated,1,2,NPTH
FMAT,2
INCH
; #@! TA.AperFunction,NonPlated,NPTH,ComponentDrill
T1C0.0118
; #@! TA.AperFunction,NonPlated,NPTH,ComponentDrill
T2C0.0197
; #@! TA.AperFunction,NonPlated,NPTH,ComponentDrill
T3C0.0394
; #@! TA.AperFunction,NonPlated,NPTH,ComponentDrill
T4C0.0591
; #@! TA.AperFunction,NonPlated,NPTH,ComponentDrill
T5C0.1181
; #@! TA.AperFunction,NonPlated,NPTH,ComponentDrill
T6C0.1260
; #@! TA.AperFunction,NonPlated,NPTH,ComponentDrill
T7C0.1890
%
G90
G05
T3
X2.2047Y-4.5846
X2.2047Y-5.2933
X2.2441Y-3.561
X2.874Y-3.2461
X2.874Y-3.876
X2.9134Y-4.5846
X2.9134Y-5.2933
T5
X2.4016Y-5.0354
X2.4016Y-5.7441
X2.4409Y-4.0118
X2.5984Y-4.9488
X2.5984Y-5.6575
X2.6378Y-3.9252
X3.0709Y-3.6969
X3.0709Y-4.3268
X3.1102Y-5.0354
X3.1102Y-5.7441
X3.2677Y-3.6102
X3.2677Y-4.2402
X3.3071Y-4.9488
X3.3071Y-5.6575
T6
X2.7559Y-3.2833
X2.7559Y-5.4728
T7
X2.4016Y-4.8031
X2.4016Y-5.5118
X2.4409Y-3.7795
X3.0709Y-3.4646
X3.0709Y-4.0945
X3.1102Y-4.8031
X3.1102Y-5.5118
T1
G00X2.3386Y-4.5472
M15
G01X2.3386Y-4.6654
M16
G05
G00X2.3406Y-5.2579
M15
G01X2.3406Y-5.376
M16
G05
G00X2.378Y-3.5207
M15
G01X2.378Y-3.6388
M16
G05
G00X2.3386Y-4.5472
M15
G01X2.4646Y-4.5472
M16
G05
G00X2.3386Y-4.6654
M15
G01X2.4646Y-4.6654
M16
G05
G00X2.3406Y-5.2579
M15
G01X2.4665Y-5.2579
M16
G05
G00X2.3406Y-5.376
M15
G01X2.4665Y-5.376
M16
G05
G00X2.378Y-3.5207
M15
G01X2.5039Y-3.5207
M16
G05
G00X2.378Y-3.6388
M15
G01X2.5039Y-3.6388
M16
G05
G00X2.4646Y-4.5472
M15
G01X2.4646Y-4.6654
M16
G05
G00X2.4665Y-5.2579
M15
G01X2.4665Y-5.376
M16
G05
G00X2.5039Y-3.5207
M15
G01X2.5039Y-3.6388
M16
G05
G00X3.0079Y-3.2057
M15
G01X3.0079Y-3.3238
M16
G05
G00X3.0079Y-3.8356
M15
G01X3.0079Y-3.9537
M16
G05
G00X3.0472Y-4.5443
M15
G01X3.0472Y-4.6624
M16
G05
G00X3.061Y-5.2638
M15
G01X3.061Y-5.3819
M16
G05
G00X3.0079Y-3.2057
M15
G01X3.1339Y-3.2057
M16
G05
G00X3.0079Y-3.3238
M15
G01X3.1339Y-3.3238
M16
G05
G00X3.0079Y-3.8356
M15
G01X3.1339Y-3.8356
M16
G05
G00X3.0079Y-3.9537
M15
G01X3.1339Y-3.9537
M16
G05
G00X3.0472Y-4.5443
M15
G01X3.1732Y-4.5443
M16
G05
G00X3.0472Y-4.6624
M15
G01X3.1732Y-4.6624
M16
G05
G00X3.061Y-5.2638
M15
G01X3.187Y-5.2638
M16
G05
G00X3.061Y-5.3819
M15
G01X3.187Y-5.3819
M16
G05
G00X3.1339Y-3.2057
M15
G01X3.1339Y-3.3238
M16
G05
G00X3.1339Y-3.8356
M15
G01X3.1339Y-3.9537
M16
G05
G00X3.1732Y-4.5443
M15
G01X3.1732Y-4.6624
M16
G05
G00X3.187Y-5.2638
M15
G01X3.187Y-5.3819
M16
G05
T2
G00X2.3494Y-4.5512
M15
G01X2.3494Y-4.6614
M16
G05
G00X2.3514Y-5.2618
M15
G01X2.3514Y-5.372
M16
G05
G00X2.3888Y-3.5246
M15
G01X2.3888Y-3.6348
M16
G05
G00X2.4537Y-4.5512
M15
G01X2.4537Y-4.6614
M16
G05
G00X2.4557Y-5.2618
M15
G01X2.4557Y-5.372
M16
G05
G00X2.4931Y-3.5246
M15
G01X2.4931Y-3.6348
M16
G05
G00X3.0187Y-3.2096
M15
G01X3.0187Y-3.3199
M16
G05
G00X3.0187Y-3.8396
M15
G01X3.0187Y-3.9498
M16
G05
G00X3.0581Y-4.5482
M15
G01X3.0581Y-4.6585
M16
G05
G00X3.0719Y-5.2677
M15
G01X3.0719Y-5.378
M16
G05
G00X3.123Y-3.2096
M15
G01X3.123Y-3.3199
M16
G05
G00X3.123Y-3.8396
M15
G01X3.123Y-3.9498
M16
G05
G00X3.1624Y-4.5482
M15
G01X3.1624Y-4.6585
M16
G05
G00X3.1762Y-5.2677
M15
G01X3.1762Y-5.378
M16
G05
T4
G00X2.374Y-4.5709
M15
G01X2.374Y-4.6417
M16
G05
G00X2.376Y-5.2815
M15
G01X2.376Y-5.3524
M16
G05
G00X2.4114Y-4.5709
M15
G01X2.4114Y-4.6417
M16
G05
G00X2.4134Y-3.5443
M15
G01X2.4134Y-3.6152
M16
G05
G00X2.4134Y-5.2815
M15
G01X2.4134Y-5.3524
M16
G05
G00X2.4281Y-4.5709
M15
G01X2.4281Y-4.6417
M16
G05
G00X2.4301Y-5.2815
M15
G01X2.4301Y-5.3524
M16
G05
G00X2.4508Y-3.5443
M15
G01X2.4508Y-3.6152
M16
G05
G00X2.4675Y-3.5443
M15
G01X2.4675Y-3.6152
M16
G05
G00X3.0433Y-3.2293
M15
G01X3.0433Y-3.3002
M16
G05
G00X3.0433Y-3.8593
M15
G01X3.0433Y-3.9301
M16
G05
G00X3.0807Y-3.2293
M15
G01X3.0807Y-3.3002
M16
G05
G00X3.0807Y-3.8593
M15
G01X3.0807Y-3.9301
M16
G05
G00X3.0827Y-4.5679
M15
G01X3.0827Y-4.6388
M16
G05
G00X3.0965Y-5.2874
M15
G01X3.0965Y-5.3583
M16
G05
G00X3.0974Y-3.2293
M15
G01X3.0974Y-3.3002
M16
G05
G00X3.0974Y-3.8593
M15
G01X3.0974Y-3.9301
M16
G05
G00X3.1201Y-4.5679
M15
G01X3.1201Y-4.6388
M16
G05
G00X3.1339Y-5.2874
M15
G01X3.1339Y-5.3583
M16
G05
G00X3.1368Y-4.5679
M15
G01X3.1368Y-4.6388
M16
G05
G00X3.1506Y-5.2874
M15
G01X3.1506Y-5.3583
M16
G05
M30
