%TF.GenerationSoftware,KiCad,Pcbnew,8.0.7*%
%TF.CreationDate,2025-04-08T15:53:03+09:00*%
%TF.ProjectId,Choc2,43686f63-322e-46b6-9963-61645f706362,rev?*%
%TF.SameCoordinates,Original*%
%TF.FileFunction,Paste,Top*%
%TF.FilePolarity,Positive*%
%FSLAX46Y46*%
G04 Gerber Fmt 4.6, Leading zero omitted, Abs format (unit mm)*
G04 Created by KiCad (PCBNEW 8.0.7) date 2025-04-08 15:53:03*
%MOMM*%
%LPD*%
G01*
G04 APERTURE LIST*
%ADD10R,2.000000X1.020000*%
%ADD11R,3.000000X3.500000*%
G04 APERTURE END LIST*
D10*
%TO.C,LED7*%
X82150000Y-134342500D03*
X82150000Y-136042500D03*
X76550000Y-136042500D03*
X76550000Y-134342500D03*
%TD*%
%TO.C,LED6*%
X63850000Y-134192500D03*
X63850000Y-135892500D03*
X58250000Y-135892500D03*
X58250000Y-134192500D03*
%TD*%
%TO.C,LED1*%
X64800000Y-90067500D03*
X64800000Y-91767500D03*
X59200000Y-91767500D03*
X59200000Y-90067500D03*
%TD*%
D11*
%TO.C,SW1*%
X70350000Y-99700000D03*
X58450000Y-101900000D03*
%TD*%
%TO.C,SW2*%
X86350000Y-91700000D03*
X74450000Y-93900000D03*
%TD*%
%TO.C,SW6*%
X69350000Y-143700000D03*
X57450000Y-145900000D03*
%TD*%
D10*
%TO.C,LED5*%
X81800000Y-116067500D03*
X81800000Y-117767500D03*
X76200000Y-117767500D03*
X76200000Y-116067500D03*
%TD*%
D11*
%TO.C,SW7*%
X87350000Y-143700000D03*
X75450000Y-145900000D03*
%TD*%
%TO.C,SW5*%
X87350000Y-125700000D03*
X75450000Y-127900000D03*
%TD*%
D10*
%TO.C,LED2*%
X80800000Y-82067500D03*
X80800000Y-83767500D03*
X75200000Y-83767500D03*
X75200000Y-82067500D03*
%TD*%
%TO.C,LED4*%
X63800000Y-116142500D03*
X63800000Y-117842500D03*
X58200000Y-117842500D03*
X58200000Y-116142500D03*
%TD*%
D11*
%TO.C,SW3*%
X86350000Y-107700000D03*
X74450000Y-109900000D03*
%TD*%
D10*
%TO.C,LED3*%
X80800000Y-98067500D03*
X80800000Y-99767500D03*
X75200000Y-99767500D03*
X75200000Y-98067500D03*
%TD*%
D11*
%TO.C,SW4*%
X69350000Y-125700000D03*
X57450000Y-127900000D03*
%TD*%
M02*
