M48
; DRILL file {KiCad 8.0.7} date 2025-04-09T10:11:29+0900
; FORMAT={-:-/ absolute / inch / decimal}
; #@! TF.CreationDate,2025-04-09T10:11:29+09:00
; #@! TF.GenerationSoftware,Kicad,Pcbnew,8.0.7
; #@! TF.FileFunction,Plated,1,2,PTH
FMAT,2
INCH
; #@! TA.AperFunction,Plated,PTH,ViaDrill
T1C0.0118
; #@! TA.AperFunction,Plated,PTH,ComponentDrill
T2C0.0295
; #@! TA.AperFunction,Plated,PTH,ComponentDrill
T3C0.0320
; #@! TA.AperFunction,Plated,PTH,ComponentDrill
T4C0.0394
; #@! TA.AperFunction,Plated,PTH,ComponentDrill
T5C0.0543
; #@! TA.AperFunction,Plated,PTH,ComponentDrill
T6C0.0787
%
G90
G05
T1
X2.1654Y-4.9213
X2.1654Y-5.6496
X2.2047Y-5.4331
X2.2441Y-3.8976
X2.2441Y-4.685
X2.2835Y-3.6614
X2.2835Y-5.2362
X2.4016Y-5.1772
X2.5492Y-4.5177
X2.5591Y-3.0118
X2.5984Y-5.2165
X2.6378Y-3.5827
X2.8346Y-3.6024
X2.8386Y-4.3268
X2.8937Y-3.3465
X2.9134Y-3.9764
X2.9134Y-4.9016
X2.9134Y-5.4331
X2.9134Y-5.5118
X2.9528Y-4.685
X3.1693Y-5.1772
X3.2677Y-3.3465
X3.2677Y-3.8583
X3.3071Y-4.5669
X3.3858Y-5.5315
X3.4252Y-4.8425
X3.4646Y-4.0748
T2
X2.2618Y-2.4803
X2.2618Y-2.5591
X3.25Y-2.4409
X3.25Y-2.5197
X3.25Y-2.5984
T3
X2.4559Y-2.2197
X2.4559Y-2.8197
X2.5559Y-2.2197
X2.5559Y-2.8197
X2.6559Y-2.2197
X2.6559Y-2.8197
X2.7559Y-2.2197
X2.7559Y-2.8197
X2.8559Y-2.2197
X2.8559Y-2.8197
X2.9559Y-2.2197
X2.9559Y-2.8197
X3.0559Y-2.2197
X3.0559Y-2.8197
T4
X2.6059Y-2.0669
X2.7059Y-2.0669
X2.8059Y-2.0669
X2.9059Y-2.0669
T6
X2.3228Y-2.0866
X2.3228Y-2.9528
X3.189Y-2.0866
X3.189Y-2.9528
T5
G00X2.776Y-2.9488
M15
G01X2.7358Y-2.9488
M16
G05
G00X2.776Y-5.8189
M15
G01X2.7358Y-5.8189
M16
G05
M30
