%TF.GenerationSoftware,KiCad,Pcbnew,8.0.7*%
%TF.CreationDate,2025-04-09T10:11:19+09:00*%
%TF.ProjectId,Choc2,43686f63-322e-46b6-9963-61645f706362,rev?*%
%TF.SameCoordinates,Original*%
%TF.FileFunction,Legend,Top*%
%TF.FilePolarity,Positive*%
%FSLAX46Y46*%
G04 Gerber Fmt 4.6, Leading zero omitted, Abs format (unit mm)*
G04 Created by KiCad (PCBNEW 8.0.7) date 2025-04-09 10:11:19*
%MOMM*%
%LPD*%
G01*
G04 APERTURE LIST*
%ADD10C,0.300000*%
%ADD11C,0.150000*%
%ADD12C,0.127000*%
%ADD13C,0.100000*%
%ADD14C,0.500000*%
G04 APERTURE END LIST*
D10*
X80945489Y-96729400D02*
X79802632Y-96729400D01*
X80374060Y-97300828D02*
X80374060Y-96157971D01*
G36*
X73156892Y-70117495D02*
G01*
X71597868Y-70117495D01*
X71597868Y-69771565D01*
X71764535Y-69771565D01*
X71764535Y-69830091D01*
X71786932Y-69884163D01*
X71828318Y-69925549D01*
X71859992Y-69938668D01*
X71882389Y-69947946D01*
X71911653Y-69950828D01*
X72840225Y-69950828D01*
X72869489Y-69947946D01*
X72923561Y-69925548D01*
X72964945Y-69884164D01*
X72987343Y-69830092D01*
X72987343Y-69771564D01*
X72964945Y-69717492D01*
X72923561Y-69676108D01*
X72869489Y-69653710D01*
X72840225Y-69650828D01*
X72273785Y-69650828D01*
X72874862Y-69049751D01*
X72893517Y-69027021D01*
X72895580Y-69022039D01*
X72899110Y-69017970D01*
X72911098Y-68991120D01*
X72982527Y-68776835D01*
X72985826Y-68762325D01*
X72987343Y-68758664D01*
X72987865Y-68753355D01*
X72989047Y-68748161D01*
X72988766Y-68744211D01*
X72990225Y-68729400D01*
X72990225Y-68586542D01*
X72987343Y-68557278D01*
X72985279Y-68552297D01*
X72984898Y-68546923D01*
X72974389Y-68519459D01*
X72902960Y-68376603D01*
X72895033Y-68364011D01*
X72893517Y-68360349D01*
X72890133Y-68356226D01*
X72887295Y-68351717D01*
X72884302Y-68349121D01*
X72874862Y-68337619D01*
X72803434Y-68266191D01*
X72791932Y-68256751D01*
X72789336Y-68253758D01*
X72784822Y-68250917D01*
X72780703Y-68247536D01*
X72777043Y-68246020D01*
X72764450Y-68238093D01*
X72621592Y-68166664D01*
X72594129Y-68156154D01*
X72588751Y-68155771D01*
X72583774Y-68153710D01*
X72554510Y-68150828D01*
X72197368Y-68150828D01*
X72168104Y-68153710D01*
X72163126Y-68155771D01*
X72157749Y-68156154D01*
X72130286Y-68166664D01*
X71987428Y-68238093D01*
X71974836Y-68246019D01*
X71971174Y-68247536D01*
X71967051Y-68250919D01*
X71962542Y-68253758D01*
X71959946Y-68256750D01*
X71948444Y-68266191D01*
X71877016Y-68337619D01*
X71858361Y-68360350D01*
X71835964Y-68414422D01*
X71835964Y-68472948D01*
X71858361Y-68527020D01*
X71899747Y-68568406D01*
X71953819Y-68590803D01*
X72012345Y-68590803D01*
X72066417Y-68568406D01*
X72089148Y-68549751D01*
X72143364Y-68495535D01*
X72232778Y-68450828D01*
X72519100Y-68450828D01*
X72608514Y-68495535D01*
X72645518Y-68532539D01*
X72690225Y-68621952D01*
X72690225Y-68705059D01*
X72637691Y-68862657D01*
X71805587Y-69694762D01*
X71786932Y-69717493D01*
X71764535Y-69771565D01*
X71597868Y-69771565D01*
X71597868Y-67984161D01*
X73156892Y-67984161D01*
X73156892Y-70117495D01*
G37*
X65054510Y-54800828D02*
X65054510Y-53300828D01*
X65054510Y-53300828D02*
X65411653Y-53300828D01*
X65411653Y-53300828D02*
X65625939Y-53372257D01*
X65625939Y-53372257D02*
X65768796Y-53515114D01*
X65768796Y-53515114D02*
X65840225Y-53657971D01*
X65840225Y-53657971D02*
X65911653Y-53943685D01*
X65911653Y-53943685D02*
X65911653Y-54157971D01*
X65911653Y-54157971D02*
X65840225Y-54443685D01*
X65840225Y-54443685D02*
X65768796Y-54586542D01*
X65768796Y-54586542D02*
X65625939Y-54729400D01*
X65625939Y-54729400D02*
X65411653Y-54800828D01*
X65411653Y-54800828D02*
X65054510Y-54800828D01*
X66483082Y-54372257D02*
X67197368Y-54372257D01*
X66340225Y-54800828D02*
X66840225Y-53300828D01*
X66840225Y-53300828D02*
X67340225Y-54800828D01*
X63945489Y-132729400D02*
X62802632Y-132729400D01*
X63374060Y-133300828D02*
X63374060Y-132157971D01*
X71945489Y-54229400D02*
X70802632Y-54229400D01*
X71374060Y-54800828D02*
X71374060Y-53657971D01*
G36*
X75654010Y-68117495D02*
G01*
X74167593Y-68117495D01*
X74167593Y-66710639D01*
X74334260Y-66710639D01*
X74338409Y-66769019D01*
X74364583Y-66821368D01*
X74408798Y-66859715D01*
X74464321Y-66878222D01*
X74522701Y-66874073D01*
X74550164Y-66863564D01*
X74693021Y-66792135D01*
X74705614Y-66784207D01*
X74709274Y-66782692D01*
X74713393Y-66779310D01*
X74717907Y-66776470D01*
X74720503Y-66773476D01*
X74732005Y-66764037D01*
X74761653Y-66734389D01*
X74761653Y-67650828D01*
X74483082Y-67650828D01*
X74453818Y-67653710D01*
X74399746Y-67676108D01*
X74358362Y-67717492D01*
X74335964Y-67771564D01*
X74335964Y-67830092D01*
X74358362Y-67884164D01*
X74399746Y-67925548D01*
X74453818Y-67947946D01*
X74483082Y-67950828D01*
X75340225Y-67950828D01*
X75369489Y-67947946D01*
X75423561Y-67925548D01*
X75464945Y-67884164D01*
X75487343Y-67830092D01*
X75487343Y-67771564D01*
X75464945Y-67717492D01*
X75423561Y-67676108D01*
X75369489Y-67653710D01*
X75340225Y-67650828D01*
X75061653Y-67650828D01*
X75061653Y-66300828D01*
X75061642Y-66300722D01*
X75061653Y-66300670D01*
X75061622Y-66300516D01*
X75058771Y-66271564D01*
X75053087Y-66257843D01*
X75050175Y-66243281D01*
X75041996Y-66231068D01*
X75036373Y-66217492D01*
X75025874Y-66206993D01*
X75017609Y-66194651D01*
X75005378Y-66186497D01*
X74994989Y-66176108D01*
X74981270Y-66170425D01*
X74968910Y-66162185D01*
X74954491Y-66159332D01*
X74940917Y-66153710D01*
X74926066Y-66153710D01*
X74911496Y-66150828D01*
X74897086Y-66153710D01*
X74882389Y-66153710D01*
X74868667Y-66159393D01*
X74854106Y-66162306D01*
X74841893Y-66170484D01*
X74828317Y-66176108D01*
X74817818Y-66186606D01*
X74805476Y-66194872D01*
X74787044Y-66217380D01*
X74786933Y-66217492D01*
X74786912Y-66217542D01*
X74786846Y-66217623D01*
X74652226Y-66419551D01*
X74537085Y-66534692D01*
X74416000Y-66595236D01*
X74391114Y-66610901D01*
X74352767Y-66655116D01*
X74334260Y-66710639D01*
X74167593Y-66710639D01*
X74167593Y-65984161D01*
X75654010Y-65984161D01*
X75654010Y-68117495D01*
G37*
G36*
X53537085Y-120066963D02*
G01*
X53574088Y-120103967D01*
X53618796Y-120193381D01*
X53618796Y-120479703D01*
X53574088Y-120569117D01*
X53537085Y-120606121D01*
X53447672Y-120650828D01*
X53232777Y-120650828D01*
X53143363Y-120606121D01*
X53106358Y-120569116D01*
X53061653Y-120479704D01*
X53061653Y-120193380D01*
X53106358Y-120103968D01*
X53143363Y-120066963D01*
X53232777Y-120022257D01*
X53447672Y-120022257D01*
X53537085Y-120066963D01*
G37*
G36*
X54085463Y-121117495D02*
G01*
X51167593Y-121117495D01*
X51167593Y-119710639D01*
X51334260Y-119710639D01*
X51338409Y-119769019D01*
X51364583Y-119821368D01*
X51408798Y-119859715D01*
X51464321Y-119878222D01*
X51522701Y-119874073D01*
X51550164Y-119863564D01*
X51693021Y-119792135D01*
X51705614Y-119784207D01*
X51709274Y-119782692D01*
X51713393Y-119779310D01*
X51717907Y-119776470D01*
X51720503Y-119773476D01*
X51732005Y-119764037D01*
X51761653Y-119734389D01*
X51761653Y-120650828D01*
X51483082Y-120650828D01*
X51453818Y-120653710D01*
X51399746Y-120676108D01*
X51358362Y-120717492D01*
X51335964Y-120771564D01*
X51335964Y-120830092D01*
X51358362Y-120884164D01*
X51399746Y-120925548D01*
X51453818Y-120947946D01*
X51483082Y-120950828D01*
X52340225Y-120950828D01*
X52369489Y-120947946D01*
X52423561Y-120925548D01*
X52464945Y-120884164D01*
X52487343Y-120830092D01*
X52487343Y-120771564D01*
X52464945Y-120717492D01*
X52423561Y-120676108D01*
X52369489Y-120653710D01*
X52340225Y-120650828D01*
X52061653Y-120650828D01*
X52061653Y-119943685D01*
X52761653Y-119943685D01*
X52761653Y-120515114D01*
X52764535Y-120544378D01*
X52766597Y-120549356D01*
X52766979Y-120554732D01*
X52777489Y-120582196D01*
X52848917Y-120725053D01*
X52856844Y-120737646D01*
X52858360Y-120741306D01*
X52861741Y-120745425D01*
X52864582Y-120749939D01*
X52867575Y-120752535D01*
X52877015Y-120764037D01*
X52948444Y-120835466D01*
X52959948Y-120844907D01*
X52962543Y-120847899D01*
X52967052Y-120850737D01*
X52971175Y-120854121D01*
X52974836Y-120855637D01*
X52987428Y-120863564D01*
X53130286Y-120934992D01*
X53157749Y-120945502D01*
X53163124Y-120945883D01*
X53168103Y-120947946D01*
X53197367Y-120950828D01*
X53483081Y-120950828D01*
X53512345Y-120947946D01*
X53517323Y-120945883D01*
X53522699Y-120945502D01*
X53550162Y-120934992D01*
X53693021Y-120863564D01*
X53705615Y-120855635D01*
X53709275Y-120854120D01*
X53713395Y-120850738D01*
X53717906Y-120847899D01*
X53720500Y-120844907D01*
X53732006Y-120835465D01*
X53803434Y-120764036D01*
X53812872Y-120752535D01*
X53815866Y-120749939D01*
X53818706Y-120745426D01*
X53822088Y-120741306D01*
X53823603Y-120737646D01*
X53831531Y-120725053D01*
X53902960Y-120582197D01*
X53913469Y-120554733D01*
X53913850Y-120549358D01*
X53915914Y-120544378D01*
X53918796Y-120515114D01*
X53918796Y-120157971D01*
X53915914Y-120128707D01*
X53913850Y-120123726D01*
X53913469Y-120118352D01*
X53902960Y-120090888D01*
X53831531Y-119948032D01*
X53823603Y-119935438D01*
X53822088Y-119931779D01*
X53818706Y-119927658D01*
X53815866Y-119923146D01*
X53812872Y-119920549D01*
X53803434Y-119909049D01*
X53732006Y-119837620D01*
X53720500Y-119828177D01*
X53717906Y-119825186D01*
X53713395Y-119822346D01*
X53709275Y-119818965D01*
X53705615Y-119817449D01*
X53693021Y-119809521D01*
X53550162Y-119738093D01*
X53522699Y-119727583D01*
X53517323Y-119727201D01*
X53512345Y-119725139D01*
X53483081Y-119722257D01*
X53197367Y-119722257D01*
X53168103Y-119725139D01*
X53163124Y-119727201D01*
X53157749Y-119727583D01*
X53130286Y-119738093D01*
X53115863Y-119745303D01*
X53122300Y-119719557D01*
X53242505Y-119539250D01*
X53286221Y-119495534D01*
X53375634Y-119450828D01*
X53625939Y-119450828D01*
X53655203Y-119447946D01*
X53709275Y-119425548D01*
X53750659Y-119384164D01*
X53773057Y-119330092D01*
X53773057Y-119271564D01*
X53750659Y-119217492D01*
X53709275Y-119176108D01*
X53655203Y-119153710D01*
X53625939Y-119150828D01*
X53340224Y-119150828D01*
X53310960Y-119153710D01*
X53305979Y-119155773D01*
X53300605Y-119156155D01*
X53273141Y-119166664D01*
X53130285Y-119238093D01*
X53117693Y-119246019D01*
X53114031Y-119247536D01*
X53109908Y-119250919D01*
X53105399Y-119253758D01*
X53102803Y-119256750D01*
X53091301Y-119266191D01*
X53019873Y-119337619D01*
X53019808Y-119337698D01*
X53019762Y-119337729D01*
X53010439Y-119349114D01*
X53001218Y-119360350D01*
X53001197Y-119360400D01*
X53001132Y-119360480D01*
X52858274Y-119574766D01*
X52849659Y-119590921D01*
X52847453Y-119593900D01*
X52846196Y-119597416D01*
X52844439Y-119600713D01*
X52843719Y-119604350D01*
X52837560Y-119621591D01*
X52766132Y-119907305D01*
X52765382Y-119912376D01*
X52764535Y-119914421D01*
X52763449Y-119925443D01*
X52761830Y-119936394D01*
X52762155Y-119938581D01*
X52761653Y-119943685D01*
X52061653Y-119943685D01*
X52061653Y-119300828D01*
X52061642Y-119300722D01*
X52061653Y-119300670D01*
X52061622Y-119300516D01*
X52058771Y-119271564D01*
X52053087Y-119257843D01*
X52050175Y-119243281D01*
X52041996Y-119231068D01*
X52036373Y-119217492D01*
X52025874Y-119206993D01*
X52017609Y-119194651D01*
X52005378Y-119186497D01*
X51994989Y-119176108D01*
X51981270Y-119170425D01*
X51968910Y-119162185D01*
X51954491Y-119159332D01*
X51940917Y-119153710D01*
X51926066Y-119153710D01*
X51911496Y-119150828D01*
X51897086Y-119153710D01*
X51882389Y-119153710D01*
X51868667Y-119159393D01*
X51854106Y-119162306D01*
X51841893Y-119170484D01*
X51828317Y-119176108D01*
X51817818Y-119186606D01*
X51805476Y-119194872D01*
X51787044Y-119217380D01*
X51786933Y-119217492D01*
X51786912Y-119217542D01*
X51786846Y-119217623D01*
X51652226Y-119419551D01*
X51537085Y-119534692D01*
X51416000Y-119595236D01*
X51391114Y-119610901D01*
X51352767Y-119655116D01*
X51334260Y-119710639D01*
X51167593Y-119710639D01*
X51167593Y-118984161D01*
X54085463Y-118984161D01*
X54085463Y-121117495D01*
G37*
X68911653Y-54657971D02*
X68840225Y-54729400D01*
X68840225Y-54729400D02*
X68625939Y-54800828D01*
X68625939Y-54800828D02*
X68483082Y-54800828D01*
X68483082Y-54800828D02*
X68268796Y-54729400D01*
X68268796Y-54729400D02*
X68125939Y-54586542D01*
X68125939Y-54586542D02*
X68054510Y-54443685D01*
X68054510Y-54443685D02*
X67983082Y-54157971D01*
X67983082Y-54157971D02*
X67983082Y-53943685D01*
X67983082Y-53943685D02*
X68054510Y-53657971D01*
X68054510Y-53657971D02*
X68125939Y-53515114D01*
X68125939Y-53515114D02*
X68268796Y-53372257D01*
X68268796Y-53372257D02*
X68483082Y-53300828D01*
X68483082Y-53300828D02*
X68625939Y-53300828D01*
X68625939Y-53300828D02*
X68840225Y-53372257D01*
X68840225Y-53372257D02*
X68911653Y-53443685D01*
X70268796Y-54800828D02*
X69554510Y-54800828D01*
X69554510Y-54800828D02*
X69554510Y-53300828D01*
X64945489Y-88729400D02*
X63802632Y-88729400D01*
X64374060Y-89300828D02*
X64374060Y-88157971D01*
G36*
X69085463Y-70117495D02*
G01*
X66097868Y-70117495D01*
X66097868Y-69771565D01*
X66264535Y-69771565D01*
X66264535Y-69830091D01*
X66286932Y-69884163D01*
X66328318Y-69925549D01*
X66359992Y-69938668D01*
X66382389Y-69947946D01*
X66411653Y-69950828D01*
X67340225Y-69950828D01*
X67369489Y-69947946D01*
X67423561Y-69925548D01*
X67464945Y-69884164D01*
X67487343Y-69830092D01*
X67487343Y-69771565D01*
X67693106Y-69771565D01*
X67693106Y-69830091D01*
X67715503Y-69884163D01*
X67756889Y-69925549D01*
X67788563Y-69938668D01*
X67810960Y-69947946D01*
X67840224Y-69950828D01*
X68768796Y-69950828D01*
X68798060Y-69947946D01*
X68852132Y-69925548D01*
X68893516Y-69884164D01*
X68915914Y-69830092D01*
X68915914Y-69771564D01*
X68893516Y-69717492D01*
X68852132Y-69676108D01*
X68798060Y-69653710D01*
X68768796Y-69650828D01*
X68202356Y-69650828D01*
X68803433Y-69049751D01*
X68822088Y-69027021D01*
X68824151Y-69022039D01*
X68827681Y-69017970D01*
X68839669Y-68991120D01*
X68911098Y-68776835D01*
X68914397Y-68762325D01*
X68915914Y-68758664D01*
X68916436Y-68753355D01*
X68917618Y-68748161D01*
X68917337Y-68744211D01*
X68918796Y-68729400D01*
X68918796Y-68586542D01*
X68915914Y-68557278D01*
X68913850Y-68552297D01*
X68913469Y-68546923D01*
X68902960Y-68519459D01*
X68831531Y-68376603D01*
X68823604Y-68364011D01*
X68822088Y-68360349D01*
X68818704Y-68356226D01*
X68815866Y-68351717D01*
X68812873Y-68349121D01*
X68803433Y-68337619D01*
X68732005Y-68266191D01*
X68720503Y-68256751D01*
X68717907Y-68253758D01*
X68713393Y-68250917D01*
X68709274Y-68247536D01*
X68705614Y-68246020D01*
X68693021Y-68238093D01*
X68550163Y-68166664D01*
X68522700Y-68156154D01*
X68517322Y-68155771D01*
X68512345Y-68153710D01*
X68483081Y-68150828D01*
X68125939Y-68150828D01*
X68096675Y-68153710D01*
X68091697Y-68155771D01*
X68086320Y-68156154D01*
X68058857Y-68166664D01*
X67915999Y-68238093D01*
X67903407Y-68246019D01*
X67899745Y-68247536D01*
X67895622Y-68250919D01*
X67891113Y-68253758D01*
X67888517Y-68256750D01*
X67877015Y-68266191D01*
X67805587Y-68337619D01*
X67786932Y-68360350D01*
X67764535Y-68414422D01*
X67764535Y-68472948D01*
X67786932Y-68527020D01*
X67828318Y-68568406D01*
X67882390Y-68590803D01*
X67940916Y-68590803D01*
X67994988Y-68568406D01*
X68017719Y-68549751D01*
X68071935Y-68495535D01*
X68161349Y-68450828D01*
X68447671Y-68450828D01*
X68537085Y-68495535D01*
X68574089Y-68532539D01*
X68618796Y-68621952D01*
X68618796Y-68705059D01*
X68566262Y-68862657D01*
X67734158Y-69694762D01*
X67715503Y-69717493D01*
X67693106Y-69771565D01*
X67487343Y-69771565D01*
X67487343Y-69771564D01*
X67464945Y-69717492D01*
X67423561Y-69676108D01*
X67369489Y-69653710D01*
X67340225Y-69650828D01*
X66773785Y-69650828D01*
X67374862Y-69049751D01*
X67393517Y-69027021D01*
X67395580Y-69022039D01*
X67399110Y-69017970D01*
X67411098Y-68991120D01*
X67482527Y-68776835D01*
X67485826Y-68762325D01*
X67487343Y-68758664D01*
X67487865Y-68753355D01*
X67489047Y-68748161D01*
X67488766Y-68744211D01*
X67490225Y-68729400D01*
X67490225Y-68586542D01*
X67487343Y-68557278D01*
X67485279Y-68552297D01*
X67484898Y-68546923D01*
X67474389Y-68519459D01*
X67402960Y-68376603D01*
X67395033Y-68364011D01*
X67393517Y-68360349D01*
X67390133Y-68356226D01*
X67387295Y-68351717D01*
X67384302Y-68349121D01*
X67374862Y-68337619D01*
X67303434Y-68266191D01*
X67291932Y-68256751D01*
X67289336Y-68253758D01*
X67284822Y-68250917D01*
X67280703Y-68247536D01*
X67277043Y-68246020D01*
X67264450Y-68238093D01*
X67121592Y-68166664D01*
X67094129Y-68156154D01*
X67088751Y-68155771D01*
X67083774Y-68153710D01*
X67054510Y-68150828D01*
X66697368Y-68150828D01*
X66668104Y-68153710D01*
X66663126Y-68155771D01*
X66657749Y-68156154D01*
X66630286Y-68166664D01*
X66487428Y-68238093D01*
X66474836Y-68246019D01*
X66471174Y-68247536D01*
X66467051Y-68250919D01*
X66462542Y-68253758D01*
X66459946Y-68256750D01*
X66448444Y-68266191D01*
X66377016Y-68337619D01*
X66358361Y-68360350D01*
X66335964Y-68414422D01*
X66335964Y-68472948D01*
X66358361Y-68527020D01*
X66399747Y-68568406D01*
X66453819Y-68590803D01*
X66512345Y-68590803D01*
X66566417Y-68568406D01*
X66589148Y-68549751D01*
X66643364Y-68495535D01*
X66732778Y-68450828D01*
X67019100Y-68450828D01*
X67108514Y-68495535D01*
X67145518Y-68532539D01*
X67190225Y-68621952D01*
X67190225Y-68705059D01*
X67137691Y-68862657D01*
X66305587Y-69694762D01*
X66286932Y-69717493D01*
X66264535Y-69771565D01*
X66097868Y-69771565D01*
X66097868Y-67984161D01*
X69085463Y-67984161D01*
X69085463Y-70117495D01*
G37*
G36*
X54085463Y-139617495D02*
G01*
X51097868Y-139617495D01*
X51097868Y-139271565D01*
X51264535Y-139271565D01*
X51264535Y-139330091D01*
X51286932Y-139384163D01*
X51328318Y-139425549D01*
X51351116Y-139434992D01*
X51382389Y-139447946D01*
X51411653Y-139450828D01*
X52340225Y-139450828D01*
X52369489Y-139447946D01*
X52423561Y-139425548D01*
X52464945Y-139384164D01*
X52487343Y-139330092D01*
X52487343Y-139271564D01*
X52464945Y-139217492D01*
X52423561Y-139176108D01*
X52369489Y-139153710D01*
X52340225Y-139150828D01*
X51773785Y-139150828D01*
X52374862Y-138549751D01*
X52393517Y-138527021D01*
X52395580Y-138522039D01*
X52399110Y-138517970D01*
X52411098Y-138491120D01*
X52482527Y-138276835D01*
X52485826Y-138262325D01*
X52487343Y-138258664D01*
X52487865Y-138253355D01*
X52489047Y-138248161D01*
X52488766Y-138244211D01*
X52490225Y-138229400D01*
X52490225Y-138086542D01*
X52487343Y-138057278D01*
X52485279Y-138052297D01*
X52484898Y-138046923D01*
X52474389Y-138019459D01*
X52402960Y-137876603D01*
X52395033Y-137864011D01*
X52393517Y-137860349D01*
X52390133Y-137856226D01*
X52387295Y-137851717D01*
X52384302Y-137849121D01*
X52374862Y-137837619D01*
X52308807Y-137771564D01*
X52693106Y-137771564D01*
X52693106Y-137830092D01*
X52715504Y-137884164D01*
X52756888Y-137925548D01*
X52810960Y-137947946D01*
X52840224Y-137950828D01*
X53438231Y-137950828D01*
X53155909Y-138273481D01*
X53146865Y-138286131D01*
X53144076Y-138288921D01*
X53142979Y-138291566D01*
X53138808Y-138297403D01*
X53131001Y-138320484D01*
X53121678Y-138342993D01*
X53121678Y-138348052D01*
X53120057Y-138352845D01*
X53121678Y-138377154D01*
X53121678Y-138401521D01*
X53123614Y-138406196D01*
X53123951Y-138411241D01*
X53134749Y-138433076D01*
X53144076Y-138455593D01*
X53147652Y-138459169D01*
X53149895Y-138463704D01*
X53168230Y-138479747D01*
X53185460Y-138496977D01*
X53190134Y-138498913D01*
X53193942Y-138502245D01*
X53217023Y-138510051D01*
X53239532Y-138519375D01*
X53246669Y-138520077D01*
X53249384Y-138520996D01*
X53253323Y-138520733D01*
X53268796Y-138522257D01*
X53447672Y-138522257D01*
X53537085Y-138566963D01*
X53574088Y-138603967D01*
X53618796Y-138693381D01*
X53618796Y-138979703D01*
X53574088Y-139069117D01*
X53537085Y-139106121D01*
X53447672Y-139150828D01*
X53089920Y-139150828D01*
X53000506Y-139106121D01*
X52946290Y-139051905D01*
X52923559Y-139033250D01*
X52869487Y-139010853D01*
X52810961Y-139010853D01*
X52756889Y-139033250D01*
X52715503Y-139074636D01*
X52693106Y-139128708D01*
X52693106Y-139187234D01*
X52715503Y-139241306D01*
X52734158Y-139264037D01*
X52805587Y-139335466D01*
X52817091Y-139344907D01*
X52819686Y-139347899D01*
X52824195Y-139350737D01*
X52828318Y-139354121D01*
X52831979Y-139355637D01*
X52844571Y-139363564D01*
X52987429Y-139434992D01*
X53014892Y-139445502D01*
X53020267Y-139445883D01*
X53025246Y-139447946D01*
X53054510Y-139450828D01*
X53483081Y-139450828D01*
X53512345Y-139447946D01*
X53517323Y-139445883D01*
X53522699Y-139445502D01*
X53550162Y-139434992D01*
X53693021Y-139363564D01*
X53705615Y-139355635D01*
X53709275Y-139354120D01*
X53713395Y-139350738D01*
X53717906Y-139347899D01*
X53720500Y-139344907D01*
X53732006Y-139335465D01*
X53803434Y-139264036D01*
X53812872Y-139252535D01*
X53815866Y-139249939D01*
X53818706Y-139245426D01*
X53822088Y-139241306D01*
X53823603Y-139237646D01*
X53831531Y-139225053D01*
X53902960Y-139082197D01*
X53913469Y-139054733D01*
X53913850Y-139049358D01*
X53915914Y-139044378D01*
X53918796Y-139015114D01*
X53918796Y-138657971D01*
X53915914Y-138628707D01*
X53913850Y-138623726D01*
X53913469Y-138618352D01*
X53902960Y-138590888D01*
X53831531Y-138448032D01*
X53823603Y-138435438D01*
X53822088Y-138431779D01*
X53818706Y-138427658D01*
X53815866Y-138423146D01*
X53812872Y-138420549D01*
X53803434Y-138409049D01*
X53732006Y-138337620D01*
X53720500Y-138328177D01*
X53717906Y-138325186D01*
X53713395Y-138322346D01*
X53709275Y-138318965D01*
X53705615Y-138317449D01*
X53693021Y-138309521D01*
X53574748Y-138250386D01*
X53881682Y-137899604D01*
X53890725Y-137886954D01*
X53893516Y-137884164D01*
X53894611Y-137881519D01*
X53898784Y-137875683D01*
X53906589Y-137852603D01*
X53915914Y-137830092D01*
X53915914Y-137825030D01*
X53917534Y-137820240D01*
X53915914Y-137795939D01*
X53915914Y-137771564D01*
X53913977Y-137766888D01*
X53913641Y-137761844D01*
X53902842Y-137740008D01*
X53893516Y-137717492D01*
X53889939Y-137713915D01*
X53887697Y-137709381D01*
X53869361Y-137693337D01*
X53852132Y-137676108D01*
X53847457Y-137674171D01*
X53843650Y-137670840D01*
X53820574Y-137663036D01*
X53798060Y-137653710D01*
X53790918Y-137653006D01*
X53788208Y-137652090D01*
X53784273Y-137652352D01*
X53768796Y-137650828D01*
X52840224Y-137650828D01*
X52810960Y-137653710D01*
X52756888Y-137676108D01*
X52715504Y-137717492D01*
X52693106Y-137771564D01*
X52308807Y-137771564D01*
X52303434Y-137766191D01*
X52291932Y-137756751D01*
X52289336Y-137753758D01*
X52284822Y-137750917D01*
X52280703Y-137747536D01*
X52277043Y-137746020D01*
X52264450Y-137738093D01*
X52121592Y-137666664D01*
X52094129Y-137656154D01*
X52088751Y-137655771D01*
X52083774Y-137653710D01*
X52054510Y-137650828D01*
X51697368Y-137650828D01*
X51668104Y-137653710D01*
X51663126Y-137655771D01*
X51657749Y-137656154D01*
X51630286Y-137666664D01*
X51487428Y-137738093D01*
X51474836Y-137746019D01*
X51471174Y-137747536D01*
X51467051Y-137750919D01*
X51462542Y-137753758D01*
X51459946Y-137756750D01*
X51448444Y-137766191D01*
X51377016Y-137837619D01*
X51358361Y-137860350D01*
X51335964Y-137914422D01*
X51335964Y-137972948D01*
X51358361Y-138027020D01*
X51399747Y-138068406D01*
X51453819Y-138090803D01*
X51512345Y-138090803D01*
X51566417Y-138068406D01*
X51589148Y-138049751D01*
X51643364Y-137995535D01*
X51732778Y-137950828D01*
X52019100Y-137950828D01*
X52108514Y-137995535D01*
X52145518Y-138032539D01*
X52190225Y-138121952D01*
X52190225Y-138205059D01*
X52137691Y-138362657D01*
X51305587Y-139194762D01*
X51286932Y-139217493D01*
X51274229Y-139248162D01*
X51267654Y-139264036D01*
X51264535Y-139271565D01*
X51097868Y-139271565D01*
X51097868Y-137484161D01*
X54085463Y-137484161D01*
X54085463Y-139617495D01*
G37*
X81945489Y-114729400D02*
X80802632Y-114729400D01*
X81374060Y-115300828D02*
X81374060Y-114157971D01*
X74445489Y-54229400D02*
X73302632Y-54229400D01*
G36*
X87656892Y-121117495D02*
G01*
X86097868Y-121117495D01*
X86097868Y-120771565D01*
X86264535Y-120771565D01*
X86264535Y-120830091D01*
X86286932Y-120884163D01*
X86328318Y-120925549D01*
X86359992Y-120938668D01*
X86382389Y-120947946D01*
X86411653Y-120950828D01*
X87340225Y-120950828D01*
X87369489Y-120947946D01*
X87423561Y-120925548D01*
X87464945Y-120884164D01*
X87487343Y-120830092D01*
X87487343Y-120771564D01*
X87464945Y-120717492D01*
X87423561Y-120676108D01*
X87369489Y-120653710D01*
X87340225Y-120650828D01*
X86773785Y-120650828D01*
X87374862Y-120049751D01*
X87393517Y-120027021D01*
X87395580Y-120022039D01*
X87399110Y-120017970D01*
X87411098Y-119991120D01*
X87482527Y-119776835D01*
X87485826Y-119762325D01*
X87487343Y-119758664D01*
X87487865Y-119753355D01*
X87489047Y-119748161D01*
X87488766Y-119744211D01*
X87490225Y-119729400D01*
X87490225Y-119586542D01*
X87487343Y-119557278D01*
X87485279Y-119552297D01*
X87484898Y-119546923D01*
X87474389Y-119519459D01*
X87402960Y-119376603D01*
X87395033Y-119364011D01*
X87393517Y-119360349D01*
X87390133Y-119356226D01*
X87387295Y-119351717D01*
X87384302Y-119349121D01*
X87374862Y-119337619D01*
X87303434Y-119266191D01*
X87291932Y-119256751D01*
X87289336Y-119253758D01*
X87284822Y-119250917D01*
X87280703Y-119247536D01*
X87277043Y-119246020D01*
X87264450Y-119238093D01*
X87121592Y-119166664D01*
X87094129Y-119156154D01*
X87088751Y-119155771D01*
X87083774Y-119153710D01*
X87054510Y-119150828D01*
X86697368Y-119150828D01*
X86668104Y-119153710D01*
X86663126Y-119155771D01*
X86657749Y-119156154D01*
X86630286Y-119166664D01*
X86487428Y-119238093D01*
X86474836Y-119246019D01*
X86471174Y-119247536D01*
X86467051Y-119250919D01*
X86462542Y-119253758D01*
X86459946Y-119256750D01*
X86448444Y-119266191D01*
X86377016Y-119337619D01*
X86358361Y-119360350D01*
X86335964Y-119414422D01*
X86335964Y-119472948D01*
X86358361Y-119527020D01*
X86399747Y-119568406D01*
X86453819Y-119590803D01*
X86512345Y-119590803D01*
X86566417Y-119568406D01*
X86589148Y-119549751D01*
X86643364Y-119495535D01*
X86732778Y-119450828D01*
X87019100Y-119450828D01*
X87108514Y-119495535D01*
X87145518Y-119532539D01*
X87190225Y-119621952D01*
X87190225Y-119705059D01*
X87137691Y-119862657D01*
X86305587Y-120694762D01*
X86286932Y-120717493D01*
X86264535Y-120771565D01*
X86097868Y-120771565D01*
X86097868Y-118984161D01*
X87656892Y-118984161D01*
X87656892Y-121117495D01*
G37*
G36*
X63037085Y-69066963D02*
G01*
X63074088Y-69103967D01*
X63118796Y-69193381D01*
X63118796Y-69479703D01*
X63074088Y-69569117D01*
X63037085Y-69606121D01*
X62947672Y-69650828D01*
X62732777Y-69650828D01*
X62643363Y-69606121D01*
X62606358Y-69569116D01*
X62561653Y-69479704D01*
X62561653Y-69193380D01*
X62606358Y-69103968D01*
X62643363Y-69066963D01*
X62732777Y-69022257D01*
X62947672Y-69022257D01*
X63037085Y-69066963D01*
G37*
G36*
X63585463Y-70117495D02*
G01*
X60667593Y-70117495D01*
X60667593Y-68710639D01*
X60834260Y-68710639D01*
X60838409Y-68769019D01*
X60864583Y-68821368D01*
X60908798Y-68859715D01*
X60964321Y-68878222D01*
X61022701Y-68874073D01*
X61050164Y-68863564D01*
X61193021Y-68792135D01*
X61205614Y-68784207D01*
X61209274Y-68782692D01*
X61213393Y-68779310D01*
X61217907Y-68776470D01*
X61220503Y-68773476D01*
X61232005Y-68764037D01*
X61261653Y-68734389D01*
X61261653Y-69650828D01*
X60983082Y-69650828D01*
X60953818Y-69653710D01*
X60899746Y-69676108D01*
X60858362Y-69717492D01*
X60835964Y-69771564D01*
X60835964Y-69830092D01*
X60858362Y-69884164D01*
X60899746Y-69925548D01*
X60953818Y-69947946D01*
X60983082Y-69950828D01*
X61840225Y-69950828D01*
X61869489Y-69947946D01*
X61923561Y-69925548D01*
X61964945Y-69884164D01*
X61987343Y-69830092D01*
X61987343Y-69771564D01*
X61964945Y-69717492D01*
X61923561Y-69676108D01*
X61869489Y-69653710D01*
X61840225Y-69650828D01*
X61561653Y-69650828D01*
X61561653Y-68943685D01*
X62261653Y-68943685D01*
X62261653Y-69515114D01*
X62264535Y-69544378D01*
X62266597Y-69549356D01*
X62266979Y-69554732D01*
X62277489Y-69582196D01*
X62348917Y-69725053D01*
X62356844Y-69737646D01*
X62358360Y-69741306D01*
X62361741Y-69745425D01*
X62364582Y-69749939D01*
X62367575Y-69752535D01*
X62377015Y-69764037D01*
X62448444Y-69835466D01*
X62459948Y-69844907D01*
X62462543Y-69847899D01*
X62467052Y-69850737D01*
X62471175Y-69854121D01*
X62474836Y-69855637D01*
X62487428Y-69863564D01*
X62630286Y-69934992D01*
X62657749Y-69945502D01*
X62663124Y-69945883D01*
X62668103Y-69947946D01*
X62697367Y-69950828D01*
X62983081Y-69950828D01*
X63012345Y-69947946D01*
X63017323Y-69945883D01*
X63022699Y-69945502D01*
X63050162Y-69934992D01*
X63193021Y-69863564D01*
X63205615Y-69855635D01*
X63209275Y-69854120D01*
X63213395Y-69850738D01*
X63217906Y-69847899D01*
X63220500Y-69844907D01*
X63232006Y-69835465D01*
X63303434Y-69764036D01*
X63312872Y-69752535D01*
X63315866Y-69749939D01*
X63318706Y-69745426D01*
X63322088Y-69741306D01*
X63323603Y-69737646D01*
X63331531Y-69725053D01*
X63402960Y-69582197D01*
X63413469Y-69554733D01*
X63413850Y-69549358D01*
X63415914Y-69544378D01*
X63418796Y-69515114D01*
X63418796Y-69157971D01*
X63415914Y-69128707D01*
X63413850Y-69123726D01*
X63413469Y-69118352D01*
X63402960Y-69090888D01*
X63331531Y-68948032D01*
X63323603Y-68935438D01*
X63322088Y-68931779D01*
X63318706Y-68927658D01*
X63315866Y-68923146D01*
X63312872Y-68920549D01*
X63303434Y-68909049D01*
X63232006Y-68837620D01*
X63220500Y-68828177D01*
X63217906Y-68825186D01*
X63213395Y-68822346D01*
X63209275Y-68818965D01*
X63205615Y-68817449D01*
X63193021Y-68809521D01*
X63050162Y-68738093D01*
X63022699Y-68727583D01*
X63017323Y-68727201D01*
X63012345Y-68725139D01*
X62983081Y-68722257D01*
X62697367Y-68722257D01*
X62668103Y-68725139D01*
X62663124Y-68727201D01*
X62657749Y-68727583D01*
X62630286Y-68738093D01*
X62615863Y-68745303D01*
X62622300Y-68719557D01*
X62742505Y-68539250D01*
X62786221Y-68495534D01*
X62875634Y-68450828D01*
X63125939Y-68450828D01*
X63155203Y-68447946D01*
X63209275Y-68425548D01*
X63250659Y-68384164D01*
X63273057Y-68330092D01*
X63273057Y-68271564D01*
X63250659Y-68217492D01*
X63209275Y-68176108D01*
X63155203Y-68153710D01*
X63125939Y-68150828D01*
X62840224Y-68150828D01*
X62810960Y-68153710D01*
X62805979Y-68155773D01*
X62800605Y-68156155D01*
X62773141Y-68166664D01*
X62630285Y-68238093D01*
X62617693Y-68246019D01*
X62614031Y-68247536D01*
X62609908Y-68250919D01*
X62605399Y-68253758D01*
X62602803Y-68256750D01*
X62591301Y-68266191D01*
X62519873Y-68337619D01*
X62519808Y-68337698D01*
X62519762Y-68337729D01*
X62510439Y-68349114D01*
X62501218Y-68360350D01*
X62501197Y-68360400D01*
X62501132Y-68360480D01*
X62358274Y-68574766D01*
X62349659Y-68590921D01*
X62347453Y-68593900D01*
X62346196Y-68597416D01*
X62344439Y-68600713D01*
X62343719Y-68604350D01*
X62337560Y-68621591D01*
X62266132Y-68907305D01*
X62265382Y-68912376D01*
X62264535Y-68914421D01*
X62263449Y-68925443D01*
X62261830Y-68936394D01*
X62262155Y-68938581D01*
X62261653Y-68943685D01*
X61561653Y-68943685D01*
X61561653Y-68300828D01*
X61561642Y-68300722D01*
X61561653Y-68300670D01*
X61561622Y-68300516D01*
X61558771Y-68271564D01*
X61553087Y-68257843D01*
X61550175Y-68243281D01*
X61541996Y-68231068D01*
X61536373Y-68217492D01*
X61525874Y-68206993D01*
X61517609Y-68194651D01*
X61505378Y-68186497D01*
X61494989Y-68176108D01*
X61481270Y-68170425D01*
X61468910Y-68162185D01*
X61454491Y-68159332D01*
X61440917Y-68153710D01*
X61426066Y-68153710D01*
X61411496Y-68150828D01*
X61397086Y-68153710D01*
X61382389Y-68153710D01*
X61368667Y-68159393D01*
X61354106Y-68162306D01*
X61341893Y-68170484D01*
X61328317Y-68176108D01*
X61317818Y-68186606D01*
X61305476Y-68194872D01*
X61287044Y-68217380D01*
X61286933Y-68217492D01*
X61286912Y-68217542D01*
X61286846Y-68217623D01*
X61152226Y-68419551D01*
X61037085Y-68534692D01*
X60916000Y-68595236D01*
X60891114Y-68610901D01*
X60852767Y-68655116D01*
X60834260Y-68710639D01*
X60667593Y-68710639D01*
X60667593Y-67984161D01*
X63585463Y-67984161D01*
X63585463Y-70117495D01*
G37*
G36*
X54654354Y-94617495D02*
G01*
X51667593Y-94617495D01*
X51667593Y-93210639D01*
X51834260Y-93210639D01*
X51838409Y-93269019D01*
X51864583Y-93321368D01*
X51908798Y-93359715D01*
X51964321Y-93378222D01*
X52022701Y-93374073D01*
X52050164Y-93363564D01*
X52193021Y-93292135D01*
X52205614Y-93284207D01*
X52209274Y-93282692D01*
X52213393Y-93279310D01*
X52217907Y-93276470D01*
X52220503Y-93273476D01*
X52232005Y-93264037D01*
X52261653Y-93234389D01*
X52261653Y-94150828D01*
X51983082Y-94150828D01*
X51953818Y-94153710D01*
X51899746Y-94176108D01*
X51858362Y-94217492D01*
X51835964Y-94271564D01*
X51835964Y-94330092D01*
X51858362Y-94384164D01*
X51899746Y-94425548D01*
X51953818Y-94447946D01*
X51983082Y-94450828D01*
X52840225Y-94450828D01*
X52869489Y-94447946D01*
X52923561Y-94425548D01*
X52964945Y-94384164D01*
X52987343Y-94330092D01*
X52987343Y-94271564D01*
X52964945Y-94217492D01*
X52923561Y-94176108D01*
X52869489Y-94153710D01*
X52840225Y-94150828D01*
X52561653Y-94150828D01*
X52561653Y-92800828D01*
X52561642Y-92800722D01*
X52561653Y-92800670D01*
X52561622Y-92800516D01*
X52558771Y-92771564D01*
X53193106Y-92771564D01*
X53193106Y-92830092D01*
X53215504Y-92884164D01*
X53256888Y-92925548D01*
X53310960Y-92947946D01*
X53340224Y-92950828D01*
X54112743Y-92950828D01*
X53559495Y-94241740D01*
X53550617Y-94269773D01*
X53549904Y-94328296D01*
X53571640Y-94382636D01*
X53612517Y-94424523D01*
X53666312Y-94447578D01*
X53724835Y-94448291D01*
X53779175Y-94426555D01*
X53821062Y-94385678D01*
X53835239Y-94359916D01*
X54478096Y-92859916D01*
X54486974Y-92831883D01*
X54486985Y-92830953D01*
X54487342Y-92830092D01*
X54487342Y-92801677D01*
X54487687Y-92773360D01*
X54487342Y-92772497D01*
X54487342Y-92771564D01*
X54476469Y-92745315D01*
X54465951Y-92719020D01*
X54465301Y-92718354D01*
X54464944Y-92717492D01*
X54444864Y-92697412D01*
X54425074Y-92677133D01*
X54424218Y-92676766D01*
X54423560Y-92676108D01*
X54397340Y-92665247D01*
X54371279Y-92654078D01*
X54370349Y-92654066D01*
X54369488Y-92653710D01*
X54340224Y-92650828D01*
X53340224Y-92650828D01*
X53310960Y-92653710D01*
X53256888Y-92676108D01*
X53215504Y-92717492D01*
X53193106Y-92771564D01*
X52558771Y-92771564D01*
X52553087Y-92757843D01*
X52550175Y-92743281D01*
X52541996Y-92731068D01*
X52536373Y-92717492D01*
X52525874Y-92706993D01*
X52517609Y-92694651D01*
X52505378Y-92686497D01*
X52494989Y-92676108D01*
X52481270Y-92670425D01*
X52468910Y-92662185D01*
X52454491Y-92659332D01*
X52440917Y-92653710D01*
X52426066Y-92653710D01*
X52411496Y-92650828D01*
X52397086Y-92653710D01*
X52382389Y-92653710D01*
X52368667Y-92659393D01*
X52354106Y-92662306D01*
X52341893Y-92670484D01*
X52328317Y-92676108D01*
X52317818Y-92686606D01*
X52305476Y-92694872D01*
X52287044Y-92717380D01*
X52286933Y-92717492D01*
X52286912Y-92717542D01*
X52286846Y-92717623D01*
X52152226Y-92919551D01*
X52037085Y-93034692D01*
X51916000Y-93095236D01*
X51891114Y-93110901D01*
X51852767Y-93155116D01*
X51834260Y-93210639D01*
X51667593Y-93210639D01*
X51667593Y-92484161D01*
X54654354Y-92484161D01*
X54654354Y-94617495D01*
G37*
X80945489Y-80729400D02*
X79802632Y-80729400D01*
X80374060Y-81300828D02*
X80374060Y-80157971D01*
G36*
X87654010Y-103117495D02*
G01*
X86167593Y-103117495D01*
X86167593Y-101710639D01*
X86334260Y-101710639D01*
X86338409Y-101769019D01*
X86364583Y-101821368D01*
X86408798Y-101859715D01*
X86464321Y-101878222D01*
X86522701Y-101874073D01*
X86550164Y-101863564D01*
X86693021Y-101792135D01*
X86705614Y-101784207D01*
X86709274Y-101782692D01*
X86713393Y-101779310D01*
X86717907Y-101776470D01*
X86720503Y-101773476D01*
X86732005Y-101764037D01*
X86761653Y-101734389D01*
X86761653Y-102650828D01*
X86483082Y-102650828D01*
X86453818Y-102653710D01*
X86399746Y-102676108D01*
X86358362Y-102717492D01*
X86335964Y-102771564D01*
X86335964Y-102830092D01*
X86358362Y-102884164D01*
X86399746Y-102925548D01*
X86453818Y-102947946D01*
X86483082Y-102950828D01*
X87340225Y-102950828D01*
X87369489Y-102947946D01*
X87423561Y-102925548D01*
X87464945Y-102884164D01*
X87487343Y-102830092D01*
X87487343Y-102771564D01*
X87464945Y-102717492D01*
X87423561Y-102676108D01*
X87369489Y-102653710D01*
X87340225Y-102650828D01*
X87061653Y-102650828D01*
X87061653Y-101300828D01*
X87061642Y-101300722D01*
X87061653Y-101300670D01*
X87061622Y-101300516D01*
X87058771Y-101271564D01*
X87053087Y-101257843D01*
X87050175Y-101243281D01*
X87041996Y-101231068D01*
X87036373Y-101217492D01*
X87025874Y-101206993D01*
X87017609Y-101194651D01*
X87005378Y-101186497D01*
X86994989Y-101176108D01*
X86981270Y-101170425D01*
X86968910Y-101162185D01*
X86954491Y-101159332D01*
X86940917Y-101153710D01*
X86926066Y-101153710D01*
X86911496Y-101150828D01*
X86897086Y-101153710D01*
X86882389Y-101153710D01*
X86868667Y-101159393D01*
X86854106Y-101162306D01*
X86841893Y-101170484D01*
X86828317Y-101176108D01*
X86817818Y-101186606D01*
X86805476Y-101194872D01*
X86787044Y-101217380D01*
X86786933Y-101217492D01*
X86786912Y-101217542D01*
X86786846Y-101217623D01*
X86652226Y-101419551D01*
X86537085Y-101534692D01*
X86416000Y-101595236D01*
X86391114Y-101610901D01*
X86352767Y-101655116D01*
X86334260Y-101710639D01*
X86167593Y-101710639D01*
X86167593Y-100984161D01*
X87654010Y-100984161D01*
X87654010Y-103117495D01*
G37*
G36*
X68465657Y-57995535D02*
G01*
X68502661Y-58032539D01*
X68555839Y-58138897D01*
X68618796Y-58390721D01*
X68618796Y-58710935D01*
X68555839Y-58962759D01*
X68502660Y-59069117D01*
X68465655Y-59106122D01*
X68376243Y-59150828D01*
X68304206Y-59150828D01*
X68214792Y-59106121D01*
X68177788Y-59069117D01*
X68124607Y-58962757D01*
X68061653Y-58710936D01*
X68061653Y-58390720D01*
X68124607Y-58138898D01*
X68177788Y-58032538D01*
X68214792Y-57995535D01*
X68304206Y-57950828D01*
X68376243Y-57950828D01*
X68465657Y-57995535D01*
G37*
G36*
X69085463Y-59617495D02*
G01*
X66097868Y-59617495D01*
X66097868Y-59271565D01*
X66264535Y-59271565D01*
X66264535Y-59330091D01*
X66286932Y-59384163D01*
X66328318Y-59425549D01*
X66351116Y-59434992D01*
X66382389Y-59447946D01*
X66411653Y-59450828D01*
X67340225Y-59450828D01*
X67369489Y-59447946D01*
X67423561Y-59425548D01*
X67464945Y-59384164D01*
X67487343Y-59330092D01*
X67487343Y-59271564D01*
X67464945Y-59217492D01*
X67423561Y-59176108D01*
X67369489Y-59153710D01*
X67340225Y-59150828D01*
X66773785Y-59150828D01*
X67374862Y-58549751D01*
X67393517Y-58527021D01*
X67395580Y-58522039D01*
X67399110Y-58517970D01*
X67411098Y-58491120D01*
X67450719Y-58372257D01*
X67761653Y-58372257D01*
X67761653Y-58729400D01*
X67762155Y-58734503D01*
X67761830Y-58736691D01*
X67763449Y-58747641D01*
X67764535Y-58758664D01*
X67765382Y-58760708D01*
X67766132Y-58765780D01*
X67837560Y-59051494D01*
X67838331Y-59053652D01*
X67838408Y-59054733D01*
X67843066Y-59066907D01*
X67847453Y-59079185D01*
X67848097Y-59080055D01*
X67848917Y-59082196D01*
X67920346Y-59225053D01*
X67928273Y-59237646D01*
X67929789Y-59241306D01*
X67933170Y-59245425D01*
X67936011Y-59249939D01*
X67939004Y-59252535D01*
X67948444Y-59264037D01*
X68019873Y-59335466D01*
X68031377Y-59344907D01*
X68033972Y-59347899D01*
X68038481Y-59350737D01*
X68042604Y-59354121D01*
X68046265Y-59355637D01*
X68058857Y-59363564D01*
X68201715Y-59434992D01*
X68229178Y-59445502D01*
X68234553Y-59445883D01*
X68239532Y-59447946D01*
X68268796Y-59450828D01*
X68411653Y-59450828D01*
X68440917Y-59447946D01*
X68445895Y-59445883D01*
X68451271Y-59445502D01*
X68478735Y-59434992D01*
X68621592Y-59363564D01*
X68634185Y-59355636D01*
X68637845Y-59354121D01*
X68641964Y-59350739D01*
X68646478Y-59347899D01*
X68649074Y-59344905D01*
X68660576Y-59335466D01*
X68732005Y-59264037D01*
X68741446Y-59252532D01*
X68744438Y-59249938D01*
X68747276Y-59245428D01*
X68750660Y-59241306D01*
X68752176Y-59237644D01*
X68760103Y-59225053D01*
X68831531Y-59082195D01*
X68832348Y-59080058D01*
X68832995Y-59079186D01*
X68837384Y-59066899D01*
X68842041Y-59054732D01*
X68842117Y-59053650D01*
X68842888Y-59051495D01*
X68914317Y-58765781D01*
X68915067Y-58760708D01*
X68915914Y-58758664D01*
X68916999Y-58747644D01*
X68918619Y-58736692D01*
X68918293Y-58734503D01*
X68918796Y-58729400D01*
X68918796Y-58372257D01*
X68918293Y-58367153D01*
X68918619Y-58364965D01*
X68916999Y-58354012D01*
X68915914Y-58342993D01*
X68915067Y-58340948D01*
X68914317Y-58335876D01*
X68842888Y-58050162D01*
X68842117Y-58048006D01*
X68842041Y-58046924D01*
X68837381Y-58034749D01*
X68832995Y-58022470D01*
X68832348Y-58021597D01*
X68831531Y-58019461D01*
X68760103Y-57876603D01*
X68752174Y-57864008D01*
X68750659Y-57860349D01*
X68747277Y-57856228D01*
X68744438Y-57851718D01*
X68741446Y-57849123D01*
X68732004Y-57837618D01*
X68660575Y-57766190D01*
X68649075Y-57756752D01*
X68646478Y-57753758D01*
X68641961Y-57750915D01*
X68637844Y-57747536D01*
X68634187Y-57746021D01*
X68621592Y-57738093D01*
X68478735Y-57666664D01*
X68451272Y-57656155D01*
X68445897Y-57655773D01*
X68440917Y-57653710D01*
X68411653Y-57650828D01*
X68268796Y-57650828D01*
X68239532Y-57653710D01*
X68234551Y-57655773D01*
X68229177Y-57656155D01*
X68201713Y-57666664D01*
X68058857Y-57738093D01*
X68046263Y-57746020D01*
X68042604Y-57747536D01*
X68038483Y-57750917D01*
X68033971Y-57753758D01*
X68031374Y-57756751D01*
X68019874Y-57766190D01*
X67948445Y-57837618D01*
X67939005Y-57849120D01*
X67936011Y-57851717D01*
X67933169Y-57856231D01*
X67929790Y-57860349D01*
X67928274Y-57864007D01*
X67920346Y-57876603D01*
X67848917Y-58019460D01*
X67848097Y-58021600D01*
X67847453Y-58022471D01*
X67843066Y-58034748D01*
X67838408Y-58046923D01*
X67838331Y-58048003D01*
X67837560Y-58050162D01*
X67766132Y-58335877D01*
X67765382Y-58340948D01*
X67764535Y-58342993D01*
X67763449Y-58354015D01*
X67761830Y-58364966D01*
X67762155Y-58367153D01*
X67761653Y-58372257D01*
X67450719Y-58372257D01*
X67482527Y-58276835D01*
X67485826Y-58262325D01*
X67487343Y-58258664D01*
X67487865Y-58253355D01*
X67489047Y-58248161D01*
X67488766Y-58244211D01*
X67490225Y-58229400D01*
X67490225Y-58086542D01*
X67487343Y-58057278D01*
X67485279Y-58052297D01*
X67484898Y-58046923D01*
X67474389Y-58019459D01*
X67402960Y-57876603D01*
X67395033Y-57864011D01*
X67393517Y-57860349D01*
X67390133Y-57856226D01*
X67387295Y-57851717D01*
X67384302Y-57849121D01*
X67374862Y-57837619D01*
X67303434Y-57766191D01*
X67291932Y-57756751D01*
X67289336Y-57753758D01*
X67284822Y-57750917D01*
X67280703Y-57747536D01*
X67277043Y-57746020D01*
X67264450Y-57738093D01*
X67121592Y-57666664D01*
X67094129Y-57656154D01*
X67088751Y-57655771D01*
X67083774Y-57653710D01*
X67054510Y-57650828D01*
X66697368Y-57650828D01*
X66668104Y-57653710D01*
X66663126Y-57655771D01*
X66657749Y-57656154D01*
X66630286Y-57666664D01*
X66487428Y-57738093D01*
X66474836Y-57746019D01*
X66471174Y-57747536D01*
X66467051Y-57750919D01*
X66462542Y-57753758D01*
X66459946Y-57756750D01*
X66448444Y-57766191D01*
X66377016Y-57837619D01*
X66358361Y-57860350D01*
X66335964Y-57914422D01*
X66335964Y-57972948D01*
X66358361Y-58027020D01*
X66399747Y-58068406D01*
X66453819Y-58090803D01*
X66512345Y-58090803D01*
X66566417Y-58068406D01*
X66589148Y-58049751D01*
X66643364Y-57995535D01*
X66732778Y-57950828D01*
X67019100Y-57950828D01*
X67108514Y-57995535D01*
X67145518Y-58032539D01*
X67190225Y-58121952D01*
X67190225Y-58205059D01*
X67137691Y-58362657D01*
X66305587Y-59194762D01*
X66286932Y-59217493D01*
X66264535Y-59271565D01*
X66097868Y-59271565D01*
X66097868Y-57484161D01*
X69085463Y-57484161D01*
X69085463Y-59617495D01*
G37*
G36*
X86037085Y-64638392D02*
G01*
X86074089Y-64675396D01*
X86118796Y-64764810D01*
X86118796Y-64979703D01*
X86074088Y-65069117D01*
X86037085Y-65106121D01*
X85947672Y-65150828D01*
X85732777Y-65150828D01*
X85643363Y-65106121D01*
X85606358Y-65069116D01*
X85561653Y-64979704D01*
X85561653Y-64764809D01*
X85606359Y-64675395D01*
X85643363Y-64638392D01*
X85732777Y-64593685D01*
X85947671Y-64593685D01*
X86037085Y-64638392D01*
G37*
G36*
X86037085Y-63995535D02*
G01*
X86074089Y-64032539D01*
X86118796Y-64121952D01*
X86118796Y-64122560D01*
X86074088Y-64211974D01*
X86037085Y-64248978D01*
X85947672Y-64293685D01*
X85732777Y-64293685D01*
X85643363Y-64248978D01*
X85606358Y-64211973D01*
X85561653Y-64122561D01*
X85561653Y-64121951D01*
X85606358Y-64032540D01*
X85643363Y-63995535D01*
X85732777Y-63950828D01*
X85947671Y-63950828D01*
X86037085Y-63995535D01*
G37*
G36*
X86585463Y-65617495D02*
G01*
X83667593Y-65617495D01*
X83667593Y-64210639D01*
X83834260Y-64210639D01*
X83838409Y-64269019D01*
X83864583Y-64321368D01*
X83908798Y-64359715D01*
X83964321Y-64378222D01*
X84022701Y-64374073D01*
X84050164Y-64363564D01*
X84193021Y-64292135D01*
X84205614Y-64284207D01*
X84209274Y-64282692D01*
X84213393Y-64279310D01*
X84217907Y-64276470D01*
X84220503Y-64273476D01*
X84232005Y-64264037D01*
X84261653Y-64234389D01*
X84261653Y-65150828D01*
X83983082Y-65150828D01*
X83953818Y-65153710D01*
X83899746Y-65176108D01*
X83858362Y-65217492D01*
X83835964Y-65271564D01*
X83835964Y-65330092D01*
X83858362Y-65384164D01*
X83899746Y-65425548D01*
X83953818Y-65447946D01*
X83983082Y-65450828D01*
X84840225Y-65450828D01*
X84869489Y-65447946D01*
X84923561Y-65425548D01*
X84964945Y-65384164D01*
X84987343Y-65330092D01*
X84987343Y-65271564D01*
X84964945Y-65217492D01*
X84923561Y-65176108D01*
X84869489Y-65153710D01*
X84840225Y-65150828D01*
X84561653Y-65150828D01*
X84561653Y-64086542D01*
X85261653Y-64086542D01*
X85261653Y-64157971D01*
X85264535Y-64187235D01*
X85266597Y-64192213D01*
X85266979Y-64197589D01*
X85277489Y-64225053D01*
X85348917Y-64367910D01*
X85356844Y-64380503D01*
X85358360Y-64384163D01*
X85361741Y-64388282D01*
X85364582Y-64392796D01*
X85367575Y-64395392D01*
X85377015Y-64406894D01*
X85413806Y-64443685D01*
X85377016Y-64480475D01*
X85367573Y-64491980D01*
X85364582Y-64494575D01*
X85361742Y-64499085D01*
X85358361Y-64503206D01*
X85356845Y-64506865D01*
X85348917Y-64519460D01*
X85277489Y-64662319D01*
X85266979Y-64689782D01*
X85266597Y-64695157D01*
X85264535Y-64700136D01*
X85261653Y-64729400D01*
X85261653Y-65015114D01*
X85264535Y-65044378D01*
X85266597Y-65049356D01*
X85266979Y-65054732D01*
X85277489Y-65082196D01*
X85348917Y-65225053D01*
X85356844Y-65237646D01*
X85358360Y-65241306D01*
X85361741Y-65245425D01*
X85364582Y-65249939D01*
X85367575Y-65252535D01*
X85377015Y-65264037D01*
X85448444Y-65335466D01*
X85459948Y-65344907D01*
X85462543Y-65347899D01*
X85467052Y-65350737D01*
X85471175Y-65354121D01*
X85474836Y-65355637D01*
X85487428Y-65363564D01*
X85630286Y-65434992D01*
X85657749Y-65445502D01*
X85663124Y-65445883D01*
X85668103Y-65447946D01*
X85697367Y-65450828D01*
X85983081Y-65450828D01*
X86012345Y-65447946D01*
X86017323Y-65445883D01*
X86022699Y-65445502D01*
X86050162Y-65434992D01*
X86193021Y-65363564D01*
X86205615Y-65355635D01*
X86209275Y-65354120D01*
X86213395Y-65350738D01*
X86217906Y-65347899D01*
X86220500Y-65344907D01*
X86232006Y-65335465D01*
X86303434Y-65264036D01*
X86312872Y-65252535D01*
X86315866Y-65249939D01*
X86318706Y-65245426D01*
X86322088Y-65241306D01*
X86323603Y-65237646D01*
X86331531Y-65225053D01*
X86402960Y-65082197D01*
X86413469Y-65054733D01*
X86413850Y-65049358D01*
X86415914Y-65044378D01*
X86418796Y-65015114D01*
X86418796Y-64729400D01*
X86415914Y-64700136D01*
X86413852Y-64695158D01*
X86413470Y-64689781D01*
X86402960Y-64662318D01*
X86331531Y-64519460D01*
X86323604Y-64506868D01*
X86322088Y-64503206D01*
X86318704Y-64499083D01*
X86315866Y-64494574D01*
X86312873Y-64491978D01*
X86303433Y-64480476D01*
X86266642Y-64443685D01*
X86303434Y-64406893D01*
X86312872Y-64395392D01*
X86315866Y-64392796D01*
X86318706Y-64388283D01*
X86322088Y-64384163D01*
X86323603Y-64380503D01*
X86331531Y-64367910D01*
X86402960Y-64225054D01*
X86413469Y-64197590D01*
X86413850Y-64192215D01*
X86415914Y-64187235D01*
X86418796Y-64157971D01*
X86418796Y-64086542D01*
X86415914Y-64057278D01*
X86413850Y-64052297D01*
X86413469Y-64046923D01*
X86402960Y-64019459D01*
X86331531Y-63876603D01*
X86323604Y-63864011D01*
X86322088Y-63860349D01*
X86318704Y-63856226D01*
X86315866Y-63851717D01*
X86312873Y-63849121D01*
X86303433Y-63837619D01*
X86232005Y-63766191D01*
X86220503Y-63756751D01*
X86217907Y-63753758D01*
X86213393Y-63750917D01*
X86209274Y-63747536D01*
X86205614Y-63746020D01*
X86193021Y-63738093D01*
X86050163Y-63666664D01*
X86022700Y-63656154D01*
X86017322Y-63655771D01*
X86012345Y-63653710D01*
X85983081Y-63650828D01*
X85697367Y-63650828D01*
X85668103Y-63653710D01*
X85663122Y-63655773D01*
X85657748Y-63656155D01*
X85630284Y-63666664D01*
X85487428Y-63738093D01*
X85474834Y-63746020D01*
X85471175Y-63747536D01*
X85467054Y-63750917D01*
X85462542Y-63753758D01*
X85459945Y-63756751D01*
X85448445Y-63766190D01*
X85377016Y-63837618D01*
X85367576Y-63849120D01*
X85364582Y-63851717D01*
X85361740Y-63856231D01*
X85358361Y-63860349D01*
X85356845Y-63864007D01*
X85348917Y-63876603D01*
X85277489Y-64019460D01*
X85266979Y-64046924D01*
X85266597Y-64052299D01*
X85264535Y-64057278D01*
X85261653Y-64086542D01*
X84561653Y-64086542D01*
X84561653Y-63800828D01*
X84561642Y-63800722D01*
X84561653Y-63800670D01*
X84561622Y-63800516D01*
X84558771Y-63771564D01*
X84553087Y-63757843D01*
X84550175Y-63743281D01*
X84541996Y-63731068D01*
X84536373Y-63717492D01*
X84525874Y-63706993D01*
X84517609Y-63694651D01*
X84505378Y-63686497D01*
X84494989Y-63676108D01*
X84481270Y-63670425D01*
X84468910Y-63662185D01*
X84454491Y-63659332D01*
X84440917Y-63653710D01*
X84426066Y-63653710D01*
X84411496Y-63650828D01*
X84397086Y-63653710D01*
X84382389Y-63653710D01*
X84368667Y-63659393D01*
X84354106Y-63662306D01*
X84341893Y-63670484D01*
X84328317Y-63676108D01*
X84317818Y-63686606D01*
X84305476Y-63694872D01*
X84287044Y-63717380D01*
X84286933Y-63717492D01*
X84286912Y-63717542D01*
X84286846Y-63717623D01*
X84152226Y-63919551D01*
X84037085Y-64034692D01*
X83916000Y-64095236D01*
X83891114Y-64110901D01*
X83852767Y-64155116D01*
X83834260Y-64210639D01*
X83667593Y-64210639D01*
X83667593Y-63484161D01*
X86585463Y-63484161D01*
X86585463Y-65617495D01*
G37*
X69445489Y-77229400D02*
X68302632Y-77229400D01*
X68874060Y-77800828D02*
X68874060Y-76657971D01*
X63945489Y-114729400D02*
X62802632Y-114729400D01*
X63374060Y-115300828D02*
X63374060Y-114157971D01*
G36*
X89082581Y-139117495D02*
G01*
X86097868Y-139117495D01*
X86097868Y-138771565D01*
X86264535Y-138771565D01*
X86264535Y-138830091D01*
X86286932Y-138884163D01*
X86328318Y-138925549D01*
X86359992Y-138938668D01*
X86382389Y-138947946D01*
X86411653Y-138950828D01*
X87340225Y-138950828D01*
X87369489Y-138947946D01*
X87423561Y-138925548D01*
X87464945Y-138884164D01*
X87487343Y-138830092D01*
X87487343Y-138771564D01*
X87464945Y-138717492D01*
X87423561Y-138676108D01*
X87369489Y-138653710D01*
X87340225Y-138650828D01*
X86773785Y-138650828D01*
X87374862Y-138049751D01*
X87393517Y-138027021D01*
X87395580Y-138022039D01*
X87399110Y-138017970D01*
X87411098Y-137991120D01*
X87482527Y-137776835D01*
X87485826Y-137762325D01*
X87487343Y-137758664D01*
X87487865Y-137753355D01*
X87489047Y-137748161D01*
X87488766Y-137744211D01*
X87490225Y-137729400D01*
X87490225Y-137710639D01*
X87762831Y-137710639D01*
X87766980Y-137769019D01*
X87793154Y-137821368D01*
X87837369Y-137859715D01*
X87892892Y-137878222D01*
X87951272Y-137874073D01*
X87978735Y-137863564D01*
X88121592Y-137792135D01*
X88134185Y-137784207D01*
X88137845Y-137782692D01*
X88141964Y-137779310D01*
X88146478Y-137776470D01*
X88149074Y-137773476D01*
X88160576Y-137764037D01*
X88190224Y-137734389D01*
X88190224Y-138650828D01*
X87911653Y-138650828D01*
X87882389Y-138653710D01*
X87828317Y-138676108D01*
X87786933Y-138717492D01*
X87764535Y-138771564D01*
X87764535Y-138830092D01*
X87786933Y-138884164D01*
X87828317Y-138925548D01*
X87882389Y-138947946D01*
X87911653Y-138950828D01*
X88768796Y-138950828D01*
X88798060Y-138947946D01*
X88852132Y-138925548D01*
X88893516Y-138884164D01*
X88915914Y-138830092D01*
X88915914Y-138771564D01*
X88893516Y-138717492D01*
X88852132Y-138676108D01*
X88798060Y-138653710D01*
X88768796Y-138650828D01*
X88490224Y-138650828D01*
X88490224Y-137300828D01*
X88490213Y-137300722D01*
X88490224Y-137300670D01*
X88490193Y-137300516D01*
X88487342Y-137271564D01*
X88481658Y-137257843D01*
X88478746Y-137243281D01*
X88470567Y-137231068D01*
X88464944Y-137217492D01*
X88454445Y-137206993D01*
X88446180Y-137194651D01*
X88433949Y-137186497D01*
X88423560Y-137176108D01*
X88409841Y-137170425D01*
X88397481Y-137162185D01*
X88383062Y-137159332D01*
X88369488Y-137153710D01*
X88354637Y-137153710D01*
X88340067Y-137150828D01*
X88325657Y-137153710D01*
X88310960Y-137153710D01*
X88297238Y-137159393D01*
X88282677Y-137162306D01*
X88270464Y-137170484D01*
X88256888Y-137176108D01*
X88246389Y-137186606D01*
X88234047Y-137194872D01*
X88215615Y-137217380D01*
X88215504Y-137217492D01*
X88215483Y-137217542D01*
X88215417Y-137217623D01*
X88080797Y-137419551D01*
X87965656Y-137534692D01*
X87844571Y-137595236D01*
X87819685Y-137610901D01*
X87781338Y-137655116D01*
X87762831Y-137710639D01*
X87490225Y-137710639D01*
X87490225Y-137586542D01*
X87487343Y-137557278D01*
X87485279Y-137552297D01*
X87484898Y-137546923D01*
X87474389Y-137519459D01*
X87402960Y-137376603D01*
X87395033Y-137364011D01*
X87393517Y-137360349D01*
X87390133Y-137356226D01*
X87387295Y-137351717D01*
X87384302Y-137349121D01*
X87374862Y-137337619D01*
X87303434Y-137266191D01*
X87291932Y-137256751D01*
X87289336Y-137253758D01*
X87284822Y-137250917D01*
X87280703Y-137247536D01*
X87277043Y-137246020D01*
X87264450Y-137238093D01*
X87121592Y-137166664D01*
X87094129Y-137156154D01*
X87088751Y-137155771D01*
X87083774Y-137153710D01*
X87054510Y-137150828D01*
X86697368Y-137150828D01*
X86668104Y-137153710D01*
X86663126Y-137155771D01*
X86657749Y-137156154D01*
X86630286Y-137166664D01*
X86487428Y-137238093D01*
X86474836Y-137246019D01*
X86471174Y-137247536D01*
X86467051Y-137250919D01*
X86462542Y-137253758D01*
X86459946Y-137256750D01*
X86448444Y-137266191D01*
X86377016Y-137337619D01*
X86358361Y-137360350D01*
X86335964Y-137414422D01*
X86335964Y-137472948D01*
X86358361Y-137527020D01*
X86399747Y-137568406D01*
X86453819Y-137590803D01*
X86512345Y-137590803D01*
X86566417Y-137568406D01*
X86589148Y-137549751D01*
X86643364Y-137495535D01*
X86732778Y-137450828D01*
X87019100Y-137450828D01*
X87108514Y-137495535D01*
X87145518Y-137532539D01*
X87190225Y-137621952D01*
X87190225Y-137705059D01*
X87137691Y-137862657D01*
X86305587Y-138694762D01*
X86286932Y-138717493D01*
X86264535Y-138771565D01*
X86097868Y-138771565D01*
X86097868Y-136984161D01*
X89082581Y-136984161D01*
X89082581Y-139117495D01*
G37*
G36*
X77085463Y-61617495D02*
G01*
X73740725Y-61617495D01*
X73740725Y-60700136D01*
X73907392Y-60700136D01*
X73907392Y-60758664D01*
X73929790Y-60812736D01*
X73971174Y-60854120D01*
X74025246Y-60876518D01*
X74054510Y-60879400D01*
X75197368Y-60879400D01*
X75226632Y-60876518D01*
X75280704Y-60854120D01*
X75322088Y-60812736D01*
X75344486Y-60758664D01*
X75344486Y-60700136D01*
X75322088Y-60646064D01*
X75280704Y-60604680D01*
X75226632Y-60582282D01*
X75197368Y-60579400D01*
X74054510Y-60579400D01*
X74025246Y-60582282D01*
X73971174Y-60604680D01*
X73929790Y-60646064D01*
X73907392Y-60700136D01*
X73740725Y-60700136D01*
X73740725Y-60443685D01*
X75690225Y-60443685D01*
X75690225Y-60657971D01*
X75690727Y-60663074D01*
X75690402Y-60665262D01*
X75692021Y-60676212D01*
X75693107Y-60687235D01*
X75693954Y-60689279D01*
X75694704Y-60694351D01*
X75766132Y-60980065D01*
X75766903Y-60982223D01*
X75766980Y-60983304D01*
X75771638Y-60995478D01*
X75776025Y-61007756D01*
X75776669Y-61008626D01*
X75777489Y-61010767D01*
X75848918Y-61153624D01*
X75856845Y-61166217D01*
X75858361Y-61169877D01*
X75861742Y-61173996D01*
X75864583Y-61178510D01*
X75867576Y-61181106D01*
X75877016Y-61192608D01*
X76019873Y-61335466D01*
X76042603Y-61354121D01*
X76047582Y-61356183D01*
X76051654Y-61359715D01*
X76078505Y-61371703D01*
X76292791Y-61443131D01*
X76307303Y-61446430D01*
X76310961Y-61447946D01*
X76316263Y-61448468D01*
X76321465Y-61449651D01*
X76325419Y-61449369D01*
X76340225Y-61450828D01*
X76483082Y-61450828D01*
X76497887Y-61449369D01*
X76501842Y-61449651D01*
X76507043Y-61448468D01*
X76512346Y-61447946D01*
X76516003Y-61446430D01*
X76530516Y-61443131D01*
X76744802Y-61371703D01*
X76771653Y-61359715D01*
X76775726Y-61356181D01*
X76780704Y-61354120D01*
X76803435Y-61335465D01*
X76874863Y-61264036D01*
X76893517Y-61241306D01*
X76913688Y-61192608D01*
X76915914Y-61187235D01*
X76918796Y-61157971D01*
X76918796Y-60657971D01*
X76915914Y-60628707D01*
X76893516Y-60574635D01*
X76852132Y-60533251D01*
X76798060Y-60510853D01*
X76768796Y-60507971D01*
X76483082Y-60507971D01*
X76453818Y-60510853D01*
X76399746Y-60533251D01*
X76358362Y-60574635D01*
X76335964Y-60628707D01*
X76335964Y-60687235D01*
X76358362Y-60741307D01*
X76399746Y-60782691D01*
X76453818Y-60805089D01*
X76483082Y-60807971D01*
X76618796Y-60807971D01*
X76618796Y-61095839D01*
X76616341Y-61098294D01*
X76458739Y-61150828D01*
X76364568Y-61150828D01*
X76206965Y-61098294D01*
X76106360Y-60997688D01*
X76053179Y-60891328D01*
X75990225Y-60639507D01*
X75990225Y-60462148D01*
X76053179Y-60210327D01*
X76106360Y-60103967D01*
X76206966Y-60003361D01*
X76364568Y-59950828D01*
X76519101Y-59950828D01*
X76630285Y-60006421D01*
X76657749Y-60016930D01*
X76716129Y-60021079D01*
X76771651Y-60002572D01*
X76815867Y-59964225D01*
X76842041Y-59911876D01*
X76846190Y-59853496D01*
X76827682Y-59797973D01*
X76789336Y-59753758D01*
X76764450Y-59738093D01*
X76621593Y-59666664D01*
X76594130Y-59656155D01*
X76588755Y-59655773D01*
X76583775Y-59653710D01*
X76554511Y-59650828D01*
X76340225Y-59650828D01*
X76325413Y-59652286D01*
X76321464Y-59652006D01*
X76316269Y-59653187D01*
X76310961Y-59653710D01*
X76307299Y-59655226D01*
X76292790Y-59658526D01*
X76078505Y-59729955D01*
X76051654Y-59741943D01*
X76047584Y-59745472D01*
X76042603Y-59747536D01*
X76019873Y-59766191D01*
X75877016Y-59909048D01*
X75867576Y-59920549D01*
X75864583Y-59923146D01*
X75861742Y-59927659D01*
X75858361Y-59931779D01*
X75856845Y-59935438D01*
X75848918Y-59948032D01*
X75777489Y-60090889D01*
X75776669Y-60093029D01*
X75776025Y-60093900D01*
X75771638Y-60106177D01*
X75766980Y-60118352D01*
X75766903Y-60119432D01*
X75766132Y-60121591D01*
X75694704Y-60407305D01*
X75693954Y-60412376D01*
X75693107Y-60414421D01*
X75692021Y-60425443D01*
X75690402Y-60436394D01*
X75690727Y-60438581D01*
X75690225Y-60443685D01*
X73740725Y-60443685D01*
X73740725Y-59484161D01*
X77085463Y-59484161D01*
X77085463Y-61617495D01*
G37*
G36*
X66037085Y-59995535D02*
G01*
X66074089Y-60032539D01*
X66118796Y-60121952D01*
X66118796Y-60408274D01*
X66074088Y-60497688D01*
X66037084Y-60534693D01*
X65947671Y-60579400D01*
X65732777Y-60579400D01*
X65643364Y-60534693D01*
X65606358Y-60497687D01*
X65561653Y-60408275D01*
X65561653Y-60121951D01*
X65606358Y-60032540D01*
X65643363Y-59995535D01*
X65732777Y-59950828D01*
X65947671Y-59950828D01*
X66037085Y-59995535D01*
G37*
G36*
X66585463Y-61617495D02*
G01*
X63667593Y-61617495D01*
X63667593Y-60210639D01*
X63834260Y-60210639D01*
X63838409Y-60269019D01*
X63864583Y-60321368D01*
X63908798Y-60359715D01*
X63964321Y-60378222D01*
X64022701Y-60374073D01*
X64050164Y-60363564D01*
X64193021Y-60292135D01*
X64205614Y-60284207D01*
X64209274Y-60282692D01*
X64213393Y-60279310D01*
X64217907Y-60276470D01*
X64220503Y-60273476D01*
X64232005Y-60264037D01*
X64261653Y-60234389D01*
X64261653Y-61150828D01*
X63983082Y-61150828D01*
X63953818Y-61153710D01*
X63899746Y-61176108D01*
X63858362Y-61217492D01*
X63835964Y-61271564D01*
X63835964Y-61330092D01*
X63858362Y-61384164D01*
X63899746Y-61425548D01*
X63953818Y-61447946D01*
X63983082Y-61450828D01*
X64840225Y-61450828D01*
X64869489Y-61447946D01*
X64923561Y-61425548D01*
X64964945Y-61384164D01*
X64987343Y-61330092D01*
X64987343Y-61271564D01*
X64964945Y-61217492D01*
X64923561Y-61176108D01*
X64869489Y-61153710D01*
X64840225Y-61150828D01*
X64561653Y-61150828D01*
X64561653Y-60086542D01*
X65261653Y-60086542D01*
X65261653Y-60443685D01*
X65264535Y-60472949D01*
X65266597Y-60477927D01*
X65266979Y-60483303D01*
X65277489Y-60510767D01*
X65348917Y-60653624D01*
X65356844Y-60666217D01*
X65358360Y-60669877D01*
X65361741Y-60673996D01*
X65364582Y-60678510D01*
X65367575Y-60681106D01*
X65377015Y-60692608D01*
X65448444Y-60764037D01*
X65459945Y-60773475D01*
X65462542Y-60776470D01*
X65467055Y-60779310D01*
X65471175Y-60782692D01*
X65474834Y-60784207D01*
X65487428Y-60792135D01*
X65630284Y-60863564D01*
X65657748Y-60874073D01*
X65663122Y-60874454D01*
X65668103Y-60876518D01*
X65697367Y-60879400D01*
X65983081Y-60879400D01*
X66012345Y-60876518D01*
X66017322Y-60874456D01*
X66022700Y-60874074D01*
X66050163Y-60863564D01*
X66064583Y-60856353D01*
X66058147Y-60882098D01*
X65937940Y-61062408D01*
X65894226Y-61106122D01*
X65804814Y-61150828D01*
X65554510Y-61150828D01*
X65525246Y-61153710D01*
X65471174Y-61176108D01*
X65429790Y-61217492D01*
X65407392Y-61271564D01*
X65407392Y-61330092D01*
X65429790Y-61384164D01*
X65471174Y-61425548D01*
X65525246Y-61447946D01*
X65554510Y-61450828D01*
X65840224Y-61450828D01*
X65869488Y-61447946D01*
X65874466Y-61445883D01*
X65879842Y-61445502D01*
X65907306Y-61434992D01*
X66050163Y-61363564D01*
X66062756Y-61355636D01*
X66066416Y-61354121D01*
X66070535Y-61350739D01*
X66075049Y-61347899D01*
X66077645Y-61344905D01*
X66089147Y-61335466D01*
X66160576Y-61264037D01*
X66160642Y-61263955D01*
X66160687Y-61263926D01*
X66170053Y-61252489D01*
X66179231Y-61241306D01*
X66179250Y-61241257D01*
X66179318Y-61241176D01*
X66322175Y-61026890D01*
X66330788Y-61010734D01*
X66332995Y-61007757D01*
X66334251Y-61004240D01*
X66336010Y-61000942D01*
X66336729Y-60997303D01*
X66342888Y-60980066D01*
X66414317Y-60694352D01*
X66415067Y-60689279D01*
X66415914Y-60687235D01*
X66416999Y-60676215D01*
X66418619Y-60665263D01*
X66418293Y-60663074D01*
X66418796Y-60657971D01*
X66418796Y-60086542D01*
X66415914Y-60057278D01*
X66413850Y-60052297D01*
X66413469Y-60046923D01*
X66402960Y-60019459D01*
X66331531Y-59876603D01*
X66323604Y-59864011D01*
X66322088Y-59860349D01*
X66318704Y-59856226D01*
X66315866Y-59851717D01*
X66312873Y-59849121D01*
X66303433Y-59837619D01*
X66232005Y-59766191D01*
X66220503Y-59756751D01*
X66217907Y-59753758D01*
X66213393Y-59750917D01*
X66209274Y-59747536D01*
X66205614Y-59746020D01*
X66193021Y-59738093D01*
X66050163Y-59666664D01*
X66022700Y-59656154D01*
X66017322Y-59655771D01*
X66012345Y-59653710D01*
X65983081Y-59650828D01*
X65697367Y-59650828D01*
X65668103Y-59653710D01*
X65663122Y-59655773D01*
X65657748Y-59656155D01*
X65630284Y-59666664D01*
X65487428Y-59738093D01*
X65474834Y-59746020D01*
X65471175Y-59747536D01*
X65467054Y-59750917D01*
X65462542Y-59753758D01*
X65459945Y-59756751D01*
X65448445Y-59766190D01*
X65377016Y-59837618D01*
X65367576Y-59849120D01*
X65364582Y-59851717D01*
X65361740Y-59856231D01*
X65358361Y-59860349D01*
X65356845Y-59864007D01*
X65348917Y-59876603D01*
X65277489Y-60019460D01*
X65266979Y-60046924D01*
X65266597Y-60052299D01*
X65264535Y-60057278D01*
X65261653Y-60086542D01*
X64561653Y-60086542D01*
X64561653Y-59800828D01*
X64561642Y-59800722D01*
X64561653Y-59800670D01*
X64561622Y-59800516D01*
X64558771Y-59771564D01*
X64553087Y-59757843D01*
X64550175Y-59743281D01*
X64541996Y-59731068D01*
X64536373Y-59717492D01*
X64525874Y-59706993D01*
X64517609Y-59694651D01*
X64505378Y-59686497D01*
X64494989Y-59676108D01*
X64481270Y-59670425D01*
X64468910Y-59662185D01*
X64454491Y-59659332D01*
X64440917Y-59653710D01*
X64426066Y-59653710D01*
X64411496Y-59650828D01*
X64397086Y-59653710D01*
X64382389Y-59653710D01*
X64368667Y-59659393D01*
X64354106Y-59662306D01*
X64341893Y-59670484D01*
X64328317Y-59676108D01*
X64317818Y-59686606D01*
X64305476Y-59694872D01*
X64287044Y-59717380D01*
X64286933Y-59717492D01*
X64286912Y-59717542D01*
X64286846Y-59717623D01*
X64152226Y-59919551D01*
X64037085Y-60034692D01*
X63916000Y-60095236D01*
X63891114Y-60110901D01*
X63852767Y-60155116D01*
X63834260Y-60210639D01*
X63667593Y-60210639D01*
X63667593Y-59484161D01*
X66585463Y-59484161D01*
X66585463Y-61617495D01*
G37*
G36*
X64154354Y-59617495D02*
G01*
X61167593Y-59617495D01*
X61167593Y-58210639D01*
X61334260Y-58210639D01*
X61338409Y-58269019D01*
X61364583Y-58321368D01*
X61408798Y-58359715D01*
X61464321Y-58378222D01*
X61522701Y-58374073D01*
X61550164Y-58363564D01*
X61693021Y-58292135D01*
X61705614Y-58284207D01*
X61709274Y-58282692D01*
X61713393Y-58279310D01*
X61717907Y-58276470D01*
X61720503Y-58273476D01*
X61732005Y-58264037D01*
X61761653Y-58234389D01*
X61761653Y-59150828D01*
X61483082Y-59150828D01*
X61453818Y-59153710D01*
X61399746Y-59176108D01*
X61358362Y-59217492D01*
X61335964Y-59271564D01*
X61335964Y-59330092D01*
X61358362Y-59384164D01*
X61399746Y-59425548D01*
X61453818Y-59447946D01*
X61483082Y-59450828D01*
X62340225Y-59450828D01*
X62369489Y-59447946D01*
X62423561Y-59425548D01*
X62464945Y-59384164D01*
X62487343Y-59330092D01*
X62487343Y-59271564D01*
X62464945Y-59217492D01*
X62423561Y-59176108D01*
X62369489Y-59153710D01*
X62340225Y-59150828D01*
X62061653Y-59150828D01*
X62061653Y-57800828D01*
X62061642Y-57800722D01*
X62061653Y-57800670D01*
X62061622Y-57800516D01*
X62058771Y-57771564D01*
X62693106Y-57771564D01*
X62693106Y-57830092D01*
X62715504Y-57884164D01*
X62756888Y-57925548D01*
X62810960Y-57947946D01*
X62840224Y-57950828D01*
X63612743Y-57950828D01*
X63059495Y-59241740D01*
X63050617Y-59269773D01*
X63049904Y-59328296D01*
X63071640Y-59382636D01*
X63112517Y-59424523D01*
X63166312Y-59447578D01*
X63224835Y-59448291D01*
X63279175Y-59426555D01*
X63321062Y-59385678D01*
X63335239Y-59359916D01*
X63978096Y-57859916D01*
X63986974Y-57831883D01*
X63986985Y-57830953D01*
X63987342Y-57830092D01*
X63987342Y-57801677D01*
X63987687Y-57773360D01*
X63987342Y-57772497D01*
X63987342Y-57771564D01*
X63976469Y-57745315D01*
X63965951Y-57719020D01*
X63965301Y-57718354D01*
X63964944Y-57717492D01*
X63944864Y-57697412D01*
X63925074Y-57677133D01*
X63924218Y-57676766D01*
X63923560Y-57676108D01*
X63897340Y-57665247D01*
X63871279Y-57654078D01*
X63870349Y-57654066D01*
X63869488Y-57653710D01*
X63840224Y-57650828D01*
X62840224Y-57650828D01*
X62810960Y-57653710D01*
X62756888Y-57676108D01*
X62715504Y-57717492D01*
X62693106Y-57771564D01*
X62058771Y-57771564D01*
X62053087Y-57757843D01*
X62050175Y-57743281D01*
X62041996Y-57731068D01*
X62036373Y-57717492D01*
X62025874Y-57706993D01*
X62017609Y-57694651D01*
X62005378Y-57686497D01*
X61994989Y-57676108D01*
X61981270Y-57670425D01*
X61968910Y-57662185D01*
X61954491Y-57659332D01*
X61940917Y-57653710D01*
X61926066Y-57653710D01*
X61911496Y-57650828D01*
X61897086Y-57653710D01*
X61882389Y-57653710D01*
X61868667Y-57659393D01*
X61854106Y-57662306D01*
X61841893Y-57670484D01*
X61828317Y-57676108D01*
X61817818Y-57686606D01*
X61805476Y-57694872D01*
X61787044Y-57717380D01*
X61786933Y-57717492D01*
X61786912Y-57717542D01*
X61786846Y-57717623D01*
X61652226Y-57919551D01*
X61537085Y-58034692D01*
X61416000Y-58095236D01*
X61391114Y-58110901D01*
X61352767Y-58155116D01*
X61334260Y-58210639D01*
X61167593Y-58210639D01*
X61167593Y-57484161D01*
X64154354Y-57484161D01*
X64154354Y-59617495D01*
G37*
X82445489Y-132729400D02*
X81302632Y-132729400D01*
X81874060Y-133300828D02*
X81874060Y-132157971D01*
G36*
X79084286Y-59617495D02*
G01*
X76167115Y-59617495D01*
X76167115Y-58529594D01*
X76333782Y-58529594D01*
X76335964Y-58536825D01*
X76335964Y-58544378D01*
X76344355Y-58564637D01*
X76350689Y-58585626D01*
X76355470Y-58591470D01*
X76358362Y-58598450D01*
X76373866Y-58613953D01*
X76387750Y-58630923D01*
X76394406Y-58634494D01*
X76399748Y-58639835D01*
X76420002Y-58648224D01*
X76439325Y-58658590D01*
X76446842Y-58659341D01*
X76453820Y-58662232D01*
X76475743Y-58662232D01*
X76497562Y-58664414D01*
X76504793Y-58662232D01*
X76512346Y-58662232D01*
X76532605Y-58653840D01*
X76553594Y-58647507D01*
X76559438Y-58642725D01*
X76566418Y-58639834D01*
X76589149Y-58621179D01*
X76643365Y-58566962D01*
X76732777Y-58522257D01*
X77019101Y-58522257D01*
X77108514Y-58566963D01*
X77145517Y-58603967D01*
X77190225Y-58693381D01*
X77190225Y-58979703D01*
X77145517Y-59069117D01*
X77108514Y-59106121D01*
X77019101Y-59150828D01*
X76732777Y-59150828D01*
X76643365Y-59106122D01*
X76589149Y-59051906D01*
X76566418Y-59033251D01*
X76512346Y-59010853D01*
X76453820Y-59010853D01*
X76399748Y-59033250D01*
X76358362Y-59074635D01*
X76335964Y-59128707D01*
X76335964Y-59187233D01*
X76358361Y-59241305D01*
X76377015Y-59264036D01*
X76448443Y-59335465D01*
X76459945Y-59344904D01*
X76462543Y-59347900D01*
X76467057Y-59350741D01*
X76471174Y-59354120D01*
X76474832Y-59355635D01*
X76487429Y-59363564D01*
X76630287Y-59434993D01*
X76657750Y-59445502D01*
X76663125Y-59445883D01*
X76668104Y-59447946D01*
X76697368Y-59450828D01*
X77054510Y-59450828D01*
X77083774Y-59447946D01*
X77088752Y-59445883D01*
X77094128Y-59445502D01*
X77121591Y-59434992D01*
X77264450Y-59363564D01*
X77277044Y-59355635D01*
X77280704Y-59354120D01*
X77284824Y-59350738D01*
X77289335Y-59347899D01*
X77291929Y-59344907D01*
X77303435Y-59335465D01*
X77374863Y-59264036D01*
X77384301Y-59252535D01*
X77387295Y-59249939D01*
X77390135Y-59245426D01*
X77393517Y-59241306D01*
X77395032Y-59237646D01*
X77402960Y-59225053D01*
X77474389Y-59082197D01*
X77484898Y-59054733D01*
X77485279Y-59049358D01*
X77487343Y-59044378D01*
X77490225Y-59015114D01*
X77490225Y-58657971D01*
X77487343Y-58628707D01*
X77485279Y-58623726D01*
X77484898Y-58618352D01*
X77474389Y-58590888D01*
X77402960Y-58448032D01*
X77395032Y-58435438D01*
X77393517Y-58431779D01*
X77390135Y-58427658D01*
X77387295Y-58423146D01*
X77384301Y-58420549D01*
X77374863Y-58409049D01*
X77303435Y-58337620D01*
X77291929Y-58328177D01*
X77289335Y-58325186D01*
X77284824Y-58322346D01*
X77280704Y-58318965D01*
X77277044Y-58317449D01*
X77264450Y-58309521D01*
X77121591Y-58238093D01*
X77094128Y-58227583D01*
X77088752Y-58227201D01*
X77083774Y-58225139D01*
X77054510Y-58222257D01*
X76697368Y-58222257D01*
X76668104Y-58225139D01*
X76663125Y-58227201D01*
X76662617Y-58227237D01*
X76690259Y-57950828D01*
X77268796Y-57950828D01*
X77298060Y-57947946D01*
X77352132Y-57925548D01*
X77393516Y-57884164D01*
X77415914Y-57830092D01*
X77415914Y-57819589D01*
X77619974Y-57819589D01*
X77626494Y-57848262D01*
X78126494Y-59348262D01*
X78138482Y-59375113D01*
X78145504Y-59383210D01*
X78150297Y-59392795D01*
X78164503Y-59405116D01*
X78176829Y-59419328D01*
X78186416Y-59424121D01*
X78194511Y-59431142D01*
X78212353Y-59437089D01*
X78229177Y-59445501D01*
X78239867Y-59446260D01*
X78250035Y-59449650D01*
X78268791Y-59448317D01*
X78287557Y-59449651D01*
X78297727Y-59446260D01*
X78308416Y-59445501D01*
X78325237Y-59437090D01*
X78343081Y-59431142D01*
X78351177Y-59424119D01*
X78360763Y-59419327D01*
X78373086Y-59405118D01*
X78387295Y-59392795D01*
X78392087Y-59383209D01*
X78399110Y-59375113D01*
X78411098Y-59348262D01*
X78911099Y-57848262D01*
X78917619Y-57819588D01*
X78913469Y-57761208D01*
X78887295Y-57708861D01*
X78843081Y-57670514D01*
X78787557Y-57652005D01*
X78729177Y-57656155D01*
X78676829Y-57682328D01*
X78638482Y-57726543D01*
X78626494Y-57753394D01*
X78268796Y-58826486D01*
X77911098Y-57753394D01*
X77899110Y-57726543D01*
X77860763Y-57682329D01*
X77808416Y-57656155D01*
X77750035Y-57652006D01*
X77694511Y-57670514D01*
X77650297Y-57708861D01*
X77624123Y-57761208D01*
X77619974Y-57819589D01*
X77415914Y-57819589D01*
X77415914Y-57771564D01*
X77393516Y-57717492D01*
X77352132Y-57676108D01*
X77298060Y-57653710D01*
X77268796Y-57650828D01*
X76554510Y-57650828D01*
X76543683Y-57651894D01*
X76540030Y-57651529D01*
X76536462Y-57652605D01*
X76525246Y-57653710D01*
X76504983Y-57662103D01*
X76483998Y-57668435D01*
X76478153Y-57673216D01*
X76471174Y-57676108D01*
X76455668Y-57691613D01*
X76438701Y-57705496D01*
X76435130Y-57712151D01*
X76429790Y-57717492D01*
X76421398Y-57737749D01*
X76411034Y-57757071D01*
X76408819Y-57768118D01*
X76407392Y-57771564D01*
X76407392Y-57775238D01*
X76405254Y-57785903D01*
X76333826Y-58500189D01*
X76333782Y-58529594D01*
X76167115Y-58529594D01*
X76167115Y-57484161D01*
X79084286Y-57484161D01*
X79084286Y-59617495D01*
G37*
G36*
X87037086Y-85995535D02*
G01*
X87074090Y-86032539D01*
X87127268Y-86138897D01*
X87190225Y-86390721D01*
X87190225Y-86710935D01*
X87127268Y-86962759D01*
X87074089Y-87069117D01*
X87037084Y-87106122D01*
X86947672Y-87150828D01*
X86875635Y-87150828D01*
X86786221Y-87106121D01*
X86749217Y-87069117D01*
X86696036Y-86962757D01*
X86633082Y-86710936D01*
X86633082Y-86390720D01*
X86696036Y-86138898D01*
X86749217Y-86032538D01*
X86786221Y-85995535D01*
X86875635Y-85950828D01*
X86947672Y-85950828D01*
X87037086Y-85995535D01*
G37*
G36*
X87656892Y-87617495D02*
G01*
X86166415Y-87617495D01*
X86166415Y-86372257D01*
X86333082Y-86372257D01*
X86333082Y-86729400D01*
X86333584Y-86734503D01*
X86333259Y-86736691D01*
X86334878Y-86747641D01*
X86335964Y-86758664D01*
X86336811Y-86760708D01*
X86337561Y-86765780D01*
X86408989Y-87051494D01*
X86409760Y-87053652D01*
X86409837Y-87054733D01*
X86414495Y-87066907D01*
X86418882Y-87079185D01*
X86419526Y-87080055D01*
X86420346Y-87082196D01*
X86491775Y-87225053D01*
X86499702Y-87237646D01*
X86501218Y-87241306D01*
X86504599Y-87245425D01*
X86507440Y-87249939D01*
X86510433Y-87252535D01*
X86519873Y-87264037D01*
X86591302Y-87335466D01*
X86602806Y-87344907D01*
X86605401Y-87347899D01*
X86609910Y-87350737D01*
X86614033Y-87354121D01*
X86617694Y-87355637D01*
X86630286Y-87363564D01*
X86773144Y-87434992D01*
X86800607Y-87445502D01*
X86805982Y-87445883D01*
X86810961Y-87447946D01*
X86840225Y-87450828D01*
X86983082Y-87450828D01*
X87012346Y-87447946D01*
X87017324Y-87445883D01*
X87022700Y-87445502D01*
X87050164Y-87434992D01*
X87193021Y-87363564D01*
X87205614Y-87355636D01*
X87209274Y-87354121D01*
X87213393Y-87350739D01*
X87217907Y-87347899D01*
X87220503Y-87344905D01*
X87232005Y-87335466D01*
X87303434Y-87264037D01*
X87312875Y-87252532D01*
X87315867Y-87249938D01*
X87318705Y-87245428D01*
X87322089Y-87241306D01*
X87323605Y-87237644D01*
X87331532Y-87225053D01*
X87402960Y-87082195D01*
X87403777Y-87080058D01*
X87404424Y-87079186D01*
X87408813Y-87066899D01*
X87413470Y-87054732D01*
X87413546Y-87053650D01*
X87414317Y-87051495D01*
X87485746Y-86765781D01*
X87486496Y-86760708D01*
X87487343Y-86758664D01*
X87488428Y-86747644D01*
X87490048Y-86736692D01*
X87489722Y-86734503D01*
X87490225Y-86729400D01*
X87490225Y-86372257D01*
X87489722Y-86367153D01*
X87490048Y-86364965D01*
X87488428Y-86354012D01*
X87487343Y-86342993D01*
X87486496Y-86340948D01*
X87485746Y-86335876D01*
X87414317Y-86050162D01*
X87413546Y-86048006D01*
X87413470Y-86046924D01*
X87408810Y-86034749D01*
X87404424Y-86022470D01*
X87403777Y-86021597D01*
X87402960Y-86019461D01*
X87331532Y-85876603D01*
X87323603Y-85864008D01*
X87322088Y-85860349D01*
X87318706Y-85856228D01*
X87315867Y-85851718D01*
X87312875Y-85849123D01*
X87303433Y-85837618D01*
X87232004Y-85766190D01*
X87220504Y-85756752D01*
X87217907Y-85753758D01*
X87213390Y-85750915D01*
X87209273Y-85747536D01*
X87205616Y-85746021D01*
X87193021Y-85738093D01*
X87050164Y-85666664D01*
X87022701Y-85656155D01*
X87017326Y-85655773D01*
X87012346Y-85653710D01*
X86983082Y-85650828D01*
X86840225Y-85650828D01*
X86810961Y-85653710D01*
X86805980Y-85655773D01*
X86800606Y-85656155D01*
X86773142Y-85666664D01*
X86630286Y-85738093D01*
X86617692Y-85746020D01*
X86614033Y-85747536D01*
X86609912Y-85750917D01*
X86605400Y-85753758D01*
X86602803Y-85756751D01*
X86591303Y-85766190D01*
X86519874Y-85837618D01*
X86510434Y-85849120D01*
X86507440Y-85851717D01*
X86504598Y-85856231D01*
X86501219Y-85860349D01*
X86499703Y-85864007D01*
X86491775Y-85876603D01*
X86420346Y-86019460D01*
X86419526Y-86021600D01*
X86418882Y-86022471D01*
X86414495Y-86034748D01*
X86409837Y-86046923D01*
X86409760Y-86048003D01*
X86408989Y-86050162D01*
X86337561Y-86335877D01*
X86336811Y-86340948D01*
X86335964Y-86342993D01*
X86334878Y-86354015D01*
X86333259Y-86364966D01*
X86333584Y-86367153D01*
X86333082Y-86372257D01*
X86166415Y-86372257D01*
X86166415Y-85484161D01*
X87656892Y-85484161D01*
X87656892Y-87617495D01*
G37*
G36*
X71037085Y-60638392D02*
G01*
X71074089Y-60675396D01*
X71118796Y-60764810D01*
X71118796Y-60979703D01*
X71074088Y-61069117D01*
X71037085Y-61106121D01*
X70947672Y-61150828D01*
X70732777Y-61150828D01*
X70643363Y-61106121D01*
X70606358Y-61069116D01*
X70561653Y-60979704D01*
X70561653Y-60764809D01*
X70606359Y-60675395D01*
X70643363Y-60638392D01*
X70732777Y-60593685D01*
X70947671Y-60593685D01*
X71037085Y-60638392D01*
G37*
G36*
X71037085Y-59995535D02*
G01*
X71074089Y-60032539D01*
X71118796Y-60121952D01*
X71118796Y-60122560D01*
X71074088Y-60211974D01*
X71037085Y-60248978D01*
X70947672Y-60293685D01*
X70732777Y-60293685D01*
X70643363Y-60248978D01*
X70606358Y-60211973D01*
X70561653Y-60122561D01*
X70561653Y-60121951D01*
X70606358Y-60032540D01*
X70643363Y-59995535D01*
X70732777Y-59950828D01*
X70947671Y-59950828D01*
X71037085Y-59995535D01*
G37*
G36*
X71585463Y-61617495D02*
G01*
X68667593Y-61617495D01*
X68667593Y-60210639D01*
X68834260Y-60210639D01*
X68838409Y-60269019D01*
X68864583Y-60321368D01*
X68908798Y-60359715D01*
X68964321Y-60378222D01*
X69022701Y-60374073D01*
X69050164Y-60363564D01*
X69193021Y-60292135D01*
X69205614Y-60284207D01*
X69209274Y-60282692D01*
X69213393Y-60279310D01*
X69217907Y-60276470D01*
X69220503Y-60273476D01*
X69232005Y-60264037D01*
X69261653Y-60234389D01*
X69261653Y-61150828D01*
X68983082Y-61150828D01*
X68953818Y-61153710D01*
X68899746Y-61176108D01*
X68858362Y-61217492D01*
X68835964Y-61271564D01*
X68835964Y-61330092D01*
X68858362Y-61384164D01*
X68899746Y-61425548D01*
X68953818Y-61447946D01*
X68983082Y-61450828D01*
X69840225Y-61450828D01*
X69869489Y-61447946D01*
X69923561Y-61425548D01*
X69964945Y-61384164D01*
X69987343Y-61330092D01*
X69987343Y-61271564D01*
X69964945Y-61217492D01*
X69923561Y-61176108D01*
X69869489Y-61153710D01*
X69840225Y-61150828D01*
X69561653Y-61150828D01*
X69561653Y-60086542D01*
X70261653Y-60086542D01*
X70261653Y-60157971D01*
X70264535Y-60187235D01*
X70266597Y-60192213D01*
X70266979Y-60197589D01*
X70277489Y-60225053D01*
X70348917Y-60367910D01*
X70356844Y-60380503D01*
X70358360Y-60384163D01*
X70361741Y-60388282D01*
X70364582Y-60392796D01*
X70367575Y-60395392D01*
X70377015Y-60406894D01*
X70413806Y-60443685D01*
X70377016Y-60480475D01*
X70367573Y-60491980D01*
X70364582Y-60494575D01*
X70361742Y-60499085D01*
X70358361Y-60503206D01*
X70356845Y-60506865D01*
X70348917Y-60519460D01*
X70277489Y-60662319D01*
X70266979Y-60689782D01*
X70266597Y-60695157D01*
X70264535Y-60700136D01*
X70261653Y-60729400D01*
X70261653Y-61015114D01*
X70264535Y-61044378D01*
X70266597Y-61049356D01*
X70266979Y-61054732D01*
X70277489Y-61082196D01*
X70348917Y-61225053D01*
X70356844Y-61237646D01*
X70358360Y-61241306D01*
X70361741Y-61245425D01*
X70364582Y-61249939D01*
X70367575Y-61252535D01*
X70377015Y-61264037D01*
X70448444Y-61335466D01*
X70459948Y-61344907D01*
X70462543Y-61347899D01*
X70467052Y-61350737D01*
X70471175Y-61354121D01*
X70474836Y-61355637D01*
X70487428Y-61363564D01*
X70630286Y-61434992D01*
X70657749Y-61445502D01*
X70663124Y-61445883D01*
X70668103Y-61447946D01*
X70697367Y-61450828D01*
X70983081Y-61450828D01*
X71012345Y-61447946D01*
X71017323Y-61445883D01*
X71022699Y-61445502D01*
X71050162Y-61434992D01*
X71193021Y-61363564D01*
X71205615Y-61355635D01*
X71209275Y-61354120D01*
X71213395Y-61350738D01*
X71217906Y-61347899D01*
X71220500Y-61344907D01*
X71232006Y-61335465D01*
X71303434Y-61264036D01*
X71312872Y-61252535D01*
X71315866Y-61249939D01*
X71318706Y-61245426D01*
X71322088Y-61241306D01*
X71323603Y-61237646D01*
X71331531Y-61225053D01*
X71402960Y-61082197D01*
X71413469Y-61054733D01*
X71413850Y-61049358D01*
X71415914Y-61044378D01*
X71418796Y-61015114D01*
X71418796Y-60729400D01*
X71415914Y-60700136D01*
X71413852Y-60695158D01*
X71413470Y-60689781D01*
X71402960Y-60662318D01*
X71331531Y-60519460D01*
X71323604Y-60506868D01*
X71322088Y-60503206D01*
X71318704Y-60499083D01*
X71315866Y-60494574D01*
X71312873Y-60491978D01*
X71303433Y-60480476D01*
X71266642Y-60443685D01*
X71303434Y-60406893D01*
X71312872Y-60395392D01*
X71315866Y-60392796D01*
X71318706Y-60388283D01*
X71322088Y-60384163D01*
X71323603Y-60380503D01*
X71331531Y-60367910D01*
X71402960Y-60225054D01*
X71413469Y-60197590D01*
X71413850Y-60192215D01*
X71415914Y-60187235D01*
X71418796Y-60157971D01*
X71418796Y-60086542D01*
X71415914Y-60057278D01*
X71413850Y-60052297D01*
X71413469Y-60046923D01*
X71402960Y-60019459D01*
X71331531Y-59876603D01*
X71323604Y-59864011D01*
X71322088Y-59860349D01*
X71318704Y-59856226D01*
X71315866Y-59851717D01*
X71312873Y-59849121D01*
X71303433Y-59837619D01*
X71232005Y-59766191D01*
X71220503Y-59756751D01*
X71217907Y-59753758D01*
X71213393Y-59750917D01*
X71209274Y-59747536D01*
X71205614Y-59746020D01*
X71193021Y-59738093D01*
X71050163Y-59666664D01*
X71022700Y-59656154D01*
X71017322Y-59655771D01*
X71012345Y-59653710D01*
X70983081Y-59650828D01*
X70697367Y-59650828D01*
X70668103Y-59653710D01*
X70663122Y-59655773D01*
X70657748Y-59656155D01*
X70630284Y-59666664D01*
X70487428Y-59738093D01*
X70474834Y-59746020D01*
X70471175Y-59747536D01*
X70467054Y-59750917D01*
X70462542Y-59753758D01*
X70459945Y-59756751D01*
X70448445Y-59766190D01*
X70377016Y-59837618D01*
X70367576Y-59849120D01*
X70364582Y-59851717D01*
X70361740Y-59856231D01*
X70358361Y-59860349D01*
X70356845Y-59864007D01*
X70348917Y-59876603D01*
X70277489Y-60019460D01*
X70266979Y-60046924D01*
X70266597Y-60052299D01*
X70264535Y-60057278D01*
X70261653Y-60086542D01*
X69561653Y-60086542D01*
X69561653Y-59800828D01*
X69561642Y-59800722D01*
X69561653Y-59800670D01*
X69561622Y-59800516D01*
X69558771Y-59771564D01*
X69553087Y-59757843D01*
X69550175Y-59743281D01*
X69541996Y-59731068D01*
X69536373Y-59717492D01*
X69525874Y-59706993D01*
X69517609Y-59694651D01*
X69505378Y-59686497D01*
X69494989Y-59676108D01*
X69481270Y-59670425D01*
X69468910Y-59662185D01*
X69454491Y-59659332D01*
X69440917Y-59653710D01*
X69426066Y-59653710D01*
X69411496Y-59650828D01*
X69397086Y-59653710D01*
X69382389Y-59653710D01*
X69368667Y-59659393D01*
X69354106Y-59662306D01*
X69341893Y-59670484D01*
X69328317Y-59676108D01*
X69317818Y-59686606D01*
X69305476Y-59694872D01*
X69287044Y-59717380D01*
X69286933Y-59717492D01*
X69286912Y-59717542D01*
X69286846Y-59717623D01*
X69152226Y-59919551D01*
X69037085Y-60034692D01*
X68916000Y-60095236D01*
X68891114Y-60110901D01*
X68852767Y-60155116D01*
X68834260Y-60210639D01*
X68667593Y-60210639D01*
X68667593Y-59484161D01*
X71585463Y-59484161D01*
X71585463Y-61617495D01*
G37*
G36*
X66585463Y-68117495D02*
G01*
X63597868Y-68117495D01*
X63597868Y-67771565D01*
X63764535Y-67771565D01*
X63764535Y-67830091D01*
X63786932Y-67884163D01*
X63828318Y-67925549D01*
X63851116Y-67934992D01*
X63882389Y-67947946D01*
X63911653Y-67950828D01*
X64840225Y-67950828D01*
X64869489Y-67947946D01*
X64923561Y-67925548D01*
X64964945Y-67884164D01*
X64987343Y-67830092D01*
X64987343Y-67771564D01*
X64964945Y-67717492D01*
X64923561Y-67676108D01*
X64869489Y-67653710D01*
X64840225Y-67650828D01*
X64273785Y-67650828D01*
X64874862Y-67049751D01*
X64893517Y-67027021D01*
X64895580Y-67022039D01*
X64899110Y-67017970D01*
X64911098Y-66991120D01*
X64982527Y-66776835D01*
X64985826Y-66762325D01*
X64987343Y-66758664D01*
X64987865Y-66753355D01*
X64989047Y-66748161D01*
X64988766Y-66744211D01*
X64990225Y-66729400D01*
X64990225Y-66586542D01*
X64987343Y-66557278D01*
X64985279Y-66552297D01*
X64984898Y-66546923D01*
X64974389Y-66519459D01*
X64902960Y-66376603D01*
X64895033Y-66364011D01*
X64893517Y-66360349D01*
X64890133Y-66356226D01*
X64887295Y-66351717D01*
X64884302Y-66349121D01*
X64874862Y-66337619D01*
X64808807Y-66271564D01*
X65193106Y-66271564D01*
X65193106Y-66330092D01*
X65215504Y-66384164D01*
X65256888Y-66425548D01*
X65310960Y-66447946D01*
X65340224Y-66450828D01*
X65938231Y-66450828D01*
X65655909Y-66773481D01*
X65646865Y-66786131D01*
X65644076Y-66788921D01*
X65642979Y-66791566D01*
X65638808Y-66797403D01*
X65631001Y-66820484D01*
X65621678Y-66842993D01*
X65621678Y-66848052D01*
X65620057Y-66852845D01*
X65621678Y-66877154D01*
X65621678Y-66901521D01*
X65623614Y-66906196D01*
X65623951Y-66911241D01*
X65634749Y-66933076D01*
X65644076Y-66955593D01*
X65647652Y-66959169D01*
X65649895Y-66963704D01*
X65668230Y-66979747D01*
X65685460Y-66996977D01*
X65690134Y-66998913D01*
X65693942Y-67002245D01*
X65717023Y-67010051D01*
X65739532Y-67019375D01*
X65746669Y-67020077D01*
X65749384Y-67020996D01*
X65753323Y-67020733D01*
X65768796Y-67022257D01*
X65947672Y-67022257D01*
X66037085Y-67066963D01*
X66074088Y-67103967D01*
X66118796Y-67193381D01*
X66118796Y-67479703D01*
X66074088Y-67569117D01*
X66037085Y-67606121D01*
X65947672Y-67650828D01*
X65589920Y-67650828D01*
X65500506Y-67606121D01*
X65446290Y-67551905D01*
X65423559Y-67533250D01*
X65369487Y-67510853D01*
X65310961Y-67510853D01*
X65256889Y-67533250D01*
X65215503Y-67574636D01*
X65193106Y-67628708D01*
X65193106Y-67687234D01*
X65215503Y-67741306D01*
X65234158Y-67764037D01*
X65305587Y-67835466D01*
X65317091Y-67844907D01*
X65319686Y-67847899D01*
X65324195Y-67850737D01*
X65328318Y-67854121D01*
X65331979Y-67855637D01*
X65344571Y-67863564D01*
X65487429Y-67934992D01*
X65514892Y-67945502D01*
X65520267Y-67945883D01*
X65525246Y-67947946D01*
X65554510Y-67950828D01*
X65983081Y-67950828D01*
X66012345Y-67947946D01*
X66017323Y-67945883D01*
X66022699Y-67945502D01*
X66050162Y-67934992D01*
X66193021Y-67863564D01*
X66205615Y-67855635D01*
X66209275Y-67854120D01*
X66213395Y-67850738D01*
X66217906Y-67847899D01*
X66220500Y-67844907D01*
X66232006Y-67835465D01*
X66303434Y-67764036D01*
X66312872Y-67752535D01*
X66315866Y-67749939D01*
X66318706Y-67745426D01*
X66322088Y-67741306D01*
X66323603Y-67737646D01*
X66331531Y-67725053D01*
X66402960Y-67582197D01*
X66413469Y-67554733D01*
X66413850Y-67549358D01*
X66415914Y-67544378D01*
X66418796Y-67515114D01*
X66418796Y-67157971D01*
X66415914Y-67128707D01*
X66413850Y-67123726D01*
X66413469Y-67118352D01*
X66402960Y-67090888D01*
X66331531Y-66948032D01*
X66323603Y-66935438D01*
X66322088Y-66931779D01*
X66318706Y-66927658D01*
X66315866Y-66923146D01*
X66312872Y-66920549D01*
X66303434Y-66909049D01*
X66232006Y-66837620D01*
X66220500Y-66828177D01*
X66217906Y-66825186D01*
X66213395Y-66822346D01*
X66209275Y-66818965D01*
X66205615Y-66817449D01*
X66193021Y-66809521D01*
X66074748Y-66750386D01*
X66381682Y-66399604D01*
X66390725Y-66386954D01*
X66393516Y-66384164D01*
X66394611Y-66381519D01*
X66398784Y-66375683D01*
X66406589Y-66352603D01*
X66415914Y-66330092D01*
X66415914Y-66325030D01*
X66417534Y-66320240D01*
X66415914Y-66295939D01*
X66415914Y-66271564D01*
X66413977Y-66266888D01*
X66413641Y-66261844D01*
X66402842Y-66240008D01*
X66393516Y-66217492D01*
X66389939Y-66213915D01*
X66387697Y-66209381D01*
X66369361Y-66193337D01*
X66352132Y-66176108D01*
X66347457Y-66174171D01*
X66343650Y-66170840D01*
X66320574Y-66163036D01*
X66298060Y-66153710D01*
X66290918Y-66153006D01*
X66288208Y-66152090D01*
X66284273Y-66152352D01*
X66268796Y-66150828D01*
X65340224Y-66150828D01*
X65310960Y-66153710D01*
X65256888Y-66176108D01*
X65215504Y-66217492D01*
X65193106Y-66271564D01*
X64808807Y-66271564D01*
X64803434Y-66266191D01*
X64791932Y-66256751D01*
X64789336Y-66253758D01*
X64784822Y-66250917D01*
X64780703Y-66247536D01*
X64777043Y-66246020D01*
X64764450Y-66238093D01*
X64621592Y-66166664D01*
X64594129Y-66156154D01*
X64588751Y-66155771D01*
X64583774Y-66153710D01*
X64554510Y-66150828D01*
X64197368Y-66150828D01*
X64168104Y-66153710D01*
X64163126Y-66155771D01*
X64157749Y-66156154D01*
X64130286Y-66166664D01*
X63987428Y-66238093D01*
X63974836Y-66246019D01*
X63971174Y-66247536D01*
X63967051Y-66250919D01*
X63962542Y-66253758D01*
X63959946Y-66256750D01*
X63948444Y-66266191D01*
X63877016Y-66337619D01*
X63858361Y-66360350D01*
X63835964Y-66414422D01*
X63835964Y-66472948D01*
X63858361Y-66527020D01*
X63899747Y-66568406D01*
X63953819Y-66590803D01*
X64012345Y-66590803D01*
X64066417Y-66568406D01*
X64089148Y-66549751D01*
X64143364Y-66495535D01*
X64232778Y-66450828D01*
X64519100Y-66450828D01*
X64608514Y-66495535D01*
X64645518Y-66532539D01*
X64690225Y-66621952D01*
X64690225Y-66705059D01*
X64637691Y-66862657D01*
X63805587Y-67694762D01*
X63786932Y-67717493D01*
X63774229Y-67748162D01*
X63767654Y-67764036D01*
X63764535Y-67771565D01*
X63597868Y-67771565D01*
X63597868Y-65984161D01*
X66585463Y-65984161D01*
X66585463Y-68117495D01*
G37*
G36*
X71582581Y-68117495D02*
G01*
X68597868Y-68117495D01*
X68597868Y-67771565D01*
X68764535Y-67771565D01*
X68764535Y-67830091D01*
X68786932Y-67884163D01*
X68828318Y-67925549D01*
X68859992Y-67938668D01*
X68882389Y-67947946D01*
X68911653Y-67950828D01*
X69840225Y-67950828D01*
X69869489Y-67947946D01*
X69923561Y-67925548D01*
X69964945Y-67884164D01*
X69987343Y-67830092D01*
X69987343Y-67771564D01*
X69964945Y-67717492D01*
X69923561Y-67676108D01*
X69869489Y-67653710D01*
X69840225Y-67650828D01*
X69273785Y-67650828D01*
X69874862Y-67049751D01*
X69893517Y-67027021D01*
X69895580Y-67022039D01*
X69899110Y-67017970D01*
X69911098Y-66991120D01*
X69982527Y-66776835D01*
X69985826Y-66762325D01*
X69987343Y-66758664D01*
X69987865Y-66753355D01*
X69989047Y-66748161D01*
X69988766Y-66744211D01*
X69990225Y-66729400D01*
X69990225Y-66710639D01*
X70262831Y-66710639D01*
X70266980Y-66769019D01*
X70293154Y-66821368D01*
X70337369Y-66859715D01*
X70392892Y-66878222D01*
X70451272Y-66874073D01*
X70478735Y-66863564D01*
X70621592Y-66792135D01*
X70634185Y-66784207D01*
X70637845Y-66782692D01*
X70641964Y-66779310D01*
X70646478Y-66776470D01*
X70649074Y-66773476D01*
X70660576Y-66764037D01*
X70690224Y-66734389D01*
X70690224Y-67650828D01*
X70411653Y-67650828D01*
X70382389Y-67653710D01*
X70328317Y-67676108D01*
X70286933Y-67717492D01*
X70264535Y-67771564D01*
X70264535Y-67830092D01*
X70286933Y-67884164D01*
X70328317Y-67925548D01*
X70382389Y-67947946D01*
X70411653Y-67950828D01*
X71268796Y-67950828D01*
X71298060Y-67947946D01*
X71352132Y-67925548D01*
X71393516Y-67884164D01*
X71415914Y-67830092D01*
X71415914Y-67771564D01*
X71393516Y-67717492D01*
X71352132Y-67676108D01*
X71298060Y-67653710D01*
X71268796Y-67650828D01*
X70990224Y-67650828D01*
X70990224Y-66300828D01*
X70990213Y-66300722D01*
X70990224Y-66300670D01*
X70990193Y-66300516D01*
X70987342Y-66271564D01*
X70981658Y-66257843D01*
X70978746Y-66243281D01*
X70970567Y-66231068D01*
X70964944Y-66217492D01*
X70954445Y-66206993D01*
X70946180Y-66194651D01*
X70933949Y-66186497D01*
X70923560Y-66176108D01*
X70909841Y-66170425D01*
X70897481Y-66162185D01*
X70883062Y-66159332D01*
X70869488Y-66153710D01*
X70854637Y-66153710D01*
X70840067Y-66150828D01*
X70825657Y-66153710D01*
X70810960Y-66153710D01*
X70797238Y-66159393D01*
X70782677Y-66162306D01*
X70770464Y-66170484D01*
X70756888Y-66176108D01*
X70746389Y-66186606D01*
X70734047Y-66194872D01*
X70715615Y-66217380D01*
X70715504Y-66217492D01*
X70715483Y-66217542D01*
X70715417Y-66217623D01*
X70580797Y-66419551D01*
X70465656Y-66534692D01*
X70344571Y-66595236D01*
X70319685Y-66610901D01*
X70281338Y-66655116D01*
X70262831Y-66710639D01*
X69990225Y-66710639D01*
X69990225Y-66586542D01*
X69987343Y-66557278D01*
X69985279Y-66552297D01*
X69984898Y-66546923D01*
X69974389Y-66519459D01*
X69902960Y-66376603D01*
X69895033Y-66364011D01*
X69893517Y-66360349D01*
X69890133Y-66356226D01*
X69887295Y-66351717D01*
X69884302Y-66349121D01*
X69874862Y-66337619D01*
X69803434Y-66266191D01*
X69791932Y-66256751D01*
X69789336Y-66253758D01*
X69784822Y-66250917D01*
X69780703Y-66247536D01*
X69777043Y-66246020D01*
X69764450Y-66238093D01*
X69621592Y-66166664D01*
X69594129Y-66156154D01*
X69588751Y-66155771D01*
X69583774Y-66153710D01*
X69554510Y-66150828D01*
X69197368Y-66150828D01*
X69168104Y-66153710D01*
X69163126Y-66155771D01*
X69157749Y-66156154D01*
X69130286Y-66166664D01*
X68987428Y-66238093D01*
X68974836Y-66246019D01*
X68971174Y-66247536D01*
X68967051Y-66250919D01*
X68962542Y-66253758D01*
X68959946Y-66256750D01*
X68948444Y-66266191D01*
X68877016Y-66337619D01*
X68858361Y-66360350D01*
X68835964Y-66414422D01*
X68835964Y-66472948D01*
X68858361Y-66527020D01*
X68899747Y-66568406D01*
X68953819Y-66590803D01*
X69012345Y-66590803D01*
X69066417Y-66568406D01*
X69089148Y-66549751D01*
X69143364Y-66495535D01*
X69232778Y-66450828D01*
X69519100Y-66450828D01*
X69608514Y-66495535D01*
X69645518Y-66532539D01*
X69690225Y-66621952D01*
X69690225Y-66705059D01*
X69637691Y-66862657D01*
X68805587Y-67694762D01*
X68786932Y-67717493D01*
X68764535Y-67771565D01*
X68597868Y-67771565D01*
X68597868Y-65984161D01*
X71582581Y-65984161D01*
X71582581Y-68117495D01*
G37*
G36*
X74084286Y-59617495D02*
G01*
X71097868Y-59617495D01*
X71097868Y-57771564D01*
X71264535Y-57771564D01*
X71264535Y-57830092D01*
X71286933Y-57884164D01*
X71328317Y-57925548D01*
X71382389Y-57947946D01*
X71411653Y-57950828D01*
X72009660Y-57950828D01*
X71727338Y-58273481D01*
X71718294Y-58286131D01*
X71715505Y-58288921D01*
X71714408Y-58291566D01*
X71710237Y-58297403D01*
X71702430Y-58320484D01*
X71693107Y-58342993D01*
X71693107Y-58348052D01*
X71691486Y-58352845D01*
X71693107Y-58377154D01*
X71693107Y-58401521D01*
X71695043Y-58406196D01*
X71695380Y-58411241D01*
X71706178Y-58433076D01*
X71715505Y-58455593D01*
X71719081Y-58459169D01*
X71721324Y-58463704D01*
X71739659Y-58479747D01*
X71756889Y-58496977D01*
X71761563Y-58498913D01*
X71765371Y-58502245D01*
X71788452Y-58510051D01*
X71810961Y-58519375D01*
X71818098Y-58520077D01*
X71820813Y-58520996D01*
X71824752Y-58520733D01*
X71840225Y-58522257D01*
X72019101Y-58522257D01*
X72108514Y-58566963D01*
X72145517Y-58603967D01*
X72190225Y-58693381D01*
X72190225Y-58979703D01*
X72145517Y-59069117D01*
X72108514Y-59106121D01*
X72019101Y-59150828D01*
X71661349Y-59150828D01*
X71571935Y-59106121D01*
X71517719Y-59051905D01*
X71494988Y-59033250D01*
X71440916Y-59010853D01*
X71382390Y-59010853D01*
X71328318Y-59033250D01*
X71286932Y-59074636D01*
X71264535Y-59128708D01*
X71264535Y-59187234D01*
X71286932Y-59241306D01*
X71305587Y-59264037D01*
X71377016Y-59335466D01*
X71388520Y-59344907D01*
X71391115Y-59347899D01*
X71395624Y-59350737D01*
X71399747Y-59354121D01*
X71403408Y-59355637D01*
X71416000Y-59363564D01*
X71558858Y-59434992D01*
X71586321Y-59445502D01*
X71591696Y-59445883D01*
X71596675Y-59447946D01*
X71625939Y-59450828D01*
X72054510Y-59450828D01*
X72083774Y-59447946D01*
X72088752Y-59445883D01*
X72094128Y-59445502D01*
X72121591Y-59434992D01*
X72264450Y-59363564D01*
X72277044Y-59355635D01*
X72280704Y-59354120D01*
X72284824Y-59350738D01*
X72289335Y-59347899D01*
X72291929Y-59344907D01*
X72303435Y-59335465D01*
X72374863Y-59264036D01*
X72384301Y-59252535D01*
X72387295Y-59249939D01*
X72390135Y-59245426D01*
X72393517Y-59241306D01*
X72395032Y-59237646D01*
X72402960Y-59225053D01*
X72474389Y-59082197D01*
X72484898Y-59054733D01*
X72485279Y-59049358D01*
X72487343Y-59044378D01*
X72490225Y-59015114D01*
X72490225Y-58657971D01*
X72487343Y-58628707D01*
X72485279Y-58623726D01*
X72484898Y-58618352D01*
X72474389Y-58590888D01*
X72402960Y-58448032D01*
X72395032Y-58435438D01*
X72393517Y-58431779D01*
X72390135Y-58427658D01*
X72387295Y-58423146D01*
X72384301Y-58420549D01*
X72374863Y-58409049D01*
X72303435Y-58337620D01*
X72291929Y-58328177D01*
X72289335Y-58325186D01*
X72284824Y-58322346D01*
X72280704Y-58318965D01*
X72277044Y-58317449D01*
X72264450Y-58309521D01*
X72146177Y-58250386D01*
X72453111Y-57899604D01*
X72462154Y-57886954D01*
X72464945Y-57884164D01*
X72466040Y-57881519D01*
X72470213Y-57875683D01*
X72478018Y-57852603D01*
X72487343Y-57830092D01*
X72487343Y-57825030D01*
X72488963Y-57820240D01*
X72488920Y-57819589D01*
X72619974Y-57819589D01*
X72626494Y-57848262D01*
X73126494Y-59348262D01*
X73138482Y-59375113D01*
X73145504Y-59383210D01*
X73150297Y-59392795D01*
X73164503Y-59405116D01*
X73176829Y-59419328D01*
X73186416Y-59424121D01*
X73194511Y-59431142D01*
X73212353Y-59437089D01*
X73229177Y-59445501D01*
X73239867Y-59446260D01*
X73250035Y-59449650D01*
X73268791Y-59448317D01*
X73287557Y-59449651D01*
X73297727Y-59446260D01*
X73308416Y-59445501D01*
X73325237Y-59437090D01*
X73343081Y-59431142D01*
X73351177Y-59424119D01*
X73360763Y-59419327D01*
X73373086Y-59405118D01*
X73387295Y-59392795D01*
X73392087Y-59383209D01*
X73399110Y-59375113D01*
X73411098Y-59348262D01*
X73911099Y-57848262D01*
X73917619Y-57819588D01*
X73913469Y-57761208D01*
X73887295Y-57708861D01*
X73843081Y-57670514D01*
X73787557Y-57652005D01*
X73729177Y-57656155D01*
X73676829Y-57682328D01*
X73638482Y-57726543D01*
X73626494Y-57753394D01*
X73268796Y-58826486D01*
X72911098Y-57753394D01*
X72899110Y-57726543D01*
X72860763Y-57682329D01*
X72808416Y-57656155D01*
X72750035Y-57652006D01*
X72694511Y-57670514D01*
X72650297Y-57708861D01*
X72624123Y-57761208D01*
X72619974Y-57819589D01*
X72488920Y-57819589D01*
X72487343Y-57795939D01*
X72487343Y-57771564D01*
X72485406Y-57766888D01*
X72485070Y-57761844D01*
X72474271Y-57740008D01*
X72464945Y-57717492D01*
X72461368Y-57713915D01*
X72459126Y-57709381D01*
X72440790Y-57693337D01*
X72423561Y-57676108D01*
X72418886Y-57674171D01*
X72415079Y-57670840D01*
X72392003Y-57663036D01*
X72369489Y-57653710D01*
X72362347Y-57653006D01*
X72359637Y-57652090D01*
X72355702Y-57652352D01*
X72340225Y-57650828D01*
X71411653Y-57650828D01*
X71382389Y-57653710D01*
X71328317Y-57676108D01*
X71286933Y-57717492D01*
X71264535Y-57771564D01*
X71097868Y-57771564D01*
X71097868Y-57484161D01*
X74084286Y-57484161D01*
X74084286Y-59617495D01*
G37*
G36*
X77537086Y-68495535D02*
G01*
X77574090Y-68532539D01*
X77627268Y-68638897D01*
X77690225Y-68890721D01*
X77690225Y-69210935D01*
X77627268Y-69462759D01*
X77574089Y-69569117D01*
X77537084Y-69606122D01*
X77447672Y-69650828D01*
X77375635Y-69650828D01*
X77286221Y-69606121D01*
X77249217Y-69569117D01*
X77196036Y-69462757D01*
X77133082Y-69210936D01*
X77133082Y-68890720D01*
X77196036Y-68638898D01*
X77249217Y-68532538D01*
X77286221Y-68495535D01*
X77375635Y-68450828D01*
X77447672Y-68450828D01*
X77537086Y-68495535D01*
G37*
G36*
X78156892Y-70117495D02*
G01*
X76666415Y-70117495D01*
X76666415Y-68872257D01*
X76833082Y-68872257D01*
X76833082Y-69229400D01*
X76833584Y-69234503D01*
X76833259Y-69236691D01*
X76834878Y-69247641D01*
X76835964Y-69258664D01*
X76836811Y-69260708D01*
X76837561Y-69265780D01*
X76908989Y-69551494D01*
X76909760Y-69553652D01*
X76909837Y-69554733D01*
X76914495Y-69566907D01*
X76918882Y-69579185D01*
X76919526Y-69580055D01*
X76920346Y-69582196D01*
X76991775Y-69725053D01*
X76999702Y-69737646D01*
X77001218Y-69741306D01*
X77004599Y-69745425D01*
X77007440Y-69749939D01*
X77010433Y-69752535D01*
X77019873Y-69764037D01*
X77091302Y-69835466D01*
X77102806Y-69844907D01*
X77105401Y-69847899D01*
X77109910Y-69850737D01*
X77114033Y-69854121D01*
X77117694Y-69855637D01*
X77130286Y-69863564D01*
X77273144Y-69934992D01*
X77300607Y-69945502D01*
X77305982Y-69945883D01*
X77310961Y-69947946D01*
X77340225Y-69950828D01*
X77483082Y-69950828D01*
X77512346Y-69947946D01*
X77517324Y-69945883D01*
X77522700Y-69945502D01*
X77550164Y-69934992D01*
X77693021Y-69863564D01*
X77705614Y-69855636D01*
X77709274Y-69854121D01*
X77713393Y-69850739D01*
X77717907Y-69847899D01*
X77720503Y-69844905D01*
X77732005Y-69835466D01*
X77803434Y-69764037D01*
X77812875Y-69752532D01*
X77815867Y-69749938D01*
X77818705Y-69745428D01*
X77822089Y-69741306D01*
X77823605Y-69737644D01*
X77831532Y-69725053D01*
X77902960Y-69582195D01*
X77903777Y-69580058D01*
X77904424Y-69579186D01*
X77908813Y-69566899D01*
X77913470Y-69554732D01*
X77913546Y-69553650D01*
X77914317Y-69551495D01*
X77985746Y-69265781D01*
X77986496Y-69260708D01*
X77987343Y-69258664D01*
X77988428Y-69247644D01*
X77990048Y-69236692D01*
X77989722Y-69234503D01*
X77990225Y-69229400D01*
X77990225Y-68872257D01*
X77989722Y-68867153D01*
X77990048Y-68864965D01*
X77988428Y-68854012D01*
X77987343Y-68842993D01*
X77986496Y-68840948D01*
X77985746Y-68835876D01*
X77914317Y-68550162D01*
X77913546Y-68548006D01*
X77913470Y-68546924D01*
X77908810Y-68534749D01*
X77904424Y-68522470D01*
X77903777Y-68521597D01*
X77902960Y-68519461D01*
X77831532Y-68376603D01*
X77823603Y-68364008D01*
X77822088Y-68360349D01*
X77818706Y-68356228D01*
X77815867Y-68351718D01*
X77812875Y-68349123D01*
X77803433Y-68337618D01*
X77732004Y-68266190D01*
X77720504Y-68256752D01*
X77717907Y-68253758D01*
X77713390Y-68250915D01*
X77709273Y-68247536D01*
X77705616Y-68246021D01*
X77693021Y-68238093D01*
X77550164Y-68166664D01*
X77522701Y-68156155D01*
X77517326Y-68155773D01*
X77512346Y-68153710D01*
X77483082Y-68150828D01*
X77340225Y-68150828D01*
X77310961Y-68153710D01*
X77305980Y-68155773D01*
X77300606Y-68156155D01*
X77273142Y-68166664D01*
X77130286Y-68238093D01*
X77117692Y-68246020D01*
X77114033Y-68247536D01*
X77109912Y-68250917D01*
X77105400Y-68253758D01*
X77102803Y-68256751D01*
X77091303Y-68266190D01*
X77019874Y-68337618D01*
X77010434Y-68349120D01*
X77007440Y-68351717D01*
X77004598Y-68356231D01*
X77001219Y-68360349D01*
X76999703Y-68364007D01*
X76991775Y-68376603D01*
X76920346Y-68519460D01*
X76919526Y-68521600D01*
X76918882Y-68522471D01*
X76914495Y-68534748D01*
X76909837Y-68546923D01*
X76909760Y-68548003D01*
X76908989Y-68550162D01*
X76837561Y-68835877D01*
X76836811Y-68840948D01*
X76835964Y-68842993D01*
X76834878Y-68854015D01*
X76833259Y-68864966D01*
X76833584Y-68867153D01*
X76833082Y-68872257D01*
X76666415Y-68872257D01*
X76666415Y-67984161D01*
X78156892Y-67984161D01*
X78156892Y-70117495D01*
G37*
D11*
X81361009Y-76530714D02*
X81408628Y-76387857D01*
X81408628Y-76387857D02*
X81456247Y-76340238D01*
X81456247Y-76340238D02*
X81551485Y-76292619D01*
X81551485Y-76292619D02*
X81694342Y-76292619D01*
X81694342Y-76292619D02*
X81789580Y-76340238D01*
X81789580Y-76340238D02*
X81837200Y-76387857D01*
X81837200Y-76387857D02*
X81884819Y-76483095D01*
X81884819Y-76483095D02*
X81884819Y-76864047D01*
X81884819Y-76864047D02*
X80884819Y-76864047D01*
X80884819Y-76864047D02*
X80884819Y-76530714D01*
X80884819Y-76530714D02*
X80932438Y-76435476D01*
X80932438Y-76435476D02*
X80980057Y-76387857D01*
X80980057Y-76387857D02*
X81075295Y-76340238D01*
X81075295Y-76340238D02*
X81170533Y-76340238D01*
X81170533Y-76340238D02*
X81265771Y-76387857D01*
X81265771Y-76387857D02*
X81313390Y-76435476D01*
X81313390Y-76435476D02*
X81361009Y-76530714D01*
X81361009Y-76530714D02*
X81361009Y-76864047D01*
X80884819Y-76006904D02*
X80884819Y-75435476D01*
X81884819Y-75721190D02*
X80884819Y-75721190D01*
X81884819Y-74578333D02*
X81884819Y-75149761D01*
X81884819Y-74864047D02*
X80884819Y-74864047D01*
X80884819Y-74864047D02*
X81027676Y-74959285D01*
X81027676Y-74959285D02*
X81122914Y-75054523D01*
X81122914Y-75054523D02*
X81170533Y-75149761D01*
X81666667Y-95407200D02*
X81809524Y-95454819D01*
X81809524Y-95454819D02*
X82047619Y-95454819D01*
X82047619Y-95454819D02*
X82142857Y-95407200D01*
X82142857Y-95407200D02*
X82190476Y-95359580D01*
X82190476Y-95359580D02*
X82238095Y-95264342D01*
X82238095Y-95264342D02*
X82238095Y-95169104D01*
X82238095Y-95169104D02*
X82190476Y-95073866D01*
X82190476Y-95073866D02*
X82142857Y-95026247D01*
X82142857Y-95026247D02*
X82047619Y-94978628D01*
X82047619Y-94978628D02*
X81857143Y-94931009D01*
X81857143Y-94931009D02*
X81761905Y-94883390D01*
X81761905Y-94883390D02*
X81714286Y-94835771D01*
X81714286Y-94835771D02*
X81666667Y-94740533D01*
X81666667Y-94740533D02*
X81666667Y-94645295D01*
X81666667Y-94645295D02*
X81714286Y-94550057D01*
X81714286Y-94550057D02*
X81761905Y-94502438D01*
X81761905Y-94502438D02*
X81857143Y-94454819D01*
X81857143Y-94454819D02*
X82095238Y-94454819D01*
X82095238Y-94454819D02*
X82238095Y-94502438D01*
X82571429Y-94454819D02*
X82809524Y-95454819D01*
X82809524Y-95454819D02*
X83000000Y-94740533D01*
X83000000Y-94740533D02*
X83190476Y-95454819D01*
X83190476Y-95454819D02*
X83428572Y-94454819D01*
X84333333Y-95454819D02*
X83761905Y-95454819D01*
X84047619Y-95454819D02*
X84047619Y-94454819D01*
X84047619Y-94454819D02*
X83952381Y-94597676D01*
X83952381Y-94597676D02*
X83857143Y-94692914D01*
X83857143Y-94692914D02*
X83761905Y-94740533D01*
X81666667Y-111407200D02*
X81809524Y-111454819D01*
X81809524Y-111454819D02*
X82047619Y-111454819D01*
X82047619Y-111454819D02*
X82142857Y-111407200D01*
X82142857Y-111407200D02*
X82190476Y-111359580D01*
X82190476Y-111359580D02*
X82238095Y-111264342D01*
X82238095Y-111264342D02*
X82238095Y-111169104D01*
X82238095Y-111169104D02*
X82190476Y-111073866D01*
X82190476Y-111073866D02*
X82142857Y-111026247D01*
X82142857Y-111026247D02*
X82047619Y-110978628D01*
X82047619Y-110978628D02*
X81857143Y-110931009D01*
X81857143Y-110931009D02*
X81761905Y-110883390D01*
X81761905Y-110883390D02*
X81714286Y-110835771D01*
X81714286Y-110835771D02*
X81666667Y-110740533D01*
X81666667Y-110740533D02*
X81666667Y-110645295D01*
X81666667Y-110645295D02*
X81714286Y-110550057D01*
X81714286Y-110550057D02*
X81761905Y-110502438D01*
X81761905Y-110502438D02*
X81857143Y-110454819D01*
X81857143Y-110454819D02*
X82095238Y-110454819D01*
X82095238Y-110454819D02*
X82238095Y-110502438D01*
X82571429Y-110454819D02*
X82809524Y-111454819D01*
X82809524Y-111454819D02*
X83000000Y-110740533D01*
X83000000Y-110740533D02*
X83190476Y-111454819D01*
X83190476Y-111454819D02*
X83428572Y-110454819D01*
X83761905Y-110550057D02*
X83809524Y-110502438D01*
X83809524Y-110502438D02*
X83904762Y-110454819D01*
X83904762Y-110454819D02*
X84142857Y-110454819D01*
X84142857Y-110454819D02*
X84238095Y-110502438D01*
X84238095Y-110502438D02*
X84285714Y-110550057D01*
X84285714Y-110550057D02*
X84333333Y-110645295D01*
X84333333Y-110645295D02*
X84333333Y-110740533D01*
X84333333Y-110740533D02*
X84285714Y-110883390D01*
X84285714Y-110883390D02*
X83714286Y-111454819D01*
X83714286Y-111454819D02*
X84333333Y-111454819D01*
X64666667Y-129407200D02*
X64809524Y-129454819D01*
X64809524Y-129454819D02*
X65047619Y-129454819D01*
X65047619Y-129454819D02*
X65142857Y-129407200D01*
X65142857Y-129407200D02*
X65190476Y-129359580D01*
X65190476Y-129359580D02*
X65238095Y-129264342D01*
X65238095Y-129264342D02*
X65238095Y-129169104D01*
X65238095Y-129169104D02*
X65190476Y-129073866D01*
X65190476Y-129073866D02*
X65142857Y-129026247D01*
X65142857Y-129026247D02*
X65047619Y-128978628D01*
X65047619Y-128978628D02*
X64857143Y-128931009D01*
X64857143Y-128931009D02*
X64761905Y-128883390D01*
X64761905Y-128883390D02*
X64714286Y-128835771D01*
X64714286Y-128835771D02*
X64666667Y-128740533D01*
X64666667Y-128740533D02*
X64666667Y-128645295D01*
X64666667Y-128645295D02*
X64714286Y-128550057D01*
X64714286Y-128550057D02*
X64761905Y-128502438D01*
X64761905Y-128502438D02*
X64857143Y-128454819D01*
X64857143Y-128454819D02*
X65095238Y-128454819D01*
X65095238Y-128454819D02*
X65238095Y-128502438D01*
X65571429Y-128454819D02*
X65809524Y-129454819D01*
X65809524Y-129454819D02*
X66000000Y-128740533D01*
X66000000Y-128740533D02*
X66190476Y-129454819D01*
X66190476Y-129454819D02*
X66428572Y-128454819D01*
X67238095Y-128454819D02*
X67047619Y-128454819D01*
X67047619Y-128454819D02*
X66952381Y-128502438D01*
X66952381Y-128502438D02*
X66904762Y-128550057D01*
X66904762Y-128550057D02*
X66809524Y-128692914D01*
X66809524Y-128692914D02*
X66761905Y-128883390D01*
X66761905Y-128883390D02*
X66761905Y-129264342D01*
X66761905Y-129264342D02*
X66809524Y-129359580D01*
X66809524Y-129359580D02*
X66857143Y-129407200D01*
X66857143Y-129407200D02*
X66952381Y-129454819D01*
X66952381Y-129454819D02*
X67142857Y-129454819D01*
X67142857Y-129454819D02*
X67238095Y-129407200D01*
X67238095Y-129407200D02*
X67285714Y-129359580D01*
X67285714Y-129359580D02*
X67333333Y-129264342D01*
X67333333Y-129264342D02*
X67333333Y-129026247D01*
X67333333Y-129026247D02*
X67285714Y-128931009D01*
X67285714Y-128931009D02*
X67238095Y-128883390D01*
X67238095Y-128883390D02*
X67142857Y-128835771D01*
X67142857Y-128835771D02*
X66952381Y-128835771D01*
X66952381Y-128835771D02*
X66857143Y-128883390D01*
X66857143Y-128883390D02*
X66809524Y-128931009D01*
X66809524Y-128931009D02*
X66761905Y-129026247D01*
X65666667Y-103407200D02*
X65809524Y-103454819D01*
X65809524Y-103454819D02*
X66047619Y-103454819D01*
X66047619Y-103454819D02*
X66142857Y-103407200D01*
X66142857Y-103407200D02*
X66190476Y-103359580D01*
X66190476Y-103359580D02*
X66238095Y-103264342D01*
X66238095Y-103264342D02*
X66238095Y-103169104D01*
X66238095Y-103169104D02*
X66190476Y-103073866D01*
X66190476Y-103073866D02*
X66142857Y-103026247D01*
X66142857Y-103026247D02*
X66047619Y-102978628D01*
X66047619Y-102978628D02*
X65857143Y-102931009D01*
X65857143Y-102931009D02*
X65761905Y-102883390D01*
X65761905Y-102883390D02*
X65714286Y-102835771D01*
X65714286Y-102835771D02*
X65666667Y-102740533D01*
X65666667Y-102740533D02*
X65666667Y-102645295D01*
X65666667Y-102645295D02*
X65714286Y-102550057D01*
X65714286Y-102550057D02*
X65761905Y-102502438D01*
X65761905Y-102502438D02*
X65857143Y-102454819D01*
X65857143Y-102454819D02*
X66095238Y-102454819D01*
X66095238Y-102454819D02*
X66238095Y-102502438D01*
X66571429Y-102454819D02*
X66809524Y-103454819D01*
X66809524Y-103454819D02*
X67000000Y-102740533D01*
X67000000Y-102740533D02*
X67190476Y-103454819D01*
X67190476Y-103454819D02*
X67428572Y-102454819D01*
X67714286Y-102454819D02*
X68380952Y-102454819D01*
X68380952Y-102454819D02*
X67952381Y-103454819D01*
X64666667Y-147407200D02*
X64809524Y-147454819D01*
X64809524Y-147454819D02*
X65047619Y-147454819D01*
X65047619Y-147454819D02*
X65142857Y-147407200D01*
X65142857Y-147407200D02*
X65190476Y-147359580D01*
X65190476Y-147359580D02*
X65238095Y-147264342D01*
X65238095Y-147264342D02*
X65238095Y-147169104D01*
X65238095Y-147169104D02*
X65190476Y-147073866D01*
X65190476Y-147073866D02*
X65142857Y-147026247D01*
X65142857Y-147026247D02*
X65047619Y-146978628D01*
X65047619Y-146978628D02*
X64857143Y-146931009D01*
X64857143Y-146931009D02*
X64761905Y-146883390D01*
X64761905Y-146883390D02*
X64714286Y-146835771D01*
X64714286Y-146835771D02*
X64666667Y-146740533D01*
X64666667Y-146740533D02*
X64666667Y-146645295D01*
X64666667Y-146645295D02*
X64714286Y-146550057D01*
X64714286Y-146550057D02*
X64761905Y-146502438D01*
X64761905Y-146502438D02*
X64857143Y-146454819D01*
X64857143Y-146454819D02*
X65095238Y-146454819D01*
X65095238Y-146454819D02*
X65238095Y-146502438D01*
X65571429Y-146454819D02*
X65809524Y-147454819D01*
X65809524Y-147454819D02*
X66000000Y-146740533D01*
X66000000Y-146740533D02*
X66190476Y-147454819D01*
X66190476Y-147454819D02*
X66428572Y-146454819D01*
X67285714Y-146454819D02*
X66809524Y-146454819D01*
X66809524Y-146454819D02*
X66761905Y-146931009D01*
X66761905Y-146931009D02*
X66809524Y-146883390D01*
X66809524Y-146883390D02*
X66904762Y-146835771D01*
X66904762Y-146835771D02*
X67142857Y-146835771D01*
X67142857Y-146835771D02*
X67238095Y-146883390D01*
X67238095Y-146883390D02*
X67285714Y-146931009D01*
X67285714Y-146931009D02*
X67333333Y-147026247D01*
X67333333Y-147026247D02*
X67333333Y-147264342D01*
X67333333Y-147264342D02*
X67285714Y-147359580D01*
X67285714Y-147359580D02*
X67238095Y-147407200D01*
X67238095Y-147407200D02*
X67142857Y-147454819D01*
X67142857Y-147454819D02*
X66904762Y-147454819D01*
X66904762Y-147454819D02*
X66809524Y-147407200D01*
X66809524Y-147407200D02*
X66761905Y-147359580D01*
X82666667Y-129407200D02*
X82809524Y-129454819D01*
X82809524Y-129454819D02*
X83047619Y-129454819D01*
X83047619Y-129454819D02*
X83142857Y-129407200D01*
X83142857Y-129407200D02*
X83190476Y-129359580D01*
X83190476Y-129359580D02*
X83238095Y-129264342D01*
X83238095Y-129264342D02*
X83238095Y-129169104D01*
X83238095Y-129169104D02*
X83190476Y-129073866D01*
X83190476Y-129073866D02*
X83142857Y-129026247D01*
X83142857Y-129026247D02*
X83047619Y-128978628D01*
X83047619Y-128978628D02*
X82857143Y-128931009D01*
X82857143Y-128931009D02*
X82761905Y-128883390D01*
X82761905Y-128883390D02*
X82714286Y-128835771D01*
X82714286Y-128835771D02*
X82666667Y-128740533D01*
X82666667Y-128740533D02*
X82666667Y-128645295D01*
X82666667Y-128645295D02*
X82714286Y-128550057D01*
X82714286Y-128550057D02*
X82761905Y-128502438D01*
X82761905Y-128502438D02*
X82857143Y-128454819D01*
X82857143Y-128454819D02*
X83095238Y-128454819D01*
X83095238Y-128454819D02*
X83238095Y-128502438D01*
X83571429Y-128454819D02*
X83809524Y-129454819D01*
X83809524Y-129454819D02*
X84000000Y-128740533D01*
X84000000Y-128740533D02*
X84190476Y-129454819D01*
X84190476Y-129454819D02*
X84428572Y-128454819D01*
X84714286Y-128454819D02*
X85333333Y-128454819D01*
X85333333Y-128454819D02*
X85000000Y-128835771D01*
X85000000Y-128835771D02*
X85142857Y-128835771D01*
X85142857Y-128835771D02*
X85238095Y-128883390D01*
X85238095Y-128883390D02*
X85285714Y-128931009D01*
X85285714Y-128931009D02*
X85333333Y-129026247D01*
X85333333Y-129026247D02*
X85333333Y-129264342D01*
X85333333Y-129264342D02*
X85285714Y-129359580D01*
X85285714Y-129359580D02*
X85238095Y-129407200D01*
X85238095Y-129407200D02*
X85142857Y-129454819D01*
X85142857Y-129454819D02*
X84857143Y-129454819D01*
X84857143Y-129454819D02*
X84761905Y-129407200D01*
X84761905Y-129407200D02*
X84714286Y-129359580D01*
X82666667Y-147407200D02*
X82809524Y-147454819D01*
X82809524Y-147454819D02*
X83047619Y-147454819D01*
X83047619Y-147454819D02*
X83142857Y-147407200D01*
X83142857Y-147407200D02*
X83190476Y-147359580D01*
X83190476Y-147359580D02*
X83238095Y-147264342D01*
X83238095Y-147264342D02*
X83238095Y-147169104D01*
X83238095Y-147169104D02*
X83190476Y-147073866D01*
X83190476Y-147073866D02*
X83142857Y-147026247D01*
X83142857Y-147026247D02*
X83047619Y-146978628D01*
X83047619Y-146978628D02*
X82857143Y-146931009D01*
X82857143Y-146931009D02*
X82761905Y-146883390D01*
X82761905Y-146883390D02*
X82714286Y-146835771D01*
X82714286Y-146835771D02*
X82666667Y-146740533D01*
X82666667Y-146740533D02*
X82666667Y-146645295D01*
X82666667Y-146645295D02*
X82714286Y-146550057D01*
X82714286Y-146550057D02*
X82761905Y-146502438D01*
X82761905Y-146502438D02*
X82857143Y-146454819D01*
X82857143Y-146454819D02*
X83095238Y-146454819D01*
X83095238Y-146454819D02*
X83238095Y-146502438D01*
X83571429Y-146454819D02*
X83809524Y-147454819D01*
X83809524Y-147454819D02*
X84000000Y-146740533D01*
X84000000Y-146740533D02*
X84190476Y-147454819D01*
X84190476Y-147454819D02*
X84428572Y-146454819D01*
X85238095Y-146788152D02*
X85238095Y-147454819D01*
X85000000Y-146407200D02*
X84761905Y-147121485D01*
X84761905Y-147121485D02*
X85380952Y-147121485D01*
D12*
%TO.C,BT1*%
X59510000Y-72720000D02*
X80490000Y-72720000D01*
X59510000Y-149680000D02*
X59510000Y-72720000D01*
X70000000Y-69570000D02*
X70000000Y-71570000D01*
X70000000Y-150830000D02*
X70000000Y-152830000D01*
X71000000Y-70570000D02*
X69000000Y-70570000D01*
X80490000Y-72720000D02*
X80490000Y-149680000D01*
X80490000Y-149680000D02*
X59510000Y-149680000D01*
D13*
%TO.C,LED7*%
X58063000Y-92572000D02*
X57682000Y-92572000D01*
X57682000Y-92172000D01*
X58063000Y-92572000D01*
G36*
X58063000Y-92572000D02*
G01*
X57682000Y-92572000D01*
X57682000Y-92172000D01*
X58063000Y-92572000D01*
G37*
%TO.C,LED6*%
X57063000Y-118572000D02*
X56682000Y-118572000D01*
X56682000Y-118172000D01*
X57063000Y-118572000D01*
G36*
X57063000Y-118572000D02*
G01*
X56682000Y-118572000D01*
X56682000Y-118172000D01*
X57063000Y-118572000D01*
G37*
%TO.C,LED1*%
X74063000Y-84572000D02*
X73682000Y-84572000D01*
X73682000Y-84172000D01*
X74063000Y-84572000D01*
G36*
X74063000Y-84572000D02*
G01*
X73682000Y-84572000D01*
X73682000Y-84172000D01*
X74063000Y-84572000D01*
G37*
D11*
%TO.C,SW1*%
X75700000Y-95225000D02*
X75700000Y-92575000D01*
X75850000Y-92440000D02*
X75850000Y-95370000D01*
X75950000Y-92330000D02*
X75950000Y-95450000D01*
X76050000Y-92230000D02*
X76050000Y-95560000D01*
X76150000Y-92130000D02*
X76150000Y-95660000D01*
X76300000Y-91990000D02*
X76300000Y-95820000D01*
X76450000Y-91830000D02*
X76450000Y-95950000D01*
X76600000Y-91700000D02*
X76600000Y-96090000D01*
X76700000Y-91575000D02*
X75700000Y-92575000D01*
X76700000Y-96225000D02*
X75700000Y-95225000D01*
X76750000Y-91600000D02*
X76750000Y-96200000D01*
X76900000Y-91600000D02*
X76900000Y-96200000D01*
X77050000Y-91600000D02*
X77050000Y-96200000D01*
X77200000Y-91600000D02*
X77200000Y-96200000D01*
X77350000Y-91600000D02*
X77350000Y-96200000D01*
X77500000Y-91600000D02*
X77500000Y-96200000D01*
X77650000Y-91600000D02*
X77650000Y-96200000D01*
X77800000Y-91600000D02*
X77800000Y-96200000D01*
X77950000Y-91600000D02*
X77950000Y-96200000D01*
X78100000Y-91600000D02*
X78100000Y-96200000D01*
X78250000Y-91600000D02*
X78250000Y-96200000D01*
X78400000Y-91600000D02*
X78400000Y-96200000D01*
X78550000Y-91600000D02*
X78550000Y-96200000D01*
X78700000Y-91600000D02*
X78700000Y-96200000D01*
X78850000Y-91600000D02*
X78850000Y-96200000D01*
X79000000Y-91600000D02*
X79000000Y-96200000D01*
X79110000Y-91600000D02*
X79110000Y-96200000D01*
X79200000Y-91600000D02*
X79200000Y-96200000D01*
X79225000Y-96225000D02*
X76700000Y-96225000D01*
X79225000Y-96225000D02*
X80300000Y-95280000D01*
X79275000Y-91575000D02*
X76700000Y-91575000D01*
X79350000Y-91650000D02*
X79350000Y-96110000D01*
X79500000Y-91600000D02*
X79500000Y-95980000D01*
X79650000Y-91550000D02*
X79650000Y-95850000D01*
X79800000Y-91500000D02*
X79800000Y-95700000D01*
X79950000Y-91400000D02*
X79950000Y-95580000D01*
X80100000Y-91350000D02*
X80100000Y-95350000D01*
X80100000Y-91450000D02*
X80090000Y-95450000D01*
X80200000Y-91250000D02*
X80200000Y-95270000D01*
X80200000Y-91400000D02*
X80200000Y-95360000D01*
X80300000Y-91050000D02*
X80300000Y-95280000D01*
X80400000Y-90900000D02*
X80400000Y-94730000D01*
X80450000Y-90076887D02*
X80450000Y-90400000D01*
X80500000Y-89950000D02*
X80510000Y-94500000D01*
X80650000Y-89750000D02*
X80650000Y-94320000D01*
X80800000Y-89560000D02*
X80800000Y-94230000D01*
X80950000Y-89480000D02*
X80950000Y-94140000D01*
X81100000Y-89430000D02*
X81100000Y-94070000D01*
X81250000Y-89400000D02*
X81250000Y-94040000D01*
X81400000Y-89380000D02*
X81400000Y-94020000D01*
X81550000Y-89390000D02*
X81550000Y-94020000D01*
X81700000Y-89450000D02*
X81700000Y-94000000D01*
X81850000Y-89400000D02*
X81850000Y-94010000D01*
X82000000Y-89400000D02*
X82000000Y-94020000D01*
X82150000Y-89450000D02*
X82150000Y-94000000D01*
X82300000Y-89400000D02*
X82300000Y-94000000D01*
X82450000Y-89400000D02*
X82450000Y-94000000D01*
X82600000Y-89400000D02*
X82600000Y-94000000D01*
X82750000Y-89400000D02*
X82750000Y-94000000D01*
X82900000Y-89400000D02*
X82900000Y-94000000D01*
X83050000Y-89400000D02*
X83050000Y-94000000D01*
X83200000Y-89400000D02*
X83200000Y-94000000D01*
X83350000Y-89400000D02*
X83350000Y-94000000D01*
X83500000Y-89400000D02*
X83500000Y-94000000D01*
X83650000Y-89400000D02*
X83650000Y-94000000D01*
X83800000Y-89400000D02*
X83800000Y-94000000D01*
X83950000Y-89400000D02*
X83950000Y-94000000D01*
X84100000Y-89400000D02*
X84100000Y-94000000D01*
X84250000Y-89400000D02*
X84250000Y-94000000D01*
X84275000Y-89375000D02*
X81311204Y-89375000D01*
X84275000Y-94025000D02*
X81475000Y-94025000D01*
X84400000Y-89500000D02*
X84400000Y-94010000D01*
X84550000Y-89650000D02*
X84550000Y-93970000D01*
X84700000Y-89800000D02*
X84700000Y-93920000D01*
X84850000Y-89700000D02*
X84850000Y-93840000D01*
X85000000Y-89730000D02*
X85000000Y-93700000D01*
X85150000Y-89850000D02*
X85150000Y-93530000D01*
X85305000Y-93025000D02*
X85305000Y-90375000D01*
D14*
X88200000Y-89555000D02*
X83800000Y-89555000D01*
X88200000Y-91055000D02*
X88200000Y-89555000D01*
D11*
X80300000Y-95200000D02*
G75*
G02*
X81475000Y-94025000I1175000J0D01*
G01*
X80450000Y-90076887D02*
G75*
G02*
X81311204Y-89375004I900030J-225043D01*
G01*
X80450000Y-90400000D02*
G75*
G02*
X79275000Y-91575000I-1175000J0D01*
G01*
X84305000Y-89375000D02*
G75*
G02*
X85305000Y-90375000I0J-1000000D01*
G01*
X85305000Y-93025000D02*
G75*
G02*
X84305000Y-94025000I-1000000J0D01*
G01*
X88500000Y-88600000D02*
G75*
G02*
X87500000Y-88600000I-500000J0D01*
G01*
X87500000Y-88600000D02*
G75*
G02*
X88500000Y-88600000I500000J0D01*
G01*
%TO.C,SW2*%
X75700000Y-111225000D02*
X75700000Y-108575000D01*
X75850000Y-108440000D02*
X75850000Y-111370000D01*
X75950000Y-108330000D02*
X75950000Y-111450000D01*
X76050000Y-108230000D02*
X76050000Y-111560000D01*
X76150000Y-108130000D02*
X76150000Y-111660000D01*
X76300000Y-107990000D02*
X76300000Y-111820000D01*
X76450000Y-107830000D02*
X76450000Y-111950000D01*
X76600000Y-107700000D02*
X76600000Y-112090000D01*
X76700000Y-107575000D02*
X75700000Y-108575000D01*
X76700000Y-112225000D02*
X75700000Y-111225000D01*
X76750000Y-107600000D02*
X76750000Y-112200000D01*
X76900000Y-107600000D02*
X76900000Y-112200000D01*
X77050000Y-107600000D02*
X77050000Y-112200000D01*
X77200000Y-107600000D02*
X77200000Y-112200000D01*
X77350000Y-107600000D02*
X77350000Y-112200000D01*
X77500000Y-107600000D02*
X77500000Y-112200000D01*
X77650000Y-107600000D02*
X77650000Y-112200000D01*
X77800000Y-107600000D02*
X77800000Y-112200000D01*
X77950000Y-107600000D02*
X77950000Y-112200000D01*
X78100000Y-107600000D02*
X78100000Y-112200000D01*
X78250000Y-107600000D02*
X78250000Y-112200000D01*
X78400000Y-107600000D02*
X78400000Y-112200000D01*
X78550000Y-107600000D02*
X78550000Y-112200000D01*
X78700000Y-107600000D02*
X78700000Y-112200000D01*
X78850000Y-107600000D02*
X78850000Y-112200000D01*
X79000000Y-107600000D02*
X79000000Y-112200000D01*
X79110000Y-107600000D02*
X79110000Y-112200000D01*
X79200000Y-107600000D02*
X79200000Y-112200000D01*
X79225000Y-112225000D02*
X76700000Y-112225000D01*
X79225000Y-112225000D02*
X80300000Y-111280000D01*
X79275000Y-107575000D02*
X76700000Y-107575000D01*
X79350000Y-107650000D02*
X79350000Y-112110000D01*
X79500000Y-107600000D02*
X79500000Y-111980000D01*
X79650000Y-107550000D02*
X79650000Y-111850000D01*
X79800000Y-107500000D02*
X79800000Y-111700000D01*
X79950000Y-107400000D02*
X79950000Y-111580000D01*
X80100000Y-107350000D02*
X80100000Y-111350000D01*
X80100000Y-107450000D02*
X80090000Y-111450000D01*
X80200000Y-107250000D02*
X80200000Y-111270000D01*
X80200000Y-107400000D02*
X80200000Y-111360000D01*
X80300000Y-107050000D02*
X80300000Y-111280000D01*
X80400000Y-106900000D02*
X80400000Y-110730000D01*
X80450000Y-106076887D02*
X80450000Y-106400000D01*
X80500000Y-105950000D02*
X80510000Y-110500000D01*
X80650000Y-105750000D02*
X80650000Y-110320000D01*
X80800000Y-105560000D02*
X80800000Y-110230000D01*
X80950000Y-105480000D02*
X80950000Y-110140000D01*
X81100000Y-105430000D02*
X81100000Y-110070000D01*
X81250000Y-105400000D02*
X81250000Y-110040000D01*
X81400000Y-105380000D02*
X81400000Y-110020000D01*
X81550000Y-105390000D02*
X81550000Y-110020000D01*
X81700000Y-105450000D02*
X81700000Y-110000000D01*
X81850000Y-105400000D02*
X81850000Y-110010000D01*
X82000000Y-105400000D02*
X82000000Y-110020000D01*
X82150000Y-105450000D02*
X82150000Y-110000000D01*
X82300000Y-105400000D02*
X82300000Y-110000000D01*
X82450000Y-105400000D02*
X82450000Y-110000000D01*
X82600000Y-105400000D02*
X82600000Y-110000000D01*
X82750000Y-105400000D02*
X82750000Y-110000000D01*
X82900000Y-105400000D02*
X82900000Y-110000000D01*
X83050000Y-105400000D02*
X83050000Y-110000000D01*
X83200000Y-105400000D02*
X83200000Y-110000000D01*
X83350000Y-105400000D02*
X83350000Y-110000000D01*
X83500000Y-105400000D02*
X83500000Y-110000000D01*
X83650000Y-105400000D02*
X83650000Y-110000000D01*
X83800000Y-105400000D02*
X83800000Y-110000000D01*
X83950000Y-105400000D02*
X83950000Y-110000000D01*
X84100000Y-105400000D02*
X84100000Y-110000000D01*
X84250000Y-105400000D02*
X84250000Y-110000000D01*
X84275000Y-105375000D02*
X81311204Y-105375000D01*
X84275000Y-110025000D02*
X81475000Y-110025000D01*
X84400000Y-105500000D02*
X84400000Y-110010000D01*
X84550000Y-105650000D02*
X84550000Y-109970000D01*
X84700000Y-105800000D02*
X84700000Y-109920000D01*
X84850000Y-105700000D02*
X84850000Y-109840000D01*
X85000000Y-105730000D02*
X85000000Y-109700000D01*
X85150000Y-105850000D02*
X85150000Y-109530000D01*
X85305000Y-109025000D02*
X85305000Y-106375000D01*
D14*
X88200000Y-105555000D02*
X83800000Y-105555000D01*
X88200000Y-107055000D02*
X88200000Y-105555000D01*
D11*
X80300000Y-111200000D02*
G75*
G02*
X81475000Y-110025000I1175000J0D01*
G01*
X80450000Y-106076887D02*
G75*
G02*
X81311204Y-105375004I900030J-225043D01*
G01*
X80450000Y-106400000D02*
G75*
G02*
X79275000Y-107575000I-1175000J0D01*
G01*
X84305000Y-105375000D02*
G75*
G02*
X85305000Y-106375000I0J-1000000D01*
G01*
X85305000Y-109025000D02*
G75*
G02*
X84305000Y-110025000I-1000000J0D01*
G01*
X88500000Y-104600000D02*
G75*
G02*
X87500000Y-104600000I-500000J0D01*
G01*
X87500000Y-104600000D02*
G75*
G02*
X88500000Y-104600000I500000J0D01*
G01*
%TO.C,SW6*%
X58700000Y-129225000D02*
X58700000Y-126575000D01*
X58850000Y-126440000D02*
X58850000Y-129370000D01*
X58950000Y-126330000D02*
X58950000Y-129450000D01*
X59050000Y-126230000D02*
X59050000Y-129560000D01*
X59150000Y-126130000D02*
X59150000Y-129660000D01*
X59300000Y-125990000D02*
X59300000Y-129820000D01*
X59450000Y-125830000D02*
X59450000Y-129950000D01*
X59600000Y-125700000D02*
X59600000Y-130090000D01*
X59700000Y-125575000D02*
X58700000Y-126575000D01*
X59700000Y-130225000D02*
X58700000Y-129225000D01*
X59750000Y-125600000D02*
X59750000Y-130200000D01*
X59900000Y-125600000D02*
X59900000Y-130200000D01*
X60050000Y-125600000D02*
X60050000Y-130200000D01*
X60200000Y-125600000D02*
X60200000Y-130200000D01*
X60350000Y-125600000D02*
X60350000Y-130200000D01*
X60500000Y-125600000D02*
X60500000Y-130200000D01*
X60650000Y-125600000D02*
X60650000Y-130200000D01*
X60800000Y-125600000D02*
X60800000Y-130200000D01*
X60950000Y-125600000D02*
X60950000Y-130200000D01*
X61100000Y-125600000D02*
X61100000Y-130200000D01*
X61250000Y-125600000D02*
X61250000Y-130200000D01*
X61400000Y-125600000D02*
X61400000Y-130200000D01*
X61550000Y-125600000D02*
X61550000Y-130200000D01*
X61700000Y-125600000D02*
X61700000Y-130200000D01*
X61850000Y-125600000D02*
X61850000Y-130200000D01*
X62000000Y-125600000D02*
X62000000Y-130200000D01*
X62110000Y-125600000D02*
X62110000Y-130200000D01*
X62200000Y-125600000D02*
X62200000Y-130200000D01*
X62225000Y-130225000D02*
X59700000Y-130225000D01*
X62225000Y-130225000D02*
X63300000Y-129280000D01*
X62275000Y-125575000D02*
X59700000Y-125575000D01*
X62350000Y-125650000D02*
X62350000Y-130110000D01*
X62500000Y-125600000D02*
X62500000Y-129980000D01*
X62650000Y-125550000D02*
X62650000Y-129850000D01*
X62800000Y-125500000D02*
X62800000Y-129700000D01*
X62950000Y-125400000D02*
X62950000Y-129580000D01*
X63100000Y-125350000D02*
X63100000Y-129350000D01*
X63100000Y-125450000D02*
X63090000Y-129450000D01*
X63200000Y-125250000D02*
X63200000Y-129270000D01*
X63200000Y-125400000D02*
X63200000Y-129360000D01*
X63300000Y-125050000D02*
X63300000Y-129280000D01*
X63400000Y-124900000D02*
X63400000Y-128730000D01*
X63450000Y-124076887D02*
X63450000Y-124400000D01*
X63500000Y-123950000D02*
X63510000Y-128500000D01*
X63650000Y-123750000D02*
X63650000Y-128320000D01*
X63800000Y-123560000D02*
X63800000Y-128230000D01*
X63950000Y-123480000D02*
X63950000Y-128140000D01*
X64100000Y-123430000D02*
X64100000Y-128070000D01*
X64250000Y-123400000D02*
X64250000Y-128040000D01*
X64400000Y-123380000D02*
X64400000Y-128020000D01*
X64550000Y-123390000D02*
X64550000Y-128020000D01*
X64700000Y-123450000D02*
X64700000Y-128000000D01*
X64850000Y-123400000D02*
X64850000Y-128010000D01*
X65000000Y-123400000D02*
X65000000Y-128020000D01*
X65150000Y-123450000D02*
X65150000Y-128000000D01*
X65300000Y-123400000D02*
X65300000Y-128000000D01*
X65450000Y-123400000D02*
X65450000Y-128000000D01*
X65600000Y-123400000D02*
X65600000Y-128000000D01*
X65750000Y-123400000D02*
X65750000Y-128000000D01*
X65900000Y-123400000D02*
X65900000Y-128000000D01*
X66050000Y-123400000D02*
X66050000Y-128000000D01*
X66200000Y-123400000D02*
X66200000Y-128000000D01*
X66350000Y-123400000D02*
X66350000Y-128000000D01*
X66500000Y-123400000D02*
X66500000Y-128000000D01*
X66650000Y-123400000D02*
X66650000Y-128000000D01*
X66800000Y-123400000D02*
X66800000Y-128000000D01*
X66950000Y-123400000D02*
X66950000Y-128000000D01*
X67100000Y-123400000D02*
X67100000Y-128000000D01*
X67250000Y-123400000D02*
X67250000Y-128000000D01*
X67275000Y-123375000D02*
X64311204Y-123375000D01*
X67275000Y-128025000D02*
X64475000Y-128025000D01*
X67400000Y-123500000D02*
X67400000Y-128010000D01*
X67550000Y-123650000D02*
X67550000Y-127970000D01*
X67700000Y-123800000D02*
X67700000Y-127920000D01*
X67850000Y-123700000D02*
X67850000Y-127840000D01*
X68000000Y-123730000D02*
X68000000Y-127700000D01*
X68150000Y-123850000D02*
X68150000Y-127530000D01*
X68305000Y-127025000D02*
X68305000Y-124375000D01*
D14*
X71200000Y-123555000D02*
X66800000Y-123555000D01*
X71200000Y-125055000D02*
X71200000Y-123555000D01*
D11*
X63300000Y-129200000D02*
G75*
G02*
X64475000Y-128025000I1175000J0D01*
G01*
X63450000Y-124076887D02*
G75*
G02*
X64311204Y-123375004I900030J-225043D01*
G01*
X63450000Y-124400000D02*
G75*
G02*
X62275000Y-125575000I-1175000J0D01*
G01*
X67305000Y-123375000D02*
G75*
G02*
X68305000Y-124375000I0J-1000000D01*
G01*
X68305000Y-127025000D02*
G75*
G02*
X67305000Y-128025000I-1000000J0D01*
G01*
X71500000Y-122600000D02*
G75*
G02*
X70500000Y-122600000I-500000J0D01*
G01*
X70500000Y-122600000D02*
G75*
G02*
X71500000Y-122600000I500000J0D01*
G01*
D13*
%TO.C,LED5*%
X57063000Y-136572000D02*
X56682000Y-136572000D01*
X56682000Y-136172000D01*
X57063000Y-136572000D01*
G36*
X57063000Y-136572000D02*
G01*
X56682000Y-136572000D01*
X56682000Y-136172000D01*
X57063000Y-136572000D01*
G37*
D11*
%TO.C,SW7*%
X59700000Y-103225000D02*
X59700000Y-100575000D01*
X59850000Y-100440000D02*
X59850000Y-103370000D01*
X59950000Y-100330000D02*
X59950000Y-103450000D01*
X60050000Y-100230000D02*
X60050000Y-103560000D01*
X60150000Y-100130000D02*
X60150000Y-103660000D01*
X60300000Y-99990000D02*
X60300000Y-103820000D01*
X60450000Y-99830000D02*
X60450000Y-103950000D01*
X60600000Y-99700000D02*
X60600000Y-104090000D01*
X60700000Y-99575000D02*
X59700000Y-100575000D01*
X60700000Y-104225000D02*
X59700000Y-103225000D01*
X60750000Y-99600000D02*
X60750000Y-104200000D01*
X60900000Y-99600000D02*
X60900000Y-104200000D01*
X61050000Y-99600000D02*
X61050000Y-104200000D01*
X61200000Y-99600000D02*
X61200000Y-104200000D01*
X61350000Y-99600000D02*
X61350000Y-104200000D01*
X61500000Y-99600000D02*
X61500000Y-104200000D01*
X61650000Y-99600000D02*
X61650000Y-104200000D01*
X61800000Y-99600000D02*
X61800000Y-104200000D01*
X61950000Y-99600000D02*
X61950000Y-104200000D01*
X62100000Y-99600000D02*
X62100000Y-104200000D01*
X62250000Y-99600000D02*
X62250000Y-104200000D01*
X62400000Y-99600000D02*
X62400000Y-104200000D01*
X62550000Y-99600000D02*
X62550000Y-104200000D01*
X62700000Y-99600000D02*
X62700000Y-104200000D01*
X62850000Y-99600000D02*
X62850000Y-104200000D01*
X63000000Y-99600000D02*
X63000000Y-104200000D01*
X63110000Y-99600000D02*
X63110000Y-104200000D01*
X63200000Y-99600000D02*
X63200000Y-104200000D01*
X63225000Y-104225000D02*
X60700000Y-104225000D01*
X63225000Y-104225000D02*
X64300000Y-103280000D01*
X63275000Y-99575000D02*
X60700000Y-99575000D01*
X63350000Y-99650000D02*
X63350000Y-104110000D01*
X63500000Y-99600000D02*
X63500000Y-103980000D01*
X63650000Y-99550000D02*
X63650000Y-103850000D01*
X63800000Y-99500000D02*
X63800000Y-103700000D01*
X63950000Y-99400000D02*
X63950000Y-103580000D01*
X64100000Y-99350000D02*
X64100000Y-103350000D01*
X64100000Y-99450000D02*
X64090000Y-103450000D01*
X64200000Y-99250000D02*
X64200000Y-103270000D01*
X64200000Y-99400000D02*
X64200000Y-103360000D01*
X64300000Y-99050000D02*
X64300000Y-103280000D01*
X64400000Y-98900000D02*
X64400000Y-102730000D01*
X64450000Y-98076887D02*
X64450000Y-98400000D01*
X64500000Y-97950000D02*
X64510000Y-102500000D01*
X64650000Y-97750000D02*
X64650000Y-102320000D01*
X64800000Y-97560000D02*
X64800000Y-102230000D01*
X64950000Y-97480000D02*
X64950000Y-102140000D01*
X65100000Y-97430000D02*
X65100000Y-102070000D01*
X65250000Y-97400000D02*
X65250000Y-102040000D01*
X65400000Y-97380000D02*
X65400000Y-102020000D01*
X65550000Y-97390000D02*
X65550000Y-102020000D01*
X65700000Y-97450000D02*
X65700000Y-102000000D01*
X65850000Y-97400000D02*
X65850000Y-102010000D01*
X66000000Y-97400000D02*
X66000000Y-102020000D01*
X66150000Y-97450000D02*
X66150000Y-102000000D01*
X66300000Y-97400000D02*
X66300000Y-102000000D01*
X66450000Y-97400000D02*
X66450000Y-102000000D01*
X66600000Y-97400000D02*
X66600000Y-102000000D01*
X66750000Y-97400000D02*
X66750000Y-102000000D01*
X66900000Y-97400000D02*
X66900000Y-102000000D01*
X67050000Y-97400000D02*
X67050000Y-102000000D01*
X67200000Y-97400000D02*
X67200000Y-102000000D01*
X67350000Y-97400000D02*
X67350000Y-102000000D01*
X67500000Y-97400000D02*
X67500000Y-102000000D01*
X67650000Y-97400000D02*
X67650000Y-102000000D01*
X67800000Y-97400000D02*
X67800000Y-102000000D01*
X67950000Y-97400000D02*
X67950000Y-102000000D01*
X68100000Y-97400000D02*
X68100000Y-102000000D01*
X68250000Y-97400000D02*
X68250000Y-102000000D01*
X68275000Y-97375000D02*
X65311204Y-97375000D01*
X68275000Y-102025000D02*
X65475000Y-102025000D01*
X68400000Y-97500000D02*
X68400000Y-102010000D01*
X68550000Y-97650000D02*
X68550000Y-101970000D01*
X68700000Y-97800000D02*
X68700000Y-101920000D01*
X68850000Y-97700000D02*
X68850000Y-101840000D01*
X69000000Y-97730000D02*
X69000000Y-101700000D01*
X69150000Y-97850000D02*
X69150000Y-101530000D01*
X69305000Y-101025000D02*
X69305000Y-98375000D01*
D14*
X72200000Y-97555000D02*
X67800000Y-97555000D01*
X72200000Y-99055000D02*
X72200000Y-97555000D01*
D11*
X64300000Y-103200000D02*
G75*
G02*
X65475000Y-102025000I1175000J0D01*
G01*
X64450000Y-98076887D02*
G75*
G02*
X65311204Y-97375004I900030J-225043D01*
G01*
X64450000Y-98400000D02*
G75*
G02*
X63275000Y-99575000I-1175000J0D01*
G01*
X68305000Y-97375000D02*
G75*
G02*
X69305000Y-98375000I0J-1000000D01*
G01*
X69305000Y-101025000D02*
G75*
G02*
X68305000Y-102025000I-1000000J0D01*
G01*
X72500000Y-96600000D02*
G75*
G02*
X71500000Y-96600000I-500000J0D01*
G01*
X71500000Y-96600000D02*
G75*
G02*
X72500000Y-96600000I500000J0D01*
G01*
%TO.C,SW5*%
X58700000Y-147225000D02*
X58700000Y-144575000D01*
X58850000Y-144440000D02*
X58850000Y-147370000D01*
X58950000Y-144330000D02*
X58950000Y-147450000D01*
X59050000Y-144230000D02*
X59050000Y-147560000D01*
X59150000Y-144130000D02*
X59150000Y-147660000D01*
X59300000Y-143990000D02*
X59300000Y-147820000D01*
X59450000Y-143830000D02*
X59450000Y-147950000D01*
X59600000Y-143700000D02*
X59600000Y-148090000D01*
X59700000Y-143575000D02*
X58700000Y-144575000D01*
X59700000Y-148225000D02*
X58700000Y-147225000D01*
X59750000Y-143600000D02*
X59750000Y-148200000D01*
X59900000Y-143600000D02*
X59900000Y-148200000D01*
X60050000Y-143600000D02*
X60050000Y-148200000D01*
X60200000Y-143600000D02*
X60200000Y-148200000D01*
X60350000Y-143600000D02*
X60350000Y-148200000D01*
X60500000Y-143600000D02*
X60500000Y-148200000D01*
X60650000Y-143600000D02*
X60650000Y-148200000D01*
X60800000Y-143600000D02*
X60800000Y-148200000D01*
X60950000Y-143600000D02*
X60950000Y-148200000D01*
X61100000Y-143600000D02*
X61100000Y-148200000D01*
X61250000Y-143600000D02*
X61250000Y-148200000D01*
X61400000Y-143600000D02*
X61400000Y-148200000D01*
X61550000Y-143600000D02*
X61550000Y-148200000D01*
X61700000Y-143600000D02*
X61700000Y-148200000D01*
X61850000Y-143600000D02*
X61850000Y-148200000D01*
X62000000Y-143600000D02*
X62000000Y-148200000D01*
X62110000Y-143600000D02*
X62110000Y-148200000D01*
X62200000Y-143600000D02*
X62200000Y-148200000D01*
X62225000Y-148225000D02*
X59700000Y-148225000D01*
X62225000Y-148225000D02*
X63300000Y-147280000D01*
X62275000Y-143575000D02*
X59700000Y-143575000D01*
X62350000Y-143650000D02*
X62350000Y-148110000D01*
X62500000Y-143600000D02*
X62500000Y-147980000D01*
X62650000Y-143550000D02*
X62650000Y-147850000D01*
X62800000Y-143500000D02*
X62800000Y-147700000D01*
X62950000Y-143400000D02*
X62950000Y-147580000D01*
X63100000Y-143350000D02*
X63100000Y-147350000D01*
X63100000Y-143450000D02*
X63090000Y-147450000D01*
X63200000Y-143250000D02*
X63200000Y-147270000D01*
X63200000Y-143400000D02*
X63200000Y-147360000D01*
X63300000Y-143050000D02*
X63300000Y-147280000D01*
X63400000Y-142900000D02*
X63400000Y-146730000D01*
X63450000Y-142076887D02*
X63450000Y-142400000D01*
X63500000Y-141950000D02*
X63510000Y-146500000D01*
X63650000Y-141750000D02*
X63650000Y-146320000D01*
X63800000Y-141560000D02*
X63800000Y-146230000D01*
X63950000Y-141480000D02*
X63950000Y-146140000D01*
X64100000Y-141430000D02*
X64100000Y-146070000D01*
X64250000Y-141400000D02*
X64250000Y-146040000D01*
X64400000Y-141380000D02*
X64400000Y-146020000D01*
X64550000Y-141390000D02*
X64550000Y-146020000D01*
X64700000Y-141450000D02*
X64700000Y-146000000D01*
X64850000Y-141400000D02*
X64850000Y-146010000D01*
X65000000Y-141400000D02*
X65000000Y-146020000D01*
X65150000Y-141450000D02*
X65150000Y-146000000D01*
X65300000Y-141400000D02*
X65300000Y-146000000D01*
X65450000Y-141400000D02*
X65450000Y-146000000D01*
X65600000Y-141400000D02*
X65600000Y-146000000D01*
X65750000Y-141400000D02*
X65750000Y-146000000D01*
X65900000Y-141400000D02*
X65900000Y-146000000D01*
X66050000Y-141400000D02*
X66050000Y-146000000D01*
X66200000Y-141400000D02*
X66200000Y-146000000D01*
X66350000Y-141400000D02*
X66350000Y-146000000D01*
X66500000Y-141400000D02*
X66500000Y-146000000D01*
X66650000Y-141400000D02*
X66650000Y-146000000D01*
X66800000Y-141400000D02*
X66800000Y-146000000D01*
X66950000Y-141400000D02*
X66950000Y-146000000D01*
X67100000Y-141400000D02*
X67100000Y-146000000D01*
X67250000Y-141400000D02*
X67250000Y-146000000D01*
X67275000Y-141375000D02*
X64311204Y-141375000D01*
X67275000Y-146025000D02*
X64475000Y-146025000D01*
X67400000Y-141500000D02*
X67400000Y-146010000D01*
X67550000Y-141650000D02*
X67550000Y-145970000D01*
X67700000Y-141800000D02*
X67700000Y-145920000D01*
X67850000Y-141700000D02*
X67850000Y-145840000D01*
X68000000Y-141730000D02*
X68000000Y-145700000D01*
X68150000Y-141850000D02*
X68150000Y-145530000D01*
X68305000Y-145025000D02*
X68305000Y-142375000D01*
D14*
X71200000Y-141555000D02*
X66800000Y-141555000D01*
X71200000Y-143055000D02*
X71200000Y-141555000D01*
D11*
X63300000Y-147200000D02*
G75*
G02*
X64475000Y-146025000I1175000J0D01*
G01*
X63450000Y-142076887D02*
G75*
G02*
X64311204Y-141375004I900030J-225043D01*
G01*
X63450000Y-142400000D02*
G75*
G02*
X62275000Y-143575000I-1175000J0D01*
G01*
X67305000Y-141375000D02*
G75*
G02*
X68305000Y-142375000I0J-1000000D01*
G01*
X68305000Y-145025000D02*
G75*
G02*
X67305000Y-146025000I-1000000J0D01*
G01*
X71500000Y-140600000D02*
G75*
G02*
X70500000Y-140600000I-500000J0D01*
G01*
X70500000Y-140600000D02*
G75*
G02*
X71500000Y-140600000I500000J0D01*
G01*
D13*
%TO.C,LED2*%
X74063000Y-100572000D02*
X73682000Y-100572000D01*
X73682000Y-100172000D01*
X74063000Y-100572000D01*
G36*
X74063000Y-100572000D02*
G01*
X73682000Y-100572000D01*
X73682000Y-100172000D01*
X74063000Y-100572000D01*
G37*
%TO.C,LED4*%
X75063000Y-136572000D02*
X74682000Y-136572000D01*
X74682000Y-136172000D01*
X75063000Y-136572000D01*
G36*
X75063000Y-136572000D02*
G01*
X74682000Y-136572000D01*
X74682000Y-136172000D01*
X75063000Y-136572000D01*
G37*
D11*
%TO.C,SW3*%
X76700000Y-129225000D02*
X76700000Y-126575000D01*
X76850000Y-126440000D02*
X76850000Y-129370000D01*
X76950000Y-126330000D02*
X76950000Y-129450000D01*
X77050000Y-126230000D02*
X77050000Y-129560000D01*
X77150000Y-126130000D02*
X77150000Y-129660000D01*
X77300000Y-125990000D02*
X77300000Y-129820000D01*
X77450000Y-125830000D02*
X77450000Y-129950000D01*
X77600000Y-125700000D02*
X77600000Y-130090000D01*
X77700000Y-125575000D02*
X76700000Y-126575000D01*
X77700000Y-130225000D02*
X76700000Y-129225000D01*
X77750000Y-125600000D02*
X77750000Y-130200000D01*
X77900000Y-125600000D02*
X77900000Y-130200000D01*
X78050000Y-125600000D02*
X78050000Y-130200000D01*
X78200000Y-125600000D02*
X78200000Y-130200000D01*
X78350000Y-125600000D02*
X78350000Y-130200000D01*
X78500000Y-125600000D02*
X78500000Y-130200000D01*
X78650000Y-125600000D02*
X78650000Y-130200000D01*
X78800000Y-125600000D02*
X78800000Y-130200000D01*
X78950000Y-125600000D02*
X78950000Y-130200000D01*
X79100000Y-125600000D02*
X79100000Y-130200000D01*
X79250000Y-125600000D02*
X79250000Y-130200000D01*
X79400000Y-125600000D02*
X79400000Y-130200000D01*
X79550000Y-125600000D02*
X79550000Y-130200000D01*
X79700000Y-125600000D02*
X79700000Y-130200000D01*
X79850000Y-125600000D02*
X79850000Y-130200000D01*
X80000000Y-125600000D02*
X80000000Y-130200000D01*
X80110000Y-125600000D02*
X80110000Y-130200000D01*
X80200000Y-125600000D02*
X80200000Y-130200000D01*
X80225000Y-130225000D02*
X77700000Y-130225000D01*
X80225000Y-130225000D02*
X81300000Y-129280000D01*
X80275000Y-125575000D02*
X77700000Y-125575000D01*
X80350000Y-125650000D02*
X80350000Y-130110000D01*
X80500000Y-125600000D02*
X80500000Y-129980000D01*
X80650000Y-125550000D02*
X80650000Y-129850000D01*
X80800000Y-125500000D02*
X80800000Y-129700000D01*
X80950000Y-125400000D02*
X80950000Y-129580000D01*
X81100000Y-125350000D02*
X81100000Y-129350000D01*
X81100000Y-125450000D02*
X81090000Y-129450000D01*
X81200000Y-125250000D02*
X81200000Y-129270000D01*
X81200000Y-125400000D02*
X81200000Y-129360000D01*
X81300000Y-125050000D02*
X81300000Y-129280000D01*
X81400000Y-124900000D02*
X81400000Y-128730000D01*
X81450000Y-124076887D02*
X81450000Y-124400000D01*
X81500000Y-123950000D02*
X81510000Y-128500000D01*
X81650000Y-123750000D02*
X81650000Y-128320000D01*
X81800000Y-123560000D02*
X81800000Y-128230000D01*
X81950000Y-123480000D02*
X81950000Y-128140000D01*
X82100000Y-123430000D02*
X82100000Y-128070000D01*
X82250000Y-123400000D02*
X82250000Y-128040000D01*
X82400000Y-123380000D02*
X82400000Y-128020000D01*
X82550000Y-123390000D02*
X82550000Y-128020000D01*
X82700000Y-123450000D02*
X82700000Y-128000000D01*
X82850000Y-123400000D02*
X82850000Y-128010000D01*
X83000000Y-123400000D02*
X83000000Y-128020000D01*
X83150000Y-123450000D02*
X83150000Y-128000000D01*
X83300000Y-123400000D02*
X83300000Y-128000000D01*
X83450000Y-123400000D02*
X83450000Y-128000000D01*
X83600000Y-123400000D02*
X83600000Y-128000000D01*
X83750000Y-123400000D02*
X83750000Y-128000000D01*
X83900000Y-123400000D02*
X83900000Y-128000000D01*
X84050000Y-123400000D02*
X84050000Y-128000000D01*
X84200000Y-123400000D02*
X84200000Y-128000000D01*
X84350000Y-123400000D02*
X84350000Y-128000000D01*
X84500000Y-123400000D02*
X84500000Y-128000000D01*
X84650000Y-123400000D02*
X84650000Y-128000000D01*
X84800000Y-123400000D02*
X84800000Y-128000000D01*
X84950000Y-123400000D02*
X84950000Y-128000000D01*
X85100000Y-123400000D02*
X85100000Y-128000000D01*
X85250000Y-123400000D02*
X85250000Y-128000000D01*
X85275000Y-123375000D02*
X82311204Y-123375000D01*
X85275000Y-128025000D02*
X82475000Y-128025000D01*
X85400000Y-123500000D02*
X85400000Y-128010000D01*
X85550000Y-123650000D02*
X85550000Y-127970000D01*
X85700000Y-123800000D02*
X85700000Y-127920000D01*
X85850000Y-123700000D02*
X85850000Y-127840000D01*
X86000000Y-123730000D02*
X86000000Y-127700000D01*
X86150000Y-123850000D02*
X86150000Y-127530000D01*
X86305000Y-127025000D02*
X86305000Y-124375000D01*
D14*
X89200000Y-123555000D02*
X84800000Y-123555000D01*
X89200000Y-125055000D02*
X89200000Y-123555000D01*
D11*
X81300000Y-129200000D02*
G75*
G02*
X82475000Y-128025000I1175000J0D01*
G01*
X81450000Y-124076887D02*
G75*
G02*
X82311204Y-123375004I900030J-225043D01*
G01*
X81450000Y-124400000D02*
G75*
G02*
X80275000Y-125575000I-1175000J0D01*
G01*
X85305000Y-123375000D02*
G75*
G02*
X86305000Y-124375000I0J-1000000D01*
G01*
X86305000Y-127025000D02*
G75*
G02*
X85305000Y-128025000I-1000000J0D01*
G01*
X89500000Y-122600000D02*
G75*
G02*
X88500000Y-122600000I-500000J0D01*
G01*
X88500000Y-122600000D02*
G75*
G02*
X89500000Y-122600000I500000J0D01*
G01*
D13*
%TO.C,LED3*%
X75063000Y-118572000D02*
X74682000Y-118572000D01*
X74682000Y-118172000D01*
X75063000Y-118572000D01*
G36*
X75063000Y-118572000D02*
G01*
X74682000Y-118572000D01*
X74682000Y-118172000D01*
X75063000Y-118572000D01*
G37*
D11*
%TO.C,SW4*%
X76700000Y-147225000D02*
X76700000Y-144575000D01*
X76850000Y-144440000D02*
X76850000Y-147370000D01*
X76950000Y-144330000D02*
X76950000Y-147450000D01*
X77050000Y-144230000D02*
X77050000Y-147560000D01*
X77150000Y-144130000D02*
X77150000Y-147660000D01*
X77300000Y-143990000D02*
X77300000Y-147820000D01*
X77450000Y-143830000D02*
X77450000Y-147950000D01*
X77600000Y-143700000D02*
X77600000Y-148090000D01*
X77700000Y-143575000D02*
X76700000Y-144575000D01*
X77700000Y-148225000D02*
X76700000Y-147225000D01*
X77750000Y-143600000D02*
X77750000Y-148200000D01*
X77900000Y-143600000D02*
X77900000Y-148200000D01*
X78050000Y-143600000D02*
X78050000Y-148200000D01*
X78200000Y-143600000D02*
X78200000Y-148200000D01*
X78350000Y-143600000D02*
X78350000Y-148200000D01*
X78500000Y-143600000D02*
X78500000Y-148200000D01*
X78650000Y-143600000D02*
X78650000Y-148200000D01*
X78800000Y-143600000D02*
X78800000Y-148200000D01*
X78950000Y-143600000D02*
X78950000Y-148200000D01*
X79100000Y-143600000D02*
X79100000Y-148200000D01*
X79250000Y-143600000D02*
X79250000Y-148200000D01*
X79400000Y-143600000D02*
X79400000Y-148200000D01*
X79550000Y-143600000D02*
X79550000Y-148200000D01*
X79700000Y-143600000D02*
X79700000Y-148200000D01*
X79850000Y-143600000D02*
X79850000Y-148200000D01*
X80000000Y-143600000D02*
X80000000Y-148200000D01*
X80110000Y-143600000D02*
X80110000Y-148200000D01*
X80200000Y-143600000D02*
X80200000Y-148200000D01*
X80225000Y-148225000D02*
X77700000Y-148225000D01*
X80225000Y-148225000D02*
X81300000Y-147280000D01*
X80275000Y-143575000D02*
X77700000Y-143575000D01*
X80350000Y-143650000D02*
X80350000Y-148110000D01*
X80500000Y-143600000D02*
X80500000Y-147980000D01*
X80650000Y-143550000D02*
X80650000Y-147850000D01*
X80800000Y-143500000D02*
X80800000Y-147700000D01*
X80950000Y-143400000D02*
X80950000Y-147580000D01*
X81100000Y-143350000D02*
X81100000Y-147350000D01*
X81100000Y-143450000D02*
X81090000Y-147450000D01*
X81200000Y-143250000D02*
X81200000Y-147270000D01*
X81200000Y-143400000D02*
X81200000Y-147360000D01*
X81300000Y-143050000D02*
X81300000Y-147280000D01*
X81400000Y-142900000D02*
X81400000Y-146730000D01*
X81450000Y-142076887D02*
X81450000Y-142400000D01*
X81500000Y-141950000D02*
X81510000Y-146500000D01*
X81650000Y-141750000D02*
X81650000Y-146320000D01*
X81800000Y-141560000D02*
X81800000Y-146230000D01*
X81950000Y-141480000D02*
X81950000Y-146140000D01*
X82100000Y-141430000D02*
X82100000Y-146070000D01*
X82250000Y-141400000D02*
X82250000Y-146040000D01*
X82400000Y-141380000D02*
X82400000Y-146020000D01*
X82550000Y-141390000D02*
X82550000Y-146020000D01*
X82700000Y-141450000D02*
X82700000Y-146000000D01*
X82850000Y-141400000D02*
X82850000Y-146010000D01*
X83000000Y-141400000D02*
X83000000Y-146020000D01*
X83150000Y-141450000D02*
X83150000Y-146000000D01*
X83300000Y-141400000D02*
X83300000Y-146000000D01*
X83450000Y-141400000D02*
X83450000Y-146000000D01*
X83600000Y-141400000D02*
X83600000Y-146000000D01*
X83750000Y-141400000D02*
X83750000Y-146000000D01*
X83900000Y-141400000D02*
X83900000Y-146000000D01*
X84050000Y-141400000D02*
X84050000Y-146000000D01*
X84200000Y-141400000D02*
X84200000Y-146000000D01*
X84350000Y-141400000D02*
X84350000Y-146000000D01*
X84500000Y-141400000D02*
X84500000Y-146000000D01*
X84650000Y-141400000D02*
X84650000Y-146000000D01*
X84800000Y-141400000D02*
X84800000Y-146000000D01*
X84950000Y-141400000D02*
X84950000Y-146000000D01*
X85100000Y-141400000D02*
X85100000Y-146000000D01*
X85250000Y-141400000D02*
X85250000Y-146000000D01*
X85275000Y-141375000D02*
X82311204Y-141375000D01*
X85275000Y-146025000D02*
X82475000Y-146025000D01*
X85400000Y-141500000D02*
X85400000Y-146010000D01*
X85550000Y-141650000D02*
X85550000Y-145970000D01*
X85700000Y-141800000D02*
X85700000Y-145920000D01*
X85850000Y-141700000D02*
X85850000Y-145840000D01*
X86000000Y-141730000D02*
X86000000Y-145700000D01*
X86150000Y-141850000D02*
X86150000Y-145530000D01*
X86305000Y-145025000D02*
X86305000Y-142375000D01*
D14*
X89200000Y-141555000D02*
X84800000Y-141555000D01*
X89200000Y-143055000D02*
X89200000Y-141555000D01*
D11*
X81300000Y-147200000D02*
G75*
G02*
X82475000Y-146025000I1175000J0D01*
G01*
X81450000Y-142076887D02*
G75*
G02*
X82311204Y-141375004I900030J-225043D01*
G01*
X81450000Y-142400000D02*
G75*
G02*
X80275000Y-143575000I-1175000J0D01*
G01*
X85305000Y-141375000D02*
G75*
G02*
X86305000Y-142375000I0J-1000000D01*
G01*
X86305000Y-145025000D02*
G75*
G02*
X85305000Y-146025000I-1000000J0D01*
G01*
X89500000Y-140600000D02*
G75*
G02*
X88500000Y-140600000I-500000J0D01*
G01*
X88500000Y-140600000D02*
G75*
G02*
X89500000Y-140600000I500000J0D01*
G01*
%TD*%
M02*
