%TF.GenerationSoftware,KiCad,Pcbnew,8.0.7*%
%TF.CreationDate,2025-04-08T15:01:58+09:00*%
%TF.ProjectId,Choc2,43686f63-322e-46b6-9963-61645f706362,rev?*%
%TF.SameCoordinates,Original*%
%TF.FileFunction,Copper,L2,Bot*%
%TF.FilePolarity,Positive*%
%FSLAX46Y46*%
G04 Gerber Fmt 4.6, Leading zero omitted, Abs format (unit mm)*
G04 Created by KiCad (PCBNEW 8.0.7) date 2025-04-08 15:01:58*
%MOMM*%
%LPD*%
G01*
G04 APERTURE LIST*
G04 Aperture macros list*
%AMRoundRect*
0 Rectangle with rounded corners*
0 $1 Rounding radius*
0 $2 $3 $4 $5 $6 $7 $8 $9 X,Y pos of 4 corners*
0 Add a 4 corners polygon primitive as box body*
4,1,4,$2,$3,$4,$5,$6,$7,$8,$9,$2,$3,0*
0 Add four circle primitives for the rounded corners*
1,1,$1+$1,$2,$3*
1,1,$1+$1,$4,$5*
1,1,$1+$1,$6,$7*
1,1,$1+$1,$8,$9*
0 Add four rect primitives between the rounded corners*
20,1,$1+$1,$2,$3,$4,$5,0*
20,1,$1+$1,$4,$5,$6,$7,0*
20,1,$1+$1,$6,$7,$8,$9,0*
20,1,$1+$1,$8,$9,$2,$3,0*%
G04 Aperture macros list end*
%TA.AperFunction,ComponentPad*%
%ADD10O,4.140000X2.070000*%
%TD*%
%TA.AperFunction,ComponentPad*%
%ADD11C,1.800000*%
%TD*%
%TA.AperFunction,ComponentPad*%
%ADD12RoundRect,0.250000X-0.625000X0.350000X-0.625000X-0.350000X0.625000X-0.350000X0.625000X0.350000X0*%
%TD*%
%TA.AperFunction,ComponentPad*%
%ADD13O,1.750000X1.200000*%
%TD*%
%TA.AperFunction,ComponentPad*%
%ADD14RoundRect,0.250000X0.625000X-0.350000X0.625000X0.350000X-0.625000X0.350000X-0.625000X-0.350000X0*%
%TD*%
%TA.AperFunction,ComponentPad*%
%ADD15R,1.508000X1.508000*%
%TD*%
%TA.AperFunction,ComponentPad*%
%ADD16C,1.508000*%
%TD*%
%TA.AperFunction,ComponentPad*%
%ADD17C,3.000000*%
%TD*%
%TA.AperFunction,ViaPad*%
%ADD18C,0.600000*%
%TD*%
%TA.AperFunction,Conductor*%
%ADD19C,1.000000*%
%TD*%
%TA.AperFunction,Conductor*%
%ADD20C,0.250000*%
%TD*%
%TA.AperFunction,Conductor*%
%ADD21C,0.500000*%
%TD*%
%TA.AperFunction,Conductor*%
%ADD22C,0.200000*%
%TD*%
G04 APERTURE END LIST*
D10*
%TO.P,BT1,+*%
%TO.N,VCC*%
X70000000Y-74900000D03*
%TO.P,BT1,-*%
%TO.N,GND*%
X70000000Y-147800000D03*
%TD*%
D11*
%TO.P,U1,1,LP_A_IO0*%
%TO.N,SW4*%
X77620000Y-71620000D03*
%TO.P,U1,2,LP_A_IO1*%
%TO.N,SW3*%
X75080000Y-71620000D03*
%TO.P,U1,3,LP_A_IO2*%
%TO.N,SW5*%
X72540000Y-71620000D03*
%TO.P,U1,4,IO21*%
%TO.N,SW6*%
X70000000Y-71620000D03*
%TO.P,U1,5,IO22_SDA*%
%TO.N,SDA*%
X67460000Y-71620000D03*
%TO.P,U1,6,IO23_SCL*%
%TO.N,SCL*%
X64920000Y-71620000D03*
%TO.P,U1,7,IO16_TX*%
%TO.N,LED*%
X62380000Y-71620000D03*
%TO.P,U1,8,IO17_RX*%
%TO.N,SW1*%
X62380000Y-56380000D03*
%TO.P,U1,9,IO19_SCK*%
%TO.N,LED2*%
X64920000Y-56380000D03*
%TO.P,U1,10,IO20_MISO*%
%TO.N,SW2*%
X67460000Y-56380000D03*
%TO.P,U1,11,IO18_MOSI*%
%TO.N,SW7*%
X70000000Y-56380000D03*
%TO.P,U1,12,3V3*%
%TO.N,VCC*%
X72540000Y-56380000D03*
%TO.P,U1,13,GND*%
%TO.N,GND*%
X75080000Y-56380000D03*
%TO.P,U1,14,5V*%
%TO.N,unconnected-(U1-5V-Pad14)*%
X77620000Y-56380000D03*
%TD*%
D12*
%TO.P,J4,1,Pin_1*%
%TO.N,GND*%
X82550000Y-62000000D03*
D13*
%TO.P,J4,2,Pin_2*%
%TO.N,LED2*%
X82550000Y-64000000D03*
%TO.P,J4,3,Pin_3*%
%TO.N,VCC*%
X82550000Y-66000000D03*
%TD*%
D14*
%TO.P,J1,1,Pin_1*%
%TO.N,GND*%
X57450000Y-65000000D03*
D13*
%TO.P,J1,2,Pin_2*%
%TO.N,VCC*%
X57450000Y-63000000D03*
%TD*%
D15*
%TO.P,OL1,1,SDA*%
%TO.N,GND*%
X73810000Y-52500000D03*
D16*
%TO.P,OL1,2,SCL*%
%TO.N,VCC*%
X71270000Y-52500000D03*
%TO.P,OL1,3,VCC*%
%TO.N,SCL*%
X68730000Y-52500000D03*
%TO.P,OL1,4,GND*%
%TO.N,SDA*%
X66190000Y-52500000D03*
D17*
%TO.P,OL1,S1*%
%TO.N,N/C*%
X81000000Y-53000000D03*
%TO.P,OL1,S2*%
X59000000Y-53000000D03*
%TO.P,OL1,S3*%
X59000000Y-75000000D03*
%TO.P,OL1,S4*%
X81000000Y-75000000D03*
%TD*%
D18*
%TO.N,VCC*%
X83000000Y-83500000D03*
X66000000Y-116000000D03*
X66000000Y-134000000D03*
X67000000Y-90000000D03*
X84000000Y-134000000D03*
X83000000Y-98000000D03*
X84000000Y-116000000D03*
%TO.N,GND*%
X72000000Y-94000000D03*
X73000000Y-146000000D03*
X55000000Y-146000000D03*
X74000000Y-118000000D03*
X73000000Y-128000000D03*
X73000000Y-84000000D03*
X56000000Y-118000000D03*
X75000000Y-136000000D03*
X56000000Y-102000000D03*
X72000000Y-110000000D03*
X56000000Y-136000000D03*
X73000000Y-100000000D03*
X55000000Y-128000000D03*
X57000000Y-92000000D03*
%TO.N,SW4*%
X70000000Y-103000000D03*
%TO.N,SW1*%
X58037779Y-95962221D03*
X58000000Y-86000000D03*
%TO.N,SW2*%
X86350000Y-84183274D03*
X67500000Y-68500000D03*
%TO.N,Net-(LED1-DOUT)*%
X75000000Y-81000000D03*
X69000000Y-91000000D03*
%TO.N,unconnected-(LED6-DOUT-Pad2)*%
X66000000Y-136000000D03*
X74000000Y-136000000D03*
%TO.N,SW6*%
X69000000Y-131000000D03*
%TD*%
D19*
%TO.N,VCC*%
X83000000Y-98000000D02*
X80750000Y-95750000D01*
X66000000Y-122518019D02*
X63750000Y-124768019D01*
X63750000Y-124768019D02*
X63750000Y-131750000D01*
X66000000Y-134000000D02*
X67450000Y-132550000D01*
X84000000Y-122000000D02*
X84000000Y-116000000D01*
X63750000Y-131750000D02*
X66000000Y-134000000D01*
X57450000Y-63000000D02*
X61000000Y-63000000D01*
X83000000Y-83500000D02*
X83000000Y-88000000D01*
X67000000Y-96518019D02*
X64750000Y-98768019D01*
X72540000Y-60460000D02*
X72540000Y-56380000D01*
X84000000Y-116000000D02*
X80750000Y-112750000D01*
X80750000Y-105704773D02*
X83000000Y-103454773D01*
X81750000Y-124250000D02*
X84000000Y-122000000D01*
X59500000Y-64500000D02*
X61000000Y-63000000D01*
X81750000Y-131750000D02*
X81750000Y-124250000D01*
X64750000Y-114750000D02*
X66000000Y-116000000D01*
X80750000Y-95750000D02*
X80750000Y-90250000D01*
X67450000Y-132550000D02*
X82550000Y-132550000D01*
X80750000Y-90250000D02*
X83000000Y-88000000D01*
X64750000Y-98768019D02*
X64750000Y-114750000D01*
X63397258Y-74900000D02*
X70000000Y-74900000D01*
X80750000Y-112750000D02*
X80750000Y-105704773D01*
X63397258Y-74900000D02*
X59500000Y-71002742D01*
X84000000Y-134000000D02*
X81750000Y-131750000D01*
X70000000Y-63000000D02*
X72540000Y-60460000D01*
X82550000Y-132550000D02*
X84000000Y-134000000D01*
X83000000Y-103454773D02*
X83000000Y-98000000D01*
X59500000Y-71002742D02*
X59500000Y-64500000D01*
X66000000Y-116000000D02*
X66000000Y-122518019D01*
X61000000Y-63000000D02*
X70000000Y-63000000D01*
X67000000Y-90000000D02*
X67000000Y-96518019D01*
D20*
%TO.N,SW4*%
X75625000Y-85375000D02*
X70000000Y-91000000D01*
X70000000Y-97000000D02*
X70000000Y-103000000D01*
X70000000Y-91000000D02*
X70000000Y-97000000D01*
X77620000Y-71620000D02*
X75625000Y-73615000D01*
X75625000Y-73615000D02*
X75625000Y-85375000D01*
%TO.N,SW1*%
X58037779Y-87037779D02*
X58037779Y-95962221D01*
X58000000Y-87000000D02*
X58037779Y-87037779D01*
X58000000Y-86000000D02*
X58000000Y-87000000D01*
%TO.N,SW2*%
X79000000Y-70500000D02*
X77000000Y-68500000D01*
X86350000Y-84183274D02*
X79000000Y-76833274D01*
X67500000Y-68500000D02*
X77000000Y-68500000D01*
X79000000Y-76833274D02*
X79000000Y-70500000D01*
%TO.N,Net-(LED1-DOUT)*%
X75000000Y-85000000D02*
X75000000Y-81000000D01*
X69000000Y-91000000D02*
X75000000Y-85000000D01*
%TO.N,unconnected-(LED6-DOUT-Pad2)*%
X66000000Y-136000000D02*
X74000000Y-136000000D01*
D21*
%TO.N,LED2*%
X79500000Y-56350811D02*
X78179189Y-55030000D01*
X81500000Y-64000000D02*
X79500000Y-62000000D01*
X78179189Y-55030000D02*
X66270000Y-55030000D01*
X82550000Y-64000000D02*
X81500000Y-64000000D01*
X79500000Y-62000000D02*
X79500000Y-56350811D01*
X66270000Y-55030000D02*
X64920000Y-56380000D01*
D20*
%TO.N,SW6*%
X68375000Y-98423350D02*
X69000000Y-99048350D01*
D22*
X72370000Y-73990000D02*
X72370000Y-81630000D01*
X71950000Y-82050000D02*
X71950000Y-87050000D01*
D20*
X68375000Y-90625000D02*
X68375000Y-98423350D01*
D22*
X72370000Y-81630000D02*
X71950000Y-82050000D01*
D20*
X69000000Y-99048350D02*
X69000000Y-131000000D01*
D22*
X71950000Y-87050000D02*
X71895000Y-87105000D01*
D20*
X71895000Y-87105000D02*
X68375000Y-90625000D01*
D22*
X70000000Y-71620000D02*
X72370000Y-73990000D01*
%TD*%
%TA.AperFunction,Conductor*%
%TO.N,GND*%
G36*
X73891904Y-72370304D02*
G01*
X73913809Y-72395583D01*
X73971016Y-72483147D01*
X73971019Y-72483151D01*
X73971021Y-72483153D01*
X74128216Y-72653913D01*
X74128219Y-72653915D01*
X74128222Y-72653918D01*
X74311365Y-72796464D01*
X74311371Y-72796468D01*
X74311374Y-72796470D01*
X74515497Y-72906936D01*
X74629487Y-72946068D01*
X74735015Y-72982297D01*
X74735017Y-72982297D01*
X74735019Y-72982298D01*
X74963951Y-73020500D01*
X74963952Y-73020500D01*
X75037962Y-73020500D01*
X75105001Y-73040185D01*
X75150756Y-73092989D01*
X75160700Y-73162147D01*
X75141063Y-73213392D01*
X75104914Y-73267491D01*
X75070690Y-73318708D01*
X75070688Y-73318713D01*
X75041368Y-73389497D01*
X75041368Y-73389500D01*
X75036063Y-73402309D01*
X75023537Y-73432549D01*
X75023535Y-73432556D01*
X74999500Y-73553389D01*
X74999500Y-80083677D01*
X74979815Y-80150716D01*
X74927011Y-80196471D01*
X74889384Y-80206897D01*
X74820750Y-80214630D01*
X74650478Y-80274210D01*
X74497737Y-80370184D01*
X74370184Y-80497737D01*
X74274211Y-80650476D01*
X74214631Y-80820745D01*
X74214630Y-80820750D01*
X74194435Y-80999996D01*
X74194435Y-81000003D01*
X74214630Y-81179249D01*
X74214631Y-81179254D01*
X74274211Y-81349524D01*
X74355493Y-81478881D01*
X74374500Y-81544854D01*
X74374500Y-84689547D01*
X74354815Y-84756586D01*
X74338181Y-84777228D01*
X72762181Y-86353228D01*
X72700858Y-86386713D01*
X72631166Y-86381729D01*
X72575233Y-86339857D01*
X72550816Y-86274393D01*
X72550500Y-86265547D01*
X72550500Y-83526360D01*
X72570185Y-83459321D01*
X72622989Y-83413566D01*
X72692147Y-83403622D01*
X72710496Y-83407700D01*
X72729834Y-83413566D01*
X72803868Y-83436024D01*
X73000000Y-83455341D01*
X73196132Y-83436024D01*
X73384727Y-83378814D01*
X73558538Y-83285910D01*
X73710883Y-83160883D01*
X73835910Y-83008538D01*
X73928814Y-82834727D01*
X73986024Y-82646132D01*
X74005341Y-82450000D01*
X73986024Y-82253868D01*
X73928814Y-82065273D01*
X73928811Y-82065269D01*
X73928811Y-82065266D01*
X73835913Y-81891467D01*
X73835909Y-81891460D01*
X73710883Y-81739116D01*
X73558539Y-81614090D01*
X73558532Y-81614086D01*
X73384733Y-81521188D01*
X73384727Y-81521186D01*
X73196132Y-81463976D01*
X73196129Y-81463975D01*
X73082346Y-81452769D01*
X73017559Y-81426608D01*
X72977200Y-81369574D01*
X72970500Y-81329366D01*
X72970500Y-73910945D01*
X72970500Y-73910943D01*
X72940090Y-73797451D01*
X72929577Y-73758215D01*
X72853703Y-73626798D01*
X72850520Y-73621284D01*
X72850519Y-73621283D01*
X72850518Y-73621281D01*
X72734397Y-73505160D01*
X72734374Y-73505139D01*
X72461416Y-73232181D01*
X72427931Y-73170858D01*
X72432915Y-73101166D01*
X72474787Y-73045233D01*
X72540251Y-73020816D01*
X72549097Y-73020500D01*
X72656048Y-73020500D01*
X72656049Y-73020500D01*
X72884981Y-72982298D01*
X73104503Y-72906936D01*
X73308626Y-72796470D01*
X73491784Y-72653913D01*
X73648979Y-72483153D01*
X73706191Y-72395582D01*
X73759337Y-72350226D01*
X73828568Y-72340802D01*
X73891904Y-72370304D01*
G37*
%TD.AperFunction*%
%TA.AperFunction,Conductor*%
G36*
X85940252Y-50520185D02*
G01*
X85986007Y-50572989D01*
X85995951Y-50642147D01*
X85966926Y-50705703D01*
X85932952Y-50733160D01*
X85657516Y-50884584D01*
X85657504Y-50884591D01*
X85402978Y-51069515D01*
X85402968Y-51069523D01*
X85173608Y-51284907D01*
X85173606Y-51284909D01*
X84973054Y-51527334D01*
X84973051Y-51527338D01*
X84804464Y-51792990D01*
X84804461Y-51792996D01*
X84670499Y-52077678D01*
X84670497Y-52077683D01*
X84573270Y-52376916D01*
X84514311Y-52685988D01*
X84514310Y-52685995D01*
X84494556Y-52999994D01*
X84494556Y-53000000D01*
X84514310Y-53314004D01*
X84514311Y-53314011D01*
X84514312Y-53314015D01*
X84571000Y-53611187D01*
X84573270Y-53623083D01*
X84670497Y-53922316D01*
X84670499Y-53922321D01*
X84804461Y-54207003D01*
X84804464Y-54207009D01*
X84973051Y-54472661D01*
X84973054Y-54472665D01*
X85173606Y-54715090D01*
X85173608Y-54715092D01*
X85173610Y-54715094D01*
X85289971Y-54824364D01*
X85402968Y-54930476D01*
X85402978Y-54930484D01*
X85657504Y-55115408D01*
X85657509Y-55115410D01*
X85657516Y-55115416D01*
X85933234Y-55266994D01*
X85933239Y-55266996D01*
X85933241Y-55266997D01*
X85933242Y-55266998D01*
X86225771Y-55382818D01*
X86225774Y-55382819D01*
X86530523Y-55461065D01*
X86530527Y-55461066D01*
X86596010Y-55469338D01*
X86842670Y-55500499D01*
X86842679Y-55500499D01*
X86842682Y-55500500D01*
X86842684Y-55500500D01*
X87157316Y-55500500D01*
X87157318Y-55500500D01*
X87157321Y-55500499D01*
X87157329Y-55500499D01*
X87343593Y-55476968D01*
X87469473Y-55461066D01*
X87774225Y-55382819D01*
X87867000Y-55346087D01*
X88066757Y-55266998D01*
X88066758Y-55266997D01*
X88066756Y-55266997D01*
X88066766Y-55266994D01*
X88342484Y-55115416D01*
X88597030Y-54930478D01*
X88826390Y-54715094D01*
X89026947Y-54472663D01*
X89195537Y-54207007D01*
X89253272Y-54084315D01*
X89263302Y-54063000D01*
X89309657Y-54010722D01*
X89376917Y-53991805D01*
X89443727Y-54012254D01*
X89488876Y-54065578D01*
X89499500Y-54115797D01*
X89499500Y-73884202D01*
X89479815Y-73951241D01*
X89427011Y-73996996D01*
X89357853Y-74006940D01*
X89294297Y-73977915D01*
X89263302Y-73936999D01*
X89195539Y-73792996D01*
X89195535Y-73792990D01*
X89026948Y-73527338D01*
X89026945Y-73527334D01*
X88826393Y-73284909D01*
X88826391Y-73284907D01*
X88750236Y-73213392D01*
X88597030Y-73069522D01*
X88597027Y-73069520D01*
X88597021Y-73069515D01*
X88342495Y-72884591D01*
X88342488Y-72884586D01*
X88342484Y-72884584D01*
X88066766Y-72733006D01*
X88066763Y-72733004D01*
X88066758Y-72733002D01*
X88066757Y-72733001D01*
X87774228Y-72617181D01*
X87774225Y-72617180D01*
X87469476Y-72538934D01*
X87469463Y-72538932D01*
X87157329Y-72499500D01*
X87157318Y-72499500D01*
X86842682Y-72499500D01*
X86842670Y-72499500D01*
X86530536Y-72538932D01*
X86530523Y-72538934D01*
X86225774Y-72617180D01*
X86225771Y-72617181D01*
X85933242Y-72733001D01*
X85933241Y-72733002D01*
X85657516Y-72884584D01*
X85657504Y-72884591D01*
X85402978Y-73069515D01*
X85402968Y-73069523D01*
X85173608Y-73284907D01*
X85173606Y-73284909D01*
X84973054Y-73527334D01*
X84973051Y-73527338D01*
X84804464Y-73792990D01*
X84804461Y-73792996D01*
X84670499Y-74077678D01*
X84670497Y-74077683D01*
X84573270Y-74376916D01*
X84514311Y-74685988D01*
X84514310Y-74685995D01*
X84494556Y-74999994D01*
X84494556Y-75000005D01*
X84514310Y-75314004D01*
X84514311Y-75314011D01*
X84573270Y-75623083D01*
X84670497Y-75922316D01*
X84670499Y-75922321D01*
X84804461Y-76207003D01*
X84804464Y-76207009D01*
X84973051Y-76472661D01*
X84973054Y-76472665D01*
X85173606Y-76715090D01*
X85173608Y-76715092D01*
X85173610Y-76715094D01*
X85365068Y-76894885D01*
X85402968Y-76930476D01*
X85402978Y-76930484D01*
X85657504Y-77115408D01*
X85657509Y-77115410D01*
X85657516Y-77115416D01*
X85933234Y-77266994D01*
X85933239Y-77266996D01*
X85933241Y-77266997D01*
X85933242Y-77266998D01*
X86225771Y-77382818D01*
X86225774Y-77382819D01*
X86530523Y-77461065D01*
X86530527Y-77461066D01*
X86596010Y-77469338D01*
X86842670Y-77500499D01*
X86842679Y-77500499D01*
X86842682Y-77500500D01*
X86842684Y-77500500D01*
X87157316Y-77500500D01*
X87157318Y-77500500D01*
X87157321Y-77500499D01*
X87157329Y-77500499D01*
X87343593Y-77476968D01*
X87469473Y-77461066D01*
X87774225Y-77382819D01*
X87774228Y-77382818D01*
X88066757Y-77266998D01*
X88066758Y-77266997D01*
X88066756Y-77266997D01*
X88066766Y-77266994D01*
X88342484Y-77115416D01*
X88597030Y-76930478D01*
X88826390Y-76715094D01*
X89026947Y-76472663D01*
X89195537Y-76207007D01*
X89253272Y-76084315D01*
X89263302Y-76063000D01*
X89309657Y-76010722D01*
X89376917Y-75991805D01*
X89443727Y-76012254D01*
X89488876Y-76065578D01*
X89499500Y-76115797D01*
X89499500Y-149375500D01*
X89479815Y-149442539D01*
X89427011Y-149488294D01*
X89375500Y-149499500D01*
X71554749Y-149499500D01*
X71487710Y-149479815D01*
X71441955Y-149427011D01*
X71432011Y-149357853D01*
X71461036Y-149294297D01*
X71516431Y-149257569D01*
X71624238Y-149222539D01*
X71839519Y-149112847D01*
X72034982Y-148970835D01*
X72034988Y-148970830D01*
X72205830Y-148799988D01*
X72205835Y-148799982D01*
X72347847Y-148604519D01*
X72457539Y-148389240D01*
X72486536Y-148300000D01*
X70985808Y-148300000D01*
X71045958Y-148239850D01*
X71121470Y-148126838D01*
X71173484Y-148001266D01*
X71200000Y-147867959D01*
X71200000Y-147732041D01*
X71173484Y-147598734D01*
X71121470Y-147473162D01*
X71045958Y-147360150D01*
X70985808Y-147300000D01*
X72486535Y-147300000D01*
X72457539Y-147210759D01*
X72347847Y-146995480D01*
X72205835Y-146800017D01*
X72205830Y-146800011D01*
X72034988Y-146629169D01*
X72034982Y-146629164D01*
X71839519Y-146487152D01*
X71624238Y-146377460D01*
X71394447Y-146302796D01*
X71155812Y-146265000D01*
X70500000Y-146265000D01*
X70500000Y-147110000D01*
X69500000Y-147110000D01*
X69500000Y-146265000D01*
X68844188Y-146265000D01*
X68605552Y-146302796D01*
X68375761Y-146377460D01*
X68160480Y-146487152D01*
X67965017Y-146629164D01*
X67965011Y-146629169D01*
X67794169Y-146800011D01*
X67794164Y-146800017D01*
X67652152Y-146995480D01*
X67542460Y-147210759D01*
X67513464Y-147300000D01*
X69014192Y-147300000D01*
X68954042Y-147360150D01*
X68878530Y-147473162D01*
X68826516Y-147598734D01*
X68800000Y-147732041D01*
X68800000Y-147867959D01*
X68826516Y-148001266D01*
X68878530Y-148126838D01*
X68954042Y-148239850D01*
X69014192Y-148300000D01*
X67513464Y-148300000D01*
X67542460Y-148389240D01*
X67652152Y-148604519D01*
X67794164Y-148799982D01*
X67794169Y-148799988D01*
X67965011Y-148970830D01*
X67965017Y-148970835D01*
X68160480Y-149112847D01*
X68375761Y-149222539D01*
X68483569Y-149257569D01*
X68541245Y-149297007D01*
X68568443Y-149361365D01*
X68556528Y-149430212D01*
X68509284Y-149481687D01*
X68445251Y-149499500D01*
X50624500Y-149499500D01*
X50557461Y-149479815D01*
X50511706Y-149427011D01*
X50500500Y-149375500D01*
X50500500Y-145785258D01*
X59249500Y-145785258D01*
X59249500Y-146014741D01*
X59274446Y-146204215D01*
X59279452Y-146242238D01*
X59315684Y-146377460D01*
X59338842Y-146463887D01*
X59426650Y-146675876D01*
X59426657Y-146675890D01*
X59541392Y-146874617D01*
X59681081Y-147056661D01*
X59681089Y-147056670D01*
X59843330Y-147218911D01*
X59843338Y-147218918D01*
X60025382Y-147358607D01*
X60025385Y-147358608D01*
X60025388Y-147358611D01*
X60224112Y-147473344D01*
X60224117Y-147473346D01*
X60224123Y-147473349D01*
X60315480Y-147511190D01*
X60436113Y-147561158D01*
X60657762Y-147620548D01*
X60885266Y-147650500D01*
X60885273Y-147650500D01*
X61114727Y-147650500D01*
X61114734Y-147650500D01*
X61342238Y-147620548D01*
X61563887Y-147561158D01*
X61775888Y-147473344D01*
X61974612Y-147358611D01*
X62156661Y-147218919D01*
X62156665Y-147218914D01*
X62156670Y-147218911D01*
X62318911Y-147056670D01*
X62318914Y-147056665D01*
X62318919Y-147056661D01*
X62458611Y-146874612D01*
X62573344Y-146675888D01*
X62661158Y-146463887D01*
X62720548Y-146242238D01*
X62750500Y-146014734D01*
X62750500Y-145785266D01*
X62750499Y-145785258D01*
X77249500Y-145785258D01*
X77249500Y-146014741D01*
X77274446Y-146204215D01*
X77279452Y-146242238D01*
X77315684Y-146377460D01*
X77338842Y-146463887D01*
X77426650Y-146675876D01*
X77426657Y-146675890D01*
X77541392Y-146874617D01*
X77681081Y-147056661D01*
X77681089Y-147056670D01*
X77843330Y-147218911D01*
X77843338Y-147218918D01*
X78025382Y-147358607D01*
X78025385Y-147358608D01*
X78025388Y-147358611D01*
X78224112Y-147473344D01*
X78224117Y-147473346D01*
X78224123Y-147473349D01*
X78315480Y-147511190D01*
X78436113Y-147561158D01*
X78657762Y-147620548D01*
X78885266Y-147650500D01*
X78885273Y-147650500D01*
X79114727Y-147650500D01*
X79114734Y-147650500D01*
X79342238Y-147620548D01*
X79563887Y-147561158D01*
X79775888Y-147473344D01*
X79974612Y-147358611D01*
X80156661Y-147218919D01*
X80156665Y-147218914D01*
X80156670Y-147218911D01*
X80318911Y-147056670D01*
X80318914Y-147056665D01*
X80318919Y-147056661D01*
X80458611Y-146874612D01*
X80573344Y-146675888D01*
X80661158Y-146463887D01*
X80720548Y-146242238D01*
X80750500Y-146014734D01*
X80750500Y-145785266D01*
X80720548Y-145557762D01*
X80661158Y-145336113D01*
X80587634Y-145158611D01*
X80573349Y-145124123D01*
X80573346Y-145124117D01*
X80573344Y-145124112D01*
X80458611Y-144925388D01*
X80458608Y-144925385D01*
X80458607Y-144925382D01*
X80318918Y-144743338D01*
X80318911Y-144743330D01*
X80156670Y-144581089D01*
X80156661Y-144581081D01*
X79974617Y-144441392D01*
X79775890Y-144326657D01*
X79775876Y-144326650D01*
X79563887Y-144238842D01*
X79342238Y-144179452D01*
X79304215Y-144174446D01*
X79114741Y-144149500D01*
X79114734Y-144149500D01*
X78885266Y-144149500D01*
X78885258Y-144149500D01*
X78668715Y-144178009D01*
X78657762Y-144179452D01*
X78564076Y-144204554D01*
X78436112Y-144238842D01*
X78224123Y-144326650D01*
X78224109Y-144326657D01*
X78025382Y-144441392D01*
X77843338Y-144581081D01*
X77681081Y-144743338D01*
X77541392Y-144925382D01*
X77426657Y-145124109D01*
X77426650Y-145124123D01*
X77338842Y-145336112D01*
X77279453Y-145557759D01*
X77279451Y-145557770D01*
X77249500Y-145785258D01*
X62750499Y-145785258D01*
X62720548Y-145557762D01*
X62661158Y-145336113D01*
X62587634Y-145158611D01*
X62573349Y-145124123D01*
X62573346Y-145124117D01*
X62573344Y-145124112D01*
X62458611Y-144925388D01*
X62458608Y-144925385D01*
X62458607Y-144925382D01*
X62318918Y-144743338D01*
X62318911Y-144743330D01*
X62156670Y-144581089D01*
X62156661Y-144581081D01*
X61974617Y-144441392D01*
X61775890Y-144326657D01*
X61775876Y-144326650D01*
X61563887Y-144238842D01*
X61342238Y-144179452D01*
X61304215Y-144174446D01*
X61114741Y-144149500D01*
X61114734Y-144149500D01*
X60885266Y-144149500D01*
X60885258Y-144149500D01*
X60668715Y-144178009D01*
X60657762Y-144179452D01*
X60564076Y-144204554D01*
X60436112Y-144238842D01*
X60224123Y-144326650D01*
X60224109Y-144326657D01*
X60025382Y-144441392D01*
X59843338Y-144581081D01*
X59681081Y-144743338D01*
X59541392Y-144925382D01*
X59426657Y-145124109D01*
X59426650Y-145124123D01*
X59338842Y-145336112D01*
X59279453Y-145557759D01*
X59279451Y-145557770D01*
X59249500Y-145785258D01*
X50500500Y-145785258D01*
X50500500Y-143585258D01*
X64249500Y-143585258D01*
X64249500Y-143814741D01*
X64274446Y-144004215D01*
X64279452Y-144042238D01*
X64316218Y-144179451D01*
X64338842Y-144263887D01*
X64426650Y-144475876D01*
X64426657Y-144475890D01*
X64541392Y-144674617D01*
X64681081Y-144856661D01*
X64681089Y-144856670D01*
X64843330Y-145018911D01*
X64843338Y-145018918D01*
X65025382Y-145158607D01*
X65025385Y-145158608D01*
X65025388Y-145158611D01*
X65224112Y-145273344D01*
X65224117Y-145273346D01*
X65224123Y-145273349D01*
X65315480Y-145311190D01*
X65436113Y-145361158D01*
X65657762Y-145420548D01*
X65885266Y-145450500D01*
X65885273Y-145450500D01*
X66114727Y-145450500D01*
X66114734Y-145450500D01*
X66342238Y-145420548D01*
X66563887Y-145361158D01*
X66775888Y-145273344D01*
X66974612Y-145158611D01*
X67156661Y-145018919D01*
X67156665Y-145018914D01*
X67156670Y-145018911D01*
X67318911Y-144856670D01*
X67318914Y-144856665D01*
X67318919Y-144856661D01*
X67458611Y-144674612D01*
X67573344Y-144475888D01*
X67661158Y-144263887D01*
X67720548Y-144042238D01*
X67750500Y-143814734D01*
X67750500Y-143585266D01*
X67750499Y-143585258D01*
X82249500Y-143585258D01*
X82249500Y-143814741D01*
X82274446Y-144004215D01*
X82279452Y-144042238D01*
X82316218Y-144179451D01*
X82338842Y-144263887D01*
X82426650Y-144475876D01*
X82426657Y-144475890D01*
X82541392Y-144674617D01*
X82681081Y-144856661D01*
X82681089Y-144856670D01*
X82843330Y-145018911D01*
X82843338Y-145018918D01*
X83025382Y-145158607D01*
X83025385Y-145158608D01*
X83025388Y-145158611D01*
X83224112Y-145273344D01*
X83224117Y-145273346D01*
X83224123Y-145273349D01*
X83315480Y-145311190D01*
X83436113Y-145361158D01*
X83657762Y-145420548D01*
X83885266Y-145450500D01*
X83885273Y-145450500D01*
X84114727Y-145450500D01*
X84114734Y-145450500D01*
X84342238Y-145420548D01*
X84563887Y-145361158D01*
X84775888Y-145273344D01*
X84974612Y-145158611D01*
X85156661Y-145018919D01*
X85156665Y-145018914D01*
X85156670Y-145018911D01*
X85318911Y-144856670D01*
X85318914Y-144856665D01*
X85318919Y-144856661D01*
X85458611Y-144674612D01*
X85573344Y-144475888D01*
X85661158Y-144263887D01*
X85720548Y-144042238D01*
X85750500Y-143814734D01*
X85750500Y-143585266D01*
X85720548Y-143357762D01*
X85661158Y-143136113D01*
X85573344Y-142924112D01*
X85458611Y-142725388D01*
X85458608Y-142725385D01*
X85458607Y-142725382D01*
X85318918Y-142543338D01*
X85318911Y-142543330D01*
X85156670Y-142381089D01*
X85156661Y-142381081D01*
X84974617Y-142241392D01*
X84775890Y-142126657D01*
X84775876Y-142126650D01*
X84563887Y-142038842D01*
X84342238Y-141979452D01*
X84304215Y-141974446D01*
X84114741Y-141949500D01*
X84114734Y-141949500D01*
X83885266Y-141949500D01*
X83885258Y-141949500D01*
X83668715Y-141978009D01*
X83657762Y-141979452D01*
X83564076Y-142004554D01*
X83436112Y-142038842D01*
X83224123Y-142126650D01*
X83224109Y-142126657D01*
X83025382Y-142241392D01*
X82843338Y-142381081D01*
X82681081Y-142543338D01*
X82541392Y-142725382D01*
X82426657Y-142924109D01*
X82426650Y-142924123D01*
X82338842Y-143136112D01*
X82279453Y-143357759D01*
X82279451Y-143357770D01*
X82249500Y-143585258D01*
X67750499Y-143585258D01*
X67720548Y-143357762D01*
X67661158Y-143136113D01*
X67573344Y-142924112D01*
X67458611Y-142725388D01*
X67458608Y-142725385D01*
X67458607Y-142725382D01*
X67318918Y-142543338D01*
X67318911Y-142543330D01*
X67156670Y-142381089D01*
X67156661Y-142381081D01*
X66974617Y-142241392D01*
X66775890Y-142126657D01*
X66775876Y-142126650D01*
X66563887Y-142038842D01*
X66342238Y-141979452D01*
X66304215Y-141974446D01*
X66114741Y-141949500D01*
X66114734Y-141949500D01*
X65885266Y-141949500D01*
X65885258Y-141949500D01*
X65668715Y-141978009D01*
X65657762Y-141979452D01*
X65564076Y-142004554D01*
X65436112Y-142038842D01*
X65224123Y-142126650D01*
X65224109Y-142126657D01*
X65025382Y-142241392D01*
X64843338Y-142381081D01*
X64681081Y-142543338D01*
X64541392Y-142725382D01*
X64426657Y-142924109D01*
X64426650Y-142924123D01*
X64338842Y-143136112D01*
X64279453Y-143357759D01*
X64279451Y-143357770D01*
X64249500Y-143585258D01*
X50500500Y-143585258D01*
X50500500Y-139851146D01*
X58349500Y-139851146D01*
X58349500Y-140148853D01*
X58382830Y-140444662D01*
X58382832Y-140444674D01*
X58449076Y-140734912D01*
X58449079Y-140734920D01*
X58547400Y-141015904D01*
X58676563Y-141284114D01*
X58676565Y-141284117D01*
X58834950Y-141536185D01*
X59020562Y-141768934D01*
X59231066Y-141979438D01*
X59463815Y-142165050D01*
X59715883Y-142323435D01*
X59984099Y-142452601D01*
X60195135Y-142526445D01*
X60265079Y-142550920D01*
X60265087Y-142550923D01*
X60265090Y-142550923D01*
X60265091Y-142550924D01*
X60555325Y-142617168D01*
X60851147Y-142650499D01*
X60851148Y-142650500D01*
X60851151Y-142650500D01*
X61148852Y-142650500D01*
X61148852Y-142650499D01*
X61444675Y-142617168D01*
X61734909Y-142550924D01*
X62015901Y-142452601D01*
X62284117Y-142323435D01*
X62536185Y-142165050D01*
X62768934Y-141979438D01*
X62979438Y-141768934D01*
X63165050Y-141536185D01*
X63323435Y-141284117D01*
X63452601Y-141015901D01*
X63550924Y-140734909D01*
X63617168Y-140444675D01*
X63650500Y-140148849D01*
X63650500Y-139851151D01*
X63617168Y-139555325D01*
X63550924Y-139265091D01*
X63452601Y-138984099D01*
X63406665Y-138888711D01*
X68149500Y-138888711D01*
X68149500Y-139131288D01*
X68181161Y-139371785D01*
X68243947Y-139606104D01*
X68336773Y-139830205D01*
X68336776Y-139830212D01*
X68458064Y-140040289D01*
X68458066Y-140040292D01*
X68458067Y-140040293D01*
X68605733Y-140232736D01*
X68605739Y-140232743D01*
X68777256Y-140404260D01*
X68777263Y-140404266D01*
X68829924Y-140444674D01*
X68969711Y-140551936D01*
X69179788Y-140673224D01*
X69403900Y-140766054D01*
X69638211Y-140828838D01*
X69818586Y-140852584D01*
X69878711Y-140860500D01*
X69878712Y-140860500D01*
X70121289Y-140860500D01*
X70169388Y-140854167D01*
X70361789Y-140828838D01*
X70596100Y-140766054D01*
X70820212Y-140673224D01*
X71030289Y-140551936D01*
X71222738Y-140404265D01*
X71394265Y-140232738D01*
X71541936Y-140040289D01*
X71651138Y-139851146D01*
X76349500Y-139851146D01*
X76349500Y-140148853D01*
X76382830Y-140444662D01*
X76382832Y-140444674D01*
X76449076Y-140734912D01*
X76449079Y-140734920D01*
X76547400Y-141015904D01*
X76676563Y-141284114D01*
X76676565Y-141284117D01*
X76834950Y-141536185D01*
X77020562Y-141768934D01*
X77231066Y-141979438D01*
X77463815Y-142165050D01*
X77715883Y-142323435D01*
X77984099Y-142452601D01*
X78195135Y-142526445D01*
X78265079Y-142550920D01*
X78265087Y-142550923D01*
X78265090Y-142550923D01*
X78265091Y-142550924D01*
X78555325Y-142617168D01*
X78851147Y-142650499D01*
X78851148Y-142650500D01*
X78851151Y-142650500D01*
X79148852Y-142650500D01*
X79148852Y-142650499D01*
X79444675Y-142617168D01*
X79734909Y-142550924D01*
X80015901Y-142452601D01*
X80284117Y-142323435D01*
X80536185Y-142165050D01*
X80768934Y-141979438D01*
X80979438Y-141768934D01*
X81165050Y-141536185D01*
X81323435Y-141284117D01*
X81452601Y-141015901D01*
X81550924Y-140734909D01*
X81617168Y-140444675D01*
X81650500Y-140148849D01*
X81650500Y-139851151D01*
X81617168Y-139555325D01*
X81550924Y-139265091D01*
X81452601Y-138984099D01*
X81323435Y-138715883D01*
X81165050Y-138463815D01*
X80979438Y-138231066D01*
X80768934Y-138020562D01*
X80536185Y-137834950D01*
X80284117Y-137676565D01*
X80284114Y-137676563D01*
X80015904Y-137547400D01*
X79734920Y-137449079D01*
X79734912Y-137449076D01*
X79517233Y-137399393D01*
X79444675Y-137382832D01*
X79444671Y-137382831D01*
X79444662Y-137382830D01*
X79148853Y-137349500D01*
X79148849Y-137349500D01*
X78851151Y-137349500D01*
X78851146Y-137349500D01*
X78555337Y-137382830D01*
X78555325Y-137382832D01*
X78265087Y-137449076D01*
X78265079Y-137449079D01*
X77984095Y-137547400D01*
X77715885Y-137676563D01*
X77463816Y-137834949D01*
X77231066Y-138020561D01*
X77020561Y-138231066D01*
X76834949Y-138463816D01*
X76676563Y-138715885D01*
X76547400Y-138984095D01*
X76449079Y-139265079D01*
X76449076Y-139265087D01*
X76382832Y-139555325D01*
X76382830Y-139555337D01*
X76349500Y-139851146D01*
X71651138Y-139851146D01*
X71663224Y-139830212D01*
X71756054Y-139606100D01*
X71818838Y-139371789D01*
X71850500Y-139131288D01*
X71850500Y-138888712D01*
X71818838Y-138648211D01*
X71756054Y-138413900D01*
X71663224Y-138189788D01*
X71541936Y-137979711D01*
X71430857Y-137834950D01*
X71394266Y-137787263D01*
X71394260Y-137787256D01*
X71222743Y-137615739D01*
X71222736Y-137615733D01*
X71030293Y-137468067D01*
X71030292Y-137468066D01*
X71030289Y-137468064D01*
X70820212Y-137346776D01*
X70820205Y-137346773D01*
X70596104Y-137253947D01*
X70361785Y-137191161D01*
X70121289Y-137159500D01*
X70121288Y-137159500D01*
X69878712Y-137159500D01*
X69878711Y-137159500D01*
X69638214Y-137191161D01*
X69403895Y-137253947D01*
X69179794Y-137346773D01*
X69179785Y-137346777D01*
X68969706Y-137468067D01*
X68777263Y-137615733D01*
X68777256Y-137615739D01*
X68605739Y-137787256D01*
X68605733Y-137787263D01*
X68458067Y-137979706D01*
X68336777Y-138189785D01*
X68336773Y-138189794D01*
X68243947Y-138413895D01*
X68181161Y-138648214D01*
X68149500Y-138888711D01*
X63406665Y-138888711D01*
X63323435Y-138715883D01*
X63165050Y-138463815D01*
X62979438Y-138231066D01*
X62768934Y-138020562D01*
X62536185Y-137834950D01*
X62284117Y-137676565D01*
X62284114Y-137676563D01*
X62015904Y-137547400D01*
X61734920Y-137449079D01*
X61734912Y-137449076D01*
X61517233Y-137399393D01*
X61444675Y-137382832D01*
X61444671Y-137382831D01*
X61444662Y-137382830D01*
X61148853Y-137349500D01*
X61148849Y-137349500D01*
X60851151Y-137349500D01*
X60851146Y-137349500D01*
X60555337Y-137382830D01*
X60555325Y-137382832D01*
X60265087Y-137449076D01*
X60265079Y-137449079D01*
X59984095Y-137547400D01*
X59715885Y-137676563D01*
X59463816Y-137834949D01*
X59231066Y-138020561D01*
X59020561Y-138231066D01*
X58834949Y-138463816D01*
X58676563Y-138715885D01*
X58547400Y-138984095D01*
X58449079Y-139265079D01*
X58449076Y-139265087D01*
X58382832Y-139555325D01*
X58382830Y-139555337D01*
X58349500Y-139851146D01*
X50500500Y-139851146D01*
X50500500Y-134450000D01*
X54994659Y-134450000D01*
X55013975Y-134646129D01*
X55071188Y-134834733D01*
X55164086Y-135008532D01*
X55164090Y-135008539D01*
X55289116Y-135160883D01*
X55441460Y-135285909D01*
X55441467Y-135285913D01*
X55615266Y-135378811D01*
X55615269Y-135378811D01*
X55615273Y-135378814D01*
X55803868Y-135436024D01*
X56000000Y-135455341D01*
X56196132Y-135436024D01*
X56384727Y-135378814D01*
X56558538Y-135285910D01*
X56710883Y-135160883D01*
X56835910Y-135008538D01*
X56928814Y-134834727D01*
X56986024Y-134646132D01*
X57005341Y-134450000D01*
X56986024Y-134253868D01*
X56928814Y-134065273D01*
X56928811Y-134065269D01*
X56928811Y-134065266D01*
X56835913Y-133891467D01*
X56835909Y-133891460D01*
X56710883Y-133739116D01*
X56558539Y-133614090D01*
X56558532Y-133614086D01*
X56384733Y-133521188D01*
X56384727Y-133521186D01*
X56305897Y-133497273D01*
X59049500Y-133497273D01*
X59049500Y-136497273D01*
X59049500Y-136602727D01*
X59076793Y-136704587D01*
X59129520Y-136795913D01*
X59204087Y-136870480D01*
X59295413Y-136923207D01*
X59397273Y-136950500D01*
X59397275Y-136950500D01*
X62702725Y-136950500D01*
X62702727Y-136950500D01*
X62804587Y-136923207D01*
X62895913Y-136870480D01*
X62970480Y-136795913D01*
X63023207Y-136704587D01*
X63050500Y-136602727D01*
X63050500Y-133497273D01*
X63023207Y-133395413D01*
X62970480Y-133304087D01*
X62895913Y-133229520D01*
X62804587Y-133176793D01*
X62702727Y-133149500D01*
X59502727Y-133149500D01*
X59397273Y-133149500D01*
X59295413Y-133176793D01*
X59295410Y-133176794D01*
X59204085Y-133229521D01*
X59129521Y-133304085D01*
X59076794Y-133395410D01*
X59076793Y-133395413D01*
X59049500Y-133497273D01*
X56305897Y-133497273D01*
X56196132Y-133463976D01*
X56196129Y-133463975D01*
X56000000Y-133444659D01*
X55803870Y-133463975D01*
X55615266Y-133521188D01*
X55441467Y-133614086D01*
X55441460Y-133614090D01*
X55289116Y-133739116D01*
X55164090Y-133891460D01*
X55164086Y-133891467D01*
X55071188Y-134065266D01*
X55013975Y-134253870D01*
X54994659Y-134450000D01*
X50500500Y-134450000D01*
X50500500Y-121851146D01*
X58349500Y-121851146D01*
X58349500Y-122148853D01*
X58382830Y-122444662D01*
X58382832Y-122444674D01*
X58449076Y-122734912D01*
X58449079Y-122734920D01*
X58547400Y-123015904D01*
X58676563Y-123284114D01*
X58676565Y-123284117D01*
X58834950Y-123536185D01*
X58973424Y-123709825D01*
X59009333Y-123754854D01*
X59020562Y-123768934D01*
X59231066Y-123979438D01*
X59463815Y-124165050D01*
X59715883Y-124323435D01*
X59984099Y-124452601D01*
X60195135Y-124526445D01*
X60265079Y-124550920D01*
X60265087Y-124550923D01*
X60265090Y-124550923D01*
X60265091Y-124550924D01*
X60555325Y-124617168D01*
X60851147Y-124650499D01*
X60851148Y-124650500D01*
X60851151Y-124650500D01*
X61148852Y-124650500D01*
X61148852Y-124650499D01*
X61444675Y-124617168D01*
X61734909Y-124550924D01*
X62015901Y-124452601D01*
X62284117Y-124323435D01*
X62536185Y-124165050D01*
X62768934Y-123979438D01*
X62979438Y-123768934D01*
X63165050Y-123536185D01*
X63323435Y-123284117D01*
X63452601Y-123015901D01*
X63550924Y-122734909D01*
X63617168Y-122444675D01*
X63650500Y-122148849D01*
X63650500Y-121851151D01*
X63617168Y-121555325D01*
X63550924Y-121265091D01*
X63452601Y-120984099D01*
X63323435Y-120715883D01*
X63165050Y-120463815D01*
X62979438Y-120231066D01*
X62768934Y-120020562D01*
X62536185Y-119834950D01*
X62284117Y-119676565D01*
X62284114Y-119676563D01*
X62015904Y-119547400D01*
X61734920Y-119449079D01*
X61734912Y-119449076D01*
X61517233Y-119399393D01*
X61444675Y-119382832D01*
X61444671Y-119382831D01*
X61444662Y-119382830D01*
X61148853Y-119349500D01*
X61148849Y-119349500D01*
X60851151Y-119349500D01*
X60851146Y-119349500D01*
X60555337Y-119382830D01*
X60555325Y-119382832D01*
X60265087Y-119449076D01*
X60265079Y-119449079D01*
X59984095Y-119547400D01*
X59715885Y-119676563D01*
X59463816Y-119834949D01*
X59231066Y-120020561D01*
X59020561Y-120231066D01*
X58834949Y-120463816D01*
X58676563Y-120715885D01*
X58547400Y-120984095D01*
X58449079Y-121265079D01*
X58449076Y-121265087D01*
X58382832Y-121555325D01*
X58382830Y-121555337D01*
X58349500Y-121851146D01*
X50500500Y-121851146D01*
X50500500Y-116450000D01*
X54994659Y-116450000D01*
X55013975Y-116646129D01*
X55071188Y-116834733D01*
X55164086Y-117008532D01*
X55164090Y-117008539D01*
X55289116Y-117160883D01*
X55441460Y-117285909D01*
X55441467Y-117285913D01*
X55615266Y-117378811D01*
X55615269Y-117378811D01*
X55615273Y-117378814D01*
X55803868Y-117436024D01*
X56000000Y-117455341D01*
X56196132Y-117436024D01*
X56384727Y-117378814D01*
X56558538Y-117285910D01*
X56710883Y-117160883D01*
X56835910Y-117008538D01*
X56928814Y-116834727D01*
X56986024Y-116646132D01*
X57005341Y-116450000D01*
X56986024Y-116253868D01*
X56928814Y-116065273D01*
X56928811Y-116065269D01*
X56928811Y-116065266D01*
X56835913Y-115891467D01*
X56835909Y-115891460D01*
X56710883Y-115739116D01*
X56558539Y-115614090D01*
X56558532Y-115614086D01*
X56384733Y-115521188D01*
X56384727Y-115521186D01*
X56196132Y-115463976D01*
X56196129Y-115463975D01*
X56026542Y-115447273D01*
X58999500Y-115447273D01*
X58999500Y-118447273D01*
X58999500Y-118552727D01*
X59026793Y-118654587D01*
X59079520Y-118745913D01*
X59154087Y-118820480D01*
X59245413Y-118873207D01*
X59347273Y-118900500D01*
X59347275Y-118900500D01*
X62652725Y-118900500D01*
X62652727Y-118900500D01*
X62754587Y-118873207D01*
X62845913Y-118820480D01*
X62920480Y-118745913D01*
X62973207Y-118654587D01*
X63000500Y-118552727D01*
X63000500Y-115447273D01*
X62973207Y-115345413D01*
X62920480Y-115254087D01*
X62845913Y-115179520D01*
X62754587Y-115126793D01*
X62652727Y-115099500D01*
X59452727Y-115099500D01*
X59347273Y-115099500D01*
X59245413Y-115126793D01*
X59245410Y-115126794D01*
X59154085Y-115179521D01*
X59079521Y-115254085D01*
X59026794Y-115345410D01*
X59026793Y-115345413D01*
X58999500Y-115447273D01*
X56026542Y-115447273D01*
X56000000Y-115444659D01*
X55803870Y-115463975D01*
X55615266Y-115521188D01*
X55441467Y-115614086D01*
X55441460Y-115614090D01*
X55289116Y-115739116D01*
X55164090Y-115891460D01*
X55164086Y-115891467D01*
X55071188Y-116065266D01*
X55013975Y-116253870D01*
X54994659Y-116450000D01*
X50500500Y-116450000D01*
X50500500Y-90450000D01*
X55994659Y-90450000D01*
X56013975Y-90646129D01*
X56071188Y-90834733D01*
X56164086Y-91008532D01*
X56164090Y-91008539D01*
X56289116Y-91160883D01*
X56441460Y-91285909D01*
X56441467Y-91285913D01*
X56615266Y-91378811D01*
X56615269Y-91378811D01*
X56615273Y-91378814D01*
X56803868Y-91436024D01*
X57000000Y-91455341D01*
X57196132Y-91436024D01*
X57227157Y-91426612D01*
X57252283Y-91418991D01*
X57322150Y-91418367D01*
X57381263Y-91455615D01*
X57410854Y-91518909D01*
X57412279Y-91537651D01*
X57412279Y-95417366D01*
X57393273Y-95483338D01*
X57311990Y-95612697D01*
X57252410Y-95782966D01*
X57252409Y-95782971D01*
X57232214Y-95962217D01*
X57232214Y-95962224D01*
X57252409Y-96141470D01*
X57252410Y-96141475D01*
X57311990Y-96311744D01*
X57395509Y-96444662D01*
X57407963Y-96464483D01*
X57535517Y-96592037D01*
X57688257Y-96688010D01*
X57822287Y-96734909D01*
X57858524Y-96747589D01*
X57858529Y-96747590D01*
X58037775Y-96767786D01*
X58037779Y-96767786D01*
X58037783Y-96767786D01*
X58217028Y-96747590D01*
X58217031Y-96747589D01*
X58217034Y-96747589D01*
X58387301Y-96688010D01*
X58540041Y-96592037D01*
X58667595Y-96464483D01*
X58763568Y-96311743D01*
X58823147Y-96141476D01*
X58823323Y-96139917D01*
X58843344Y-95962224D01*
X58843344Y-95962217D01*
X58830829Y-95851146D01*
X59349500Y-95851146D01*
X59349500Y-96148853D01*
X59382830Y-96444662D01*
X59382832Y-96444674D01*
X59449076Y-96734912D01*
X59449079Y-96734920D01*
X59547400Y-97015904D01*
X59676563Y-97284114D01*
X59676565Y-97284117D01*
X59834950Y-97536185D01*
X60020562Y-97768934D01*
X60231066Y-97979438D01*
X60463815Y-98165050D01*
X60669205Y-98294105D01*
X60715885Y-98323436D01*
X60734935Y-98332610D01*
X60984099Y-98452601D01*
X61195135Y-98526445D01*
X61265079Y-98550920D01*
X61265087Y-98550923D01*
X61265090Y-98550923D01*
X61265091Y-98550924D01*
X61555325Y-98617168D01*
X61851147Y-98650499D01*
X61851148Y-98650500D01*
X61851151Y-98650500D01*
X62148852Y-98650500D01*
X62148852Y-98650499D01*
X62444675Y-98617168D01*
X62734909Y-98550924D01*
X63015901Y-98452601D01*
X63284117Y-98323435D01*
X63536185Y-98165050D01*
X63768934Y-97979438D01*
X63979438Y-97768934D01*
X64165050Y-97536185D01*
X64323435Y-97284117D01*
X64452601Y-97015901D01*
X64550924Y-96734909D01*
X64617168Y-96444675D01*
X64650500Y-96148849D01*
X64650500Y-95851151D01*
X64617168Y-95555325D01*
X64550924Y-95265091D01*
X64452601Y-94984099D01*
X64323435Y-94715883D01*
X64165050Y-94463815D01*
X63979438Y-94231066D01*
X63768934Y-94020562D01*
X63536185Y-93834950D01*
X63284117Y-93676565D01*
X63284114Y-93676563D01*
X63015904Y-93547400D01*
X62734920Y-93449079D01*
X62734912Y-93449076D01*
X62517233Y-93399393D01*
X62444675Y-93382832D01*
X62444671Y-93382831D01*
X62444662Y-93382830D01*
X62148853Y-93349500D01*
X62148849Y-93349500D01*
X61851151Y-93349500D01*
X61851146Y-93349500D01*
X61555337Y-93382830D01*
X61555325Y-93382832D01*
X61265087Y-93449076D01*
X61265079Y-93449079D01*
X60984095Y-93547400D01*
X60715885Y-93676563D01*
X60463816Y-93834949D01*
X60231066Y-94020561D01*
X60020561Y-94231066D01*
X59834949Y-94463816D01*
X59676563Y-94715885D01*
X59547400Y-94984095D01*
X59449079Y-95265079D01*
X59449076Y-95265087D01*
X59382832Y-95555325D01*
X59382830Y-95555337D01*
X59349500Y-95851146D01*
X58830829Y-95851146D01*
X58823148Y-95782971D01*
X58823147Y-95782966D01*
X58766314Y-95620548D01*
X58763568Y-95612699D01*
X58727517Y-95555325D01*
X58682285Y-95483338D01*
X58663279Y-95417366D01*
X58663279Y-89372273D01*
X59999500Y-89372273D01*
X59999500Y-92477726D01*
X60026793Y-92579586D01*
X60026794Y-92579589D01*
X60027660Y-92581089D01*
X60079520Y-92670913D01*
X60154087Y-92745480D01*
X60245413Y-92798207D01*
X60347273Y-92825500D01*
X60347275Y-92825500D01*
X63652725Y-92825500D01*
X63652727Y-92825500D01*
X63754587Y-92798207D01*
X63845913Y-92745480D01*
X63920480Y-92670913D01*
X63973207Y-92579587D01*
X64000500Y-92477727D01*
X64000500Y-89372273D01*
X63973207Y-89270413D01*
X63920480Y-89179087D01*
X63845913Y-89104520D01*
X63754587Y-89051793D01*
X63652727Y-89024500D01*
X60452727Y-89024500D01*
X60347273Y-89024500D01*
X60245413Y-89051793D01*
X60245410Y-89051794D01*
X60154085Y-89104521D01*
X60079521Y-89179085D01*
X60026794Y-89270410D01*
X60026793Y-89270413D01*
X59999500Y-89372273D01*
X58663279Y-89372273D01*
X58663279Y-87105520D01*
X58663280Y-87105499D01*
X58663280Y-86976170D01*
X58639242Y-86855329D01*
X58639242Y-86855328D01*
X58634938Y-86844936D01*
X58625500Y-86797485D01*
X58625500Y-86544854D01*
X58644507Y-86478881D01*
X58725788Y-86349524D01*
X58729171Y-86339857D01*
X58785368Y-86179255D01*
X58785369Y-86179249D01*
X58805565Y-86000003D01*
X58805565Y-85999996D01*
X58785369Y-85820750D01*
X58785368Y-85820745D01*
X58734917Y-85676565D01*
X58725789Y-85650478D01*
X58629816Y-85497738D01*
X58502262Y-85370184D01*
X58469344Y-85349500D01*
X58349523Y-85274211D01*
X58179254Y-85214631D01*
X58179249Y-85214630D01*
X58000004Y-85194435D01*
X57999996Y-85194435D01*
X57820750Y-85214630D01*
X57820745Y-85214631D01*
X57650476Y-85274211D01*
X57497737Y-85370184D01*
X57370184Y-85497737D01*
X57274211Y-85650476D01*
X57214631Y-85820745D01*
X57214630Y-85820750D01*
X57194435Y-85999996D01*
X57194435Y-86000003D01*
X57214630Y-86179249D01*
X57214631Y-86179254D01*
X57274211Y-86349524D01*
X57355493Y-86478881D01*
X57374500Y-86544854D01*
X57374500Y-87061611D01*
X57398535Y-87182443D01*
X57398538Y-87182455D01*
X57402840Y-87192840D01*
X57412279Y-87240292D01*
X57412279Y-89362349D01*
X57392594Y-89429388D01*
X57339790Y-89475143D01*
X57270632Y-89485087D01*
X57252283Y-89481009D01*
X57196134Y-89463976D01*
X57000000Y-89444659D01*
X56803870Y-89463975D01*
X56615266Y-89521188D01*
X56441467Y-89614086D01*
X56441460Y-89614090D01*
X56289116Y-89739116D01*
X56164090Y-89891460D01*
X56164086Y-89891467D01*
X56071188Y-90065266D01*
X56013975Y-90253870D01*
X55994659Y-90450000D01*
X50500500Y-90450000D01*
X50500500Y-76115797D01*
X50520185Y-76048758D01*
X50572989Y-76003003D01*
X50642147Y-75993059D01*
X50705703Y-76022084D01*
X50736698Y-76063000D01*
X50804461Y-76207003D01*
X50804464Y-76207009D01*
X50973051Y-76472661D01*
X50973054Y-76472665D01*
X51173606Y-76715090D01*
X51173608Y-76715092D01*
X51173610Y-76715094D01*
X51365068Y-76894885D01*
X51402968Y-76930476D01*
X51402978Y-76930484D01*
X51657504Y-77115408D01*
X51657509Y-77115410D01*
X51657516Y-77115416D01*
X51933234Y-77266994D01*
X51933239Y-77266996D01*
X51933241Y-77266997D01*
X51933242Y-77266998D01*
X52225771Y-77382818D01*
X52225774Y-77382819D01*
X52530523Y-77461065D01*
X52530527Y-77461066D01*
X52596010Y-77469338D01*
X52842670Y-77500499D01*
X52842679Y-77500499D01*
X52842682Y-77500500D01*
X52842684Y-77500500D01*
X53157316Y-77500500D01*
X53157318Y-77500500D01*
X53157321Y-77500499D01*
X53157329Y-77500499D01*
X53343593Y-77476968D01*
X53469473Y-77461066D01*
X53774225Y-77382819D01*
X53774228Y-77382818D01*
X54066757Y-77266998D01*
X54066758Y-77266997D01*
X54066756Y-77266997D01*
X54066766Y-77266994D01*
X54342484Y-77115416D01*
X54597030Y-76930478D01*
X54826390Y-76715094D01*
X55026947Y-76472663D01*
X55195537Y-76207007D01*
X55329503Y-75922315D01*
X55426731Y-75623079D01*
X55485688Y-75314015D01*
X55485689Y-75314004D01*
X55505444Y-75000005D01*
X55505444Y-74999994D01*
X55485689Y-74685995D01*
X55485688Y-74685988D01*
X55485688Y-74685985D01*
X55426731Y-74376921D01*
X55329503Y-74077685D01*
X55195537Y-73792993D01*
X55090062Y-73626791D01*
X55026948Y-73527338D01*
X55026945Y-73527334D01*
X54826393Y-73284909D01*
X54826391Y-73284907D01*
X54750236Y-73213392D01*
X54597030Y-73069522D01*
X54597027Y-73069520D01*
X54597021Y-73069515D01*
X54342495Y-72884591D01*
X54342488Y-72884586D01*
X54342484Y-72884584D01*
X54066766Y-72733006D01*
X54066763Y-72733004D01*
X54066758Y-72733002D01*
X54066757Y-72733001D01*
X53774228Y-72617181D01*
X53774225Y-72617180D01*
X53469476Y-72538934D01*
X53469463Y-72538932D01*
X53157329Y-72499500D01*
X53157318Y-72499500D01*
X52842682Y-72499500D01*
X52842670Y-72499500D01*
X52530536Y-72538932D01*
X52530523Y-72538934D01*
X52225774Y-72617180D01*
X52225771Y-72617181D01*
X51933242Y-72733001D01*
X51933241Y-72733002D01*
X51657516Y-72884584D01*
X51657504Y-72884591D01*
X51402978Y-73069515D01*
X51402968Y-73069523D01*
X51173608Y-73284907D01*
X51173606Y-73284909D01*
X50973054Y-73527334D01*
X50973051Y-73527338D01*
X50804464Y-73792990D01*
X50804460Y-73792996D01*
X50736698Y-73936999D01*
X50690343Y-73989277D01*
X50623083Y-74008194D01*
X50556273Y-73987745D01*
X50511124Y-73934421D01*
X50500500Y-73884202D01*
X50500500Y-65500000D01*
X56085219Y-65500000D01*
X56085494Y-65502694D01*
X56085495Y-65502701D01*
X56140641Y-65669119D01*
X56140643Y-65669124D01*
X56232684Y-65818345D01*
X56356654Y-65942315D01*
X56505875Y-66034356D01*
X56505880Y-66034358D01*
X56672302Y-66089505D01*
X56672309Y-66089506D01*
X56775019Y-66099999D01*
X56949999Y-66099999D01*
X56950000Y-66099998D01*
X56950000Y-65500000D01*
X56085219Y-65500000D01*
X50500500Y-65500000D01*
X50500500Y-62913389D01*
X56074500Y-62913389D01*
X56074500Y-63086611D01*
X56101598Y-63257701D01*
X56155127Y-63422445D01*
X56233768Y-63576788D01*
X56335586Y-63716928D01*
X56335588Y-63716930D01*
X56443491Y-63824833D01*
X56476976Y-63886156D01*
X56471992Y-63955848D01*
X56430120Y-64011781D01*
X56420907Y-64018053D01*
X56356654Y-64057684D01*
X56232684Y-64181654D01*
X56140643Y-64330875D01*
X56140641Y-64330880D01*
X56085495Y-64497298D01*
X56085494Y-64497305D01*
X56085219Y-64500000D01*
X57326000Y-64500000D01*
X57393039Y-64519685D01*
X57438794Y-64572489D01*
X57450000Y-64624000D01*
X57450000Y-64625000D01*
X57400630Y-64625000D01*
X57305255Y-64650556D01*
X57219745Y-64699925D01*
X57149925Y-64769745D01*
X57100556Y-64855255D01*
X57075000Y-64950630D01*
X57075000Y-65049370D01*
X57100556Y-65144745D01*
X57149925Y-65230255D01*
X57219745Y-65300075D01*
X57305255Y-65349444D01*
X57400630Y-65375000D01*
X57499370Y-65375000D01*
X57594745Y-65349444D01*
X57680255Y-65300075D01*
X57750075Y-65230255D01*
X57799444Y-65144745D01*
X57825000Y-65049370D01*
X57825000Y-65000000D01*
X57826000Y-65000000D01*
X57893039Y-65019685D01*
X57938794Y-65072489D01*
X57950000Y-65124000D01*
X57950000Y-66099999D01*
X58124972Y-66099999D01*
X58124986Y-66099998D01*
X58227697Y-66089505D01*
X58336496Y-66053453D01*
X58406324Y-66051051D01*
X58466366Y-66086783D01*
X58497559Y-66149303D01*
X58499500Y-66171159D01*
X58499500Y-71101283D01*
X58499500Y-71101285D01*
X58499499Y-71101285D01*
X58537947Y-71294571D01*
X58537950Y-71294581D01*
X58613364Y-71476649D01*
X58613371Y-71476662D01*
X58722860Y-71640523D01*
X58722863Y-71640527D01*
X58866537Y-71784201D01*
X58866559Y-71784221D01*
X60159115Y-73076777D01*
X60192600Y-73138100D01*
X60187616Y-73207792D01*
X60145744Y-73263725D01*
X60080280Y-73288142D01*
X60012007Y-73273290D01*
X59833166Y-73175635D01*
X59833167Y-73175635D01*
X59708506Y-73129139D01*
X59565046Y-73075631D01*
X59565043Y-73075630D01*
X59565037Y-73075628D01*
X59285433Y-73014804D01*
X59000001Y-72994390D01*
X58999999Y-72994390D01*
X58714566Y-73014804D01*
X58434962Y-73075628D01*
X58166833Y-73175635D01*
X57915690Y-73312770D01*
X57915682Y-73312775D01*
X57686612Y-73484254D01*
X57686594Y-73484270D01*
X57484270Y-73686594D01*
X57484254Y-73686612D01*
X57312775Y-73915682D01*
X57312770Y-73915690D01*
X57175635Y-74166833D01*
X57075628Y-74434962D01*
X57014804Y-74714566D01*
X56994390Y-74999998D01*
X56994390Y-75000001D01*
X57014804Y-75285433D01*
X57075628Y-75565037D01*
X57075630Y-75565043D01*
X57075631Y-75565046D01*
X57097278Y-75623083D01*
X57175635Y-75833166D01*
X57312770Y-76084309D01*
X57312775Y-76084317D01*
X57484254Y-76313387D01*
X57484270Y-76313405D01*
X57686594Y-76515729D01*
X57686612Y-76515745D01*
X57915682Y-76687224D01*
X57915690Y-76687229D01*
X58166833Y-76824364D01*
X58166832Y-76824364D01*
X58166836Y-76824365D01*
X58166839Y-76824367D01*
X58434954Y-76924369D01*
X58434960Y-76924370D01*
X58434962Y-76924371D01*
X58714566Y-76985195D01*
X58714568Y-76985195D01*
X58714572Y-76985196D01*
X58968220Y-77003337D01*
X58999999Y-77005610D01*
X59000000Y-77005610D01*
X59000001Y-77005610D01*
X59028595Y-77003564D01*
X59285428Y-76985196D01*
X59536964Y-76930478D01*
X59565037Y-76924371D01*
X59565037Y-76924370D01*
X59565046Y-76924369D01*
X59833161Y-76824367D01*
X60084315Y-76687226D01*
X60313395Y-76515739D01*
X60515739Y-76313395D01*
X60687226Y-76084315D01*
X60824367Y-75833161D01*
X60924369Y-75565046D01*
X60985196Y-75285428D01*
X61005610Y-75000000D01*
X60985196Y-74714572D01*
X60978979Y-74685995D01*
X60924371Y-74434962D01*
X60924370Y-74434960D01*
X60924369Y-74434954D01*
X60824367Y-74166839D01*
X60731625Y-73996996D01*
X60726709Y-73987992D01*
X60711857Y-73919719D01*
X60736274Y-73854255D01*
X60792207Y-73812383D01*
X60861899Y-73807399D01*
X60923222Y-73840884D01*
X62616993Y-75534655D01*
X62617022Y-75534686D01*
X62759472Y-75677136D01*
X62759476Y-75677139D01*
X62923340Y-75786630D01*
X62923342Y-75786630D01*
X62923344Y-75786632D01*
X63035676Y-75833161D01*
X63105422Y-75862051D01*
X63202070Y-75881275D01*
X63250393Y-75890887D01*
X63298716Y-75900500D01*
X63298717Y-75900500D01*
X63298718Y-75900500D01*
X63495798Y-75900500D01*
X67742613Y-75900500D01*
X67809652Y-75920185D01*
X67830294Y-75936819D01*
X67964690Y-76071215D01*
X67964695Y-76071219D01*
X68135241Y-76195126D01*
X68160223Y-76213277D01*
X68297441Y-76283193D01*
X68375568Y-76323002D01*
X68375570Y-76323002D01*
X68375573Y-76323004D01*
X68497720Y-76362692D01*
X68605435Y-76397691D01*
X68844149Y-76435500D01*
X68844154Y-76435500D01*
X71155851Y-76435500D01*
X71394564Y-76397691D01*
X71469933Y-76373202D01*
X71607182Y-76328606D01*
X71677023Y-76326612D01*
X71736856Y-76362692D01*
X71767684Y-76425393D01*
X71769500Y-76446538D01*
X71769500Y-81329901D01*
X71749815Y-81396940D01*
X71733181Y-81417582D01*
X71574214Y-81576548D01*
X71574215Y-81576549D01*
X71469480Y-81681284D01*
X71432417Y-81745480D01*
X71417045Y-81772103D01*
X71390422Y-81818215D01*
X71390421Y-81818218D01*
X71369290Y-81897079D01*
X71332925Y-81956739D01*
X71270078Y-81987267D01*
X71200702Y-81978972D01*
X71174030Y-81963360D01*
X71030293Y-81853067D01*
X71030292Y-81853066D01*
X71030289Y-81853064D01*
X70820212Y-81731776D01*
X70820205Y-81731773D01*
X70596104Y-81638947D01*
X70363233Y-81576549D01*
X70361789Y-81576162D01*
X70361788Y-81576161D01*
X70361785Y-81576161D01*
X70121289Y-81544500D01*
X70121288Y-81544500D01*
X69878712Y-81544500D01*
X69878711Y-81544500D01*
X69638214Y-81576161D01*
X69403895Y-81638947D01*
X69179794Y-81731773D01*
X69179785Y-81731777D01*
X68969706Y-81853067D01*
X68777263Y-82000733D01*
X68777256Y-82000739D01*
X68605739Y-82172256D01*
X68605733Y-82172263D01*
X68458067Y-82364706D01*
X68336777Y-82574785D01*
X68336773Y-82574794D01*
X68243947Y-82798895D01*
X68181161Y-83033214D01*
X68149500Y-83273711D01*
X68149500Y-83516288D01*
X68181161Y-83756785D01*
X68243947Y-83991104D01*
X68249297Y-84004019D01*
X68336776Y-84215212D01*
X68458064Y-84425289D01*
X68458066Y-84425292D01*
X68458067Y-84425293D01*
X68605733Y-84617736D01*
X68605739Y-84617743D01*
X68777256Y-84789260D01*
X68777263Y-84789266D01*
X68824483Y-84825499D01*
X68969711Y-84936936D01*
X69179788Y-85058224D01*
X69403900Y-85151054D01*
X69638211Y-85213838D01*
X69818586Y-85237584D01*
X69878711Y-85245500D01*
X69878712Y-85245500D01*
X70121289Y-85245500D01*
X70169388Y-85239167D01*
X70361789Y-85213838D01*
X70596100Y-85151054D01*
X70820212Y-85058224D01*
X71030289Y-84936936D01*
X71150014Y-84845068D01*
X71215183Y-84819874D01*
X71283628Y-84833912D01*
X71333617Y-84882726D01*
X71349500Y-84943444D01*
X71349500Y-86714548D01*
X71329815Y-86781587D01*
X71313181Y-86802229D01*
X68199953Y-89915456D01*
X68138630Y-89948941D01*
X68068938Y-89943957D01*
X68013005Y-89902085D01*
X67990655Y-89851966D01*
X67974139Y-89768934D01*
X67962051Y-89708165D01*
X67923083Y-89614086D01*
X67886635Y-89526092D01*
X67886628Y-89526079D01*
X67777139Y-89362218D01*
X67777136Y-89362214D01*
X67637785Y-89222863D01*
X67637781Y-89222860D01*
X67473920Y-89113371D01*
X67473907Y-89113364D01*
X67291839Y-89037950D01*
X67291829Y-89037947D01*
X67098543Y-88999500D01*
X67098541Y-88999500D01*
X66901459Y-88999500D01*
X66901457Y-88999500D01*
X66708170Y-89037947D01*
X66708160Y-89037950D01*
X66526092Y-89113364D01*
X66526079Y-89113371D01*
X66362218Y-89222860D01*
X66362214Y-89222863D01*
X66222863Y-89362214D01*
X66222860Y-89362218D01*
X66113371Y-89526079D01*
X66113364Y-89526092D01*
X66037950Y-89708160D01*
X66037947Y-89708170D01*
X65999500Y-89901456D01*
X65999500Y-96052236D01*
X65979815Y-96119275D01*
X65963181Y-96139917D01*
X64112220Y-97990878D01*
X64112218Y-97990880D01*
X64064256Y-98038842D01*
X63972859Y-98130238D01*
X63863371Y-98294099D01*
X63863364Y-98294112D01*
X63827342Y-98381080D01*
X63827342Y-98381081D01*
X63788889Y-98473915D01*
X63788884Y-98473927D01*
X63787949Y-98476182D01*
X63787946Y-98476192D01*
X63749500Y-98669473D01*
X63749500Y-100966449D01*
X63729815Y-101033488D01*
X63677011Y-101079243D01*
X63607853Y-101089187D01*
X63544297Y-101060162D01*
X63518113Y-101028449D01*
X63492601Y-100984261D01*
X63458611Y-100925388D01*
X63458608Y-100925385D01*
X63458607Y-100925382D01*
X63318918Y-100743338D01*
X63318911Y-100743330D01*
X63156670Y-100581089D01*
X63156661Y-100581081D01*
X62974617Y-100441392D01*
X62775890Y-100326657D01*
X62775876Y-100326650D01*
X62563887Y-100238842D01*
X62342238Y-100179452D01*
X62304215Y-100174446D01*
X62114741Y-100149500D01*
X62114734Y-100149500D01*
X61885266Y-100149500D01*
X61885258Y-100149500D01*
X61668715Y-100178009D01*
X61657762Y-100179452D01*
X61564076Y-100204554D01*
X61436112Y-100238842D01*
X61224123Y-100326650D01*
X61224109Y-100326657D01*
X61025382Y-100441392D01*
X60843338Y-100581081D01*
X60681081Y-100743338D01*
X60541392Y-100925382D01*
X60426657Y-101124109D01*
X60426650Y-101124123D01*
X60338842Y-101336112D01*
X60316218Y-101420548D01*
X60282229Y-101547400D01*
X60279453Y-101557759D01*
X60279451Y-101557770D01*
X60249500Y-101785258D01*
X60249500Y-102014741D01*
X60274446Y-102204215D01*
X60279452Y-102242238D01*
X60279453Y-102242240D01*
X60338842Y-102463887D01*
X60426650Y-102675876D01*
X60426657Y-102675890D01*
X60541392Y-102874617D01*
X60681081Y-103056661D01*
X60681089Y-103056670D01*
X60843330Y-103218911D01*
X60843338Y-103218918D01*
X61025382Y-103358607D01*
X61025385Y-103358608D01*
X61025388Y-103358611D01*
X61224112Y-103473344D01*
X61224117Y-103473346D01*
X61224123Y-103473349D01*
X61293926Y-103502262D01*
X61436113Y-103561158D01*
X61657762Y-103620548D01*
X61885266Y-103650500D01*
X61885273Y-103650500D01*
X62114727Y-103650500D01*
X62114734Y-103650500D01*
X62342238Y-103620548D01*
X62563887Y-103561158D01*
X62775888Y-103473344D01*
X62974612Y-103358611D01*
X63156661Y-103218919D01*
X63156665Y-103218914D01*
X63156670Y-103218911D01*
X63318911Y-103056670D01*
X63318914Y-103056665D01*
X63318919Y-103056661D01*
X63458611Y-102874612D01*
X63518114Y-102771548D01*
X63568680Y-102723335D01*
X63637287Y-102710111D01*
X63702152Y-102736079D01*
X63742680Y-102792993D01*
X63749500Y-102833550D01*
X63749500Y-114848544D01*
X63787947Y-115041833D01*
X63787949Y-115041837D01*
X63798993Y-115068500D01*
X63810038Y-115095165D01*
X63823139Y-115126793D01*
X63863366Y-115223911D01*
X63863371Y-115223920D01*
X63972860Y-115387781D01*
X63972863Y-115387785D01*
X64116535Y-115531457D01*
X64116559Y-115531479D01*
X64963181Y-116378101D01*
X64996666Y-116439424D01*
X64999500Y-116465782D01*
X64999500Y-122052236D01*
X64979815Y-122119275D01*
X64963181Y-122139917D01*
X63112220Y-123990878D01*
X63112218Y-123990880D01*
X63064256Y-124038842D01*
X62972859Y-124130238D01*
X62863371Y-124294098D01*
X62863364Y-124294111D01*
X62787950Y-124476179D01*
X62787947Y-124476189D01*
X62749500Y-124669475D01*
X62749500Y-126966449D01*
X62729815Y-127033488D01*
X62677011Y-127079243D01*
X62607853Y-127089187D01*
X62544297Y-127060162D01*
X62518113Y-127028449D01*
X62512606Y-127018911D01*
X62458611Y-126925388D01*
X62458608Y-126925385D01*
X62458607Y-126925382D01*
X62318918Y-126743338D01*
X62318911Y-126743330D01*
X62156670Y-126581089D01*
X62156661Y-126581081D01*
X61974617Y-126441392D01*
X61775890Y-126326657D01*
X61775876Y-126326650D01*
X61563887Y-126238842D01*
X61342238Y-126179452D01*
X61304215Y-126174446D01*
X61114741Y-126149500D01*
X61114734Y-126149500D01*
X60885266Y-126149500D01*
X60885258Y-126149500D01*
X60668715Y-126178009D01*
X60657762Y-126179452D01*
X60564076Y-126204554D01*
X60436112Y-126238842D01*
X60224123Y-126326650D01*
X60224109Y-126326657D01*
X60025382Y-126441392D01*
X59843338Y-126581081D01*
X59681081Y-126743338D01*
X59541392Y-126925382D01*
X59426657Y-127124109D01*
X59426650Y-127124123D01*
X59338842Y-127336112D01*
X59279453Y-127557759D01*
X59279451Y-127557770D01*
X59249500Y-127785258D01*
X59249500Y-128014741D01*
X59274446Y-128204215D01*
X59279452Y-128242238D01*
X59279453Y-128242240D01*
X59338842Y-128463887D01*
X59426650Y-128675876D01*
X59426657Y-128675890D01*
X59541392Y-128874617D01*
X59681081Y-129056661D01*
X59681089Y-129056670D01*
X59843330Y-129218911D01*
X59843338Y-129218918D01*
X60025382Y-129358607D01*
X60025385Y-129358608D01*
X60025388Y-129358611D01*
X60224112Y-129473344D01*
X60224117Y-129473346D01*
X60224123Y-129473349D01*
X60315480Y-129511190D01*
X60436113Y-129561158D01*
X60657762Y-129620548D01*
X60885266Y-129650500D01*
X60885273Y-129650500D01*
X61114727Y-129650500D01*
X61114734Y-129650500D01*
X61342238Y-129620548D01*
X61563887Y-129561158D01*
X61775888Y-129473344D01*
X61974612Y-129358611D01*
X62156661Y-129218919D01*
X62156665Y-129218914D01*
X62156670Y-129218911D01*
X62318911Y-129056670D01*
X62318914Y-129056665D01*
X62318919Y-129056661D01*
X62458611Y-128874612D01*
X62518114Y-128771548D01*
X62568680Y-128723335D01*
X62637287Y-128710111D01*
X62702152Y-128736079D01*
X62742680Y-128792993D01*
X62749500Y-128833550D01*
X62749500Y-131848541D01*
X62749500Y-131848543D01*
X62749499Y-131848543D01*
X62787947Y-132041829D01*
X62787950Y-132041839D01*
X62863364Y-132223907D01*
X62863371Y-132223920D01*
X62972859Y-132387780D01*
X62972860Y-132387781D01*
X62972861Y-132387782D01*
X63112218Y-132527139D01*
X63112219Y-132527139D01*
X63119286Y-132534206D01*
X63119285Y-132534206D01*
X63119289Y-132534209D01*
X65362215Y-134777137D01*
X65362219Y-134777140D01*
X65526079Y-134886628D01*
X65526085Y-134886631D01*
X65526086Y-134886632D01*
X65708165Y-134962052D01*
X65745212Y-134969421D01*
X65794617Y-134979249D01*
X65856528Y-135011634D01*
X65891102Y-135072350D01*
X65887363Y-135142119D01*
X65846496Y-135198791D01*
X65811381Y-135217907D01*
X65650480Y-135274209D01*
X65497737Y-135370184D01*
X65370184Y-135497737D01*
X65274211Y-135650476D01*
X65214631Y-135820745D01*
X65214630Y-135820750D01*
X65194435Y-135999996D01*
X65194435Y-136000003D01*
X65214630Y-136179249D01*
X65214631Y-136179254D01*
X65274211Y-136349523D01*
X65367049Y-136497273D01*
X65370184Y-136502262D01*
X65497738Y-136629816D01*
X65521117Y-136644506D01*
X65616733Y-136704586D01*
X65650478Y-136725789D01*
X65820745Y-136785368D01*
X65820750Y-136785369D01*
X65999996Y-136805565D01*
X66000000Y-136805565D01*
X66000004Y-136805565D01*
X66179249Y-136785369D01*
X66179252Y-136785368D01*
X66179255Y-136785368D01*
X66349522Y-136725789D01*
X66478883Y-136644505D01*
X66544855Y-136625500D01*
X73455145Y-136625500D01*
X73521117Y-136644506D01*
X73616733Y-136704586D01*
X73650478Y-136725789D01*
X73820745Y-136785368D01*
X73820750Y-136785369D01*
X73999996Y-136805565D01*
X74000000Y-136805565D01*
X74000004Y-136805565D01*
X74179249Y-136785369D01*
X74179252Y-136785368D01*
X74179255Y-136785368D01*
X74349522Y-136725789D01*
X74502262Y-136629816D01*
X74629816Y-136502262D01*
X74725789Y-136349522D01*
X74785368Y-136179255D01*
X74805565Y-136000000D01*
X74785368Y-135820745D01*
X74725789Y-135650478D01*
X74629816Y-135497738D01*
X74578082Y-135446004D01*
X74544597Y-135384681D01*
X74549581Y-135314989D01*
X74587096Y-135262472D01*
X74710883Y-135160883D01*
X74835910Y-135008538D01*
X74928814Y-134834727D01*
X74986024Y-134646132D01*
X75005341Y-134450000D01*
X74986024Y-134253868D01*
X74928814Y-134065273D01*
X74928811Y-134065269D01*
X74928811Y-134065266D01*
X74835913Y-133891467D01*
X74835909Y-133891460D01*
X74722413Y-133753165D01*
X74695100Y-133688855D01*
X74706891Y-133619987D01*
X74754043Y-133568427D01*
X74818266Y-133550500D01*
X77225500Y-133550500D01*
X77292539Y-133570185D01*
X77338294Y-133622989D01*
X77349500Y-133674500D01*
X77349500Y-136647273D01*
X77349500Y-136752727D01*
X77376793Y-136854587D01*
X77429520Y-136945913D01*
X77504087Y-137020480D01*
X77595413Y-137073207D01*
X77697273Y-137100500D01*
X77697275Y-137100500D01*
X81002725Y-137100500D01*
X81002727Y-137100500D01*
X81104587Y-137073207D01*
X81195913Y-137020480D01*
X81270480Y-136945913D01*
X81323207Y-136854587D01*
X81350500Y-136752727D01*
X81350500Y-133674500D01*
X81370185Y-133607461D01*
X81422989Y-133561706D01*
X81474500Y-133550500D01*
X82084218Y-133550500D01*
X82151257Y-133570185D01*
X82171899Y-133586819D01*
X83362215Y-134777137D01*
X83362219Y-134777140D01*
X83526079Y-134886628D01*
X83526085Y-134886631D01*
X83526086Y-134886632D01*
X83708165Y-134962052D01*
X83865103Y-134993269D01*
X83901455Y-135000500D01*
X83901458Y-135000501D01*
X83901460Y-135000501D01*
X84098543Y-135000501D01*
X84098544Y-135000500D01*
X84291836Y-134962052D01*
X84473915Y-134886632D01*
X84637782Y-134777140D01*
X84777140Y-134637782D01*
X84886632Y-134473915D01*
X84962052Y-134291836D01*
X85000501Y-134098541D01*
X85000501Y-133901460D01*
X85000501Y-133901457D01*
X85000500Y-133901455D01*
X84971003Y-133753165D01*
X84962052Y-133708165D01*
X84886632Y-133526086D01*
X84886631Y-133526085D01*
X84886628Y-133526079D01*
X84777140Y-133362219D01*
X84777137Y-133362215D01*
X83327140Y-131912219D01*
X83327139Y-131912218D01*
X83187782Y-131772861D01*
X83187781Y-131772860D01*
X83183451Y-131768530D01*
X83183440Y-131768520D01*
X82786819Y-131371898D01*
X82753334Y-131310575D01*
X82750500Y-131284217D01*
X82750500Y-127199128D01*
X82770185Y-127132089D01*
X82822989Y-127086334D01*
X82892147Y-127076390D01*
X82949985Y-127100752D01*
X82980424Y-127124109D01*
X83025382Y-127158607D01*
X83025385Y-127158608D01*
X83025388Y-127158611D01*
X83224112Y-127273344D01*
X83224117Y-127273346D01*
X83224123Y-127273349D01*
X83315480Y-127311190D01*
X83436113Y-127361158D01*
X83657762Y-127420548D01*
X83885266Y-127450500D01*
X83885273Y-127450500D01*
X84114727Y-127450500D01*
X84114734Y-127450500D01*
X84342238Y-127420548D01*
X84563887Y-127361158D01*
X84775888Y-127273344D01*
X84974612Y-127158611D01*
X85156661Y-127018919D01*
X85156665Y-127018914D01*
X85156670Y-127018911D01*
X85318911Y-126856670D01*
X85318914Y-126856665D01*
X85318919Y-126856661D01*
X85458611Y-126674612D01*
X85573344Y-126475888D01*
X85661158Y-126263887D01*
X85720548Y-126042238D01*
X85750500Y-125814734D01*
X85750500Y-125585266D01*
X85720548Y-125357762D01*
X85661158Y-125136113D01*
X85573344Y-124924112D01*
X85458611Y-124725388D01*
X85458608Y-124725385D01*
X85458607Y-124725382D01*
X85318918Y-124543338D01*
X85318911Y-124543330D01*
X85156670Y-124381089D01*
X85156661Y-124381081D01*
X84974617Y-124241392D01*
X84775890Y-124126657D01*
X84775876Y-124126650D01*
X84563887Y-124038842D01*
X84342238Y-123979452D01*
X84304215Y-123974446D01*
X84114741Y-123949500D01*
X84114734Y-123949500D01*
X83885266Y-123949500D01*
X83885258Y-123949500D01*
X83763933Y-123965474D01*
X83694897Y-123954709D01*
X83642641Y-123908329D01*
X83623756Y-123841060D01*
X83644237Y-123774259D01*
X83660066Y-123754854D01*
X84130804Y-123284117D01*
X84777140Y-122637781D01*
X84886632Y-122473914D01*
X84962052Y-122291835D01*
X85000501Y-122098540D01*
X85000501Y-121901459D01*
X85000501Y-121896349D01*
X85000500Y-121896323D01*
X85000500Y-115901456D01*
X84969560Y-115745913D01*
X84962051Y-115708164D01*
X84923084Y-115614090D01*
X84886632Y-115526086D01*
X84883358Y-115521186D01*
X84777139Y-115362217D01*
X84634686Y-115219764D01*
X84634655Y-115219735D01*
X81786819Y-112371899D01*
X81753334Y-112310576D01*
X81750500Y-112284218D01*
X81750500Y-109199128D01*
X81770185Y-109132089D01*
X81822989Y-109086334D01*
X81892147Y-109076390D01*
X81949985Y-109100752D01*
X81980424Y-109124109D01*
X82025382Y-109158607D01*
X82025385Y-109158608D01*
X82025388Y-109158611D01*
X82224112Y-109273344D01*
X82224117Y-109273346D01*
X82224123Y-109273349D01*
X82315480Y-109311190D01*
X82436113Y-109361158D01*
X82657762Y-109420548D01*
X82885266Y-109450500D01*
X82885273Y-109450500D01*
X83114727Y-109450500D01*
X83114734Y-109450500D01*
X83342238Y-109420548D01*
X83563887Y-109361158D01*
X83775888Y-109273344D01*
X83974612Y-109158611D01*
X84156661Y-109018919D01*
X84156665Y-109018914D01*
X84156670Y-109018911D01*
X84318911Y-108856670D01*
X84318914Y-108856665D01*
X84318919Y-108856661D01*
X84458611Y-108674612D01*
X84573344Y-108475888D01*
X84661158Y-108263887D01*
X84720548Y-108042238D01*
X84750500Y-107814734D01*
X84750500Y-107585266D01*
X84720548Y-107357762D01*
X84661158Y-107136113D01*
X84573344Y-106924112D01*
X84458611Y-106725388D01*
X84458608Y-106725385D01*
X84458607Y-106725382D01*
X84318918Y-106543338D01*
X84318911Y-106543330D01*
X84156670Y-106381089D01*
X84156661Y-106381081D01*
X83974617Y-106241392D01*
X83775890Y-106126657D01*
X83775876Y-106126650D01*
X83563887Y-106038842D01*
X83342238Y-105979452D01*
X83304215Y-105974446D01*
X83114741Y-105949500D01*
X83114734Y-105949500D01*
X82885266Y-105949500D01*
X82885258Y-105949500D01*
X82668715Y-105978009D01*
X82657762Y-105979452D01*
X82564076Y-106004554D01*
X82436112Y-106038842D01*
X82224123Y-106126650D01*
X82224109Y-106126657D01*
X82025387Y-106241389D01*
X81999063Y-106261589D01*
X81949985Y-106299247D01*
X81884817Y-106324441D01*
X81816373Y-106310403D01*
X81766383Y-106261589D01*
X81750500Y-106200871D01*
X81750500Y-106170555D01*
X81770185Y-106103516D01*
X81786819Y-106082874D01*
X83777137Y-104092557D01*
X83777137Y-104092556D01*
X83777140Y-104092554D01*
X83886632Y-103928687D01*
X83962052Y-103746608D01*
X84000501Y-103553313D01*
X84000501Y-103356232D01*
X84000501Y-103351122D01*
X84000500Y-103351096D01*
X84000500Y-98104675D01*
X84000501Y-98104654D01*
X84000501Y-97901457D01*
X84000500Y-97901455D01*
X83974140Y-97768934D01*
X83962052Y-97708165D01*
X83886632Y-97526086D01*
X83886631Y-97526085D01*
X83886628Y-97526079D01*
X83777140Y-97362219D01*
X83777137Y-97362215D01*
X81786819Y-95371897D01*
X81753334Y-95310574D01*
X81750500Y-95284216D01*
X81750500Y-93199128D01*
X81770185Y-93132089D01*
X81822989Y-93086334D01*
X81892147Y-93076390D01*
X81949985Y-93100752D01*
X81980424Y-93124109D01*
X82025382Y-93158607D01*
X82025385Y-93158608D01*
X82025388Y-93158611D01*
X82224112Y-93273344D01*
X82224117Y-93273346D01*
X82224123Y-93273349D01*
X82315480Y-93311190D01*
X82436113Y-93361158D01*
X82657762Y-93420548D01*
X82885266Y-93450500D01*
X82885273Y-93450500D01*
X83114727Y-93450500D01*
X83114734Y-93450500D01*
X83342238Y-93420548D01*
X83563887Y-93361158D01*
X83775888Y-93273344D01*
X83974612Y-93158611D01*
X84156661Y-93018919D01*
X84156665Y-93018914D01*
X84156670Y-93018911D01*
X84318911Y-92856670D01*
X84318914Y-92856665D01*
X84318919Y-92856661D01*
X84458611Y-92674612D01*
X84573344Y-92475888D01*
X84661158Y-92263887D01*
X84720548Y-92042238D01*
X84750500Y-91814734D01*
X84750500Y-91585266D01*
X84720548Y-91357762D01*
X84661158Y-91136113D01*
X84573344Y-90924112D01*
X84458611Y-90725388D01*
X84458608Y-90725385D01*
X84458607Y-90725382D01*
X84318918Y-90543338D01*
X84318911Y-90543330D01*
X84156670Y-90381089D01*
X84156661Y-90381081D01*
X83974617Y-90241392D01*
X83775890Y-90126657D01*
X83775876Y-90126650D01*
X83563887Y-90038842D01*
X83342238Y-89979452D01*
X83304215Y-89974446D01*
X83114741Y-89949500D01*
X83114734Y-89949500D01*
X82885266Y-89949500D01*
X82885258Y-89949500D01*
X82763933Y-89965474D01*
X82694897Y-89954709D01*
X82642641Y-89908329D01*
X82623756Y-89841060D01*
X82644237Y-89774259D01*
X82660066Y-89754854D01*
X83130804Y-89284117D01*
X83777140Y-88637781D01*
X83886632Y-88473914D01*
X83962052Y-88291835D01*
X84000501Y-88098540D01*
X84000501Y-87901459D01*
X84000501Y-87896349D01*
X84000500Y-87896323D01*
X84000500Y-83401456D01*
X83962052Y-83208170D01*
X83962051Y-83208169D01*
X83962051Y-83208165D01*
X83942466Y-83160883D01*
X83886635Y-83026092D01*
X83886628Y-83026079D01*
X83777139Y-82862218D01*
X83777136Y-82862214D01*
X83637785Y-82722863D01*
X83637781Y-82722860D01*
X83473920Y-82613371D01*
X83473907Y-82613364D01*
X83291839Y-82537950D01*
X83291829Y-82537947D01*
X83098543Y-82499500D01*
X83098541Y-82499500D01*
X82901459Y-82499500D01*
X82901457Y-82499500D01*
X82708170Y-82537947D01*
X82708160Y-82537950D01*
X82526092Y-82613364D01*
X82526079Y-82613371D01*
X82362218Y-82722860D01*
X82362214Y-82722863D01*
X82222863Y-82862214D01*
X82222860Y-82862218D01*
X82113371Y-83026079D01*
X82113364Y-83026092D01*
X82037950Y-83208160D01*
X82037947Y-83208170D01*
X81999500Y-83401456D01*
X81999500Y-87534217D01*
X81979815Y-87601256D01*
X81963181Y-87621898D01*
X80766771Y-88818307D01*
X80705448Y-88851792D01*
X80635756Y-88846808D01*
X80579823Y-88804936D01*
X80555406Y-88739472D01*
X80558199Y-88703033D01*
X80617168Y-88444675D01*
X80650500Y-88148849D01*
X80650500Y-87851151D01*
X80617168Y-87555325D01*
X80550924Y-87265091D01*
X80542246Y-87240292D01*
X80525642Y-87192840D01*
X80452601Y-86984099D01*
X80323435Y-86715883D01*
X80165050Y-86463815D01*
X79979438Y-86231066D01*
X79768934Y-86020562D01*
X79536185Y-85834950D01*
X79284117Y-85676565D01*
X79284114Y-85676563D01*
X79015904Y-85547400D01*
X78734920Y-85449079D01*
X78734912Y-85449076D01*
X78517233Y-85399393D01*
X78444675Y-85382832D01*
X78444671Y-85382831D01*
X78444662Y-85382830D01*
X78148853Y-85349500D01*
X78148849Y-85349500D01*
X77851151Y-85349500D01*
X77851146Y-85349500D01*
X77555337Y-85382830D01*
X77555325Y-85382832D01*
X77265087Y-85449076D01*
X77265079Y-85449079D01*
X76984095Y-85547400D01*
X76715885Y-85676563D01*
X76463816Y-85834949D01*
X76231066Y-86020561D01*
X76020561Y-86231066D01*
X75834949Y-86463816D01*
X75676563Y-86715885D01*
X75547400Y-86984095D01*
X75449079Y-87265079D01*
X75449076Y-87265087D01*
X75382832Y-87555325D01*
X75382830Y-87555337D01*
X75349500Y-87851146D01*
X75349500Y-88148853D01*
X75382830Y-88444662D01*
X75382832Y-88444674D01*
X75449076Y-88734912D01*
X75449079Y-88734920D01*
X75547400Y-89015904D01*
X75676563Y-89284114D01*
X75676565Y-89284117D01*
X75834950Y-89536185D01*
X75972096Y-89708160D01*
X76009333Y-89754854D01*
X76020562Y-89768934D01*
X76231066Y-89979438D01*
X76463815Y-90165050D01*
X76715883Y-90323435D01*
X76984099Y-90452601D01*
X77195135Y-90526445D01*
X77265079Y-90550920D01*
X77265087Y-90550923D01*
X77265090Y-90550923D01*
X77265091Y-90550924D01*
X77555325Y-90617168D01*
X77851147Y-90650499D01*
X77851148Y-90650500D01*
X77851151Y-90650500D01*
X78148852Y-90650500D01*
X78148852Y-90650499D01*
X78444675Y-90617168D01*
X78734909Y-90550924D01*
X79015901Y-90452601D01*
X79284117Y-90323435D01*
X79536185Y-90165050D01*
X79548185Y-90155479D01*
X79612871Y-90129070D01*
X79681567Y-90141824D01*
X79732462Y-90189694D01*
X79749500Y-90252425D01*
X79749500Y-92966449D01*
X79729815Y-93033488D01*
X79677011Y-93079243D01*
X79607853Y-93089187D01*
X79544297Y-93060162D01*
X79518113Y-93028449D01*
X79512606Y-93018911D01*
X79458611Y-92925388D01*
X79458608Y-92925385D01*
X79458607Y-92925382D01*
X79318918Y-92743338D01*
X79318911Y-92743330D01*
X79156670Y-92581089D01*
X79156661Y-92581081D01*
X78974617Y-92441392D01*
X78775890Y-92326657D01*
X78775876Y-92326650D01*
X78563887Y-92238842D01*
X78342238Y-92179452D01*
X78304215Y-92174446D01*
X78114741Y-92149500D01*
X78114734Y-92149500D01*
X77885266Y-92149500D01*
X77885258Y-92149500D01*
X77668715Y-92178009D01*
X77657762Y-92179452D01*
X77564076Y-92204554D01*
X77436112Y-92238842D01*
X77224123Y-92326650D01*
X77224109Y-92326657D01*
X77025382Y-92441392D01*
X76843338Y-92581081D01*
X76681081Y-92743338D01*
X76541392Y-92925382D01*
X76426657Y-93124109D01*
X76426650Y-93124123D01*
X76338842Y-93336112D01*
X76316218Y-93420548D01*
X76282229Y-93547400D01*
X76279453Y-93557759D01*
X76279451Y-93557770D01*
X76249500Y-93785258D01*
X76249500Y-94014741D01*
X76274446Y-94204215D01*
X76279452Y-94242238D01*
X76279453Y-94242240D01*
X76338842Y-94463887D01*
X76426650Y-94675876D01*
X76426657Y-94675890D01*
X76541392Y-94874617D01*
X76681081Y-95056661D01*
X76681089Y-95056670D01*
X76843330Y-95218911D01*
X76843338Y-95218918D01*
X77025382Y-95358607D01*
X77025385Y-95358608D01*
X77025388Y-95358611D01*
X77224112Y-95473344D01*
X77224117Y-95473346D01*
X77224123Y-95473349D01*
X77315480Y-95511190D01*
X77436113Y-95561158D01*
X77657762Y-95620548D01*
X77885266Y-95650500D01*
X77885273Y-95650500D01*
X78114727Y-95650500D01*
X78114734Y-95650500D01*
X78342238Y-95620548D01*
X78563887Y-95561158D01*
X78775888Y-95473344D01*
X78974612Y-95358611D01*
X79156661Y-95218919D01*
X79156665Y-95218914D01*
X79156670Y-95218911D01*
X79318911Y-95056670D01*
X79318914Y-95056665D01*
X79318919Y-95056661D01*
X79458611Y-94874612D01*
X79518114Y-94771548D01*
X79568680Y-94723335D01*
X79637287Y-94710111D01*
X79702152Y-94736079D01*
X79742680Y-94792993D01*
X79749500Y-94833550D01*
X79749500Y-95848544D01*
X79787947Y-96041833D01*
X79787949Y-96041837D01*
X79810038Y-96095164D01*
X79863366Y-96223911D01*
X79863371Y-96223920D01*
X79972859Y-96387780D01*
X79972860Y-96387781D01*
X79972861Y-96387782D01*
X80112218Y-96527139D01*
X80112219Y-96527139D01*
X80119286Y-96534206D01*
X80119285Y-96534206D01*
X80119289Y-96534209D01*
X81963181Y-98378101D01*
X81996666Y-98439424D01*
X81999500Y-98465782D01*
X81999500Y-102988990D01*
X81979815Y-103056029D01*
X81963181Y-103076671D01*
X80862181Y-104177671D01*
X80800858Y-104211156D01*
X80731166Y-104206172D01*
X80675233Y-104164300D01*
X80650816Y-104098836D01*
X80650500Y-104089990D01*
X80650500Y-103851148D01*
X80650499Y-103851146D01*
X80647527Y-103824771D01*
X80617168Y-103555325D01*
X80550924Y-103265091D01*
X80452601Y-102984099D01*
X80323435Y-102715883D01*
X80165050Y-102463815D01*
X79979438Y-102231066D01*
X79768934Y-102020562D01*
X79536185Y-101834950D01*
X79284117Y-101676565D01*
X79284114Y-101676563D01*
X79015904Y-101547400D01*
X78734920Y-101449079D01*
X78734912Y-101449076D01*
X78517233Y-101399393D01*
X78444675Y-101382832D01*
X78444671Y-101382831D01*
X78444662Y-101382830D01*
X78148853Y-101349500D01*
X78148849Y-101349500D01*
X77851151Y-101349500D01*
X77851146Y-101349500D01*
X77555337Y-101382830D01*
X77555325Y-101382832D01*
X77265087Y-101449076D01*
X77265079Y-101449079D01*
X76984095Y-101547400D01*
X76715885Y-101676563D01*
X76463816Y-101834949D01*
X76231066Y-102020561D01*
X76020561Y-102231066D01*
X75834949Y-102463816D01*
X75676563Y-102715885D01*
X75547400Y-102984095D01*
X75449079Y-103265079D01*
X75449076Y-103265087D01*
X75382832Y-103555325D01*
X75382830Y-103555337D01*
X75349500Y-103851146D01*
X75349500Y-104148853D01*
X75382830Y-104444662D01*
X75382832Y-104444674D01*
X75449076Y-104734912D01*
X75449079Y-104734920D01*
X75547400Y-105015904D01*
X75676563Y-105284114D01*
X75676565Y-105284117D01*
X75834950Y-105536185D01*
X76020562Y-105768934D01*
X76231066Y-105979438D01*
X76463815Y-106165050D01*
X76715883Y-106323435D01*
X76984099Y-106452601D01*
X77195135Y-106526445D01*
X77265079Y-106550920D01*
X77265087Y-106550923D01*
X77265090Y-106550923D01*
X77265091Y-106550924D01*
X77555325Y-106617168D01*
X77851147Y-106650499D01*
X77851148Y-106650500D01*
X77851151Y-106650500D01*
X78148852Y-106650500D01*
X78148852Y-106650499D01*
X78444675Y-106617168D01*
X78734909Y-106550924D01*
X79015901Y-106452601D01*
X79284117Y-106323435D01*
X79536185Y-106165050D01*
X79548185Y-106155479D01*
X79612871Y-106129070D01*
X79681567Y-106141824D01*
X79732462Y-106189694D01*
X79749500Y-106252425D01*
X79749500Y-108966449D01*
X79729815Y-109033488D01*
X79677011Y-109079243D01*
X79607853Y-109089187D01*
X79544297Y-109060162D01*
X79518113Y-109028449D01*
X79512606Y-109018911D01*
X79458611Y-108925388D01*
X79458608Y-108925385D01*
X79458607Y-108925382D01*
X79318918Y-108743338D01*
X79318911Y-108743330D01*
X79156670Y-108581089D01*
X79156661Y-108581081D01*
X78974617Y-108441392D01*
X78775890Y-108326657D01*
X78775876Y-108326650D01*
X78563887Y-108238842D01*
X78342238Y-108179452D01*
X78304215Y-108174446D01*
X78114741Y-108149500D01*
X78114734Y-108149500D01*
X77885266Y-108149500D01*
X77885258Y-108149500D01*
X77668715Y-108178009D01*
X77657762Y-108179452D01*
X77564076Y-108204554D01*
X77436112Y-108238842D01*
X77224123Y-108326650D01*
X77224109Y-108326657D01*
X77025382Y-108441392D01*
X76843338Y-108581081D01*
X76681081Y-108743338D01*
X76541392Y-108925382D01*
X76426657Y-109124109D01*
X76426650Y-109124123D01*
X76338842Y-109336112D01*
X76279453Y-109557759D01*
X76279451Y-109557770D01*
X76249500Y-109785258D01*
X76249500Y-110014741D01*
X76274446Y-110204215D01*
X76279452Y-110242238D01*
X76279453Y-110242240D01*
X76338842Y-110463887D01*
X76426650Y-110675876D01*
X76426657Y-110675890D01*
X76541392Y-110874617D01*
X76681081Y-111056661D01*
X76681089Y-111056670D01*
X76843330Y-111218911D01*
X76843338Y-111218918D01*
X77025382Y-111358607D01*
X77025385Y-111358608D01*
X77025388Y-111358611D01*
X77224112Y-111473344D01*
X77224117Y-111473346D01*
X77224123Y-111473349D01*
X77315480Y-111511190D01*
X77436113Y-111561158D01*
X77657762Y-111620548D01*
X77885266Y-111650500D01*
X77885273Y-111650500D01*
X78114727Y-111650500D01*
X78114734Y-111650500D01*
X78342238Y-111620548D01*
X78563887Y-111561158D01*
X78775888Y-111473344D01*
X78974612Y-111358611D01*
X79156661Y-111218919D01*
X79156665Y-111218914D01*
X79156670Y-111218911D01*
X79318911Y-111056670D01*
X79318914Y-111056665D01*
X79318919Y-111056661D01*
X79458611Y-110874612D01*
X79518114Y-110771548D01*
X79568680Y-110723335D01*
X79637287Y-110710111D01*
X79702152Y-110736079D01*
X79742680Y-110792993D01*
X79749500Y-110833550D01*
X79749500Y-112848541D01*
X79749500Y-112848543D01*
X79749499Y-112848543D01*
X79787947Y-113041829D01*
X79787950Y-113041839D01*
X79863364Y-113223907D01*
X79863371Y-113223920D01*
X79972860Y-113387781D01*
X79972863Y-113387785D01*
X80116537Y-113531459D01*
X80116559Y-113531479D01*
X82963181Y-116378101D01*
X82996666Y-116439424D01*
X82999500Y-116465782D01*
X82999500Y-121534217D01*
X82979815Y-121601256D01*
X82963181Y-121621898D01*
X81766771Y-122818307D01*
X81705448Y-122851792D01*
X81635756Y-122846808D01*
X81579823Y-122804936D01*
X81555406Y-122739472D01*
X81558199Y-122703033D01*
X81617168Y-122444675D01*
X81650500Y-122148849D01*
X81650500Y-121851151D01*
X81617168Y-121555325D01*
X81550924Y-121265091D01*
X81452601Y-120984099D01*
X81323435Y-120715883D01*
X81165050Y-120463815D01*
X80979438Y-120231066D01*
X80768934Y-120020562D01*
X80536185Y-119834950D01*
X80284117Y-119676565D01*
X80284114Y-119676563D01*
X80015904Y-119547400D01*
X79734920Y-119449079D01*
X79734912Y-119449076D01*
X79517233Y-119399393D01*
X79444675Y-119382832D01*
X79444671Y-119382831D01*
X79444662Y-119382830D01*
X79148853Y-119349500D01*
X79148849Y-119349500D01*
X78851151Y-119349500D01*
X78851146Y-119349500D01*
X78555337Y-119382830D01*
X78555325Y-119382832D01*
X78265087Y-119449076D01*
X78265079Y-119449079D01*
X77984095Y-119547400D01*
X77715885Y-119676563D01*
X77463816Y-119834949D01*
X77231066Y-120020561D01*
X77020561Y-120231066D01*
X76834949Y-120463816D01*
X76676563Y-120715885D01*
X76547400Y-120984095D01*
X76449079Y-121265079D01*
X76449076Y-121265087D01*
X76382832Y-121555325D01*
X76382830Y-121555337D01*
X76349500Y-121851146D01*
X76349500Y-122148853D01*
X76382830Y-122444662D01*
X76382832Y-122444674D01*
X76449076Y-122734912D01*
X76449079Y-122734920D01*
X76547400Y-123015904D01*
X76676563Y-123284114D01*
X76676565Y-123284117D01*
X76834950Y-123536185D01*
X76973424Y-123709825D01*
X77009333Y-123754854D01*
X77020562Y-123768934D01*
X77231066Y-123979438D01*
X77463815Y-124165050D01*
X77715883Y-124323435D01*
X77984099Y-124452601D01*
X78195135Y-124526445D01*
X78265079Y-124550920D01*
X78265087Y-124550923D01*
X78265090Y-124550923D01*
X78265091Y-124550924D01*
X78555325Y-124617168D01*
X78851147Y-124650499D01*
X78851148Y-124650500D01*
X78851151Y-124650500D01*
X79148852Y-124650500D01*
X79148852Y-124650499D01*
X79444675Y-124617168D01*
X79734909Y-124550924D01*
X80015901Y-124452601D01*
X80284117Y-124323435D01*
X80536185Y-124165050D01*
X80548185Y-124155479D01*
X80612871Y-124129070D01*
X80681567Y-124141824D01*
X80732462Y-124189694D01*
X80749500Y-124252425D01*
X80749500Y-126966449D01*
X80729815Y-127033488D01*
X80677011Y-127079243D01*
X80607853Y-127089187D01*
X80544297Y-127060162D01*
X80518113Y-127028449D01*
X80512606Y-127018911D01*
X80458611Y-126925388D01*
X80458608Y-126925385D01*
X80458607Y-126925382D01*
X80318918Y-126743338D01*
X80318911Y-126743330D01*
X80156670Y-126581089D01*
X80156661Y-126581081D01*
X79974617Y-126441392D01*
X79775890Y-126326657D01*
X79775876Y-126326650D01*
X79563887Y-126238842D01*
X79342238Y-126179452D01*
X79304215Y-126174446D01*
X79114741Y-126149500D01*
X79114734Y-126149500D01*
X78885266Y-126149500D01*
X78885258Y-126149500D01*
X78668715Y-126178009D01*
X78657762Y-126179452D01*
X78564076Y-126204554D01*
X78436112Y-126238842D01*
X78224123Y-126326650D01*
X78224109Y-126326657D01*
X78025382Y-126441392D01*
X77843338Y-126581081D01*
X77681081Y-126743338D01*
X77541392Y-126925382D01*
X77426657Y-127124109D01*
X77426650Y-127124123D01*
X77338842Y-127336112D01*
X77279453Y-127557759D01*
X77279451Y-127557770D01*
X77249500Y-127785258D01*
X77249500Y-128014741D01*
X77274446Y-128204215D01*
X77279452Y-128242238D01*
X77279453Y-128242240D01*
X77338842Y-128463887D01*
X77426650Y-128675876D01*
X77426657Y-128675890D01*
X77541392Y-128874617D01*
X77681081Y-129056661D01*
X77681089Y-129056670D01*
X77843330Y-129218911D01*
X77843338Y-129218918D01*
X78025382Y-129358607D01*
X78025385Y-129358608D01*
X78025388Y-129358611D01*
X78224112Y-129473344D01*
X78224117Y-129473346D01*
X78224123Y-129473349D01*
X78315480Y-129511190D01*
X78436113Y-129561158D01*
X78657762Y-129620548D01*
X78885266Y-129650500D01*
X78885273Y-129650500D01*
X79114727Y-129650500D01*
X79114734Y-129650500D01*
X79342238Y-129620548D01*
X79563887Y-129561158D01*
X79775888Y-129473344D01*
X79974612Y-129358611D01*
X80156661Y-129218919D01*
X80156665Y-129218914D01*
X80156670Y-129218911D01*
X80318911Y-129056670D01*
X80318914Y-129056665D01*
X80318919Y-129056661D01*
X80458611Y-128874612D01*
X80518114Y-128771548D01*
X80568680Y-128723335D01*
X80637287Y-128710111D01*
X80702152Y-128736079D01*
X80742680Y-128792993D01*
X80749500Y-128833550D01*
X80749500Y-131425500D01*
X80729815Y-131492539D01*
X80677011Y-131538294D01*
X80625500Y-131549500D01*
X69824496Y-131549500D01*
X69757457Y-131529815D01*
X69711702Y-131477011D01*
X69701758Y-131407853D01*
X69719503Y-131359527D01*
X69725788Y-131349524D01*
X69785368Y-131179254D01*
X69785369Y-131179249D01*
X69805565Y-131000003D01*
X69805565Y-130999996D01*
X69785369Y-130820750D01*
X69785368Y-130820745D01*
X69725788Y-130650476D01*
X69644506Y-130521117D01*
X69625500Y-130455145D01*
X69625500Y-116450000D01*
X72994659Y-116450000D01*
X73013975Y-116646129D01*
X73071188Y-116834733D01*
X73164086Y-117008532D01*
X73164090Y-117008539D01*
X73289116Y-117160883D01*
X73441460Y-117285909D01*
X73441467Y-117285913D01*
X73615266Y-117378811D01*
X73615269Y-117378811D01*
X73615273Y-117378814D01*
X73803868Y-117436024D01*
X74000000Y-117455341D01*
X74196132Y-117436024D01*
X74384727Y-117378814D01*
X74558538Y-117285910D01*
X74710883Y-117160883D01*
X74835910Y-117008538D01*
X74928814Y-116834727D01*
X74986024Y-116646132D01*
X75005341Y-116450000D01*
X74986024Y-116253868D01*
X74928814Y-116065273D01*
X74928811Y-116065269D01*
X74928811Y-116065266D01*
X74835913Y-115891467D01*
X74835909Y-115891460D01*
X74710883Y-115739116D01*
X74558539Y-115614090D01*
X74558532Y-115614086D01*
X74384733Y-115521188D01*
X74384727Y-115521186D01*
X74196132Y-115463976D01*
X74196129Y-115463975D01*
X74000000Y-115444659D01*
X73803870Y-115463975D01*
X73615266Y-115521188D01*
X73441467Y-115614086D01*
X73441460Y-115614090D01*
X73289116Y-115739116D01*
X73164090Y-115891460D01*
X73164086Y-115891467D01*
X73071188Y-116065266D01*
X73013975Y-116253870D01*
X72994659Y-116450000D01*
X69625500Y-116450000D01*
X69625500Y-115372273D01*
X76999500Y-115372273D01*
X76999500Y-118372273D01*
X76999500Y-118477727D01*
X77026793Y-118579587D01*
X77079520Y-118670913D01*
X77154087Y-118745480D01*
X77245413Y-118798207D01*
X77347273Y-118825500D01*
X77347275Y-118825500D01*
X80652725Y-118825500D01*
X80652727Y-118825500D01*
X80754587Y-118798207D01*
X80845913Y-118745480D01*
X80920480Y-118670913D01*
X80973207Y-118579587D01*
X81000500Y-118477727D01*
X81000500Y-115372273D01*
X80973207Y-115270413D01*
X80920480Y-115179087D01*
X80845913Y-115104520D01*
X80754587Y-115051793D01*
X80652727Y-115024500D01*
X77452727Y-115024500D01*
X77347273Y-115024500D01*
X77245413Y-115051793D01*
X77245410Y-115051794D01*
X77154085Y-115104521D01*
X77079521Y-115179085D01*
X77026794Y-115270410D01*
X77026793Y-115270413D01*
X76999500Y-115372273D01*
X69625500Y-115372273D01*
X69625500Y-103891810D01*
X69645185Y-103824771D01*
X69697989Y-103779016D01*
X69767147Y-103769072D01*
X69790456Y-103774769D01*
X69820745Y-103785368D01*
X69820747Y-103785368D01*
X69820750Y-103785369D01*
X69999996Y-103805565D01*
X70000000Y-103805565D01*
X70000004Y-103805565D01*
X70179249Y-103785369D01*
X70179252Y-103785368D01*
X70179255Y-103785368D01*
X70349522Y-103725789D01*
X70502262Y-103629816D01*
X70629816Y-103502262D01*
X70725789Y-103349522D01*
X70785368Y-103179255D01*
X70785369Y-103179249D01*
X70805565Y-103000003D01*
X70805565Y-102999996D01*
X70785369Y-102820750D01*
X70785368Y-102820745D01*
X70725788Y-102650476D01*
X70644506Y-102521117D01*
X70625500Y-102455145D01*
X70625500Y-98450000D01*
X71994659Y-98450000D01*
X72013975Y-98646129D01*
X72071188Y-98834733D01*
X72164086Y-99008532D01*
X72164090Y-99008539D01*
X72289116Y-99160883D01*
X72441460Y-99285909D01*
X72441467Y-99285913D01*
X72615266Y-99378811D01*
X72615269Y-99378811D01*
X72615273Y-99378814D01*
X72803868Y-99436024D01*
X73000000Y-99455341D01*
X73196132Y-99436024D01*
X73384727Y-99378814D01*
X73558538Y-99285910D01*
X73710883Y-99160883D01*
X73835910Y-99008538D01*
X73928814Y-98834727D01*
X73986024Y-98646132D01*
X74005341Y-98450000D01*
X73986024Y-98253868D01*
X73928814Y-98065273D01*
X73928811Y-98065269D01*
X73928811Y-98065266D01*
X73835913Y-97891467D01*
X73835909Y-97891460D01*
X73710883Y-97739116D01*
X73558539Y-97614090D01*
X73558532Y-97614086D01*
X73384733Y-97521188D01*
X73384727Y-97521186D01*
X73196132Y-97463976D01*
X73196129Y-97463975D01*
X73000000Y-97444659D01*
X72803870Y-97463975D01*
X72615266Y-97521188D01*
X72441467Y-97614086D01*
X72441460Y-97614090D01*
X72289116Y-97739116D01*
X72164090Y-97891460D01*
X72164086Y-97891467D01*
X72071188Y-98065266D01*
X72013975Y-98253870D01*
X71994659Y-98450000D01*
X70625500Y-98450000D01*
X70625500Y-97372273D01*
X75999500Y-97372273D01*
X75999500Y-100477726D01*
X76026793Y-100579586D01*
X76026794Y-100579589D01*
X76027660Y-100581089D01*
X76079520Y-100670913D01*
X76154087Y-100745480D01*
X76245413Y-100798207D01*
X76347273Y-100825500D01*
X76347275Y-100825500D01*
X79652725Y-100825500D01*
X79652727Y-100825500D01*
X79754587Y-100798207D01*
X79845913Y-100745480D01*
X79920480Y-100670913D01*
X79973207Y-100579587D01*
X80000500Y-100477727D01*
X80000500Y-97372273D01*
X79973207Y-97270413D01*
X79920480Y-97179087D01*
X79845913Y-97104520D01*
X79754587Y-97051793D01*
X79652727Y-97024500D01*
X76452727Y-97024500D01*
X76347273Y-97024500D01*
X76245413Y-97051793D01*
X76245410Y-97051794D01*
X76154085Y-97104521D01*
X76079521Y-97179085D01*
X76026794Y-97270410D01*
X76026793Y-97270413D01*
X75999500Y-97372273D01*
X70625500Y-97372273D01*
X70625500Y-91310451D01*
X70645185Y-91243412D01*
X70661814Y-91222775D01*
X76023729Y-85860860D01*
X76023733Y-85860858D01*
X76110858Y-85773733D01*
X76179311Y-85671286D01*
X76226463Y-85557452D01*
X76238481Y-85497029D01*
X76250500Y-85436607D01*
X76250500Y-85313394D01*
X76250500Y-84949500D01*
X76270185Y-84882461D01*
X76322989Y-84836706D01*
X76374500Y-84825500D01*
X79652725Y-84825500D01*
X79652727Y-84825500D01*
X79754587Y-84798207D01*
X79845913Y-84745480D01*
X79920480Y-84670913D01*
X79973207Y-84579587D01*
X80000500Y-84477727D01*
X80000500Y-81372273D01*
X79973207Y-81270413D01*
X79920480Y-81179087D01*
X79845913Y-81104520D01*
X79754587Y-81051793D01*
X79652727Y-81024500D01*
X76452727Y-81024500D01*
X76374500Y-81024500D01*
X76307461Y-81004815D01*
X76261706Y-80952011D01*
X76250500Y-80900500D01*
X76250500Y-73925451D01*
X76270185Y-73858412D01*
X76286815Y-73837774D01*
X77121480Y-73003108D01*
X77182801Y-72969625D01*
X77249420Y-72973509D01*
X77275019Y-72982298D01*
X77503951Y-73020500D01*
X77503952Y-73020500D01*
X77736048Y-73020500D01*
X77736049Y-73020500D01*
X77964981Y-72982298D01*
X78184503Y-72906936D01*
X78191477Y-72903161D01*
X78259803Y-72888562D01*
X78325177Y-72913221D01*
X78366841Y-72969309D01*
X78374500Y-73012213D01*
X78374500Y-76894885D01*
X78398535Y-77015718D01*
X78398540Y-77015735D01*
X78445685Y-77129554D01*
X78445690Y-77129563D01*
X78479914Y-77180781D01*
X78479915Y-77180783D01*
X78514140Y-77232005D01*
X78514141Y-77232006D01*
X78514142Y-77232007D01*
X78601267Y-77319132D01*
X78601268Y-77319132D01*
X78608335Y-77326199D01*
X78608334Y-77326199D01*
X78608338Y-77326202D01*
X85523787Y-84241652D01*
X85557272Y-84302975D01*
X85559326Y-84315448D01*
X85564630Y-84362523D01*
X85624210Y-84532795D01*
X85677587Y-84617743D01*
X85720184Y-84685536D01*
X85847738Y-84813090D01*
X86000478Y-84909063D01*
X86170745Y-84968642D01*
X86170750Y-84968643D01*
X86349996Y-84988839D01*
X86350000Y-84988839D01*
X86350004Y-84988839D01*
X86529249Y-84968643D01*
X86529252Y-84968642D01*
X86529255Y-84968642D01*
X86699522Y-84909063D01*
X86852262Y-84813090D01*
X86979816Y-84685536D01*
X87075789Y-84532796D01*
X87135368Y-84362529D01*
X87142078Y-84302975D01*
X87155565Y-84183277D01*
X87155565Y-84183270D01*
X87135369Y-84004024D01*
X87135368Y-84004019D01*
X87075788Y-83833750D01*
X86979815Y-83681011D01*
X86852262Y-83553458D01*
X86699521Y-83457484D01*
X86529249Y-83397904D01*
X86482174Y-83392600D01*
X86417760Y-83365533D01*
X86408378Y-83357061D01*
X80105554Y-77054237D01*
X80072069Y-76992914D01*
X80077053Y-76923222D01*
X80118925Y-76867289D01*
X80184389Y-76842872D01*
X80236564Y-76850373D01*
X80434954Y-76924369D01*
X80434960Y-76924370D01*
X80434962Y-76924371D01*
X80714566Y-76985195D01*
X80714568Y-76985195D01*
X80714572Y-76985196D01*
X80968220Y-77003337D01*
X80999999Y-77005610D01*
X81000000Y-77005610D01*
X81000001Y-77005610D01*
X81028595Y-77003564D01*
X81285428Y-76985196D01*
X81536964Y-76930478D01*
X81565037Y-76924371D01*
X81565037Y-76924370D01*
X81565046Y-76924369D01*
X81833161Y-76824367D01*
X82084315Y-76687226D01*
X82313395Y-76515739D01*
X82515739Y-76313395D01*
X82687226Y-76084315D01*
X82824367Y-75833161D01*
X82924369Y-75565046D01*
X82985196Y-75285428D01*
X83005610Y-75000000D01*
X82985196Y-74714572D01*
X82978979Y-74685995D01*
X82924371Y-74434962D01*
X82924370Y-74434960D01*
X82924369Y-74434954D01*
X82824367Y-74166839D01*
X82731625Y-73996996D01*
X82687229Y-73915690D01*
X82687224Y-73915682D01*
X82515745Y-73686612D01*
X82515729Y-73686594D01*
X82313405Y-73484270D01*
X82313387Y-73484254D01*
X82084317Y-73312775D01*
X82084309Y-73312770D01*
X81833166Y-73175635D01*
X81833167Y-73175635D01*
X81708506Y-73129139D01*
X81565046Y-73075631D01*
X81565043Y-73075630D01*
X81565037Y-73075628D01*
X81285433Y-73014804D01*
X81000001Y-72994390D01*
X80999999Y-72994390D01*
X80714566Y-73014804D01*
X80434962Y-73075628D01*
X80166833Y-73175635D01*
X79915690Y-73312770D01*
X79915682Y-73312775D01*
X79823810Y-73381550D01*
X79758346Y-73405967D01*
X79690073Y-73391115D01*
X79640668Y-73341709D01*
X79625500Y-73282283D01*
X79625500Y-70438393D01*
X79625499Y-70438389D01*
X79604549Y-70333064D01*
X79601463Y-70317548D01*
X79576674Y-70257702D01*
X79554312Y-70203714D01*
X79495776Y-70116111D01*
X79485858Y-70101267D01*
X79398733Y-70014142D01*
X79398732Y-70014141D01*
X79395621Y-70011030D01*
X79395606Y-70011016D01*
X77490198Y-68105608D01*
X77490178Y-68105586D01*
X77398733Y-68014141D01*
X77347509Y-67979915D01*
X77296287Y-67945689D01*
X77296286Y-67945688D01*
X77296283Y-67945686D01*
X77296280Y-67945685D01*
X77215792Y-67912347D01*
X77182453Y-67898537D01*
X77172427Y-67896543D01*
X77122029Y-67886518D01*
X77061610Y-67874500D01*
X77061607Y-67874500D01*
X77061606Y-67874500D01*
X68044855Y-67874500D01*
X67978883Y-67855494D01*
X67849523Y-67774211D01*
X67679254Y-67714631D01*
X67679249Y-67714630D01*
X67500004Y-67694435D01*
X67499996Y-67694435D01*
X67320750Y-67714630D01*
X67320745Y-67714631D01*
X67150476Y-67774211D01*
X66997737Y-67870184D01*
X66870184Y-67997737D01*
X66774211Y-68150476D01*
X66714631Y-68320745D01*
X66714630Y-68320750D01*
X66694435Y-68499996D01*
X66694435Y-68500003D01*
X66714630Y-68679249D01*
X66714631Y-68679254D01*
X66774211Y-68849523D01*
X66870184Y-69002262D01*
X66997738Y-69129816D01*
X67150478Y-69225789D01*
X67320745Y-69285368D01*
X67320750Y-69285369D01*
X67499996Y-69305565D01*
X67500000Y-69305565D01*
X67500004Y-69305565D01*
X67679249Y-69285369D01*
X67679252Y-69285368D01*
X67679255Y-69285368D01*
X67849522Y-69225789D01*
X67978883Y-69144505D01*
X68044855Y-69125500D01*
X76689548Y-69125500D01*
X76756587Y-69145185D01*
X76777229Y-69161819D01*
X77623229Y-70007819D01*
X77656714Y-70069142D01*
X77651730Y-70138834D01*
X77609858Y-70194767D01*
X77544394Y-70219184D01*
X77535548Y-70219500D01*
X77503951Y-70219500D01*
X77458164Y-70227140D01*
X77275015Y-70257702D01*
X77055504Y-70333061D01*
X77055495Y-70333064D01*
X76851371Y-70443531D01*
X76851365Y-70443535D01*
X76668222Y-70586081D01*
X76668219Y-70586084D01*
X76511016Y-70756852D01*
X76453809Y-70844416D01*
X76400662Y-70889773D01*
X76331431Y-70899197D01*
X76268095Y-70869695D01*
X76246191Y-70844416D01*
X76188983Y-70756852D01*
X76188980Y-70756849D01*
X76188979Y-70756847D01*
X76031784Y-70586087D01*
X76031779Y-70586083D01*
X76031777Y-70586081D01*
X75848634Y-70443535D01*
X75848628Y-70443531D01*
X75644504Y-70333064D01*
X75644495Y-70333061D01*
X75424984Y-70257702D01*
X75253282Y-70229050D01*
X75196049Y-70219500D01*
X74963951Y-70219500D01*
X74918164Y-70227140D01*
X74735015Y-70257702D01*
X74515504Y-70333061D01*
X74515495Y-70333064D01*
X74311371Y-70443531D01*
X74311365Y-70443535D01*
X74128222Y-70586081D01*
X74128219Y-70586084D01*
X73971016Y-70756852D01*
X73913809Y-70844416D01*
X73860662Y-70889773D01*
X73791431Y-70899197D01*
X73728095Y-70869695D01*
X73706191Y-70844416D01*
X73648983Y-70756852D01*
X73648980Y-70756849D01*
X73648979Y-70756847D01*
X73491784Y-70586087D01*
X73491779Y-70586083D01*
X73491777Y-70586081D01*
X73308634Y-70443535D01*
X73308628Y-70443531D01*
X73104504Y-70333064D01*
X73104495Y-70333061D01*
X72884984Y-70257702D01*
X72713282Y-70229050D01*
X72656049Y-70219500D01*
X72423951Y-70219500D01*
X72378164Y-70227140D01*
X72195015Y-70257702D01*
X71975504Y-70333061D01*
X71975495Y-70333064D01*
X71771371Y-70443531D01*
X71771365Y-70443535D01*
X71588222Y-70586081D01*
X71588219Y-70586084D01*
X71431016Y-70756852D01*
X71373809Y-70844416D01*
X71320662Y-70889773D01*
X71251431Y-70899197D01*
X71188095Y-70869695D01*
X71166191Y-70844416D01*
X71108983Y-70756852D01*
X71108980Y-70756849D01*
X71108979Y-70756847D01*
X70951784Y-70586087D01*
X70951779Y-70586083D01*
X70951777Y-70586081D01*
X70768634Y-70443535D01*
X70768628Y-70443531D01*
X70564504Y-70333064D01*
X70564495Y-70333061D01*
X70344984Y-70257702D01*
X70173282Y-70229050D01*
X70116049Y-70219500D01*
X69883951Y-70219500D01*
X69838164Y-70227140D01*
X69655015Y-70257702D01*
X69435504Y-70333061D01*
X69435495Y-70333064D01*
X69231371Y-70443531D01*
X69231365Y-70443535D01*
X69048222Y-70586081D01*
X69048219Y-70586084D01*
X68891016Y-70756852D01*
X68833809Y-70844416D01*
X68780662Y-70889773D01*
X68711431Y-70899197D01*
X68648095Y-70869695D01*
X68626191Y-70844416D01*
X68568983Y-70756852D01*
X68568980Y-70756849D01*
X68568979Y-70756847D01*
X68411784Y-70586087D01*
X68411779Y-70586083D01*
X68411777Y-70586081D01*
X68228634Y-70443535D01*
X68228628Y-70443531D01*
X68024504Y-70333064D01*
X68024495Y-70333061D01*
X67804984Y-70257702D01*
X67633282Y-70229050D01*
X67576049Y-70219500D01*
X67343951Y-70219500D01*
X67298164Y-70227140D01*
X67115015Y-70257702D01*
X66895504Y-70333061D01*
X66895495Y-70333064D01*
X66691371Y-70443531D01*
X66691365Y-70443535D01*
X66508222Y-70586081D01*
X66508219Y-70586084D01*
X66351016Y-70756852D01*
X66293809Y-70844416D01*
X66240662Y-70889773D01*
X66171431Y-70899197D01*
X66108095Y-70869695D01*
X66086191Y-70844416D01*
X66028983Y-70756852D01*
X66028980Y-70756849D01*
X66028979Y-70756847D01*
X65871784Y-70586087D01*
X65871779Y-70586083D01*
X65871777Y-70586081D01*
X65688634Y-70443535D01*
X65688628Y-70443531D01*
X65484504Y-70333064D01*
X65484495Y-70333061D01*
X65264984Y-70257702D01*
X65093282Y-70229050D01*
X65036049Y-70219500D01*
X64803951Y-70219500D01*
X64758164Y-70227140D01*
X64575015Y-70257702D01*
X64355504Y-70333061D01*
X64355495Y-70333064D01*
X64151371Y-70443531D01*
X64151365Y-70443535D01*
X63968222Y-70586081D01*
X63968219Y-70586084D01*
X63811016Y-70756852D01*
X63753809Y-70844416D01*
X63700662Y-70889773D01*
X63631431Y-70899197D01*
X63568095Y-70869695D01*
X63546191Y-70844416D01*
X63488983Y-70756852D01*
X63488980Y-70756849D01*
X63488979Y-70756847D01*
X63331784Y-70586087D01*
X63331779Y-70586083D01*
X63331777Y-70586081D01*
X63148634Y-70443535D01*
X63148628Y-70443531D01*
X62944504Y-70333064D01*
X62944495Y-70333061D01*
X62724984Y-70257702D01*
X62553282Y-70229050D01*
X62496049Y-70219500D01*
X62263951Y-70219500D01*
X62218164Y-70227140D01*
X62035015Y-70257702D01*
X61815504Y-70333061D01*
X61815495Y-70333064D01*
X61611371Y-70443531D01*
X61611365Y-70443535D01*
X61428222Y-70586081D01*
X61428219Y-70586084D01*
X61271016Y-70756852D01*
X61144076Y-70951149D01*
X61131380Y-70980095D01*
X61086424Y-71033580D01*
X61019687Y-71054270D01*
X60952360Y-71035595D01*
X60930143Y-71017965D01*
X60536819Y-70624641D01*
X60503334Y-70563318D01*
X60500500Y-70536960D01*
X60500500Y-64965782D01*
X60520185Y-64898743D01*
X60536819Y-64878101D01*
X61378102Y-64036819D01*
X61439425Y-64003334D01*
X61465783Y-64000500D01*
X70098542Y-64000500D01*
X70117870Y-63996655D01*
X70195188Y-63981275D01*
X70291836Y-63962051D01*
X70345165Y-63939961D01*
X70473914Y-63886632D01*
X70637782Y-63777139D01*
X70777139Y-63637782D01*
X70777139Y-63637780D01*
X70787347Y-63627573D01*
X70787348Y-63627570D01*
X73317139Y-61097782D01*
X73354129Y-61042421D01*
X73426631Y-60933916D01*
X73426636Y-60933906D01*
X73502049Y-60751839D01*
X73502051Y-60751835D01*
X73540500Y-60558541D01*
X73540500Y-57661184D01*
X74505920Y-57661184D01*
X74515700Y-57666477D01*
X74515709Y-57666481D01*
X74735139Y-57741811D01*
X74963993Y-57780000D01*
X75196007Y-57780000D01*
X75424860Y-57741811D01*
X75644301Y-57666476D01*
X75654077Y-57661185D01*
X75654078Y-57661184D01*
X75080001Y-57087106D01*
X75080000Y-57087106D01*
X74505920Y-57661184D01*
X73540500Y-57661184D01*
X73540500Y-57409377D01*
X73560185Y-57342338D01*
X73573264Y-57325401D01*
X73648979Y-57243153D01*
X73775924Y-57048849D01*
X73822718Y-56942167D01*
X73848591Y-56904300D01*
X74638765Y-56114127D01*
X74700088Y-56080642D01*
X74769780Y-56085626D01*
X74787955Y-56097307D01*
X74754799Y-56130464D01*
X74701295Y-56223135D01*
X74673600Y-56326496D01*
X74673600Y-56433504D01*
X74701295Y-56536865D01*
X74754799Y-56629536D01*
X74830464Y-56705201D01*
X74923135Y-56758705D01*
X75026496Y-56786400D01*
X75133504Y-56786400D01*
X75236865Y-56758705D01*
X75329536Y-56705201D01*
X75405201Y-56629536D01*
X75458705Y-56536865D01*
X75486400Y-56433504D01*
X75486400Y-56326496D01*
X75458705Y-56223135D01*
X75405201Y-56130464D01*
X75373679Y-56098942D01*
X75407195Y-56080642D01*
X75476886Y-56085626D01*
X75521234Y-56114127D01*
X76311406Y-56904299D01*
X76337281Y-56942169D01*
X76384076Y-57048850D01*
X76511016Y-57243147D01*
X76511019Y-57243151D01*
X76511021Y-57243153D01*
X76668216Y-57413913D01*
X76668219Y-57413915D01*
X76668222Y-57413918D01*
X76851365Y-57556464D01*
X76851371Y-57556468D01*
X76851374Y-57556470D01*
X77055497Y-57666936D01*
X77169487Y-57706068D01*
X77275015Y-57742297D01*
X77275017Y-57742297D01*
X77275019Y-57742298D01*
X77503951Y-57780500D01*
X77503952Y-57780500D01*
X77736048Y-57780500D01*
X77736049Y-57780500D01*
X77964981Y-57742298D01*
X78184503Y-57666936D01*
X78388626Y-57556470D01*
X78388634Y-57556464D01*
X78549338Y-57431384D01*
X78614332Y-57405741D01*
X78682872Y-57419308D01*
X78733196Y-57467776D01*
X78749500Y-57529237D01*
X78749500Y-62073918D01*
X78749500Y-62073920D01*
X78749499Y-62073920D01*
X78778340Y-62218907D01*
X78778343Y-62218917D01*
X78834913Y-62355490D01*
X78834914Y-62355492D01*
X78834915Y-62355494D01*
X78834916Y-62355495D01*
X78839405Y-62362213D01*
X78839407Y-62362219D01*
X78839408Y-62362219D01*
X78917046Y-62478414D01*
X78917052Y-62478421D01*
X80917049Y-64478416D01*
X81011122Y-64572489D01*
X81021585Y-64582952D01*
X81144498Y-64665080D01*
X81144511Y-64665087D01*
X81281082Y-64721656D01*
X81281087Y-64721658D01*
X81281091Y-64721658D01*
X81281092Y-64721659D01*
X81426071Y-64750498D01*
X81426072Y-64750498D01*
X81426082Y-64750500D01*
X81426083Y-64750500D01*
X81426091Y-64750500D01*
X81429704Y-64750856D01*
X81431485Y-64751575D01*
X81432057Y-64751689D01*
X81432035Y-64751797D01*
X81494493Y-64777014D01*
X81505237Y-64786579D01*
X81558072Y-64839414D01*
X81558078Y-64839418D01*
X81641023Y-64899683D01*
X81683689Y-64955013D01*
X81689667Y-65024626D01*
X81657061Y-65086421D01*
X81641023Y-65100317D01*
X81558078Y-65160581D01*
X81558069Y-65160588D01*
X81435588Y-65283069D01*
X81435588Y-65283070D01*
X81435586Y-65283072D01*
X81423233Y-65300075D01*
X81333768Y-65423211D01*
X81255128Y-65577552D01*
X81201597Y-65742302D01*
X81189553Y-65818345D01*
X81174500Y-65913389D01*
X81174500Y-66086611D01*
X81201598Y-66257701D01*
X81255127Y-66422445D01*
X81333768Y-66576788D01*
X81435586Y-66716928D01*
X81558072Y-66839414D01*
X81698212Y-66941232D01*
X81852555Y-67019873D01*
X82017299Y-67073402D01*
X82188389Y-67100500D01*
X82188390Y-67100500D01*
X82911610Y-67100500D01*
X82911611Y-67100500D01*
X83082701Y-67073402D01*
X83247445Y-67019873D01*
X83401788Y-66941232D01*
X83541928Y-66839414D01*
X83664414Y-66716928D01*
X83766232Y-66576788D01*
X83844873Y-66422445D01*
X83898402Y-66257701D01*
X83925500Y-66086611D01*
X83925500Y-65913389D01*
X83898402Y-65742299D01*
X83844873Y-65577555D01*
X83766232Y-65423212D01*
X83664414Y-65283072D01*
X83541928Y-65160586D01*
X83458975Y-65100317D01*
X83416311Y-65044988D01*
X83410332Y-64975374D01*
X83442938Y-64913579D01*
X83458976Y-64899682D01*
X83541928Y-64839414D01*
X83664414Y-64716928D01*
X83766232Y-64576788D01*
X83844873Y-64422445D01*
X83898402Y-64257701D01*
X83925500Y-64086611D01*
X83925500Y-63913389D01*
X83898402Y-63742299D01*
X83844873Y-63577555D01*
X83766232Y-63423212D01*
X83664414Y-63283072D01*
X83556508Y-63175166D01*
X83523023Y-63113843D01*
X83528007Y-63044151D01*
X83569879Y-62988218D01*
X83579094Y-62981945D01*
X83643345Y-62942315D01*
X83767315Y-62818345D01*
X83859356Y-62669124D01*
X83859358Y-62669119D01*
X83914504Y-62502701D01*
X83914505Y-62502694D01*
X83914781Y-62500000D01*
X81162177Y-62500000D01*
X81154336Y-62504813D01*
X81084481Y-62503368D01*
X81034188Y-62472820D01*
X80511998Y-61950630D01*
X82175000Y-61950630D01*
X82175000Y-62049370D01*
X82200556Y-62144745D01*
X82249925Y-62230255D01*
X82319745Y-62300075D01*
X82405255Y-62349444D01*
X82500630Y-62375000D01*
X82599370Y-62375000D01*
X82694745Y-62349444D01*
X82780255Y-62300075D01*
X82850075Y-62230255D01*
X82899444Y-62144745D01*
X82925000Y-62049370D01*
X82925000Y-61950630D01*
X82899444Y-61855255D01*
X82850075Y-61769745D01*
X82780255Y-61699925D01*
X82694745Y-61650556D01*
X82599370Y-61625000D01*
X82500630Y-61625000D01*
X82405255Y-61650556D01*
X82319745Y-61699925D01*
X82249925Y-61769745D01*
X82200556Y-61855255D01*
X82175000Y-61950630D01*
X80511998Y-61950630D01*
X80286819Y-61725451D01*
X80253334Y-61664128D01*
X80250500Y-61637770D01*
X80250500Y-61500000D01*
X81185219Y-61500000D01*
X82050000Y-61500000D01*
X83050000Y-61500000D01*
X83914780Y-61500000D01*
X83914505Y-61497305D01*
X83914504Y-61497298D01*
X83859358Y-61330880D01*
X83859356Y-61330875D01*
X83767315Y-61181654D01*
X83643345Y-61057684D01*
X83494124Y-60965643D01*
X83494119Y-60965641D01*
X83327697Y-60910494D01*
X83327690Y-60910493D01*
X83224986Y-60900000D01*
X83050000Y-60900000D01*
X83050000Y-61500000D01*
X82050000Y-61500000D01*
X82050000Y-60900000D01*
X81875029Y-60900000D01*
X81875012Y-60900001D01*
X81772302Y-60910494D01*
X81605880Y-60965641D01*
X81605875Y-60965643D01*
X81456654Y-61057684D01*
X81332684Y-61181654D01*
X81240643Y-61330875D01*
X81240641Y-61330880D01*
X81185495Y-61497298D01*
X81185494Y-61497305D01*
X81185219Y-61500000D01*
X80250500Y-61500000D01*
X80250500Y-56276890D01*
X80221659Y-56131903D01*
X80221658Y-56131902D01*
X80221658Y-56131898D01*
X80165084Y-55995316D01*
X80105463Y-55906086D01*
X80105463Y-55906085D01*
X80105461Y-55906084D01*
X80082952Y-55872395D01*
X79414087Y-55203530D01*
X78657610Y-54447052D01*
X78657603Y-54447046D01*
X78573075Y-54390567D01*
X78573074Y-54390567D01*
X78534690Y-54364919D01*
X78534677Y-54364912D01*
X78398106Y-54308343D01*
X78398096Y-54308340D01*
X78253109Y-54279500D01*
X78253107Y-54279500D01*
X66343917Y-54279500D01*
X66196082Y-54279500D01*
X66196080Y-54279500D01*
X66051092Y-54308340D01*
X66051082Y-54308343D01*
X65914511Y-54364912D01*
X65914498Y-54364919D01*
X65791584Y-54447048D01*
X65791580Y-54447051D01*
X65272363Y-54966268D01*
X65211040Y-54999753D01*
X65164273Y-55000896D01*
X65036049Y-54979500D01*
X64803951Y-54979500D01*
X64769823Y-54985195D01*
X64575015Y-55017702D01*
X64355504Y-55093061D01*
X64355495Y-55093064D01*
X64151371Y-55203531D01*
X64151365Y-55203535D01*
X63968222Y-55346081D01*
X63968219Y-55346084D01*
X63811016Y-55516852D01*
X63753809Y-55604416D01*
X63700662Y-55649773D01*
X63631431Y-55659197D01*
X63568095Y-55629695D01*
X63546191Y-55604416D01*
X63488983Y-55516852D01*
X63488980Y-55516849D01*
X63488979Y-55516847D01*
X63331784Y-55346087D01*
X63331779Y-55346083D01*
X63331777Y-55346081D01*
X63148634Y-55203535D01*
X63148628Y-55203531D01*
X62944504Y-55093064D01*
X62944495Y-55093061D01*
X62724984Y-55017702D01*
X62530177Y-54985195D01*
X62496049Y-54979500D01*
X62263951Y-54979500D01*
X62229823Y-54985195D01*
X62035015Y-55017702D01*
X61815504Y-55093061D01*
X61815495Y-55093064D01*
X61611371Y-55203531D01*
X61611365Y-55203535D01*
X61428222Y-55346081D01*
X61428219Y-55346084D01*
X61271016Y-55516852D01*
X61144075Y-55711151D01*
X61050842Y-55923699D01*
X60993866Y-56148691D01*
X60993864Y-56148702D01*
X60974700Y-56379993D01*
X60974700Y-56380006D01*
X60993864Y-56611297D01*
X60993866Y-56611308D01*
X61050842Y-56836300D01*
X61144075Y-57048848D01*
X61271016Y-57243147D01*
X61271019Y-57243151D01*
X61271021Y-57243153D01*
X61428216Y-57413913D01*
X61428219Y-57413915D01*
X61428222Y-57413918D01*
X61611365Y-57556464D01*
X61611371Y-57556468D01*
X61611374Y-57556470D01*
X61815497Y-57666936D01*
X61929487Y-57706068D01*
X62035015Y-57742297D01*
X62035017Y-57742297D01*
X62035019Y-57742298D01*
X62263951Y-57780500D01*
X62263952Y-57780500D01*
X62496048Y-57780500D01*
X62496049Y-57780500D01*
X62724981Y-57742298D01*
X62944503Y-57666936D01*
X63148626Y-57556470D01*
X63331784Y-57413913D01*
X63488979Y-57243153D01*
X63546191Y-57155582D01*
X63599337Y-57110226D01*
X63668568Y-57100802D01*
X63731904Y-57130304D01*
X63753809Y-57155583D01*
X63811016Y-57243147D01*
X63811019Y-57243151D01*
X63811021Y-57243153D01*
X63968216Y-57413913D01*
X63968219Y-57413915D01*
X63968222Y-57413918D01*
X64151365Y-57556464D01*
X64151371Y-57556468D01*
X64151374Y-57556470D01*
X64355497Y-57666936D01*
X64469487Y-57706068D01*
X64575015Y-57742297D01*
X64575017Y-57742297D01*
X64575019Y-57742298D01*
X64803951Y-57780500D01*
X64803952Y-57780500D01*
X65036048Y-57780500D01*
X65036049Y-57780500D01*
X65264981Y-57742298D01*
X65484503Y-57666936D01*
X65688626Y-57556470D01*
X65871784Y-57413913D01*
X66028979Y-57243153D01*
X66086191Y-57155582D01*
X66139337Y-57110226D01*
X66208568Y-57100802D01*
X66271904Y-57130304D01*
X66293809Y-57155583D01*
X66351016Y-57243147D01*
X66351019Y-57243151D01*
X66351021Y-57243153D01*
X66508216Y-57413913D01*
X66508219Y-57413915D01*
X66508222Y-57413918D01*
X66691365Y-57556464D01*
X66691371Y-57556468D01*
X66691374Y-57556470D01*
X66895497Y-57666936D01*
X67009487Y-57706068D01*
X67115015Y-57742297D01*
X67115017Y-57742297D01*
X67115019Y-57742298D01*
X67343951Y-57780500D01*
X67343952Y-57780500D01*
X67576048Y-57780500D01*
X67576049Y-57780500D01*
X67804981Y-57742298D01*
X68024503Y-57666936D01*
X68228626Y-57556470D01*
X68411784Y-57413913D01*
X68568979Y-57243153D01*
X68626191Y-57155582D01*
X68679337Y-57110226D01*
X68748568Y-57100802D01*
X68811904Y-57130304D01*
X68833809Y-57155583D01*
X68891016Y-57243147D01*
X68891019Y-57243151D01*
X68891021Y-57243153D01*
X69048216Y-57413913D01*
X69048219Y-57413915D01*
X69048222Y-57413918D01*
X69231365Y-57556464D01*
X69231371Y-57556468D01*
X69231374Y-57556470D01*
X69435497Y-57666936D01*
X69549487Y-57706068D01*
X69655015Y-57742297D01*
X69655017Y-57742297D01*
X69655019Y-57742298D01*
X69883951Y-57780500D01*
X69883952Y-57780500D01*
X70116048Y-57780500D01*
X70116049Y-57780500D01*
X70344981Y-57742298D01*
X70564503Y-57666936D01*
X70768626Y-57556470D01*
X70951784Y-57413913D01*
X71108979Y-57243153D01*
X71166191Y-57155582D01*
X71219337Y-57110226D01*
X71288568Y-57100802D01*
X71351904Y-57130304D01*
X71373809Y-57155583D01*
X71431016Y-57243147D01*
X71431019Y-57243151D01*
X71431021Y-57243153D01*
X71506731Y-57325396D01*
X71537652Y-57388049D01*
X71539500Y-57409377D01*
X71539500Y-59994217D01*
X71519815Y-60061256D01*
X71503181Y-60081898D01*
X69621899Y-61963181D01*
X69560576Y-61996666D01*
X69534218Y-61999500D01*
X58215237Y-61999500D01*
X58158941Y-61985984D01*
X58147449Y-61980128D01*
X58056663Y-61950630D01*
X57982701Y-61926598D01*
X57982699Y-61926597D01*
X57982698Y-61926597D01*
X57851271Y-61905781D01*
X57811611Y-61899500D01*
X57088389Y-61899500D01*
X57048728Y-61905781D01*
X56917302Y-61926597D01*
X56752552Y-61980128D01*
X56598211Y-62058768D01*
X56518256Y-62116859D01*
X56458072Y-62160586D01*
X56458070Y-62160588D01*
X56458069Y-62160588D01*
X56335588Y-62283069D01*
X56335588Y-62283070D01*
X56335586Y-62283072D01*
X56323233Y-62300075D01*
X56233768Y-62423211D01*
X56155128Y-62577552D01*
X56101597Y-62742302D01*
X56089553Y-62818345D01*
X56074500Y-62913389D01*
X50500500Y-62913389D01*
X50500500Y-54115797D01*
X50520185Y-54048758D01*
X50572989Y-54003003D01*
X50642147Y-53993059D01*
X50705703Y-54022084D01*
X50736698Y-54063000D01*
X50804461Y-54207003D01*
X50804464Y-54207009D01*
X50973051Y-54472661D01*
X50973054Y-54472665D01*
X51173606Y-54715090D01*
X51173608Y-54715092D01*
X51173610Y-54715094D01*
X51289971Y-54824364D01*
X51402968Y-54930476D01*
X51402978Y-54930484D01*
X51657504Y-55115408D01*
X51657509Y-55115410D01*
X51657516Y-55115416D01*
X51933234Y-55266994D01*
X51933239Y-55266996D01*
X51933241Y-55266997D01*
X51933242Y-55266998D01*
X52225771Y-55382818D01*
X52225774Y-55382819D01*
X52530523Y-55461065D01*
X52530527Y-55461066D01*
X52596010Y-55469338D01*
X52842670Y-55500499D01*
X52842679Y-55500499D01*
X52842682Y-55500500D01*
X52842684Y-55500500D01*
X53157316Y-55500500D01*
X53157318Y-55500500D01*
X53157321Y-55500499D01*
X53157329Y-55500499D01*
X53343593Y-55476968D01*
X53469473Y-55461066D01*
X53774225Y-55382819D01*
X53867000Y-55346087D01*
X54066757Y-55266998D01*
X54066758Y-55266997D01*
X54066756Y-55266997D01*
X54066766Y-55266994D01*
X54342484Y-55115416D01*
X54597030Y-54930478D01*
X54826390Y-54715094D01*
X55026947Y-54472663D01*
X55195537Y-54207007D01*
X55329503Y-53922315D01*
X55426731Y-53623079D01*
X55485688Y-53314015D01*
X55490104Y-53243833D01*
X55505444Y-53000000D01*
X55505444Y-52999998D01*
X56994390Y-52999998D01*
X56994390Y-53000000D01*
X57014804Y-53285433D01*
X57075628Y-53565037D01*
X57075630Y-53565043D01*
X57075631Y-53565046D01*
X57148081Y-53759292D01*
X57175635Y-53833166D01*
X57312770Y-54084309D01*
X57312775Y-54084317D01*
X57484254Y-54313387D01*
X57484270Y-54313405D01*
X57686594Y-54515729D01*
X57686612Y-54515745D01*
X57915682Y-54687224D01*
X57915690Y-54687229D01*
X58166833Y-54824364D01*
X58166832Y-54824364D01*
X58166836Y-54824365D01*
X58166839Y-54824367D01*
X58434954Y-54924369D01*
X58434960Y-54924370D01*
X58434962Y-54924371D01*
X58714566Y-54985195D01*
X58714568Y-54985195D01*
X58714572Y-54985196D01*
X58968220Y-55003337D01*
X58999999Y-55005610D01*
X59000000Y-55005610D01*
X59000001Y-55005610D01*
X59028595Y-55003564D01*
X59285428Y-54985196D01*
X59311613Y-54979500D01*
X59565037Y-54924371D01*
X59565037Y-54924370D01*
X59565046Y-54924369D01*
X59833161Y-54824367D01*
X60084315Y-54687226D01*
X60313395Y-54515739D01*
X60515739Y-54313395D01*
X60687226Y-54084315D01*
X60824367Y-53833161D01*
X60924369Y-53565046D01*
X60968674Y-53361379D01*
X60985195Y-53285433D01*
X60985195Y-53285432D01*
X60985196Y-53285428D01*
X61005610Y-53000000D01*
X60985196Y-52714572D01*
X60978979Y-52685995D01*
X60938518Y-52499997D01*
X64930708Y-52499997D01*
X64930708Y-52500002D01*
X64949479Y-52714566D01*
X64949839Y-52718674D01*
X65006653Y-52930703D01*
X65006654Y-52930706D01*
X65006655Y-52930708D01*
X65099419Y-53129642D01*
X65099423Y-53129650D01*
X65225322Y-53309452D01*
X65225327Y-53309458D01*
X65380541Y-53464672D01*
X65380547Y-53464677D01*
X65560349Y-53590576D01*
X65560351Y-53590577D01*
X65560354Y-53590579D01*
X65759297Y-53683347D01*
X65971326Y-53740161D01*
X66127521Y-53753826D01*
X66189998Y-53759292D01*
X66190000Y-53759292D01*
X66190002Y-53759292D01*
X66250501Y-53753999D01*
X66408674Y-53740161D01*
X66620703Y-53683347D01*
X66819646Y-53590579D01*
X66999457Y-53464674D01*
X67154674Y-53309457D01*
X67280579Y-53129646D01*
X67347618Y-52985878D01*
X67393790Y-52933439D01*
X67460983Y-52914287D01*
X67527864Y-52934502D01*
X67572381Y-52985878D01*
X67611373Y-53069497D01*
X67639419Y-53129642D01*
X67639423Y-53129650D01*
X67765322Y-53309452D01*
X67765327Y-53309458D01*
X67920541Y-53464672D01*
X67920547Y-53464677D01*
X68100349Y-53590576D01*
X68100351Y-53590577D01*
X68100354Y-53590579D01*
X68299297Y-53683347D01*
X68511326Y-53740161D01*
X68667521Y-53753826D01*
X68729998Y-53759292D01*
X68730000Y-53759292D01*
X68730002Y-53759292D01*
X68790501Y-53753999D01*
X68948674Y-53740161D01*
X69160703Y-53683347D01*
X69359646Y-53590579D01*
X69539457Y-53464674D01*
X69694674Y-53309457D01*
X69820579Y-53129646D01*
X69887618Y-52985878D01*
X69933790Y-52933439D01*
X70000983Y-52914287D01*
X70067864Y-52934502D01*
X70112381Y-52985878D01*
X70151373Y-53069497D01*
X70179419Y-53129642D01*
X70179423Y-53129650D01*
X70305322Y-53309452D01*
X70305327Y-53309458D01*
X70460541Y-53464672D01*
X70460547Y-53464677D01*
X70640349Y-53590576D01*
X70640351Y-53590577D01*
X70640354Y-53590579D01*
X70839297Y-53683347D01*
X71051326Y-53740161D01*
X71207521Y-53753826D01*
X71269998Y-53759292D01*
X71270000Y-53759292D01*
X71270002Y-53759292D01*
X71330501Y-53753999D01*
X71488674Y-53740161D01*
X71700703Y-53683347D01*
X71899646Y-53590579D01*
X72079457Y-53464674D01*
X72234674Y-53309457D01*
X72330425Y-53172709D01*
X72385002Y-53129085D01*
X72454500Y-53121891D01*
X72516855Y-53153414D01*
X72552269Y-53213643D01*
X72556000Y-53243833D01*
X72556000Y-53301844D01*
X72562401Y-53361372D01*
X72562403Y-53361379D01*
X72612645Y-53496086D01*
X72612649Y-53496093D01*
X72698809Y-53611187D01*
X72698812Y-53611190D01*
X72813906Y-53697350D01*
X72813913Y-53697354D01*
X72948620Y-53747596D01*
X72948627Y-53747598D01*
X73008155Y-53753999D01*
X73008172Y-53754000D01*
X73310000Y-53754000D01*
X74310000Y-53754000D01*
X74611828Y-53754000D01*
X74611844Y-53753999D01*
X74671372Y-53747598D01*
X74671379Y-53747596D01*
X74806086Y-53697354D01*
X74806093Y-53697350D01*
X74921187Y-53611190D01*
X74921190Y-53611187D01*
X75007350Y-53496093D01*
X75007354Y-53496086D01*
X75057596Y-53361379D01*
X75057598Y-53361372D01*
X75063999Y-53301844D01*
X75064000Y-53301827D01*
X75064000Y-53000000D01*
X74310000Y-53000000D01*
X74310000Y-53754000D01*
X73310000Y-53754000D01*
X73310000Y-52565826D01*
X73344075Y-52692993D01*
X73409901Y-52807007D01*
X73502993Y-52900099D01*
X73617007Y-52965925D01*
X73744174Y-53000000D01*
X73875826Y-53000000D01*
X73875833Y-52999998D01*
X78994390Y-52999998D01*
X78994390Y-53000000D01*
X79014804Y-53285433D01*
X79075628Y-53565037D01*
X79075630Y-53565043D01*
X79075631Y-53565046D01*
X79148081Y-53759292D01*
X79175635Y-53833166D01*
X79312770Y-54084309D01*
X79312775Y-54084317D01*
X79484254Y-54313387D01*
X79484270Y-54313405D01*
X79686594Y-54515729D01*
X79686612Y-54515745D01*
X79915682Y-54687224D01*
X79915690Y-54687229D01*
X80166833Y-54824364D01*
X80166832Y-54824364D01*
X80166836Y-54824365D01*
X80166839Y-54824367D01*
X80434954Y-54924369D01*
X80434960Y-54924370D01*
X80434962Y-54924371D01*
X80714566Y-54985195D01*
X80714568Y-54985195D01*
X80714572Y-54985196D01*
X80968220Y-55003337D01*
X80999999Y-55005610D01*
X81000000Y-55005610D01*
X81000001Y-55005610D01*
X81028595Y-55003564D01*
X81285428Y-54985196D01*
X81311613Y-54979500D01*
X81565037Y-54924371D01*
X81565037Y-54924370D01*
X81565046Y-54924369D01*
X81833161Y-54824367D01*
X82084315Y-54687226D01*
X82313395Y-54515739D01*
X82515739Y-54313395D01*
X82687226Y-54084315D01*
X82824367Y-53833161D01*
X82924369Y-53565046D01*
X82968674Y-53361379D01*
X82985195Y-53285433D01*
X82985195Y-53285432D01*
X82985196Y-53285428D01*
X83005610Y-53000000D01*
X82985196Y-52714572D01*
X82978979Y-52685995D01*
X82924371Y-52434962D01*
X82924370Y-52434960D01*
X82924369Y-52434954D01*
X82824367Y-52166839D01*
X82769610Y-52066560D01*
X82687229Y-51915690D01*
X82687224Y-51915682D01*
X82515745Y-51686612D01*
X82515729Y-51686594D01*
X82313405Y-51484270D01*
X82313387Y-51484254D01*
X82084317Y-51312775D01*
X82084309Y-51312770D01*
X81833166Y-51175635D01*
X81833167Y-51175635D01*
X81725915Y-51135632D01*
X81565046Y-51075631D01*
X81565043Y-51075630D01*
X81565037Y-51075628D01*
X81285433Y-51014804D01*
X81000001Y-50994390D01*
X80999999Y-50994390D01*
X80714566Y-51014804D01*
X80434962Y-51075628D01*
X80166833Y-51175635D01*
X79915690Y-51312770D01*
X79915682Y-51312775D01*
X79686612Y-51484254D01*
X79686594Y-51484270D01*
X79484270Y-51686594D01*
X79484254Y-51686612D01*
X79312775Y-51915682D01*
X79312770Y-51915690D01*
X79175635Y-52166833D01*
X79075628Y-52434962D01*
X79014804Y-52714566D01*
X78994390Y-52999998D01*
X73875833Y-52999998D01*
X74002993Y-52965925D01*
X74117007Y-52900099D01*
X74210099Y-52807007D01*
X74275925Y-52692993D01*
X74310000Y-52565826D01*
X74310000Y-52434174D01*
X74275925Y-52307007D01*
X74210099Y-52192993D01*
X74117007Y-52099901D01*
X74002993Y-52034075D01*
X73875826Y-52000000D01*
X74310000Y-52000000D01*
X75064000Y-52000000D01*
X75064000Y-51698172D01*
X75063999Y-51698155D01*
X75057598Y-51638627D01*
X75057596Y-51638620D01*
X75007354Y-51503913D01*
X75007350Y-51503906D01*
X74921190Y-51388812D01*
X74921187Y-51388809D01*
X74806093Y-51302649D01*
X74806086Y-51302645D01*
X74671379Y-51252403D01*
X74671372Y-51252401D01*
X74611844Y-51246000D01*
X74310000Y-51246000D01*
X74310000Y-52000000D01*
X73875826Y-52000000D01*
X73744174Y-52000000D01*
X73617007Y-52034075D01*
X73502993Y-52099901D01*
X73409901Y-52192993D01*
X73344075Y-52307007D01*
X73310000Y-52434174D01*
X73310000Y-51246000D01*
X73008155Y-51246000D01*
X72948627Y-51252401D01*
X72948620Y-51252403D01*
X72813913Y-51302645D01*
X72813906Y-51302649D01*
X72698812Y-51388809D01*
X72698809Y-51388812D01*
X72612649Y-51503906D01*
X72612645Y-51503913D01*
X72562403Y-51638620D01*
X72562401Y-51638627D01*
X72556000Y-51698155D01*
X72556000Y-51756166D01*
X72536315Y-51823205D01*
X72483511Y-51868960D01*
X72414353Y-51878904D01*
X72350797Y-51849879D01*
X72330425Y-51827289D01*
X72272573Y-51744669D01*
X72234674Y-51690543D01*
X72079457Y-51535326D01*
X72079455Y-51535325D01*
X72079452Y-51535322D01*
X71899650Y-51409423D01*
X71899642Y-51409419D01*
X71700708Y-51316655D01*
X71700706Y-51316654D01*
X71700703Y-51316653D01*
X71549885Y-51276240D01*
X71488675Y-51259839D01*
X71488668Y-51259838D01*
X71270002Y-51240708D01*
X71269998Y-51240708D01*
X71051331Y-51259838D01*
X71051324Y-51259839D01*
X70957765Y-51284909D01*
X70839297Y-51316653D01*
X70839295Y-51316653D01*
X70839291Y-51316655D01*
X70640357Y-51409419D01*
X70640349Y-51409423D01*
X70460547Y-51535322D01*
X70460541Y-51535327D01*
X70305327Y-51690541D01*
X70305322Y-51690547D01*
X70179423Y-51870349D01*
X70179419Y-51870357D01*
X70112382Y-52014120D01*
X70066210Y-52066560D01*
X69999017Y-52085712D01*
X69932135Y-52065496D01*
X69887618Y-52014120D01*
X69841717Y-51915685D01*
X69820579Y-51870354D01*
X69820577Y-51870351D01*
X69820576Y-51870349D01*
X69694677Y-51690547D01*
X69694672Y-51690541D01*
X69539458Y-51535327D01*
X69539452Y-51535322D01*
X69359650Y-51409423D01*
X69359642Y-51409419D01*
X69160708Y-51316655D01*
X69160706Y-51316654D01*
X69160703Y-51316653D01*
X69009885Y-51276240D01*
X68948675Y-51259839D01*
X68948668Y-51259838D01*
X68730002Y-51240708D01*
X68729998Y-51240708D01*
X68511331Y-51259838D01*
X68511324Y-51259839D01*
X68417765Y-51284909D01*
X68299297Y-51316653D01*
X68299295Y-51316653D01*
X68299291Y-51316655D01*
X68100357Y-51409419D01*
X68100349Y-51409423D01*
X67920547Y-51535322D01*
X67920541Y-51535327D01*
X67765327Y-51690541D01*
X67765322Y-51690547D01*
X67639423Y-51870349D01*
X67639419Y-51870357D01*
X67572382Y-52014120D01*
X67526210Y-52066560D01*
X67459017Y-52085712D01*
X67392135Y-52065496D01*
X67347618Y-52014120D01*
X67301717Y-51915685D01*
X67280579Y-51870354D01*
X67280577Y-51870351D01*
X67280576Y-51870349D01*
X67154677Y-51690547D01*
X67154672Y-51690541D01*
X66999458Y-51535327D01*
X66999452Y-51535322D01*
X66819650Y-51409423D01*
X66819642Y-51409419D01*
X66620708Y-51316655D01*
X66620706Y-51316654D01*
X66620703Y-51316653D01*
X66469885Y-51276240D01*
X66408675Y-51259839D01*
X66408668Y-51259838D01*
X66190002Y-51240708D01*
X66189998Y-51240708D01*
X65971331Y-51259838D01*
X65971324Y-51259839D01*
X65877765Y-51284909D01*
X65759297Y-51316653D01*
X65759295Y-51316653D01*
X65759291Y-51316655D01*
X65560357Y-51409419D01*
X65560349Y-51409423D01*
X65380547Y-51535322D01*
X65380541Y-51535327D01*
X65225327Y-51690541D01*
X65225322Y-51690547D01*
X65099423Y-51870349D01*
X65099419Y-51870357D01*
X65006655Y-52069291D01*
X65006653Y-52069295D01*
X65006653Y-52069297D01*
X65002255Y-52085712D01*
X64949839Y-52281324D01*
X64949838Y-52281331D01*
X64930708Y-52499997D01*
X60938518Y-52499997D01*
X60924371Y-52434962D01*
X60924370Y-52434960D01*
X60924369Y-52434954D01*
X60824367Y-52166839D01*
X60769610Y-52066560D01*
X60687229Y-51915690D01*
X60687224Y-51915682D01*
X60515745Y-51686612D01*
X60515729Y-51686594D01*
X60313405Y-51484270D01*
X60313387Y-51484254D01*
X60084317Y-51312775D01*
X60084309Y-51312770D01*
X59833166Y-51175635D01*
X59833167Y-51175635D01*
X59725915Y-51135632D01*
X59565046Y-51075631D01*
X59565043Y-51075630D01*
X59565037Y-51075628D01*
X59285433Y-51014804D01*
X59000001Y-50994390D01*
X58999999Y-50994390D01*
X58714566Y-51014804D01*
X58434962Y-51075628D01*
X58166833Y-51175635D01*
X57915690Y-51312770D01*
X57915682Y-51312775D01*
X57686612Y-51484254D01*
X57686594Y-51484270D01*
X57484270Y-51686594D01*
X57484254Y-51686612D01*
X57312775Y-51915682D01*
X57312770Y-51915690D01*
X57175635Y-52166833D01*
X57075628Y-52434962D01*
X57014804Y-52714566D01*
X56994390Y-52999998D01*
X55505444Y-52999998D01*
X55505444Y-52999994D01*
X55485689Y-52685995D01*
X55485688Y-52685988D01*
X55485688Y-52685985D01*
X55426731Y-52376921D01*
X55329503Y-52077685D01*
X55323767Y-52065496D01*
X55253274Y-51915690D01*
X55195537Y-51792993D01*
X55032017Y-51535326D01*
X55026948Y-51527338D01*
X55026945Y-51527334D01*
X54826393Y-51284909D01*
X54826391Y-51284907D01*
X54710029Y-51175635D01*
X54597030Y-51069522D01*
X54597027Y-51069520D01*
X54597021Y-51069515D01*
X54342495Y-50884591D01*
X54342488Y-50884586D01*
X54342484Y-50884584D01*
X54067048Y-50733161D01*
X54017785Y-50683616D01*
X54003129Y-50615301D01*
X54027733Y-50549906D01*
X54083786Y-50508195D01*
X54126787Y-50500500D01*
X85873213Y-50500500D01*
X85940252Y-50520185D01*
G37*
%TD.AperFunction*%
%TD*%
M02*
