%TF.GenerationSoftware,KiCad,Pcbnew,8.0.7*%
%TF.CreationDate,2025-04-08T15:01:58+09:00*%
%TF.ProjectId,Choc2,43686f63-322e-46b6-9963-61645f706362,rev?*%
%TF.SameCoordinates,Original*%
%TF.FileFunction,Legend,Top*%
%TF.FilePolarity,Positive*%
%FSLAX46Y46*%
G04 Gerber Fmt 4.6, Leading zero omitted, Abs format (unit mm)*
G04 Created by KiCad (PCBNEW 8.0.7) date 2025-04-08 15:01:58*
%MOMM*%
%LPD*%
G01*
G04 APERTURE LIST*
G04 Aperture macros list*
%AMRoundRect*
0 Rectangle with rounded corners*
0 $1 Rounding radius*
0 $2 $3 $4 $5 $6 $7 $8 $9 X,Y pos of 4 corners*
0 Add a 4 corners polygon primitive as box body*
4,1,4,$2,$3,$4,$5,$6,$7,$8,$9,$2,$3,0*
0 Add four circle primitives for the rounded corners*
1,1,$1+$1,$2,$3*
1,1,$1+$1,$4,$5*
1,1,$1+$1,$6,$7*
1,1,$1+$1,$8,$9*
0 Add four rect primitives between the rounded corners*
20,1,$1+$1,$2,$3,$4,$5,0*
20,1,$1+$1,$4,$5,$6,$7,0*
20,1,$1+$1,$6,$7,$8,$9,0*
20,1,$1+$1,$8,$9,$2,$3,0*%
G04 Aperture macros list end*
%ADD10C,0.300000*%
%ADD11C,0.150000*%
%ADD12C,0.127000*%
%ADD13C,0.100000*%
%ADD14C,0.500000*%
%ADD15C,3.200000*%
%ADD16O,4.344000X2.274000*%
%ADD17O,0.300000X3.300000*%
%ADD18O,0.500000X3.300000*%
%ADD19O,1.500000X3.300000*%
%ADD20O,3.500000X0.300000*%
%ADD21R,2.000000X1.020000*%
%ADD22C,1.800000*%
%ADD23C,1.000000*%
%ADD24C,4.800000*%
%ADD25C,3.000000*%
%ADD26R,3.000000X3.500000*%
%ADD27RoundRect,0.250000X-0.625000X0.350000X-0.625000X-0.350000X0.625000X-0.350000X0.625000X0.350000X0*%
%ADD28O,1.750000X1.200000*%
%ADD29RoundRect,0.250000X0.625000X-0.350000X0.625000X0.350000X-0.625000X0.350000X-0.625000X-0.350000X0*%
%ADD30RoundRect,0.102000X0.754000X0.754000X-0.754000X0.754000X-0.754000X-0.754000X0.754000X-0.754000X0*%
%ADD31C,1.712000*%
%ADD32C,3.204000*%
G04 APERTURE END LIST*
D10*
X80945489Y-96729400D02*
X79802632Y-96729400D01*
X80374060Y-97300828D02*
X80374060Y-96157971D01*
G36*
X73156892Y-70117495D02*
G01*
X71597868Y-70117495D01*
X71597868Y-69771565D01*
X71764535Y-69771565D01*
X71764535Y-69830091D01*
X71786932Y-69884163D01*
X71828318Y-69925549D01*
X71859992Y-69938668D01*
X71882389Y-69947946D01*
X71911653Y-69950828D01*
X72840225Y-69950828D01*
X72869489Y-69947946D01*
X72923561Y-69925548D01*
X72964945Y-69884164D01*
X72987343Y-69830092D01*
X72987343Y-69771564D01*
X72964945Y-69717492D01*
X72923561Y-69676108D01*
X72869489Y-69653710D01*
X72840225Y-69650828D01*
X72273785Y-69650828D01*
X72874862Y-69049751D01*
X72893517Y-69027021D01*
X72895580Y-69022039D01*
X72899110Y-69017970D01*
X72911098Y-68991120D01*
X72982527Y-68776835D01*
X72985826Y-68762325D01*
X72987343Y-68758664D01*
X72987865Y-68753355D01*
X72989047Y-68748161D01*
X72988766Y-68744211D01*
X72990225Y-68729400D01*
X72990225Y-68586542D01*
X72987343Y-68557278D01*
X72985279Y-68552297D01*
X72984898Y-68546923D01*
X72974389Y-68519459D01*
X72902960Y-68376603D01*
X72895033Y-68364011D01*
X72893517Y-68360349D01*
X72890133Y-68356226D01*
X72887295Y-68351717D01*
X72884302Y-68349121D01*
X72874862Y-68337619D01*
X72803434Y-68266191D01*
X72791932Y-68256751D01*
X72789336Y-68253758D01*
X72784822Y-68250917D01*
X72780703Y-68247536D01*
X72777043Y-68246020D01*
X72764450Y-68238093D01*
X72621592Y-68166664D01*
X72594129Y-68156154D01*
X72588751Y-68155771D01*
X72583774Y-68153710D01*
X72554510Y-68150828D01*
X72197368Y-68150828D01*
X72168104Y-68153710D01*
X72163126Y-68155771D01*
X72157749Y-68156154D01*
X72130286Y-68166664D01*
X71987428Y-68238093D01*
X71974836Y-68246019D01*
X71971174Y-68247536D01*
X71967051Y-68250919D01*
X71962542Y-68253758D01*
X71959946Y-68256750D01*
X71948444Y-68266191D01*
X71877016Y-68337619D01*
X71858361Y-68360350D01*
X71835964Y-68414422D01*
X71835964Y-68472948D01*
X71858361Y-68527020D01*
X71899747Y-68568406D01*
X71953819Y-68590803D01*
X72012345Y-68590803D01*
X72066417Y-68568406D01*
X72089148Y-68549751D01*
X72143364Y-68495535D01*
X72232778Y-68450828D01*
X72519100Y-68450828D01*
X72608514Y-68495535D01*
X72645518Y-68532539D01*
X72690225Y-68621952D01*
X72690225Y-68705059D01*
X72637691Y-68862657D01*
X71805587Y-69694762D01*
X71786932Y-69717493D01*
X71764535Y-69771565D01*
X71597868Y-69771565D01*
X71597868Y-67984161D01*
X73156892Y-67984161D01*
X73156892Y-70117495D01*
G37*
X65054510Y-54800828D02*
X65054510Y-53300828D01*
X65054510Y-53300828D02*
X65411653Y-53300828D01*
X65411653Y-53300828D02*
X65625939Y-53372257D01*
X65625939Y-53372257D02*
X65768796Y-53515114D01*
X65768796Y-53515114D02*
X65840225Y-53657971D01*
X65840225Y-53657971D02*
X65911653Y-53943685D01*
X65911653Y-53943685D02*
X65911653Y-54157971D01*
X65911653Y-54157971D02*
X65840225Y-54443685D01*
X65840225Y-54443685D02*
X65768796Y-54586542D01*
X65768796Y-54586542D02*
X65625939Y-54729400D01*
X65625939Y-54729400D02*
X65411653Y-54800828D01*
X65411653Y-54800828D02*
X65054510Y-54800828D01*
X66483082Y-54372257D02*
X67197368Y-54372257D01*
X66340225Y-54800828D02*
X66840225Y-53300828D01*
X66840225Y-53300828D02*
X67340225Y-54800828D01*
X63945489Y-132729400D02*
X62802632Y-132729400D01*
X63374060Y-133300828D02*
X63374060Y-132157971D01*
X71945489Y-54229400D02*
X70802632Y-54229400D01*
X71374060Y-54800828D02*
X71374060Y-53657971D01*
G36*
X75654010Y-68117495D02*
G01*
X74167593Y-68117495D01*
X74167593Y-66710639D01*
X74334260Y-66710639D01*
X74338409Y-66769019D01*
X74364583Y-66821368D01*
X74408798Y-66859715D01*
X74464321Y-66878222D01*
X74522701Y-66874073D01*
X74550164Y-66863564D01*
X74693021Y-66792135D01*
X74705614Y-66784207D01*
X74709274Y-66782692D01*
X74713393Y-66779310D01*
X74717907Y-66776470D01*
X74720503Y-66773476D01*
X74732005Y-66764037D01*
X74761653Y-66734389D01*
X74761653Y-67650828D01*
X74483082Y-67650828D01*
X74453818Y-67653710D01*
X74399746Y-67676108D01*
X74358362Y-67717492D01*
X74335964Y-67771564D01*
X74335964Y-67830092D01*
X74358362Y-67884164D01*
X74399746Y-67925548D01*
X74453818Y-67947946D01*
X74483082Y-67950828D01*
X75340225Y-67950828D01*
X75369489Y-67947946D01*
X75423561Y-67925548D01*
X75464945Y-67884164D01*
X75487343Y-67830092D01*
X75487343Y-67771564D01*
X75464945Y-67717492D01*
X75423561Y-67676108D01*
X75369489Y-67653710D01*
X75340225Y-67650828D01*
X75061653Y-67650828D01*
X75061653Y-66300828D01*
X75061642Y-66300722D01*
X75061653Y-66300670D01*
X75061622Y-66300516D01*
X75058771Y-66271564D01*
X75053087Y-66257843D01*
X75050175Y-66243281D01*
X75041996Y-66231068D01*
X75036373Y-66217492D01*
X75025874Y-66206993D01*
X75017609Y-66194651D01*
X75005378Y-66186497D01*
X74994989Y-66176108D01*
X74981270Y-66170425D01*
X74968910Y-66162185D01*
X74954491Y-66159332D01*
X74940917Y-66153710D01*
X74926066Y-66153710D01*
X74911496Y-66150828D01*
X74897086Y-66153710D01*
X74882389Y-66153710D01*
X74868667Y-66159393D01*
X74854106Y-66162306D01*
X74841893Y-66170484D01*
X74828317Y-66176108D01*
X74817818Y-66186606D01*
X74805476Y-66194872D01*
X74787044Y-66217380D01*
X74786933Y-66217492D01*
X74786912Y-66217542D01*
X74786846Y-66217623D01*
X74652226Y-66419551D01*
X74537085Y-66534692D01*
X74416000Y-66595236D01*
X74391114Y-66610901D01*
X74352767Y-66655116D01*
X74334260Y-66710639D01*
X74167593Y-66710639D01*
X74167593Y-65984161D01*
X75654010Y-65984161D01*
X75654010Y-68117495D01*
G37*
X68911653Y-54657971D02*
X68840225Y-54729400D01*
X68840225Y-54729400D02*
X68625939Y-54800828D01*
X68625939Y-54800828D02*
X68483082Y-54800828D01*
X68483082Y-54800828D02*
X68268796Y-54729400D01*
X68268796Y-54729400D02*
X68125939Y-54586542D01*
X68125939Y-54586542D02*
X68054510Y-54443685D01*
X68054510Y-54443685D02*
X67983082Y-54157971D01*
X67983082Y-54157971D02*
X67983082Y-53943685D01*
X67983082Y-53943685D02*
X68054510Y-53657971D01*
X68054510Y-53657971D02*
X68125939Y-53515114D01*
X68125939Y-53515114D02*
X68268796Y-53372257D01*
X68268796Y-53372257D02*
X68483082Y-53300828D01*
X68483082Y-53300828D02*
X68625939Y-53300828D01*
X68625939Y-53300828D02*
X68840225Y-53372257D01*
X68840225Y-53372257D02*
X68911653Y-53443685D01*
X70268796Y-54800828D02*
X69554510Y-54800828D01*
X69554510Y-54800828D02*
X69554510Y-53300828D01*
X64945489Y-88729400D02*
X63802632Y-88729400D01*
X64374060Y-89300828D02*
X64374060Y-88157971D01*
G36*
X69085463Y-70117495D02*
G01*
X66097868Y-70117495D01*
X66097868Y-69771565D01*
X66264535Y-69771565D01*
X66264535Y-69830091D01*
X66286932Y-69884163D01*
X66328318Y-69925549D01*
X66359992Y-69938668D01*
X66382389Y-69947946D01*
X66411653Y-69950828D01*
X67340225Y-69950828D01*
X67369489Y-69947946D01*
X67423561Y-69925548D01*
X67464945Y-69884164D01*
X67487343Y-69830092D01*
X67487343Y-69771565D01*
X67693106Y-69771565D01*
X67693106Y-69830091D01*
X67715503Y-69884163D01*
X67756889Y-69925549D01*
X67788563Y-69938668D01*
X67810960Y-69947946D01*
X67840224Y-69950828D01*
X68768796Y-69950828D01*
X68798060Y-69947946D01*
X68852132Y-69925548D01*
X68893516Y-69884164D01*
X68915914Y-69830092D01*
X68915914Y-69771564D01*
X68893516Y-69717492D01*
X68852132Y-69676108D01*
X68798060Y-69653710D01*
X68768796Y-69650828D01*
X68202356Y-69650828D01*
X68803433Y-69049751D01*
X68822088Y-69027021D01*
X68824151Y-69022039D01*
X68827681Y-69017970D01*
X68839669Y-68991120D01*
X68911098Y-68776835D01*
X68914397Y-68762325D01*
X68915914Y-68758664D01*
X68916436Y-68753355D01*
X68917618Y-68748161D01*
X68917337Y-68744211D01*
X68918796Y-68729400D01*
X68918796Y-68586542D01*
X68915914Y-68557278D01*
X68913850Y-68552297D01*
X68913469Y-68546923D01*
X68902960Y-68519459D01*
X68831531Y-68376603D01*
X68823604Y-68364011D01*
X68822088Y-68360349D01*
X68818704Y-68356226D01*
X68815866Y-68351717D01*
X68812873Y-68349121D01*
X68803433Y-68337619D01*
X68732005Y-68266191D01*
X68720503Y-68256751D01*
X68717907Y-68253758D01*
X68713393Y-68250917D01*
X68709274Y-68247536D01*
X68705614Y-68246020D01*
X68693021Y-68238093D01*
X68550163Y-68166664D01*
X68522700Y-68156154D01*
X68517322Y-68155771D01*
X68512345Y-68153710D01*
X68483081Y-68150828D01*
X68125939Y-68150828D01*
X68096675Y-68153710D01*
X68091697Y-68155771D01*
X68086320Y-68156154D01*
X68058857Y-68166664D01*
X67915999Y-68238093D01*
X67903407Y-68246019D01*
X67899745Y-68247536D01*
X67895622Y-68250919D01*
X67891113Y-68253758D01*
X67888517Y-68256750D01*
X67877015Y-68266191D01*
X67805587Y-68337619D01*
X67786932Y-68360350D01*
X67764535Y-68414422D01*
X67764535Y-68472948D01*
X67786932Y-68527020D01*
X67828318Y-68568406D01*
X67882390Y-68590803D01*
X67940916Y-68590803D01*
X67994988Y-68568406D01*
X68017719Y-68549751D01*
X68071935Y-68495535D01*
X68161349Y-68450828D01*
X68447671Y-68450828D01*
X68537085Y-68495535D01*
X68574089Y-68532539D01*
X68618796Y-68621952D01*
X68618796Y-68705059D01*
X68566262Y-68862657D01*
X67734158Y-69694762D01*
X67715503Y-69717493D01*
X67693106Y-69771565D01*
X67487343Y-69771565D01*
X67487343Y-69771564D01*
X67464945Y-69717492D01*
X67423561Y-69676108D01*
X67369489Y-69653710D01*
X67340225Y-69650828D01*
X66773785Y-69650828D01*
X67374862Y-69049751D01*
X67393517Y-69027021D01*
X67395580Y-69022039D01*
X67399110Y-69017970D01*
X67411098Y-68991120D01*
X67482527Y-68776835D01*
X67485826Y-68762325D01*
X67487343Y-68758664D01*
X67487865Y-68753355D01*
X67489047Y-68748161D01*
X67488766Y-68744211D01*
X67490225Y-68729400D01*
X67490225Y-68586542D01*
X67487343Y-68557278D01*
X67485279Y-68552297D01*
X67484898Y-68546923D01*
X67474389Y-68519459D01*
X67402960Y-68376603D01*
X67395033Y-68364011D01*
X67393517Y-68360349D01*
X67390133Y-68356226D01*
X67387295Y-68351717D01*
X67384302Y-68349121D01*
X67374862Y-68337619D01*
X67303434Y-68266191D01*
X67291932Y-68256751D01*
X67289336Y-68253758D01*
X67284822Y-68250917D01*
X67280703Y-68247536D01*
X67277043Y-68246020D01*
X67264450Y-68238093D01*
X67121592Y-68166664D01*
X67094129Y-68156154D01*
X67088751Y-68155771D01*
X67083774Y-68153710D01*
X67054510Y-68150828D01*
X66697368Y-68150828D01*
X66668104Y-68153710D01*
X66663126Y-68155771D01*
X66657749Y-68156154D01*
X66630286Y-68166664D01*
X66487428Y-68238093D01*
X66474836Y-68246019D01*
X66471174Y-68247536D01*
X66467051Y-68250919D01*
X66462542Y-68253758D01*
X66459946Y-68256750D01*
X66448444Y-68266191D01*
X66377016Y-68337619D01*
X66358361Y-68360350D01*
X66335964Y-68414422D01*
X66335964Y-68472948D01*
X66358361Y-68527020D01*
X66399747Y-68568406D01*
X66453819Y-68590803D01*
X66512345Y-68590803D01*
X66566417Y-68568406D01*
X66589148Y-68549751D01*
X66643364Y-68495535D01*
X66732778Y-68450828D01*
X67019100Y-68450828D01*
X67108514Y-68495535D01*
X67145518Y-68532539D01*
X67190225Y-68621952D01*
X67190225Y-68705059D01*
X67137691Y-68862657D01*
X66305587Y-69694762D01*
X66286932Y-69717493D01*
X66264535Y-69771565D01*
X66097868Y-69771565D01*
X66097868Y-67984161D01*
X69085463Y-67984161D01*
X69085463Y-70117495D01*
G37*
G36*
X83965657Y-85495535D02*
G01*
X84002661Y-85532539D01*
X84055839Y-85638897D01*
X84118796Y-85890721D01*
X84118796Y-86210935D01*
X84055839Y-86462759D01*
X84002660Y-86569117D01*
X83965655Y-86606122D01*
X83876243Y-86650828D01*
X83804206Y-86650828D01*
X83714792Y-86606121D01*
X83677788Y-86569117D01*
X83624607Y-86462757D01*
X83561653Y-86210936D01*
X83561653Y-85890720D01*
X83624607Y-85638898D01*
X83677788Y-85532538D01*
X83714792Y-85495535D01*
X83804206Y-85450828D01*
X83876243Y-85450828D01*
X83965657Y-85495535D01*
G37*
G36*
X84585463Y-87117495D02*
G01*
X81597868Y-87117495D01*
X81597868Y-86771565D01*
X81764535Y-86771565D01*
X81764535Y-86830091D01*
X81786932Y-86884163D01*
X81828318Y-86925549D01*
X81851116Y-86934992D01*
X81882389Y-86947946D01*
X81911653Y-86950828D01*
X82840225Y-86950828D01*
X82869489Y-86947946D01*
X82923561Y-86925548D01*
X82964945Y-86884164D01*
X82987343Y-86830092D01*
X82987343Y-86771564D01*
X82964945Y-86717492D01*
X82923561Y-86676108D01*
X82869489Y-86653710D01*
X82840225Y-86650828D01*
X82273785Y-86650828D01*
X82874862Y-86049751D01*
X82893517Y-86027021D01*
X82895580Y-86022039D01*
X82899110Y-86017970D01*
X82911098Y-85991120D01*
X82950719Y-85872257D01*
X83261653Y-85872257D01*
X83261653Y-86229400D01*
X83262155Y-86234503D01*
X83261830Y-86236691D01*
X83263449Y-86247641D01*
X83264535Y-86258664D01*
X83265382Y-86260708D01*
X83266132Y-86265780D01*
X83337560Y-86551494D01*
X83338331Y-86553652D01*
X83338408Y-86554733D01*
X83343066Y-86566907D01*
X83347453Y-86579185D01*
X83348097Y-86580055D01*
X83348917Y-86582196D01*
X83420346Y-86725053D01*
X83428273Y-86737646D01*
X83429789Y-86741306D01*
X83433170Y-86745425D01*
X83436011Y-86749939D01*
X83439004Y-86752535D01*
X83448444Y-86764037D01*
X83519873Y-86835466D01*
X83531377Y-86844907D01*
X83533972Y-86847899D01*
X83538481Y-86850737D01*
X83542604Y-86854121D01*
X83546265Y-86855637D01*
X83558857Y-86863564D01*
X83701715Y-86934992D01*
X83729178Y-86945502D01*
X83734553Y-86945883D01*
X83739532Y-86947946D01*
X83768796Y-86950828D01*
X83911653Y-86950828D01*
X83940917Y-86947946D01*
X83945895Y-86945883D01*
X83951271Y-86945502D01*
X83978735Y-86934992D01*
X84121592Y-86863564D01*
X84134185Y-86855636D01*
X84137845Y-86854121D01*
X84141964Y-86850739D01*
X84146478Y-86847899D01*
X84149074Y-86844905D01*
X84160576Y-86835466D01*
X84232005Y-86764037D01*
X84241446Y-86752532D01*
X84244438Y-86749938D01*
X84247276Y-86745428D01*
X84250660Y-86741306D01*
X84252176Y-86737644D01*
X84260103Y-86725053D01*
X84331531Y-86582195D01*
X84332348Y-86580058D01*
X84332995Y-86579186D01*
X84337384Y-86566899D01*
X84342041Y-86554732D01*
X84342117Y-86553650D01*
X84342888Y-86551495D01*
X84414317Y-86265781D01*
X84415067Y-86260708D01*
X84415914Y-86258664D01*
X84416999Y-86247644D01*
X84418619Y-86236692D01*
X84418293Y-86234503D01*
X84418796Y-86229400D01*
X84418796Y-85872257D01*
X84418293Y-85867153D01*
X84418619Y-85864965D01*
X84416999Y-85854012D01*
X84415914Y-85842993D01*
X84415067Y-85840948D01*
X84414317Y-85835876D01*
X84342888Y-85550162D01*
X84342117Y-85548006D01*
X84342041Y-85546924D01*
X84337381Y-85534749D01*
X84332995Y-85522470D01*
X84332348Y-85521597D01*
X84331531Y-85519461D01*
X84260103Y-85376603D01*
X84252174Y-85364008D01*
X84250659Y-85360349D01*
X84247277Y-85356228D01*
X84244438Y-85351718D01*
X84241446Y-85349123D01*
X84232004Y-85337618D01*
X84160575Y-85266190D01*
X84149075Y-85256752D01*
X84146478Y-85253758D01*
X84141961Y-85250915D01*
X84137844Y-85247536D01*
X84134187Y-85246021D01*
X84121592Y-85238093D01*
X83978735Y-85166664D01*
X83951272Y-85156155D01*
X83945897Y-85155773D01*
X83940917Y-85153710D01*
X83911653Y-85150828D01*
X83768796Y-85150828D01*
X83739532Y-85153710D01*
X83734551Y-85155773D01*
X83729177Y-85156155D01*
X83701713Y-85166664D01*
X83558857Y-85238093D01*
X83546263Y-85246020D01*
X83542604Y-85247536D01*
X83538483Y-85250917D01*
X83533971Y-85253758D01*
X83531374Y-85256751D01*
X83519874Y-85266190D01*
X83448445Y-85337618D01*
X83439005Y-85349120D01*
X83436011Y-85351717D01*
X83433169Y-85356231D01*
X83429790Y-85360349D01*
X83428274Y-85364007D01*
X83420346Y-85376603D01*
X83348917Y-85519460D01*
X83348097Y-85521600D01*
X83347453Y-85522471D01*
X83343066Y-85534748D01*
X83338408Y-85546923D01*
X83338331Y-85548003D01*
X83337560Y-85550162D01*
X83266132Y-85835877D01*
X83265382Y-85840948D01*
X83264535Y-85842993D01*
X83263449Y-85854015D01*
X83261830Y-85864966D01*
X83262155Y-85867153D01*
X83261653Y-85872257D01*
X82950719Y-85872257D01*
X82982527Y-85776835D01*
X82985826Y-85762325D01*
X82987343Y-85758664D01*
X82987865Y-85753355D01*
X82989047Y-85748161D01*
X82988766Y-85744211D01*
X82990225Y-85729400D01*
X82990225Y-85586542D01*
X82987343Y-85557278D01*
X82985279Y-85552297D01*
X82984898Y-85546923D01*
X82974389Y-85519459D01*
X82902960Y-85376603D01*
X82895033Y-85364011D01*
X82893517Y-85360349D01*
X82890133Y-85356226D01*
X82887295Y-85351717D01*
X82884302Y-85349121D01*
X82874862Y-85337619D01*
X82803434Y-85266191D01*
X82791932Y-85256751D01*
X82789336Y-85253758D01*
X82784822Y-85250917D01*
X82780703Y-85247536D01*
X82777043Y-85246020D01*
X82764450Y-85238093D01*
X82621592Y-85166664D01*
X82594129Y-85156154D01*
X82588751Y-85155771D01*
X82583774Y-85153710D01*
X82554510Y-85150828D01*
X82197368Y-85150828D01*
X82168104Y-85153710D01*
X82163126Y-85155771D01*
X82157749Y-85156154D01*
X82130286Y-85166664D01*
X81987428Y-85238093D01*
X81974836Y-85246019D01*
X81971174Y-85247536D01*
X81967051Y-85250919D01*
X81962542Y-85253758D01*
X81959946Y-85256750D01*
X81948444Y-85266191D01*
X81877016Y-85337619D01*
X81858361Y-85360350D01*
X81835964Y-85414422D01*
X81835964Y-85472948D01*
X81858361Y-85527020D01*
X81899747Y-85568406D01*
X81953819Y-85590803D01*
X82012345Y-85590803D01*
X82066417Y-85568406D01*
X82089148Y-85549751D01*
X82143364Y-85495535D01*
X82232778Y-85450828D01*
X82519100Y-85450828D01*
X82608514Y-85495535D01*
X82645518Y-85532539D01*
X82690225Y-85621952D01*
X82690225Y-85705059D01*
X82637691Y-85862657D01*
X81805587Y-86694762D01*
X81786932Y-86717493D01*
X81764535Y-86771565D01*
X81597868Y-86771565D01*
X81597868Y-84984161D01*
X84585463Y-84984161D01*
X84585463Y-87117495D01*
G37*
X81945489Y-114729400D02*
X80802632Y-114729400D01*
X81374060Y-115300828D02*
X81374060Y-114157971D01*
X74445489Y-54229400D02*
X73302632Y-54229400D01*
G36*
X84656892Y-121117495D02*
G01*
X83097868Y-121117495D01*
X83097868Y-120771565D01*
X83264535Y-120771565D01*
X83264535Y-120830091D01*
X83286932Y-120884163D01*
X83328318Y-120925549D01*
X83359992Y-120938668D01*
X83382389Y-120947946D01*
X83411653Y-120950828D01*
X84340225Y-120950828D01*
X84369489Y-120947946D01*
X84423561Y-120925548D01*
X84464945Y-120884164D01*
X84487343Y-120830092D01*
X84487343Y-120771564D01*
X84464945Y-120717492D01*
X84423561Y-120676108D01*
X84369489Y-120653710D01*
X84340225Y-120650828D01*
X83773785Y-120650828D01*
X84374862Y-120049751D01*
X84393517Y-120027021D01*
X84395580Y-120022039D01*
X84399110Y-120017970D01*
X84411098Y-119991120D01*
X84482527Y-119776835D01*
X84485826Y-119762325D01*
X84487343Y-119758664D01*
X84487865Y-119753355D01*
X84489047Y-119748161D01*
X84488766Y-119744211D01*
X84490225Y-119729400D01*
X84490225Y-119586542D01*
X84487343Y-119557278D01*
X84485279Y-119552297D01*
X84484898Y-119546923D01*
X84474389Y-119519459D01*
X84402960Y-119376603D01*
X84395033Y-119364011D01*
X84393517Y-119360349D01*
X84390133Y-119356226D01*
X84387295Y-119351717D01*
X84384302Y-119349121D01*
X84374862Y-119337619D01*
X84303434Y-119266191D01*
X84291932Y-119256751D01*
X84289336Y-119253758D01*
X84284822Y-119250917D01*
X84280703Y-119247536D01*
X84277043Y-119246020D01*
X84264450Y-119238093D01*
X84121592Y-119166664D01*
X84094129Y-119156154D01*
X84088751Y-119155771D01*
X84083774Y-119153710D01*
X84054510Y-119150828D01*
X83697368Y-119150828D01*
X83668104Y-119153710D01*
X83663126Y-119155771D01*
X83657749Y-119156154D01*
X83630286Y-119166664D01*
X83487428Y-119238093D01*
X83474836Y-119246019D01*
X83471174Y-119247536D01*
X83467051Y-119250919D01*
X83462542Y-119253758D01*
X83459946Y-119256750D01*
X83448444Y-119266191D01*
X83377016Y-119337619D01*
X83358361Y-119360350D01*
X83335964Y-119414422D01*
X83335964Y-119472948D01*
X83358361Y-119527020D01*
X83399747Y-119568406D01*
X83453819Y-119590803D01*
X83512345Y-119590803D01*
X83566417Y-119568406D01*
X83589148Y-119549751D01*
X83643364Y-119495535D01*
X83732778Y-119450828D01*
X84019100Y-119450828D01*
X84108514Y-119495535D01*
X84145518Y-119532539D01*
X84190225Y-119621952D01*
X84190225Y-119705059D01*
X84137691Y-119862657D01*
X83305587Y-120694762D01*
X83286932Y-120717493D01*
X83264535Y-120771565D01*
X83097868Y-120771565D01*
X83097868Y-118984161D01*
X84656892Y-118984161D01*
X84656892Y-121117495D01*
G37*
G36*
X63037085Y-69066963D02*
G01*
X63074088Y-69103967D01*
X63118796Y-69193381D01*
X63118796Y-69479703D01*
X63074088Y-69569117D01*
X63037085Y-69606121D01*
X62947672Y-69650828D01*
X62732777Y-69650828D01*
X62643363Y-69606121D01*
X62606358Y-69569116D01*
X62561653Y-69479704D01*
X62561653Y-69193380D01*
X62606358Y-69103968D01*
X62643363Y-69066963D01*
X62732777Y-69022257D01*
X62947672Y-69022257D01*
X63037085Y-69066963D01*
G37*
G36*
X63585463Y-70117495D02*
G01*
X60667593Y-70117495D01*
X60667593Y-68710639D01*
X60834260Y-68710639D01*
X60838409Y-68769019D01*
X60864583Y-68821368D01*
X60908798Y-68859715D01*
X60964321Y-68878222D01*
X61022701Y-68874073D01*
X61050164Y-68863564D01*
X61193021Y-68792135D01*
X61205614Y-68784207D01*
X61209274Y-68782692D01*
X61213393Y-68779310D01*
X61217907Y-68776470D01*
X61220503Y-68773476D01*
X61232005Y-68764037D01*
X61261653Y-68734389D01*
X61261653Y-69650828D01*
X60983082Y-69650828D01*
X60953818Y-69653710D01*
X60899746Y-69676108D01*
X60858362Y-69717492D01*
X60835964Y-69771564D01*
X60835964Y-69830092D01*
X60858362Y-69884164D01*
X60899746Y-69925548D01*
X60953818Y-69947946D01*
X60983082Y-69950828D01*
X61840225Y-69950828D01*
X61869489Y-69947946D01*
X61923561Y-69925548D01*
X61964945Y-69884164D01*
X61987343Y-69830092D01*
X61987343Y-69771564D01*
X61964945Y-69717492D01*
X61923561Y-69676108D01*
X61869489Y-69653710D01*
X61840225Y-69650828D01*
X61561653Y-69650828D01*
X61561653Y-68943685D01*
X62261653Y-68943685D01*
X62261653Y-69515114D01*
X62264535Y-69544378D01*
X62266597Y-69549356D01*
X62266979Y-69554732D01*
X62277489Y-69582196D01*
X62348917Y-69725053D01*
X62356844Y-69737646D01*
X62358360Y-69741306D01*
X62361741Y-69745425D01*
X62364582Y-69749939D01*
X62367575Y-69752535D01*
X62377015Y-69764037D01*
X62448444Y-69835466D01*
X62459948Y-69844907D01*
X62462543Y-69847899D01*
X62467052Y-69850737D01*
X62471175Y-69854121D01*
X62474836Y-69855637D01*
X62487428Y-69863564D01*
X62630286Y-69934992D01*
X62657749Y-69945502D01*
X62663124Y-69945883D01*
X62668103Y-69947946D01*
X62697367Y-69950828D01*
X62983081Y-69950828D01*
X63012345Y-69947946D01*
X63017323Y-69945883D01*
X63022699Y-69945502D01*
X63050162Y-69934992D01*
X63193021Y-69863564D01*
X63205615Y-69855635D01*
X63209275Y-69854120D01*
X63213395Y-69850738D01*
X63217906Y-69847899D01*
X63220500Y-69844907D01*
X63232006Y-69835465D01*
X63303434Y-69764036D01*
X63312872Y-69752535D01*
X63315866Y-69749939D01*
X63318706Y-69745426D01*
X63322088Y-69741306D01*
X63323603Y-69737646D01*
X63331531Y-69725053D01*
X63402960Y-69582197D01*
X63413469Y-69554733D01*
X63413850Y-69549358D01*
X63415914Y-69544378D01*
X63418796Y-69515114D01*
X63418796Y-69157971D01*
X63415914Y-69128707D01*
X63413850Y-69123726D01*
X63413469Y-69118352D01*
X63402960Y-69090888D01*
X63331531Y-68948032D01*
X63323603Y-68935438D01*
X63322088Y-68931779D01*
X63318706Y-68927658D01*
X63315866Y-68923146D01*
X63312872Y-68920549D01*
X63303434Y-68909049D01*
X63232006Y-68837620D01*
X63220500Y-68828177D01*
X63217906Y-68825186D01*
X63213395Y-68822346D01*
X63209275Y-68818965D01*
X63205615Y-68817449D01*
X63193021Y-68809521D01*
X63050162Y-68738093D01*
X63022699Y-68727583D01*
X63017323Y-68727201D01*
X63012345Y-68725139D01*
X62983081Y-68722257D01*
X62697367Y-68722257D01*
X62668103Y-68725139D01*
X62663124Y-68727201D01*
X62657749Y-68727583D01*
X62630286Y-68738093D01*
X62615863Y-68745303D01*
X62622300Y-68719557D01*
X62742505Y-68539250D01*
X62786221Y-68495534D01*
X62875634Y-68450828D01*
X63125939Y-68450828D01*
X63155203Y-68447946D01*
X63209275Y-68425548D01*
X63250659Y-68384164D01*
X63273057Y-68330092D01*
X63273057Y-68271564D01*
X63250659Y-68217492D01*
X63209275Y-68176108D01*
X63155203Y-68153710D01*
X63125939Y-68150828D01*
X62840224Y-68150828D01*
X62810960Y-68153710D01*
X62805979Y-68155773D01*
X62800605Y-68156155D01*
X62773141Y-68166664D01*
X62630285Y-68238093D01*
X62617693Y-68246019D01*
X62614031Y-68247536D01*
X62609908Y-68250919D01*
X62605399Y-68253758D01*
X62602803Y-68256750D01*
X62591301Y-68266191D01*
X62519873Y-68337619D01*
X62519808Y-68337698D01*
X62519762Y-68337729D01*
X62510439Y-68349114D01*
X62501218Y-68360350D01*
X62501197Y-68360400D01*
X62501132Y-68360480D01*
X62358274Y-68574766D01*
X62349659Y-68590921D01*
X62347453Y-68593900D01*
X62346196Y-68597416D01*
X62344439Y-68600713D01*
X62343719Y-68604350D01*
X62337560Y-68621591D01*
X62266132Y-68907305D01*
X62265382Y-68912376D01*
X62264535Y-68914421D01*
X62263449Y-68925443D01*
X62261830Y-68936394D01*
X62262155Y-68938581D01*
X62261653Y-68943685D01*
X61561653Y-68943685D01*
X61561653Y-68300828D01*
X61561642Y-68300722D01*
X61561653Y-68300670D01*
X61561622Y-68300516D01*
X61558771Y-68271564D01*
X61553087Y-68257843D01*
X61550175Y-68243281D01*
X61541996Y-68231068D01*
X61536373Y-68217492D01*
X61525874Y-68206993D01*
X61517609Y-68194651D01*
X61505378Y-68186497D01*
X61494989Y-68176108D01*
X61481270Y-68170425D01*
X61468910Y-68162185D01*
X61454491Y-68159332D01*
X61440917Y-68153710D01*
X61426066Y-68153710D01*
X61411496Y-68150828D01*
X61397086Y-68153710D01*
X61382389Y-68153710D01*
X61368667Y-68159393D01*
X61354106Y-68162306D01*
X61341893Y-68170484D01*
X61328317Y-68176108D01*
X61317818Y-68186606D01*
X61305476Y-68194872D01*
X61287044Y-68217380D01*
X61286933Y-68217492D01*
X61286912Y-68217542D01*
X61286846Y-68217623D01*
X61152226Y-68419551D01*
X61037085Y-68534692D01*
X60916000Y-68595236D01*
X60891114Y-68610901D01*
X60852767Y-68655116D01*
X60834260Y-68710639D01*
X60667593Y-68710639D01*
X60667593Y-67984161D01*
X63585463Y-67984161D01*
X63585463Y-70117495D01*
G37*
G36*
X68154354Y-95117495D02*
G01*
X65167593Y-95117495D01*
X65167593Y-93710639D01*
X65334260Y-93710639D01*
X65338409Y-93769019D01*
X65364583Y-93821368D01*
X65408798Y-93859715D01*
X65464321Y-93878222D01*
X65522701Y-93874073D01*
X65550164Y-93863564D01*
X65693021Y-93792135D01*
X65705614Y-93784207D01*
X65709274Y-93782692D01*
X65713393Y-93779310D01*
X65717907Y-93776470D01*
X65720503Y-93773476D01*
X65732005Y-93764037D01*
X65761653Y-93734389D01*
X65761653Y-94650828D01*
X65483082Y-94650828D01*
X65453818Y-94653710D01*
X65399746Y-94676108D01*
X65358362Y-94717492D01*
X65335964Y-94771564D01*
X65335964Y-94830092D01*
X65358362Y-94884164D01*
X65399746Y-94925548D01*
X65453818Y-94947946D01*
X65483082Y-94950828D01*
X66340225Y-94950828D01*
X66369489Y-94947946D01*
X66423561Y-94925548D01*
X66464945Y-94884164D01*
X66487343Y-94830092D01*
X66487343Y-94771564D01*
X66464945Y-94717492D01*
X66423561Y-94676108D01*
X66369489Y-94653710D01*
X66340225Y-94650828D01*
X66061653Y-94650828D01*
X66061653Y-93300828D01*
X66061642Y-93300722D01*
X66061653Y-93300670D01*
X66061622Y-93300516D01*
X66058771Y-93271564D01*
X66693106Y-93271564D01*
X66693106Y-93330092D01*
X66715504Y-93384164D01*
X66756888Y-93425548D01*
X66810960Y-93447946D01*
X66840224Y-93450828D01*
X67612743Y-93450828D01*
X67059495Y-94741740D01*
X67050617Y-94769773D01*
X67049904Y-94828296D01*
X67071640Y-94882636D01*
X67112517Y-94924523D01*
X67166312Y-94947578D01*
X67224835Y-94948291D01*
X67279175Y-94926555D01*
X67321062Y-94885678D01*
X67335239Y-94859916D01*
X67978096Y-93359916D01*
X67986974Y-93331883D01*
X67986985Y-93330953D01*
X67987342Y-93330092D01*
X67987342Y-93301677D01*
X67987687Y-93273360D01*
X67987342Y-93272497D01*
X67987342Y-93271564D01*
X67976469Y-93245315D01*
X67965951Y-93219020D01*
X67965301Y-93218354D01*
X67964944Y-93217492D01*
X67944864Y-93197412D01*
X67925074Y-93177133D01*
X67924218Y-93176766D01*
X67923560Y-93176108D01*
X67897340Y-93165247D01*
X67871279Y-93154078D01*
X67870349Y-93154066D01*
X67869488Y-93153710D01*
X67840224Y-93150828D01*
X66840224Y-93150828D01*
X66810960Y-93153710D01*
X66756888Y-93176108D01*
X66715504Y-93217492D01*
X66693106Y-93271564D01*
X66058771Y-93271564D01*
X66053087Y-93257843D01*
X66050175Y-93243281D01*
X66041996Y-93231068D01*
X66036373Y-93217492D01*
X66025874Y-93206993D01*
X66017609Y-93194651D01*
X66005378Y-93186497D01*
X65994989Y-93176108D01*
X65981270Y-93170425D01*
X65968910Y-93162185D01*
X65954491Y-93159332D01*
X65940917Y-93153710D01*
X65926066Y-93153710D01*
X65911496Y-93150828D01*
X65897086Y-93153710D01*
X65882389Y-93153710D01*
X65868667Y-93159393D01*
X65854106Y-93162306D01*
X65841893Y-93170484D01*
X65828317Y-93176108D01*
X65817818Y-93186606D01*
X65805476Y-93194872D01*
X65787044Y-93217380D01*
X65786933Y-93217492D01*
X65786912Y-93217542D01*
X65786846Y-93217623D01*
X65652226Y-93419551D01*
X65537085Y-93534692D01*
X65416000Y-93595236D01*
X65391114Y-93610901D01*
X65352767Y-93655116D01*
X65334260Y-93710639D01*
X65167593Y-93710639D01*
X65167593Y-92984161D01*
X68154354Y-92984161D01*
X68154354Y-95117495D01*
G37*
X80945489Y-80729400D02*
X79802632Y-80729400D01*
X80374060Y-81300828D02*
X80374060Y-80157971D01*
G36*
X83654010Y-103117495D02*
G01*
X82167593Y-103117495D01*
X82167593Y-101710639D01*
X82334260Y-101710639D01*
X82338409Y-101769019D01*
X82364583Y-101821368D01*
X82408798Y-101859715D01*
X82464321Y-101878222D01*
X82522701Y-101874073D01*
X82550164Y-101863564D01*
X82693021Y-101792135D01*
X82705614Y-101784207D01*
X82709274Y-101782692D01*
X82713393Y-101779310D01*
X82717907Y-101776470D01*
X82720503Y-101773476D01*
X82732005Y-101764037D01*
X82761653Y-101734389D01*
X82761653Y-102650828D01*
X82483082Y-102650828D01*
X82453818Y-102653710D01*
X82399746Y-102676108D01*
X82358362Y-102717492D01*
X82335964Y-102771564D01*
X82335964Y-102830092D01*
X82358362Y-102884164D01*
X82399746Y-102925548D01*
X82453818Y-102947946D01*
X82483082Y-102950828D01*
X83340225Y-102950828D01*
X83369489Y-102947946D01*
X83423561Y-102925548D01*
X83464945Y-102884164D01*
X83487343Y-102830092D01*
X83487343Y-102771564D01*
X83464945Y-102717492D01*
X83423561Y-102676108D01*
X83369489Y-102653710D01*
X83340225Y-102650828D01*
X83061653Y-102650828D01*
X83061653Y-101300828D01*
X83061642Y-101300722D01*
X83061653Y-101300670D01*
X83061622Y-101300516D01*
X83058771Y-101271564D01*
X83053087Y-101257843D01*
X83050175Y-101243281D01*
X83041996Y-101231068D01*
X83036373Y-101217492D01*
X83025874Y-101206993D01*
X83017609Y-101194651D01*
X83005378Y-101186497D01*
X82994989Y-101176108D01*
X82981270Y-101170425D01*
X82968910Y-101162185D01*
X82954491Y-101159332D01*
X82940917Y-101153710D01*
X82926066Y-101153710D01*
X82911496Y-101150828D01*
X82897086Y-101153710D01*
X82882389Y-101153710D01*
X82868667Y-101159393D01*
X82854106Y-101162306D01*
X82841893Y-101170484D01*
X82828317Y-101176108D01*
X82817818Y-101186606D01*
X82805476Y-101194872D01*
X82787044Y-101217380D01*
X82786933Y-101217492D01*
X82786912Y-101217542D01*
X82786846Y-101217623D01*
X82652226Y-101419551D01*
X82537085Y-101534692D01*
X82416000Y-101595236D01*
X82391114Y-101610901D01*
X82352767Y-101655116D01*
X82334260Y-101710639D01*
X82167593Y-101710639D01*
X82167593Y-100984161D01*
X83654010Y-100984161D01*
X83654010Y-103117495D01*
G37*
G36*
X68465657Y-57995535D02*
G01*
X68502661Y-58032539D01*
X68555839Y-58138897D01*
X68618796Y-58390721D01*
X68618796Y-58710935D01*
X68555839Y-58962759D01*
X68502660Y-59069117D01*
X68465655Y-59106122D01*
X68376243Y-59150828D01*
X68304206Y-59150828D01*
X68214792Y-59106121D01*
X68177788Y-59069117D01*
X68124607Y-58962757D01*
X68061653Y-58710936D01*
X68061653Y-58390720D01*
X68124607Y-58138898D01*
X68177788Y-58032538D01*
X68214792Y-57995535D01*
X68304206Y-57950828D01*
X68376243Y-57950828D01*
X68465657Y-57995535D01*
G37*
G36*
X69085463Y-59617495D02*
G01*
X66097868Y-59617495D01*
X66097868Y-59271565D01*
X66264535Y-59271565D01*
X66264535Y-59330091D01*
X66286932Y-59384163D01*
X66328318Y-59425549D01*
X66351116Y-59434992D01*
X66382389Y-59447946D01*
X66411653Y-59450828D01*
X67340225Y-59450828D01*
X67369489Y-59447946D01*
X67423561Y-59425548D01*
X67464945Y-59384164D01*
X67487343Y-59330092D01*
X67487343Y-59271564D01*
X67464945Y-59217492D01*
X67423561Y-59176108D01*
X67369489Y-59153710D01*
X67340225Y-59150828D01*
X66773785Y-59150828D01*
X67374862Y-58549751D01*
X67393517Y-58527021D01*
X67395580Y-58522039D01*
X67399110Y-58517970D01*
X67411098Y-58491120D01*
X67450719Y-58372257D01*
X67761653Y-58372257D01*
X67761653Y-58729400D01*
X67762155Y-58734503D01*
X67761830Y-58736691D01*
X67763449Y-58747641D01*
X67764535Y-58758664D01*
X67765382Y-58760708D01*
X67766132Y-58765780D01*
X67837560Y-59051494D01*
X67838331Y-59053652D01*
X67838408Y-59054733D01*
X67843066Y-59066907D01*
X67847453Y-59079185D01*
X67848097Y-59080055D01*
X67848917Y-59082196D01*
X67920346Y-59225053D01*
X67928273Y-59237646D01*
X67929789Y-59241306D01*
X67933170Y-59245425D01*
X67936011Y-59249939D01*
X67939004Y-59252535D01*
X67948444Y-59264037D01*
X68019873Y-59335466D01*
X68031377Y-59344907D01*
X68033972Y-59347899D01*
X68038481Y-59350737D01*
X68042604Y-59354121D01*
X68046265Y-59355637D01*
X68058857Y-59363564D01*
X68201715Y-59434992D01*
X68229178Y-59445502D01*
X68234553Y-59445883D01*
X68239532Y-59447946D01*
X68268796Y-59450828D01*
X68411653Y-59450828D01*
X68440917Y-59447946D01*
X68445895Y-59445883D01*
X68451271Y-59445502D01*
X68478735Y-59434992D01*
X68621592Y-59363564D01*
X68634185Y-59355636D01*
X68637845Y-59354121D01*
X68641964Y-59350739D01*
X68646478Y-59347899D01*
X68649074Y-59344905D01*
X68660576Y-59335466D01*
X68732005Y-59264037D01*
X68741446Y-59252532D01*
X68744438Y-59249938D01*
X68747276Y-59245428D01*
X68750660Y-59241306D01*
X68752176Y-59237644D01*
X68760103Y-59225053D01*
X68831531Y-59082195D01*
X68832348Y-59080058D01*
X68832995Y-59079186D01*
X68837384Y-59066899D01*
X68842041Y-59054732D01*
X68842117Y-59053650D01*
X68842888Y-59051495D01*
X68914317Y-58765781D01*
X68915067Y-58760708D01*
X68915914Y-58758664D01*
X68916999Y-58747644D01*
X68918619Y-58736692D01*
X68918293Y-58734503D01*
X68918796Y-58729400D01*
X68918796Y-58372257D01*
X68918293Y-58367153D01*
X68918619Y-58364965D01*
X68916999Y-58354012D01*
X68915914Y-58342993D01*
X68915067Y-58340948D01*
X68914317Y-58335876D01*
X68842888Y-58050162D01*
X68842117Y-58048006D01*
X68842041Y-58046924D01*
X68837381Y-58034749D01*
X68832995Y-58022470D01*
X68832348Y-58021597D01*
X68831531Y-58019461D01*
X68760103Y-57876603D01*
X68752174Y-57864008D01*
X68750659Y-57860349D01*
X68747277Y-57856228D01*
X68744438Y-57851718D01*
X68741446Y-57849123D01*
X68732004Y-57837618D01*
X68660575Y-57766190D01*
X68649075Y-57756752D01*
X68646478Y-57753758D01*
X68641961Y-57750915D01*
X68637844Y-57747536D01*
X68634187Y-57746021D01*
X68621592Y-57738093D01*
X68478735Y-57666664D01*
X68451272Y-57656155D01*
X68445897Y-57655773D01*
X68440917Y-57653710D01*
X68411653Y-57650828D01*
X68268796Y-57650828D01*
X68239532Y-57653710D01*
X68234551Y-57655773D01*
X68229177Y-57656155D01*
X68201713Y-57666664D01*
X68058857Y-57738093D01*
X68046263Y-57746020D01*
X68042604Y-57747536D01*
X68038483Y-57750917D01*
X68033971Y-57753758D01*
X68031374Y-57756751D01*
X68019874Y-57766190D01*
X67948445Y-57837618D01*
X67939005Y-57849120D01*
X67936011Y-57851717D01*
X67933169Y-57856231D01*
X67929790Y-57860349D01*
X67928274Y-57864007D01*
X67920346Y-57876603D01*
X67848917Y-58019460D01*
X67848097Y-58021600D01*
X67847453Y-58022471D01*
X67843066Y-58034748D01*
X67838408Y-58046923D01*
X67838331Y-58048003D01*
X67837560Y-58050162D01*
X67766132Y-58335877D01*
X67765382Y-58340948D01*
X67764535Y-58342993D01*
X67763449Y-58354015D01*
X67761830Y-58364966D01*
X67762155Y-58367153D01*
X67761653Y-58372257D01*
X67450719Y-58372257D01*
X67482527Y-58276835D01*
X67485826Y-58262325D01*
X67487343Y-58258664D01*
X67487865Y-58253355D01*
X67489047Y-58248161D01*
X67488766Y-58244211D01*
X67490225Y-58229400D01*
X67490225Y-58086542D01*
X67487343Y-58057278D01*
X67485279Y-58052297D01*
X67484898Y-58046923D01*
X67474389Y-58019459D01*
X67402960Y-57876603D01*
X67395033Y-57864011D01*
X67393517Y-57860349D01*
X67390133Y-57856226D01*
X67387295Y-57851717D01*
X67384302Y-57849121D01*
X67374862Y-57837619D01*
X67303434Y-57766191D01*
X67291932Y-57756751D01*
X67289336Y-57753758D01*
X67284822Y-57750917D01*
X67280703Y-57747536D01*
X67277043Y-57746020D01*
X67264450Y-57738093D01*
X67121592Y-57666664D01*
X67094129Y-57656154D01*
X67088751Y-57655771D01*
X67083774Y-57653710D01*
X67054510Y-57650828D01*
X66697368Y-57650828D01*
X66668104Y-57653710D01*
X66663126Y-57655771D01*
X66657749Y-57656154D01*
X66630286Y-57666664D01*
X66487428Y-57738093D01*
X66474836Y-57746019D01*
X66471174Y-57747536D01*
X66467051Y-57750919D01*
X66462542Y-57753758D01*
X66459946Y-57756750D01*
X66448444Y-57766191D01*
X66377016Y-57837619D01*
X66358361Y-57860350D01*
X66335964Y-57914422D01*
X66335964Y-57972948D01*
X66358361Y-58027020D01*
X66399747Y-58068406D01*
X66453819Y-58090803D01*
X66512345Y-58090803D01*
X66566417Y-58068406D01*
X66589148Y-58049751D01*
X66643364Y-57995535D01*
X66732778Y-57950828D01*
X67019100Y-57950828D01*
X67108514Y-57995535D01*
X67145518Y-58032539D01*
X67190225Y-58121952D01*
X67190225Y-58205059D01*
X67137691Y-58362657D01*
X66305587Y-59194762D01*
X66286932Y-59217493D01*
X66264535Y-59271565D01*
X66097868Y-59271565D01*
X66097868Y-57484161D01*
X69085463Y-57484161D01*
X69085463Y-59617495D01*
G37*
G36*
X80537085Y-63495535D02*
G01*
X80574089Y-63532539D01*
X80618796Y-63621952D01*
X80618796Y-63908274D01*
X80574088Y-63997688D01*
X80537084Y-64034693D01*
X80447671Y-64079400D01*
X80232777Y-64079400D01*
X80143364Y-64034693D01*
X80106358Y-63997687D01*
X80061653Y-63908275D01*
X80061653Y-63621951D01*
X80106358Y-63532540D01*
X80143363Y-63495535D01*
X80232777Y-63450828D01*
X80447671Y-63450828D01*
X80537085Y-63495535D01*
G37*
G36*
X81085463Y-65117495D02*
G01*
X78167593Y-65117495D01*
X78167593Y-63710639D01*
X78334260Y-63710639D01*
X78338409Y-63769019D01*
X78364583Y-63821368D01*
X78408798Y-63859715D01*
X78464321Y-63878222D01*
X78522701Y-63874073D01*
X78550164Y-63863564D01*
X78693021Y-63792135D01*
X78705614Y-63784207D01*
X78709274Y-63782692D01*
X78713393Y-63779310D01*
X78717907Y-63776470D01*
X78720503Y-63773476D01*
X78732005Y-63764037D01*
X78761653Y-63734389D01*
X78761653Y-64650828D01*
X78483082Y-64650828D01*
X78453818Y-64653710D01*
X78399746Y-64676108D01*
X78358362Y-64717492D01*
X78335964Y-64771564D01*
X78335964Y-64830092D01*
X78358362Y-64884164D01*
X78399746Y-64925548D01*
X78453818Y-64947946D01*
X78483082Y-64950828D01*
X79340225Y-64950828D01*
X79369489Y-64947946D01*
X79423561Y-64925548D01*
X79464945Y-64884164D01*
X79487343Y-64830092D01*
X79487343Y-64771564D01*
X79464945Y-64717492D01*
X79423561Y-64676108D01*
X79369489Y-64653710D01*
X79340225Y-64650828D01*
X79061653Y-64650828D01*
X79061653Y-63586542D01*
X79761653Y-63586542D01*
X79761653Y-63943685D01*
X79764535Y-63972949D01*
X79766597Y-63977927D01*
X79766979Y-63983303D01*
X79777489Y-64010767D01*
X79848917Y-64153624D01*
X79856844Y-64166217D01*
X79858360Y-64169877D01*
X79861741Y-64173996D01*
X79864582Y-64178510D01*
X79867575Y-64181106D01*
X79877015Y-64192608D01*
X79948444Y-64264037D01*
X79959945Y-64273475D01*
X79962542Y-64276470D01*
X79967055Y-64279310D01*
X79971175Y-64282692D01*
X79974834Y-64284207D01*
X79987428Y-64292135D01*
X80130284Y-64363564D01*
X80157748Y-64374073D01*
X80163122Y-64374454D01*
X80168103Y-64376518D01*
X80197367Y-64379400D01*
X80483081Y-64379400D01*
X80512345Y-64376518D01*
X80517322Y-64374456D01*
X80522700Y-64374074D01*
X80550163Y-64363564D01*
X80564583Y-64356353D01*
X80558147Y-64382098D01*
X80437940Y-64562408D01*
X80394226Y-64606122D01*
X80304814Y-64650828D01*
X80054510Y-64650828D01*
X80025246Y-64653710D01*
X79971174Y-64676108D01*
X79929790Y-64717492D01*
X79907392Y-64771564D01*
X79907392Y-64830092D01*
X79929790Y-64884164D01*
X79971174Y-64925548D01*
X80025246Y-64947946D01*
X80054510Y-64950828D01*
X80340224Y-64950828D01*
X80369488Y-64947946D01*
X80374466Y-64945883D01*
X80379842Y-64945502D01*
X80407306Y-64934992D01*
X80550163Y-64863564D01*
X80562756Y-64855636D01*
X80566416Y-64854121D01*
X80570535Y-64850739D01*
X80575049Y-64847899D01*
X80577645Y-64844905D01*
X80589147Y-64835466D01*
X80660576Y-64764037D01*
X80660642Y-64763955D01*
X80660687Y-64763926D01*
X80670053Y-64752489D01*
X80679231Y-64741306D01*
X80679250Y-64741257D01*
X80679318Y-64741176D01*
X80822175Y-64526890D01*
X80830788Y-64510734D01*
X80832995Y-64507757D01*
X80834251Y-64504240D01*
X80836010Y-64500942D01*
X80836729Y-64497303D01*
X80842888Y-64480066D01*
X80914317Y-64194352D01*
X80915067Y-64189279D01*
X80915914Y-64187235D01*
X80916999Y-64176215D01*
X80918619Y-64165263D01*
X80918293Y-64163074D01*
X80918796Y-64157971D01*
X80918796Y-63586542D01*
X80915914Y-63557278D01*
X80913850Y-63552297D01*
X80913469Y-63546923D01*
X80902960Y-63519459D01*
X80831531Y-63376603D01*
X80823604Y-63364011D01*
X80822088Y-63360349D01*
X80818704Y-63356226D01*
X80815866Y-63351717D01*
X80812873Y-63349121D01*
X80803433Y-63337619D01*
X80732005Y-63266191D01*
X80720503Y-63256751D01*
X80717907Y-63253758D01*
X80713393Y-63250917D01*
X80709274Y-63247536D01*
X80705614Y-63246020D01*
X80693021Y-63238093D01*
X80550163Y-63166664D01*
X80522700Y-63156154D01*
X80517322Y-63155771D01*
X80512345Y-63153710D01*
X80483081Y-63150828D01*
X80197367Y-63150828D01*
X80168103Y-63153710D01*
X80163122Y-63155773D01*
X80157748Y-63156155D01*
X80130284Y-63166664D01*
X79987428Y-63238093D01*
X79974834Y-63246020D01*
X79971175Y-63247536D01*
X79967054Y-63250917D01*
X79962542Y-63253758D01*
X79959945Y-63256751D01*
X79948445Y-63266190D01*
X79877016Y-63337618D01*
X79867576Y-63349120D01*
X79864582Y-63351717D01*
X79861740Y-63356231D01*
X79858361Y-63360349D01*
X79856845Y-63364007D01*
X79848917Y-63376603D01*
X79777489Y-63519460D01*
X79766979Y-63546924D01*
X79766597Y-63552299D01*
X79764535Y-63557278D01*
X79761653Y-63586542D01*
X79061653Y-63586542D01*
X79061653Y-63300828D01*
X79061642Y-63300722D01*
X79061653Y-63300670D01*
X79061622Y-63300516D01*
X79058771Y-63271564D01*
X79053087Y-63257843D01*
X79050175Y-63243281D01*
X79041996Y-63231068D01*
X79036373Y-63217492D01*
X79025874Y-63206993D01*
X79017609Y-63194651D01*
X79005378Y-63186497D01*
X78994989Y-63176108D01*
X78981270Y-63170425D01*
X78968910Y-63162185D01*
X78954491Y-63159332D01*
X78940917Y-63153710D01*
X78926066Y-63153710D01*
X78911496Y-63150828D01*
X78897086Y-63153710D01*
X78882389Y-63153710D01*
X78868667Y-63159393D01*
X78854106Y-63162306D01*
X78841893Y-63170484D01*
X78828317Y-63176108D01*
X78817818Y-63186606D01*
X78805476Y-63194872D01*
X78787044Y-63217380D01*
X78786933Y-63217492D01*
X78786912Y-63217542D01*
X78786846Y-63217623D01*
X78652226Y-63419551D01*
X78537085Y-63534692D01*
X78416000Y-63595236D01*
X78391114Y-63610901D01*
X78352767Y-63655116D01*
X78334260Y-63710639D01*
X78167593Y-63710639D01*
X78167593Y-62984161D01*
X81085463Y-62984161D01*
X81085463Y-65117495D01*
G37*
X69445489Y-77229400D02*
X68302632Y-77229400D01*
X68874060Y-77800828D02*
X68874060Y-76657971D01*
X63945489Y-114729400D02*
X62802632Y-114729400D01*
X63374060Y-115300828D02*
X63374060Y-114157971D01*
G36*
X67582581Y-139117495D02*
G01*
X64597868Y-139117495D01*
X64597868Y-138771565D01*
X64764535Y-138771565D01*
X64764535Y-138830091D01*
X64786932Y-138884163D01*
X64828318Y-138925549D01*
X64859992Y-138938668D01*
X64882389Y-138947946D01*
X64911653Y-138950828D01*
X65840225Y-138950828D01*
X65869489Y-138947946D01*
X65923561Y-138925548D01*
X65964945Y-138884164D01*
X65987343Y-138830092D01*
X65987343Y-138771564D01*
X65964945Y-138717492D01*
X65923561Y-138676108D01*
X65869489Y-138653710D01*
X65840225Y-138650828D01*
X65273785Y-138650828D01*
X65874862Y-138049751D01*
X65893517Y-138027021D01*
X65895580Y-138022039D01*
X65899110Y-138017970D01*
X65911098Y-137991120D01*
X65982527Y-137776835D01*
X65985826Y-137762325D01*
X65987343Y-137758664D01*
X65987865Y-137753355D01*
X65989047Y-137748161D01*
X65988766Y-137744211D01*
X65990225Y-137729400D01*
X65990225Y-137710639D01*
X66262831Y-137710639D01*
X66266980Y-137769019D01*
X66293154Y-137821368D01*
X66337369Y-137859715D01*
X66392892Y-137878222D01*
X66451272Y-137874073D01*
X66478735Y-137863564D01*
X66621592Y-137792135D01*
X66634185Y-137784207D01*
X66637845Y-137782692D01*
X66641964Y-137779310D01*
X66646478Y-137776470D01*
X66649074Y-137773476D01*
X66660576Y-137764037D01*
X66690224Y-137734389D01*
X66690224Y-138650828D01*
X66411653Y-138650828D01*
X66382389Y-138653710D01*
X66328317Y-138676108D01*
X66286933Y-138717492D01*
X66264535Y-138771564D01*
X66264535Y-138830092D01*
X66286933Y-138884164D01*
X66328317Y-138925548D01*
X66382389Y-138947946D01*
X66411653Y-138950828D01*
X67268796Y-138950828D01*
X67298060Y-138947946D01*
X67352132Y-138925548D01*
X67393516Y-138884164D01*
X67415914Y-138830092D01*
X67415914Y-138771564D01*
X67393516Y-138717492D01*
X67352132Y-138676108D01*
X67298060Y-138653710D01*
X67268796Y-138650828D01*
X66990224Y-138650828D01*
X66990224Y-137300828D01*
X66990213Y-137300722D01*
X66990224Y-137300670D01*
X66990193Y-137300516D01*
X66987342Y-137271564D01*
X66981658Y-137257843D01*
X66978746Y-137243281D01*
X66970567Y-137231068D01*
X66964944Y-137217492D01*
X66954445Y-137206993D01*
X66946180Y-137194651D01*
X66933949Y-137186497D01*
X66923560Y-137176108D01*
X66909841Y-137170425D01*
X66897481Y-137162185D01*
X66883062Y-137159332D01*
X66869488Y-137153710D01*
X66854637Y-137153710D01*
X66840067Y-137150828D01*
X66825657Y-137153710D01*
X66810960Y-137153710D01*
X66797238Y-137159393D01*
X66782677Y-137162306D01*
X66770464Y-137170484D01*
X66756888Y-137176108D01*
X66746389Y-137186606D01*
X66734047Y-137194872D01*
X66715615Y-137217380D01*
X66715504Y-137217492D01*
X66715483Y-137217542D01*
X66715417Y-137217623D01*
X66580797Y-137419551D01*
X66465656Y-137534692D01*
X66344571Y-137595236D01*
X66319685Y-137610901D01*
X66281338Y-137655116D01*
X66262831Y-137710639D01*
X65990225Y-137710639D01*
X65990225Y-137586542D01*
X65987343Y-137557278D01*
X65985279Y-137552297D01*
X65984898Y-137546923D01*
X65974389Y-137519459D01*
X65902960Y-137376603D01*
X65895033Y-137364011D01*
X65893517Y-137360349D01*
X65890133Y-137356226D01*
X65887295Y-137351717D01*
X65884302Y-137349121D01*
X65874862Y-137337619D01*
X65803434Y-137266191D01*
X65791932Y-137256751D01*
X65789336Y-137253758D01*
X65784822Y-137250917D01*
X65780703Y-137247536D01*
X65777043Y-137246020D01*
X65764450Y-137238093D01*
X65621592Y-137166664D01*
X65594129Y-137156154D01*
X65588751Y-137155771D01*
X65583774Y-137153710D01*
X65554510Y-137150828D01*
X65197368Y-137150828D01*
X65168104Y-137153710D01*
X65163126Y-137155771D01*
X65157749Y-137156154D01*
X65130286Y-137166664D01*
X64987428Y-137238093D01*
X64974836Y-137246019D01*
X64971174Y-137247536D01*
X64967051Y-137250919D01*
X64962542Y-137253758D01*
X64959946Y-137256750D01*
X64948444Y-137266191D01*
X64877016Y-137337619D01*
X64858361Y-137360350D01*
X64835964Y-137414422D01*
X64835964Y-137472948D01*
X64858361Y-137527020D01*
X64899747Y-137568406D01*
X64953819Y-137590803D01*
X65012345Y-137590803D01*
X65066417Y-137568406D01*
X65089148Y-137549751D01*
X65143364Y-137495535D01*
X65232778Y-137450828D01*
X65519100Y-137450828D01*
X65608514Y-137495535D01*
X65645518Y-137532539D01*
X65690225Y-137621952D01*
X65690225Y-137705059D01*
X65637691Y-137862657D01*
X64805587Y-138694762D01*
X64786932Y-138717493D01*
X64764535Y-138771565D01*
X64597868Y-138771565D01*
X64597868Y-136984161D01*
X67582581Y-136984161D01*
X67582581Y-139117495D01*
G37*
G36*
X77085463Y-61617495D02*
G01*
X73740725Y-61617495D01*
X73740725Y-60700136D01*
X73907392Y-60700136D01*
X73907392Y-60758664D01*
X73929790Y-60812736D01*
X73971174Y-60854120D01*
X74025246Y-60876518D01*
X74054510Y-60879400D01*
X75197368Y-60879400D01*
X75226632Y-60876518D01*
X75280704Y-60854120D01*
X75322088Y-60812736D01*
X75344486Y-60758664D01*
X75344486Y-60700136D01*
X75322088Y-60646064D01*
X75280704Y-60604680D01*
X75226632Y-60582282D01*
X75197368Y-60579400D01*
X74054510Y-60579400D01*
X74025246Y-60582282D01*
X73971174Y-60604680D01*
X73929790Y-60646064D01*
X73907392Y-60700136D01*
X73740725Y-60700136D01*
X73740725Y-60443685D01*
X75690225Y-60443685D01*
X75690225Y-60657971D01*
X75690727Y-60663074D01*
X75690402Y-60665262D01*
X75692021Y-60676212D01*
X75693107Y-60687235D01*
X75693954Y-60689279D01*
X75694704Y-60694351D01*
X75766132Y-60980065D01*
X75766903Y-60982223D01*
X75766980Y-60983304D01*
X75771638Y-60995478D01*
X75776025Y-61007756D01*
X75776669Y-61008626D01*
X75777489Y-61010767D01*
X75848918Y-61153624D01*
X75856845Y-61166217D01*
X75858361Y-61169877D01*
X75861742Y-61173996D01*
X75864583Y-61178510D01*
X75867576Y-61181106D01*
X75877016Y-61192608D01*
X76019873Y-61335466D01*
X76042603Y-61354121D01*
X76047582Y-61356183D01*
X76051654Y-61359715D01*
X76078505Y-61371703D01*
X76292791Y-61443131D01*
X76307303Y-61446430D01*
X76310961Y-61447946D01*
X76316263Y-61448468D01*
X76321465Y-61449651D01*
X76325419Y-61449369D01*
X76340225Y-61450828D01*
X76483082Y-61450828D01*
X76497887Y-61449369D01*
X76501842Y-61449651D01*
X76507043Y-61448468D01*
X76512346Y-61447946D01*
X76516003Y-61446430D01*
X76530516Y-61443131D01*
X76744802Y-61371703D01*
X76771653Y-61359715D01*
X76775726Y-61356181D01*
X76780704Y-61354120D01*
X76803435Y-61335465D01*
X76874863Y-61264036D01*
X76893517Y-61241306D01*
X76913688Y-61192608D01*
X76915914Y-61187235D01*
X76918796Y-61157971D01*
X76918796Y-60657971D01*
X76915914Y-60628707D01*
X76893516Y-60574635D01*
X76852132Y-60533251D01*
X76798060Y-60510853D01*
X76768796Y-60507971D01*
X76483082Y-60507971D01*
X76453818Y-60510853D01*
X76399746Y-60533251D01*
X76358362Y-60574635D01*
X76335964Y-60628707D01*
X76335964Y-60687235D01*
X76358362Y-60741307D01*
X76399746Y-60782691D01*
X76453818Y-60805089D01*
X76483082Y-60807971D01*
X76618796Y-60807971D01*
X76618796Y-61095839D01*
X76616341Y-61098294D01*
X76458739Y-61150828D01*
X76364568Y-61150828D01*
X76206965Y-61098294D01*
X76106360Y-60997688D01*
X76053179Y-60891328D01*
X75990225Y-60639507D01*
X75990225Y-60462148D01*
X76053179Y-60210327D01*
X76106360Y-60103967D01*
X76206966Y-60003361D01*
X76364568Y-59950828D01*
X76519101Y-59950828D01*
X76630285Y-60006421D01*
X76657749Y-60016930D01*
X76716129Y-60021079D01*
X76771651Y-60002572D01*
X76815867Y-59964225D01*
X76842041Y-59911876D01*
X76846190Y-59853496D01*
X76827682Y-59797973D01*
X76789336Y-59753758D01*
X76764450Y-59738093D01*
X76621593Y-59666664D01*
X76594130Y-59656155D01*
X76588755Y-59655773D01*
X76583775Y-59653710D01*
X76554511Y-59650828D01*
X76340225Y-59650828D01*
X76325413Y-59652286D01*
X76321464Y-59652006D01*
X76316269Y-59653187D01*
X76310961Y-59653710D01*
X76307299Y-59655226D01*
X76292790Y-59658526D01*
X76078505Y-59729955D01*
X76051654Y-59741943D01*
X76047584Y-59745472D01*
X76042603Y-59747536D01*
X76019873Y-59766191D01*
X75877016Y-59909048D01*
X75867576Y-59920549D01*
X75864583Y-59923146D01*
X75861742Y-59927659D01*
X75858361Y-59931779D01*
X75856845Y-59935438D01*
X75848918Y-59948032D01*
X75777489Y-60090889D01*
X75776669Y-60093029D01*
X75776025Y-60093900D01*
X75771638Y-60106177D01*
X75766980Y-60118352D01*
X75766903Y-60119432D01*
X75766132Y-60121591D01*
X75694704Y-60407305D01*
X75693954Y-60412376D01*
X75693107Y-60414421D01*
X75692021Y-60425443D01*
X75690402Y-60436394D01*
X75690727Y-60438581D01*
X75690225Y-60443685D01*
X73740725Y-60443685D01*
X73740725Y-59484161D01*
X77085463Y-59484161D01*
X77085463Y-61617495D01*
G37*
G36*
X66037085Y-59995535D02*
G01*
X66074089Y-60032539D01*
X66118796Y-60121952D01*
X66118796Y-60408274D01*
X66074088Y-60497688D01*
X66037084Y-60534693D01*
X65947671Y-60579400D01*
X65732777Y-60579400D01*
X65643364Y-60534693D01*
X65606358Y-60497687D01*
X65561653Y-60408275D01*
X65561653Y-60121951D01*
X65606358Y-60032540D01*
X65643363Y-59995535D01*
X65732777Y-59950828D01*
X65947671Y-59950828D01*
X66037085Y-59995535D01*
G37*
G36*
X66585463Y-61617495D02*
G01*
X63667593Y-61617495D01*
X63667593Y-60210639D01*
X63834260Y-60210639D01*
X63838409Y-60269019D01*
X63864583Y-60321368D01*
X63908798Y-60359715D01*
X63964321Y-60378222D01*
X64022701Y-60374073D01*
X64050164Y-60363564D01*
X64193021Y-60292135D01*
X64205614Y-60284207D01*
X64209274Y-60282692D01*
X64213393Y-60279310D01*
X64217907Y-60276470D01*
X64220503Y-60273476D01*
X64232005Y-60264037D01*
X64261653Y-60234389D01*
X64261653Y-61150828D01*
X63983082Y-61150828D01*
X63953818Y-61153710D01*
X63899746Y-61176108D01*
X63858362Y-61217492D01*
X63835964Y-61271564D01*
X63835964Y-61330092D01*
X63858362Y-61384164D01*
X63899746Y-61425548D01*
X63953818Y-61447946D01*
X63983082Y-61450828D01*
X64840225Y-61450828D01*
X64869489Y-61447946D01*
X64923561Y-61425548D01*
X64964945Y-61384164D01*
X64987343Y-61330092D01*
X64987343Y-61271564D01*
X64964945Y-61217492D01*
X64923561Y-61176108D01*
X64869489Y-61153710D01*
X64840225Y-61150828D01*
X64561653Y-61150828D01*
X64561653Y-60086542D01*
X65261653Y-60086542D01*
X65261653Y-60443685D01*
X65264535Y-60472949D01*
X65266597Y-60477927D01*
X65266979Y-60483303D01*
X65277489Y-60510767D01*
X65348917Y-60653624D01*
X65356844Y-60666217D01*
X65358360Y-60669877D01*
X65361741Y-60673996D01*
X65364582Y-60678510D01*
X65367575Y-60681106D01*
X65377015Y-60692608D01*
X65448444Y-60764037D01*
X65459945Y-60773475D01*
X65462542Y-60776470D01*
X65467055Y-60779310D01*
X65471175Y-60782692D01*
X65474834Y-60784207D01*
X65487428Y-60792135D01*
X65630284Y-60863564D01*
X65657748Y-60874073D01*
X65663122Y-60874454D01*
X65668103Y-60876518D01*
X65697367Y-60879400D01*
X65983081Y-60879400D01*
X66012345Y-60876518D01*
X66017322Y-60874456D01*
X66022700Y-60874074D01*
X66050163Y-60863564D01*
X66064583Y-60856353D01*
X66058147Y-60882098D01*
X65937940Y-61062408D01*
X65894226Y-61106122D01*
X65804814Y-61150828D01*
X65554510Y-61150828D01*
X65525246Y-61153710D01*
X65471174Y-61176108D01*
X65429790Y-61217492D01*
X65407392Y-61271564D01*
X65407392Y-61330092D01*
X65429790Y-61384164D01*
X65471174Y-61425548D01*
X65525246Y-61447946D01*
X65554510Y-61450828D01*
X65840224Y-61450828D01*
X65869488Y-61447946D01*
X65874466Y-61445883D01*
X65879842Y-61445502D01*
X65907306Y-61434992D01*
X66050163Y-61363564D01*
X66062756Y-61355636D01*
X66066416Y-61354121D01*
X66070535Y-61350739D01*
X66075049Y-61347899D01*
X66077645Y-61344905D01*
X66089147Y-61335466D01*
X66160576Y-61264037D01*
X66160642Y-61263955D01*
X66160687Y-61263926D01*
X66170053Y-61252489D01*
X66179231Y-61241306D01*
X66179250Y-61241257D01*
X66179318Y-61241176D01*
X66322175Y-61026890D01*
X66330788Y-61010734D01*
X66332995Y-61007757D01*
X66334251Y-61004240D01*
X66336010Y-61000942D01*
X66336729Y-60997303D01*
X66342888Y-60980066D01*
X66414317Y-60694352D01*
X66415067Y-60689279D01*
X66415914Y-60687235D01*
X66416999Y-60676215D01*
X66418619Y-60665263D01*
X66418293Y-60663074D01*
X66418796Y-60657971D01*
X66418796Y-60086542D01*
X66415914Y-60057278D01*
X66413850Y-60052297D01*
X66413469Y-60046923D01*
X66402960Y-60019459D01*
X66331531Y-59876603D01*
X66323604Y-59864011D01*
X66322088Y-59860349D01*
X66318704Y-59856226D01*
X66315866Y-59851717D01*
X66312873Y-59849121D01*
X66303433Y-59837619D01*
X66232005Y-59766191D01*
X66220503Y-59756751D01*
X66217907Y-59753758D01*
X66213393Y-59750917D01*
X66209274Y-59747536D01*
X66205614Y-59746020D01*
X66193021Y-59738093D01*
X66050163Y-59666664D01*
X66022700Y-59656154D01*
X66017322Y-59655771D01*
X66012345Y-59653710D01*
X65983081Y-59650828D01*
X65697367Y-59650828D01*
X65668103Y-59653710D01*
X65663122Y-59655773D01*
X65657748Y-59656155D01*
X65630284Y-59666664D01*
X65487428Y-59738093D01*
X65474834Y-59746020D01*
X65471175Y-59747536D01*
X65467054Y-59750917D01*
X65462542Y-59753758D01*
X65459945Y-59756751D01*
X65448445Y-59766190D01*
X65377016Y-59837618D01*
X65367576Y-59849120D01*
X65364582Y-59851717D01*
X65361740Y-59856231D01*
X65358361Y-59860349D01*
X65356845Y-59864007D01*
X65348917Y-59876603D01*
X65277489Y-60019460D01*
X65266979Y-60046924D01*
X65266597Y-60052299D01*
X65264535Y-60057278D01*
X65261653Y-60086542D01*
X64561653Y-60086542D01*
X64561653Y-59800828D01*
X64561642Y-59800722D01*
X64561653Y-59800670D01*
X64561622Y-59800516D01*
X64558771Y-59771564D01*
X64553087Y-59757843D01*
X64550175Y-59743281D01*
X64541996Y-59731068D01*
X64536373Y-59717492D01*
X64525874Y-59706993D01*
X64517609Y-59694651D01*
X64505378Y-59686497D01*
X64494989Y-59676108D01*
X64481270Y-59670425D01*
X64468910Y-59662185D01*
X64454491Y-59659332D01*
X64440917Y-59653710D01*
X64426066Y-59653710D01*
X64411496Y-59650828D01*
X64397086Y-59653710D01*
X64382389Y-59653710D01*
X64368667Y-59659393D01*
X64354106Y-59662306D01*
X64341893Y-59670484D01*
X64328317Y-59676108D01*
X64317818Y-59686606D01*
X64305476Y-59694872D01*
X64287044Y-59717380D01*
X64286933Y-59717492D01*
X64286912Y-59717542D01*
X64286846Y-59717623D01*
X64152226Y-59919551D01*
X64037085Y-60034692D01*
X63916000Y-60095236D01*
X63891114Y-60110901D01*
X63852767Y-60155116D01*
X63834260Y-60210639D01*
X63667593Y-60210639D01*
X63667593Y-59484161D01*
X66585463Y-59484161D01*
X66585463Y-61617495D01*
G37*
G36*
X64154354Y-59617495D02*
G01*
X61167593Y-59617495D01*
X61167593Y-58210639D01*
X61334260Y-58210639D01*
X61338409Y-58269019D01*
X61364583Y-58321368D01*
X61408798Y-58359715D01*
X61464321Y-58378222D01*
X61522701Y-58374073D01*
X61550164Y-58363564D01*
X61693021Y-58292135D01*
X61705614Y-58284207D01*
X61709274Y-58282692D01*
X61713393Y-58279310D01*
X61717907Y-58276470D01*
X61720503Y-58273476D01*
X61732005Y-58264037D01*
X61761653Y-58234389D01*
X61761653Y-59150828D01*
X61483082Y-59150828D01*
X61453818Y-59153710D01*
X61399746Y-59176108D01*
X61358362Y-59217492D01*
X61335964Y-59271564D01*
X61335964Y-59330092D01*
X61358362Y-59384164D01*
X61399746Y-59425548D01*
X61453818Y-59447946D01*
X61483082Y-59450828D01*
X62340225Y-59450828D01*
X62369489Y-59447946D01*
X62423561Y-59425548D01*
X62464945Y-59384164D01*
X62487343Y-59330092D01*
X62487343Y-59271564D01*
X62464945Y-59217492D01*
X62423561Y-59176108D01*
X62369489Y-59153710D01*
X62340225Y-59150828D01*
X62061653Y-59150828D01*
X62061653Y-57800828D01*
X62061642Y-57800722D01*
X62061653Y-57800670D01*
X62061622Y-57800516D01*
X62058771Y-57771564D01*
X62693106Y-57771564D01*
X62693106Y-57830092D01*
X62715504Y-57884164D01*
X62756888Y-57925548D01*
X62810960Y-57947946D01*
X62840224Y-57950828D01*
X63612743Y-57950828D01*
X63059495Y-59241740D01*
X63050617Y-59269773D01*
X63049904Y-59328296D01*
X63071640Y-59382636D01*
X63112517Y-59424523D01*
X63166312Y-59447578D01*
X63224835Y-59448291D01*
X63279175Y-59426555D01*
X63321062Y-59385678D01*
X63335239Y-59359916D01*
X63978096Y-57859916D01*
X63986974Y-57831883D01*
X63986985Y-57830953D01*
X63987342Y-57830092D01*
X63987342Y-57801677D01*
X63987687Y-57773360D01*
X63987342Y-57772497D01*
X63987342Y-57771564D01*
X63976469Y-57745315D01*
X63965951Y-57719020D01*
X63965301Y-57718354D01*
X63964944Y-57717492D01*
X63944864Y-57697412D01*
X63925074Y-57677133D01*
X63924218Y-57676766D01*
X63923560Y-57676108D01*
X63897340Y-57665247D01*
X63871279Y-57654078D01*
X63870349Y-57654066D01*
X63869488Y-57653710D01*
X63840224Y-57650828D01*
X62840224Y-57650828D01*
X62810960Y-57653710D01*
X62756888Y-57676108D01*
X62715504Y-57717492D01*
X62693106Y-57771564D01*
X62058771Y-57771564D01*
X62053087Y-57757843D01*
X62050175Y-57743281D01*
X62041996Y-57731068D01*
X62036373Y-57717492D01*
X62025874Y-57706993D01*
X62017609Y-57694651D01*
X62005378Y-57686497D01*
X61994989Y-57676108D01*
X61981270Y-57670425D01*
X61968910Y-57662185D01*
X61954491Y-57659332D01*
X61940917Y-57653710D01*
X61926066Y-57653710D01*
X61911496Y-57650828D01*
X61897086Y-57653710D01*
X61882389Y-57653710D01*
X61868667Y-57659393D01*
X61854106Y-57662306D01*
X61841893Y-57670484D01*
X61828317Y-57676108D01*
X61817818Y-57686606D01*
X61805476Y-57694872D01*
X61787044Y-57717380D01*
X61786933Y-57717492D01*
X61786912Y-57717542D01*
X61786846Y-57717623D01*
X61652226Y-57919551D01*
X61537085Y-58034692D01*
X61416000Y-58095236D01*
X61391114Y-58110901D01*
X61352767Y-58155116D01*
X61334260Y-58210639D01*
X61167593Y-58210639D01*
X61167593Y-57484161D01*
X64154354Y-57484161D01*
X64154354Y-59617495D01*
G37*
X82445489Y-132729400D02*
X81302632Y-132729400D01*
X81874060Y-133300828D02*
X81874060Y-132157971D01*
G36*
X79084286Y-59617495D02*
G01*
X76167115Y-59617495D01*
X76167115Y-58529594D01*
X76333782Y-58529594D01*
X76335964Y-58536825D01*
X76335964Y-58544378D01*
X76344355Y-58564637D01*
X76350689Y-58585626D01*
X76355470Y-58591470D01*
X76358362Y-58598450D01*
X76373866Y-58613953D01*
X76387750Y-58630923D01*
X76394406Y-58634494D01*
X76399748Y-58639835D01*
X76420002Y-58648224D01*
X76439325Y-58658590D01*
X76446842Y-58659341D01*
X76453820Y-58662232D01*
X76475743Y-58662232D01*
X76497562Y-58664414D01*
X76504793Y-58662232D01*
X76512346Y-58662232D01*
X76532605Y-58653840D01*
X76553594Y-58647507D01*
X76559438Y-58642725D01*
X76566418Y-58639834D01*
X76589149Y-58621179D01*
X76643365Y-58566962D01*
X76732777Y-58522257D01*
X77019101Y-58522257D01*
X77108514Y-58566963D01*
X77145517Y-58603967D01*
X77190225Y-58693381D01*
X77190225Y-58979703D01*
X77145517Y-59069117D01*
X77108514Y-59106121D01*
X77019101Y-59150828D01*
X76732777Y-59150828D01*
X76643365Y-59106122D01*
X76589149Y-59051906D01*
X76566418Y-59033251D01*
X76512346Y-59010853D01*
X76453820Y-59010853D01*
X76399748Y-59033250D01*
X76358362Y-59074635D01*
X76335964Y-59128707D01*
X76335964Y-59187233D01*
X76358361Y-59241305D01*
X76377015Y-59264036D01*
X76448443Y-59335465D01*
X76459945Y-59344904D01*
X76462543Y-59347900D01*
X76467057Y-59350741D01*
X76471174Y-59354120D01*
X76474832Y-59355635D01*
X76487429Y-59363564D01*
X76630287Y-59434993D01*
X76657750Y-59445502D01*
X76663125Y-59445883D01*
X76668104Y-59447946D01*
X76697368Y-59450828D01*
X77054510Y-59450828D01*
X77083774Y-59447946D01*
X77088752Y-59445883D01*
X77094128Y-59445502D01*
X77121591Y-59434992D01*
X77264450Y-59363564D01*
X77277044Y-59355635D01*
X77280704Y-59354120D01*
X77284824Y-59350738D01*
X77289335Y-59347899D01*
X77291929Y-59344907D01*
X77303435Y-59335465D01*
X77374863Y-59264036D01*
X77384301Y-59252535D01*
X77387295Y-59249939D01*
X77390135Y-59245426D01*
X77393517Y-59241306D01*
X77395032Y-59237646D01*
X77402960Y-59225053D01*
X77474389Y-59082197D01*
X77484898Y-59054733D01*
X77485279Y-59049358D01*
X77487343Y-59044378D01*
X77490225Y-59015114D01*
X77490225Y-58657971D01*
X77487343Y-58628707D01*
X77485279Y-58623726D01*
X77484898Y-58618352D01*
X77474389Y-58590888D01*
X77402960Y-58448032D01*
X77395032Y-58435438D01*
X77393517Y-58431779D01*
X77390135Y-58427658D01*
X77387295Y-58423146D01*
X77384301Y-58420549D01*
X77374863Y-58409049D01*
X77303435Y-58337620D01*
X77291929Y-58328177D01*
X77289335Y-58325186D01*
X77284824Y-58322346D01*
X77280704Y-58318965D01*
X77277044Y-58317449D01*
X77264450Y-58309521D01*
X77121591Y-58238093D01*
X77094128Y-58227583D01*
X77088752Y-58227201D01*
X77083774Y-58225139D01*
X77054510Y-58222257D01*
X76697368Y-58222257D01*
X76668104Y-58225139D01*
X76663125Y-58227201D01*
X76662617Y-58227237D01*
X76690259Y-57950828D01*
X77268796Y-57950828D01*
X77298060Y-57947946D01*
X77352132Y-57925548D01*
X77393516Y-57884164D01*
X77415914Y-57830092D01*
X77415914Y-57819589D01*
X77619974Y-57819589D01*
X77626494Y-57848262D01*
X78126494Y-59348262D01*
X78138482Y-59375113D01*
X78145504Y-59383210D01*
X78150297Y-59392795D01*
X78164503Y-59405116D01*
X78176829Y-59419328D01*
X78186416Y-59424121D01*
X78194511Y-59431142D01*
X78212353Y-59437089D01*
X78229177Y-59445501D01*
X78239867Y-59446260D01*
X78250035Y-59449650D01*
X78268791Y-59448317D01*
X78287557Y-59449651D01*
X78297727Y-59446260D01*
X78308416Y-59445501D01*
X78325237Y-59437090D01*
X78343081Y-59431142D01*
X78351177Y-59424119D01*
X78360763Y-59419327D01*
X78373086Y-59405118D01*
X78387295Y-59392795D01*
X78392087Y-59383209D01*
X78399110Y-59375113D01*
X78411098Y-59348262D01*
X78911099Y-57848262D01*
X78917619Y-57819588D01*
X78913469Y-57761208D01*
X78887295Y-57708861D01*
X78843081Y-57670514D01*
X78787557Y-57652005D01*
X78729177Y-57656155D01*
X78676829Y-57682328D01*
X78638482Y-57726543D01*
X78626494Y-57753394D01*
X78268796Y-58826486D01*
X77911098Y-57753394D01*
X77899110Y-57726543D01*
X77860763Y-57682329D01*
X77808416Y-57656155D01*
X77750035Y-57652006D01*
X77694511Y-57670514D01*
X77650297Y-57708861D01*
X77624123Y-57761208D01*
X77619974Y-57819589D01*
X77415914Y-57819589D01*
X77415914Y-57771564D01*
X77393516Y-57717492D01*
X77352132Y-57676108D01*
X77298060Y-57653710D01*
X77268796Y-57650828D01*
X76554510Y-57650828D01*
X76543683Y-57651894D01*
X76540030Y-57651529D01*
X76536462Y-57652605D01*
X76525246Y-57653710D01*
X76504983Y-57662103D01*
X76483998Y-57668435D01*
X76478153Y-57673216D01*
X76471174Y-57676108D01*
X76455668Y-57691613D01*
X76438701Y-57705496D01*
X76435130Y-57712151D01*
X76429790Y-57717492D01*
X76421398Y-57737749D01*
X76411034Y-57757071D01*
X76408819Y-57768118D01*
X76407392Y-57771564D01*
X76407392Y-57775238D01*
X76405254Y-57785903D01*
X76333826Y-58500189D01*
X76333782Y-58529594D01*
X76167115Y-58529594D01*
X76167115Y-57484161D01*
X79084286Y-57484161D01*
X79084286Y-59617495D01*
G37*
G36*
X65085463Y-53117495D02*
G01*
X62097868Y-53117495D01*
X62097868Y-52771565D01*
X62264535Y-52771565D01*
X62264535Y-52830091D01*
X62286932Y-52884163D01*
X62328318Y-52925549D01*
X62359992Y-52938668D01*
X62382389Y-52947946D01*
X62411653Y-52950828D01*
X63340225Y-52950828D01*
X63369489Y-52947946D01*
X63423561Y-52925548D01*
X63464945Y-52884164D01*
X63487343Y-52830092D01*
X63487343Y-52771565D01*
X63693106Y-52771565D01*
X63693106Y-52830091D01*
X63715503Y-52884163D01*
X63756889Y-52925549D01*
X63788563Y-52938668D01*
X63810960Y-52947946D01*
X63840224Y-52950828D01*
X64768796Y-52950828D01*
X64798060Y-52947946D01*
X64852132Y-52925548D01*
X64893516Y-52884164D01*
X64915914Y-52830092D01*
X64915914Y-52771564D01*
X64893516Y-52717492D01*
X64852132Y-52676108D01*
X64798060Y-52653710D01*
X64768796Y-52650828D01*
X64202356Y-52650828D01*
X64803433Y-52049751D01*
X64822088Y-52027021D01*
X64824151Y-52022039D01*
X64827681Y-52017970D01*
X64839669Y-51991120D01*
X64911098Y-51776835D01*
X64914397Y-51762325D01*
X64915914Y-51758664D01*
X64916436Y-51753355D01*
X64917618Y-51748161D01*
X64917337Y-51744211D01*
X64918796Y-51729400D01*
X64918796Y-51586542D01*
X64915914Y-51557278D01*
X64913850Y-51552297D01*
X64913469Y-51546923D01*
X64902960Y-51519459D01*
X64831531Y-51376603D01*
X64823604Y-51364011D01*
X64822088Y-51360349D01*
X64818704Y-51356226D01*
X64815866Y-51351717D01*
X64812873Y-51349121D01*
X64803433Y-51337619D01*
X64732005Y-51266191D01*
X64720503Y-51256751D01*
X64717907Y-51253758D01*
X64713393Y-51250917D01*
X64709274Y-51247536D01*
X64705614Y-51246020D01*
X64693021Y-51238093D01*
X64550163Y-51166664D01*
X64522700Y-51156154D01*
X64517322Y-51155771D01*
X64512345Y-51153710D01*
X64483081Y-51150828D01*
X64125939Y-51150828D01*
X64096675Y-51153710D01*
X64091697Y-51155771D01*
X64086320Y-51156154D01*
X64058857Y-51166664D01*
X63915999Y-51238093D01*
X63903407Y-51246019D01*
X63899745Y-51247536D01*
X63895622Y-51250919D01*
X63891113Y-51253758D01*
X63888517Y-51256750D01*
X63877015Y-51266191D01*
X63805587Y-51337619D01*
X63786932Y-51360350D01*
X63764535Y-51414422D01*
X63764535Y-51472948D01*
X63786932Y-51527020D01*
X63828318Y-51568406D01*
X63882390Y-51590803D01*
X63940916Y-51590803D01*
X63994988Y-51568406D01*
X64017719Y-51549751D01*
X64071935Y-51495535D01*
X64161349Y-51450828D01*
X64447671Y-51450828D01*
X64537085Y-51495535D01*
X64574089Y-51532539D01*
X64618796Y-51621952D01*
X64618796Y-51705059D01*
X64566262Y-51862657D01*
X63734158Y-52694762D01*
X63715503Y-52717493D01*
X63693106Y-52771565D01*
X63487343Y-52771565D01*
X63487343Y-52771564D01*
X63464945Y-52717492D01*
X63423561Y-52676108D01*
X63369489Y-52653710D01*
X63340225Y-52650828D01*
X62773785Y-52650828D01*
X63374862Y-52049751D01*
X63393517Y-52027021D01*
X63395580Y-52022039D01*
X63399110Y-52017970D01*
X63411098Y-51991120D01*
X63482527Y-51776835D01*
X63485826Y-51762325D01*
X63487343Y-51758664D01*
X63487865Y-51753355D01*
X63489047Y-51748161D01*
X63488766Y-51744211D01*
X63490225Y-51729400D01*
X63490225Y-51586542D01*
X63487343Y-51557278D01*
X63485279Y-51552297D01*
X63484898Y-51546923D01*
X63474389Y-51519459D01*
X63402960Y-51376603D01*
X63395033Y-51364011D01*
X63393517Y-51360349D01*
X63390133Y-51356226D01*
X63387295Y-51351717D01*
X63384302Y-51349121D01*
X63374862Y-51337619D01*
X63303434Y-51266191D01*
X63291932Y-51256751D01*
X63289336Y-51253758D01*
X63284822Y-51250917D01*
X63280703Y-51247536D01*
X63277043Y-51246020D01*
X63264450Y-51238093D01*
X63121592Y-51166664D01*
X63094129Y-51156154D01*
X63088751Y-51155771D01*
X63083774Y-51153710D01*
X63054510Y-51150828D01*
X62697368Y-51150828D01*
X62668104Y-51153710D01*
X62663126Y-51155771D01*
X62657749Y-51156154D01*
X62630286Y-51166664D01*
X62487428Y-51238093D01*
X62474836Y-51246019D01*
X62471174Y-51247536D01*
X62467051Y-51250919D01*
X62462542Y-51253758D01*
X62459946Y-51256750D01*
X62448444Y-51266191D01*
X62377016Y-51337619D01*
X62358361Y-51360350D01*
X62335964Y-51414422D01*
X62335964Y-51472948D01*
X62358361Y-51527020D01*
X62399747Y-51568406D01*
X62453819Y-51590803D01*
X62512345Y-51590803D01*
X62566417Y-51568406D01*
X62589148Y-51549751D01*
X62643364Y-51495535D01*
X62732778Y-51450828D01*
X63019100Y-51450828D01*
X63108514Y-51495535D01*
X63145518Y-51532539D01*
X63190225Y-51621952D01*
X63190225Y-51705059D01*
X63137691Y-51862657D01*
X62305587Y-52694762D01*
X62286932Y-52717493D01*
X62264535Y-52771565D01*
X62097868Y-52771565D01*
X62097868Y-50984161D01*
X65085463Y-50984161D01*
X65085463Y-53117495D01*
G37*
G36*
X66037086Y-119495535D02*
G01*
X66074090Y-119532539D01*
X66127268Y-119638897D01*
X66190225Y-119890721D01*
X66190225Y-120210935D01*
X66127268Y-120462759D01*
X66074089Y-120569117D01*
X66037084Y-120606122D01*
X65947672Y-120650828D01*
X65875635Y-120650828D01*
X65786221Y-120606121D01*
X65749217Y-120569117D01*
X65696036Y-120462757D01*
X65633082Y-120210936D01*
X65633082Y-119890720D01*
X65696036Y-119638898D01*
X65749217Y-119532538D01*
X65786221Y-119495535D01*
X65875635Y-119450828D01*
X65947672Y-119450828D01*
X66037086Y-119495535D01*
G37*
G36*
X66656892Y-121117495D02*
G01*
X65166415Y-121117495D01*
X65166415Y-119872257D01*
X65333082Y-119872257D01*
X65333082Y-120229400D01*
X65333584Y-120234503D01*
X65333259Y-120236691D01*
X65334878Y-120247641D01*
X65335964Y-120258664D01*
X65336811Y-120260708D01*
X65337561Y-120265780D01*
X65408989Y-120551494D01*
X65409760Y-120553652D01*
X65409837Y-120554733D01*
X65414495Y-120566907D01*
X65418882Y-120579185D01*
X65419526Y-120580055D01*
X65420346Y-120582196D01*
X65491775Y-120725053D01*
X65499702Y-120737646D01*
X65501218Y-120741306D01*
X65504599Y-120745425D01*
X65507440Y-120749939D01*
X65510433Y-120752535D01*
X65519873Y-120764037D01*
X65591302Y-120835466D01*
X65602806Y-120844907D01*
X65605401Y-120847899D01*
X65609910Y-120850737D01*
X65614033Y-120854121D01*
X65617694Y-120855637D01*
X65630286Y-120863564D01*
X65773144Y-120934992D01*
X65800607Y-120945502D01*
X65805982Y-120945883D01*
X65810961Y-120947946D01*
X65840225Y-120950828D01*
X65983082Y-120950828D01*
X66012346Y-120947946D01*
X66017324Y-120945883D01*
X66022700Y-120945502D01*
X66050164Y-120934992D01*
X66193021Y-120863564D01*
X66205614Y-120855636D01*
X66209274Y-120854121D01*
X66213393Y-120850739D01*
X66217907Y-120847899D01*
X66220503Y-120844905D01*
X66232005Y-120835466D01*
X66303434Y-120764037D01*
X66312875Y-120752532D01*
X66315867Y-120749938D01*
X66318705Y-120745428D01*
X66322089Y-120741306D01*
X66323605Y-120737644D01*
X66331532Y-120725053D01*
X66402960Y-120582195D01*
X66403777Y-120580058D01*
X66404424Y-120579186D01*
X66408813Y-120566899D01*
X66413470Y-120554732D01*
X66413546Y-120553650D01*
X66414317Y-120551495D01*
X66485746Y-120265781D01*
X66486496Y-120260708D01*
X66487343Y-120258664D01*
X66488428Y-120247644D01*
X66490048Y-120236692D01*
X66489722Y-120234503D01*
X66490225Y-120229400D01*
X66490225Y-119872257D01*
X66489722Y-119867153D01*
X66490048Y-119864965D01*
X66488428Y-119854012D01*
X66487343Y-119842993D01*
X66486496Y-119840948D01*
X66485746Y-119835876D01*
X66414317Y-119550162D01*
X66413546Y-119548006D01*
X66413470Y-119546924D01*
X66408810Y-119534749D01*
X66404424Y-119522470D01*
X66403777Y-119521597D01*
X66402960Y-119519461D01*
X66331532Y-119376603D01*
X66323603Y-119364008D01*
X66322088Y-119360349D01*
X66318706Y-119356228D01*
X66315867Y-119351718D01*
X66312875Y-119349123D01*
X66303433Y-119337618D01*
X66232004Y-119266190D01*
X66220504Y-119256752D01*
X66217907Y-119253758D01*
X66213390Y-119250915D01*
X66209273Y-119247536D01*
X66205616Y-119246021D01*
X66193021Y-119238093D01*
X66050164Y-119166664D01*
X66022701Y-119156155D01*
X66017326Y-119155773D01*
X66012346Y-119153710D01*
X65983082Y-119150828D01*
X65840225Y-119150828D01*
X65810961Y-119153710D01*
X65805980Y-119155773D01*
X65800606Y-119156155D01*
X65773142Y-119166664D01*
X65630286Y-119238093D01*
X65617692Y-119246020D01*
X65614033Y-119247536D01*
X65609912Y-119250917D01*
X65605400Y-119253758D01*
X65602803Y-119256751D01*
X65591303Y-119266190D01*
X65519874Y-119337618D01*
X65510434Y-119349120D01*
X65507440Y-119351717D01*
X65504598Y-119356231D01*
X65501219Y-119360349D01*
X65499703Y-119364007D01*
X65491775Y-119376603D01*
X65420346Y-119519460D01*
X65419526Y-119521600D01*
X65418882Y-119522471D01*
X65414495Y-119534748D01*
X65409837Y-119546923D01*
X65409760Y-119548003D01*
X65408989Y-119550162D01*
X65337561Y-119835877D01*
X65336811Y-119840948D01*
X65335964Y-119842993D01*
X65334878Y-119854015D01*
X65333259Y-119864966D01*
X65333584Y-119867153D01*
X65333082Y-119872257D01*
X65166415Y-119872257D01*
X65166415Y-118984161D01*
X66656892Y-118984161D01*
X66656892Y-121117495D01*
G37*
G36*
X71037085Y-60638392D02*
G01*
X71074089Y-60675396D01*
X71118796Y-60764810D01*
X71118796Y-60979703D01*
X71074088Y-61069117D01*
X71037085Y-61106121D01*
X70947672Y-61150828D01*
X70732777Y-61150828D01*
X70643363Y-61106121D01*
X70606358Y-61069116D01*
X70561653Y-60979704D01*
X70561653Y-60764809D01*
X70606359Y-60675395D01*
X70643363Y-60638392D01*
X70732777Y-60593685D01*
X70947671Y-60593685D01*
X71037085Y-60638392D01*
G37*
G36*
X71037085Y-59995535D02*
G01*
X71074089Y-60032539D01*
X71118796Y-60121952D01*
X71118796Y-60122560D01*
X71074088Y-60211974D01*
X71037085Y-60248978D01*
X70947672Y-60293685D01*
X70732777Y-60293685D01*
X70643363Y-60248978D01*
X70606358Y-60211973D01*
X70561653Y-60122561D01*
X70561653Y-60121951D01*
X70606358Y-60032540D01*
X70643363Y-59995535D01*
X70732777Y-59950828D01*
X70947671Y-59950828D01*
X71037085Y-59995535D01*
G37*
G36*
X71585463Y-61617495D02*
G01*
X68667593Y-61617495D01*
X68667593Y-60210639D01*
X68834260Y-60210639D01*
X68838409Y-60269019D01*
X68864583Y-60321368D01*
X68908798Y-60359715D01*
X68964321Y-60378222D01*
X69022701Y-60374073D01*
X69050164Y-60363564D01*
X69193021Y-60292135D01*
X69205614Y-60284207D01*
X69209274Y-60282692D01*
X69213393Y-60279310D01*
X69217907Y-60276470D01*
X69220503Y-60273476D01*
X69232005Y-60264037D01*
X69261653Y-60234389D01*
X69261653Y-61150828D01*
X68983082Y-61150828D01*
X68953818Y-61153710D01*
X68899746Y-61176108D01*
X68858362Y-61217492D01*
X68835964Y-61271564D01*
X68835964Y-61330092D01*
X68858362Y-61384164D01*
X68899746Y-61425548D01*
X68953818Y-61447946D01*
X68983082Y-61450828D01*
X69840225Y-61450828D01*
X69869489Y-61447946D01*
X69923561Y-61425548D01*
X69964945Y-61384164D01*
X69987343Y-61330092D01*
X69987343Y-61271564D01*
X69964945Y-61217492D01*
X69923561Y-61176108D01*
X69869489Y-61153710D01*
X69840225Y-61150828D01*
X69561653Y-61150828D01*
X69561653Y-60086542D01*
X70261653Y-60086542D01*
X70261653Y-60157971D01*
X70264535Y-60187235D01*
X70266597Y-60192213D01*
X70266979Y-60197589D01*
X70277489Y-60225053D01*
X70348917Y-60367910D01*
X70356844Y-60380503D01*
X70358360Y-60384163D01*
X70361741Y-60388282D01*
X70364582Y-60392796D01*
X70367575Y-60395392D01*
X70377015Y-60406894D01*
X70413806Y-60443685D01*
X70377016Y-60480475D01*
X70367573Y-60491980D01*
X70364582Y-60494575D01*
X70361742Y-60499085D01*
X70358361Y-60503206D01*
X70356845Y-60506865D01*
X70348917Y-60519460D01*
X70277489Y-60662319D01*
X70266979Y-60689782D01*
X70266597Y-60695157D01*
X70264535Y-60700136D01*
X70261653Y-60729400D01*
X70261653Y-61015114D01*
X70264535Y-61044378D01*
X70266597Y-61049356D01*
X70266979Y-61054732D01*
X70277489Y-61082196D01*
X70348917Y-61225053D01*
X70356844Y-61237646D01*
X70358360Y-61241306D01*
X70361741Y-61245425D01*
X70364582Y-61249939D01*
X70367575Y-61252535D01*
X70377015Y-61264037D01*
X70448444Y-61335466D01*
X70459948Y-61344907D01*
X70462543Y-61347899D01*
X70467052Y-61350737D01*
X70471175Y-61354121D01*
X70474836Y-61355637D01*
X70487428Y-61363564D01*
X70630286Y-61434992D01*
X70657749Y-61445502D01*
X70663124Y-61445883D01*
X70668103Y-61447946D01*
X70697367Y-61450828D01*
X70983081Y-61450828D01*
X71012345Y-61447946D01*
X71017323Y-61445883D01*
X71022699Y-61445502D01*
X71050162Y-61434992D01*
X71193021Y-61363564D01*
X71205615Y-61355635D01*
X71209275Y-61354120D01*
X71213395Y-61350738D01*
X71217906Y-61347899D01*
X71220500Y-61344907D01*
X71232006Y-61335465D01*
X71303434Y-61264036D01*
X71312872Y-61252535D01*
X71315866Y-61249939D01*
X71318706Y-61245426D01*
X71322088Y-61241306D01*
X71323603Y-61237646D01*
X71331531Y-61225053D01*
X71402960Y-61082197D01*
X71413469Y-61054733D01*
X71413850Y-61049358D01*
X71415914Y-61044378D01*
X71418796Y-61015114D01*
X71418796Y-60729400D01*
X71415914Y-60700136D01*
X71413852Y-60695158D01*
X71413470Y-60689781D01*
X71402960Y-60662318D01*
X71331531Y-60519460D01*
X71323604Y-60506868D01*
X71322088Y-60503206D01*
X71318704Y-60499083D01*
X71315866Y-60494574D01*
X71312873Y-60491978D01*
X71303433Y-60480476D01*
X71266642Y-60443685D01*
X71303434Y-60406893D01*
X71312872Y-60395392D01*
X71315866Y-60392796D01*
X71318706Y-60388283D01*
X71322088Y-60384163D01*
X71323603Y-60380503D01*
X71331531Y-60367910D01*
X71402960Y-60225054D01*
X71413469Y-60197590D01*
X71413850Y-60192215D01*
X71415914Y-60187235D01*
X71418796Y-60157971D01*
X71418796Y-60086542D01*
X71415914Y-60057278D01*
X71413850Y-60052297D01*
X71413469Y-60046923D01*
X71402960Y-60019459D01*
X71331531Y-59876603D01*
X71323604Y-59864011D01*
X71322088Y-59860349D01*
X71318704Y-59856226D01*
X71315866Y-59851717D01*
X71312873Y-59849121D01*
X71303433Y-59837619D01*
X71232005Y-59766191D01*
X71220503Y-59756751D01*
X71217907Y-59753758D01*
X71213393Y-59750917D01*
X71209274Y-59747536D01*
X71205614Y-59746020D01*
X71193021Y-59738093D01*
X71050163Y-59666664D01*
X71022700Y-59656154D01*
X71017322Y-59655771D01*
X71012345Y-59653710D01*
X70983081Y-59650828D01*
X70697367Y-59650828D01*
X70668103Y-59653710D01*
X70663122Y-59655773D01*
X70657748Y-59656155D01*
X70630284Y-59666664D01*
X70487428Y-59738093D01*
X70474834Y-59746020D01*
X70471175Y-59747536D01*
X70467054Y-59750917D01*
X70462542Y-59753758D01*
X70459945Y-59756751D01*
X70448445Y-59766190D01*
X70377016Y-59837618D01*
X70367576Y-59849120D01*
X70364582Y-59851717D01*
X70361740Y-59856231D01*
X70358361Y-59860349D01*
X70356845Y-59864007D01*
X70348917Y-59876603D01*
X70277489Y-60019460D01*
X70266979Y-60046924D01*
X70266597Y-60052299D01*
X70264535Y-60057278D01*
X70261653Y-60086542D01*
X69561653Y-60086542D01*
X69561653Y-59800828D01*
X69561642Y-59800722D01*
X69561653Y-59800670D01*
X69561622Y-59800516D01*
X69558771Y-59771564D01*
X69553087Y-59757843D01*
X69550175Y-59743281D01*
X69541996Y-59731068D01*
X69536373Y-59717492D01*
X69525874Y-59706993D01*
X69517609Y-59694651D01*
X69505378Y-59686497D01*
X69494989Y-59676108D01*
X69481270Y-59670425D01*
X69468910Y-59662185D01*
X69454491Y-59659332D01*
X69440917Y-59653710D01*
X69426066Y-59653710D01*
X69411496Y-59650828D01*
X69397086Y-59653710D01*
X69382389Y-59653710D01*
X69368667Y-59659393D01*
X69354106Y-59662306D01*
X69341893Y-59670484D01*
X69328317Y-59676108D01*
X69317818Y-59686606D01*
X69305476Y-59694872D01*
X69287044Y-59717380D01*
X69286933Y-59717492D01*
X69286912Y-59717542D01*
X69286846Y-59717623D01*
X69152226Y-59919551D01*
X69037085Y-60034692D01*
X68916000Y-60095236D01*
X68891114Y-60110901D01*
X68852767Y-60155116D01*
X68834260Y-60210639D01*
X68667593Y-60210639D01*
X68667593Y-59484161D01*
X71585463Y-59484161D01*
X71585463Y-61617495D01*
G37*
G36*
X66585463Y-68117495D02*
G01*
X63597868Y-68117495D01*
X63597868Y-67771565D01*
X63764535Y-67771565D01*
X63764535Y-67830091D01*
X63786932Y-67884163D01*
X63828318Y-67925549D01*
X63851116Y-67934992D01*
X63882389Y-67947946D01*
X63911653Y-67950828D01*
X64840225Y-67950828D01*
X64869489Y-67947946D01*
X64923561Y-67925548D01*
X64964945Y-67884164D01*
X64987343Y-67830092D01*
X64987343Y-67771564D01*
X64964945Y-67717492D01*
X64923561Y-67676108D01*
X64869489Y-67653710D01*
X64840225Y-67650828D01*
X64273785Y-67650828D01*
X64874862Y-67049751D01*
X64893517Y-67027021D01*
X64895580Y-67022039D01*
X64899110Y-67017970D01*
X64911098Y-66991120D01*
X64982527Y-66776835D01*
X64985826Y-66762325D01*
X64987343Y-66758664D01*
X64987865Y-66753355D01*
X64989047Y-66748161D01*
X64988766Y-66744211D01*
X64990225Y-66729400D01*
X64990225Y-66586542D01*
X64987343Y-66557278D01*
X64985279Y-66552297D01*
X64984898Y-66546923D01*
X64974389Y-66519459D01*
X64902960Y-66376603D01*
X64895033Y-66364011D01*
X64893517Y-66360349D01*
X64890133Y-66356226D01*
X64887295Y-66351717D01*
X64884302Y-66349121D01*
X64874862Y-66337619D01*
X64808807Y-66271564D01*
X65193106Y-66271564D01*
X65193106Y-66330092D01*
X65215504Y-66384164D01*
X65256888Y-66425548D01*
X65310960Y-66447946D01*
X65340224Y-66450828D01*
X65938231Y-66450828D01*
X65655909Y-66773481D01*
X65646865Y-66786131D01*
X65644076Y-66788921D01*
X65642979Y-66791566D01*
X65638808Y-66797403D01*
X65631001Y-66820484D01*
X65621678Y-66842993D01*
X65621678Y-66848052D01*
X65620057Y-66852845D01*
X65621678Y-66877154D01*
X65621678Y-66901521D01*
X65623614Y-66906196D01*
X65623951Y-66911241D01*
X65634749Y-66933076D01*
X65644076Y-66955593D01*
X65647652Y-66959169D01*
X65649895Y-66963704D01*
X65668230Y-66979747D01*
X65685460Y-66996977D01*
X65690134Y-66998913D01*
X65693942Y-67002245D01*
X65717023Y-67010051D01*
X65739532Y-67019375D01*
X65746669Y-67020077D01*
X65749384Y-67020996D01*
X65753323Y-67020733D01*
X65768796Y-67022257D01*
X65947672Y-67022257D01*
X66037085Y-67066963D01*
X66074088Y-67103967D01*
X66118796Y-67193381D01*
X66118796Y-67479703D01*
X66074088Y-67569117D01*
X66037085Y-67606121D01*
X65947672Y-67650828D01*
X65589920Y-67650828D01*
X65500506Y-67606121D01*
X65446290Y-67551905D01*
X65423559Y-67533250D01*
X65369487Y-67510853D01*
X65310961Y-67510853D01*
X65256889Y-67533250D01*
X65215503Y-67574636D01*
X65193106Y-67628708D01*
X65193106Y-67687234D01*
X65215503Y-67741306D01*
X65234158Y-67764037D01*
X65305587Y-67835466D01*
X65317091Y-67844907D01*
X65319686Y-67847899D01*
X65324195Y-67850737D01*
X65328318Y-67854121D01*
X65331979Y-67855637D01*
X65344571Y-67863564D01*
X65487429Y-67934992D01*
X65514892Y-67945502D01*
X65520267Y-67945883D01*
X65525246Y-67947946D01*
X65554510Y-67950828D01*
X65983081Y-67950828D01*
X66012345Y-67947946D01*
X66017323Y-67945883D01*
X66022699Y-67945502D01*
X66050162Y-67934992D01*
X66193021Y-67863564D01*
X66205615Y-67855635D01*
X66209275Y-67854120D01*
X66213395Y-67850738D01*
X66217906Y-67847899D01*
X66220500Y-67844907D01*
X66232006Y-67835465D01*
X66303434Y-67764036D01*
X66312872Y-67752535D01*
X66315866Y-67749939D01*
X66318706Y-67745426D01*
X66322088Y-67741306D01*
X66323603Y-67737646D01*
X66331531Y-67725053D01*
X66402960Y-67582197D01*
X66413469Y-67554733D01*
X66413850Y-67549358D01*
X66415914Y-67544378D01*
X66418796Y-67515114D01*
X66418796Y-67157971D01*
X66415914Y-67128707D01*
X66413850Y-67123726D01*
X66413469Y-67118352D01*
X66402960Y-67090888D01*
X66331531Y-66948032D01*
X66323603Y-66935438D01*
X66322088Y-66931779D01*
X66318706Y-66927658D01*
X66315866Y-66923146D01*
X66312872Y-66920549D01*
X66303434Y-66909049D01*
X66232006Y-66837620D01*
X66220500Y-66828177D01*
X66217906Y-66825186D01*
X66213395Y-66822346D01*
X66209275Y-66818965D01*
X66205615Y-66817449D01*
X66193021Y-66809521D01*
X66074748Y-66750386D01*
X66381682Y-66399604D01*
X66390725Y-66386954D01*
X66393516Y-66384164D01*
X66394611Y-66381519D01*
X66398784Y-66375683D01*
X66406589Y-66352603D01*
X66415914Y-66330092D01*
X66415914Y-66325030D01*
X66417534Y-66320240D01*
X66415914Y-66295939D01*
X66415914Y-66271564D01*
X66413977Y-66266888D01*
X66413641Y-66261844D01*
X66402842Y-66240008D01*
X66393516Y-66217492D01*
X66389939Y-66213915D01*
X66387697Y-66209381D01*
X66369361Y-66193337D01*
X66352132Y-66176108D01*
X66347457Y-66174171D01*
X66343650Y-66170840D01*
X66320574Y-66163036D01*
X66298060Y-66153710D01*
X66290918Y-66153006D01*
X66288208Y-66152090D01*
X66284273Y-66152352D01*
X66268796Y-66150828D01*
X65340224Y-66150828D01*
X65310960Y-66153710D01*
X65256888Y-66176108D01*
X65215504Y-66217492D01*
X65193106Y-66271564D01*
X64808807Y-66271564D01*
X64803434Y-66266191D01*
X64791932Y-66256751D01*
X64789336Y-66253758D01*
X64784822Y-66250917D01*
X64780703Y-66247536D01*
X64777043Y-66246020D01*
X64764450Y-66238093D01*
X64621592Y-66166664D01*
X64594129Y-66156154D01*
X64588751Y-66155771D01*
X64583774Y-66153710D01*
X64554510Y-66150828D01*
X64197368Y-66150828D01*
X64168104Y-66153710D01*
X64163126Y-66155771D01*
X64157749Y-66156154D01*
X64130286Y-66166664D01*
X63987428Y-66238093D01*
X63974836Y-66246019D01*
X63971174Y-66247536D01*
X63967051Y-66250919D01*
X63962542Y-66253758D01*
X63959946Y-66256750D01*
X63948444Y-66266191D01*
X63877016Y-66337619D01*
X63858361Y-66360350D01*
X63835964Y-66414422D01*
X63835964Y-66472948D01*
X63858361Y-66527020D01*
X63899747Y-66568406D01*
X63953819Y-66590803D01*
X64012345Y-66590803D01*
X64066417Y-66568406D01*
X64089148Y-66549751D01*
X64143364Y-66495535D01*
X64232778Y-66450828D01*
X64519100Y-66450828D01*
X64608514Y-66495535D01*
X64645518Y-66532539D01*
X64690225Y-66621952D01*
X64690225Y-66705059D01*
X64637691Y-66862657D01*
X63805587Y-67694762D01*
X63786932Y-67717493D01*
X63774229Y-67748162D01*
X63767654Y-67764036D01*
X63764535Y-67771565D01*
X63597868Y-67771565D01*
X63597868Y-65984161D01*
X66585463Y-65984161D01*
X66585463Y-68117495D01*
G37*
G36*
X71582581Y-68117495D02*
G01*
X68597868Y-68117495D01*
X68597868Y-67771565D01*
X68764535Y-67771565D01*
X68764535Y-67830091D01*
X68786932Y-67884163D01*
X68828318Y-67925549D01*
X68859992Y-67938668D01*
X68882389Y-67947946D01*
X68911653Y-67950828D01*
X69840225Y-67950828D01*
X69869489Y-67947946D01*
X69923561Y-67925548D01*
X69964945Y-67884164D01*
X69987343Y-67830092D01*
X69987343Y-67771564D01*
X69964945Y-67717492D01*
X69923561Y-67676108D01*
X69869489Y-67653710D01*
X69840225Y-67650828D01*
X69273785Y-67650828D01*
X69874862Y-67049751D01*
X69893517Y-67027021D01*
X69895580Y-67022039D01*
X69899110Y-67017970D01*
X69911098Y-66991120D01*
X69982527Y-66776835D01*
X69985826Y-66762325D01*
X69987343Y-66758664D01*
X69987865Y-66753355D01*
X69989047Y-66748161D01*
X69988766Y-66744211D01*
X69990225Y-66729400D01*
X69990225Y-66710639D01*
X70262831Y-66710639D01*
X70266980Y-66769019D01*
X70293154Y-66821368D01*
X70337369Y-66859715D01*
X70392892Y-66878222D01*
X70451272Y-66874073D01*
X70478735Y-66863564D01*
X70621592Y-66792135D01*
X70634185Y-66784207D01*
X70637845Y-66782692D01*
X70641964Y-66779310D01*
X70646478Y-66776470D01*
X70649074Y-66773476D01*
X70660576Y-66764037D01*
X70690224Y-66734389D01*
X70690224Y-67650828D01*
X70411653Y-67650828D01*
X70382389Y-67653710D01*
X70328317Y-67676108D01*
X70286933Y-67717492D01*
X70264535Y-67771564D01*
X70264535Y-67830092D01*
X70286933Y-67884164D01*
X70328317Y-67925548D01*
X70382389Y-67947946D01*
X70411653Y-67950828D01*
X71268796Y-67950828D01*
X71298060Y-67947946D01*
X71352132Y-67925548D01*
X71393516Y-67884164D01*
X71415914Y-67830092D01*
X71415914Y-67771564D01*
X71393516Y-67717492D01*
X71352132Y-67676108D01*
X71298060Y-67653710D01*
X71268796Y-67650828D01*
X70990224Y-67650828D01*
X70990224Y-66300828D01*
X70990213Y-66300722D01*
X70990224Y-66300670D01*
X70990193Y-66300516D01*
X70987342Y-66271564D01*
X70981658Y-66257843D01*
X70978746Y-66243281D01*
X70970567Y-66231068D01*
X70964944Y-66217492D01*
X70954445Y-66206993D01*
X70946180Y-66194651D01*
X70933949Y-66186497D01*
X70923560Y-66176108D01*
X70909841Y-66170425D01*
X70897481Y-66162185D01*
X70883062Y-66159332D01*
X70869488Y-66153710D01*
X70854637Y-66153710D01*
X70840067Y-66150828D01*
X70825657Y-66153710D01*
X70810960Y-66153710D01*
X70797238Y-66159393D01*
X70782677Y-66162306D01*
X70770464Y-66170484D01*
X70756888Y-66176108D01*
X70746389Y-66186606D01*
X70734047Y-66194872D01*
X70715615Y-66217380D01*
X70715504Y-66217492D01*
X70715483Y-66217542D01*
X70715417Y-66217623D01*
X70580797Y-66419551D01*
X70465656Y-66534692D01*
X70344571Y-66595236D01*
X70319685Y-66610901D01*
X70281338Y-66655116D01*
X70262831Y-66710639D01*
X69990225Y-66710639D01*
X69990225Y-66586542D01*
X69987343Y-66557278D01*
X69985279Y-66552297D01*
X69984898Y-66546923D01*
X69974389Y-66519459D01*
X69902960Y-66376603D01*
X69895033Y-66364011D01*
X69893517Y-66360349D01*
X69890133Y-66356226D01*
X69887295Y-66351717D01*
X69884302Y-66349121D01*
X69874862Y-66337619D01*
X69803434Y-66266191D01*
X69791932Y-66256751D01*
X69789336Y-66253758D01*
X69784822Y-66250917D01*
X69780703Y-66247536D01*
X69777043Y-66246020D01*
X69764450Y-66238093D01*
X69621592Y-66166664D01*
X69594129Y-66156154D01*
X69588751Y-66155771D01*
X69583774Y-66153710D01*
X69554510Y-66150828D01*
X69197368Y-66150828D01*
X69168104Y-66153710D01*
X69163126Y-66155771D01*
X69157749Y-66156154D01*
X69130286Y-66166664D01*
X68987428Y-66238093D01*
X68974836Y-66246019D01*
X68971174Y-66247536D01*
X68967051Y-66250919D01*
X68962542Y-66253758D01*
X68959946Y-66256750D01*
X68948444Y-66266191D01*
X68877016Y-66337619D01*
X68858361Y-66360350D01*
X68835964Y-66414422D01*
X68835964Y-66472948D01*
X68858361Y-66527020D01*
X68899747Y-66568406D01*
X68953819Y-66590803D01*
X69012345Y-66590803D01*
X69066417Y-66568406D01*
X69089148Y-66549751D01*
X69143364Y-66495535D01*
X69232778Y-66450828D01*
X69519100Y-66450828D01*
X69608514Y-66495535D01*
X69645518Y-66532539D01*
X69690225Y-66621952D01*
X69690225Y-66705059D01*
X69637691Y-66862657D01*
X68805587Y-67694762D01*
X68786932Y-67717493D01*
X68764535Y-67771565D01*
X68597868Y-67771565D01*
X68597868Y-65984161D01*
X71582581Y-65984161D01*
X71582581Y-68117495D01*
G37*
G36*
X85037085Y-138138392D02*
G01*
X85074089Y-138175396D01*
X85118796Y-138264810D01*
X85118796Y-138479703D01*
X85074088Y-138569117D01*
X85037085Y-138606121D01*
X84947672Y-138650828D01*
X84732777Y-138650828D01*
X84643363Y-138606121D01*
X84606358Y-138569116D01*
X84561653Y-138479704D01*
X84561653Y-138264809D01*
X84606359Y-138175395D01*
X84643363Y-138138392D01*
X84732777Y-138093685D01*
X84947671Y-138093685D01*
X85037085Y-138138392D01*
G37*
G36*
X85037085Y-137495535D02*
G01*
X85074089Y-137532539D01*
X85118796Y-137621952D01*
X85118796Y-137622560D01*
X85074088Y-137711974D01*
X85037085Y-137748978D01*
X84947672Y-137793685D01*
X84732777Y-137793685D01*
X84643363Y-137748978D01*
X84606358Y-137711973D01*
X84561653Y-137622561D01*
X84561653Y-137621951D01*
X84606358Y-137532540D01*
X84643363Y-137495535D01*
X84732777Y-137450828D01*
X84947671Y-137450828D01*
X85037085Y-137495535D01*
G37*
G36*
X85585463Y-139117495D02*
G01*
X82667593Y-139117495D01*
X82667593Y-137710639D01*
X82834260Y-137710639D01*
X82838409Y-137769019D01*
X82864583Y-137821368D01*
X82908798Y-137859715D01*
X82964321Y-137878222D01*
X83022701Y-137874073D01*
X83050164Y-137863564D01*
X83193021Y-137792135D01*
X83205614Y-137784207D01*
X83209274Y-137782692D01*
X83213393Y-137779310D01*
X83217907Y-137776470D01*
X83220503Y-137773476D01*
X83232005Y-137764037D01*
X83261653Y-137734389D01*
X83261653Y-138650828D01*
X82983082Y-138650828D01*
X82953818Y-138653710D01*
X82899746Y-138676108D01*
X82858362Y-138717492D01*
X82835964Y-138771564D01*
X82835964Y-138830092D01*
X82858362Y-138884164D01*
X82899746Y-138925548D01*
X82953818Y-138947946D01*
X82983082Y-138950828D01*
X83840225Y-138950828D01*
X83869489Y-138947946D01*
X83923561Y-138925548D01*
X83964945Y-138884164D01*
X83987343Y-138830092D01*
X83987343Y-138771564D01*
X83964945Y-138717492D01*
X83923561Y-138676108D01*
X83869489Y-138653710D01*
X83840225Y-138650828D01*
X83561653Y-138650828D01*
X83561653Y-137586542D01*
X84261653Y-137586542D01*
X84261653Y-137657971D01*
X84264535Y-137687235D01*
X84266597Y-137692213D01*
X84266979Y-137697589D01*
X84277489Y-137725053D01*
X84348917Y-137867910D01*
X84356844Y-137880503D01*
X84358360Y-137884163D01*
X84361741Y-137888282D01*
X84364582Y-137892796D01*
X84367575Y-137895392D01*
X84377015Y-137906894D01*
X84413806Y-137943685D01*
X84377016Y-137980475D01*
X84367573Y-137991980D01*
X84364582Y-137994575D01*
X84361742Y-137999085D01*
X84358361Y-138003206D01*
X84356845Y-138006865D01*
X84348917Y-138019460D01*
X84277489Y-138162319D01*
X84266979Y-138189782D01*
X84266597Y-138195157D01*
X84264535Y-138200136D01*
X84261653Y-138229400D01*
X84261653Y-138515114D01*
X84264535Y-138544378D01*
X84266597Y-138549356D01*
X84266979Y-138554732D01*
X84277489Y-138582196D01*
X84348917Y-138725053D01*
X84356844Y-138737646D01*
X84358360Y-138741306D01*
X84361741Y-138745425D01*
X84364582Y-138749939D01*
X84367575Y-138752535D01*
X84377015Y-138764037D01*
X84448444Y-138835466D01*
X84459948Y-138844907D01*
X84462543Y-138847899D01*
X84467052Y-138850737D01*
X84471175Y-138854121D01*
X84474836Y-138855637D01*
X84487428Y-138863564D01*
X84630286Y-138934992D01*
X84657749Y-138945502D01*
X84663124Y-138945883D01*
X84668103Y-138947946D01*
X84697367Y-138950828D01*
X84983081Y-138950828D01*
X85012345Y-138947946D01*
X85017323Y-138945883D01*
X85022699Y-138945502D01*
X85050162Y-138934992D01*
X85193021Y-138863564D01*
X85205615Y-138855635D01*
X85209275Y-138854120D01*
X85213395Y-138850738D01*
X85217906Y-138847899D01*
X85220500Y-138844907D01*
X85232006Y-138835465D01*
X85303434Y-138764036D01*
X85312872Y-138752535D01*
X85315866Y-138749939D01*
X85318706Y-138745426D01*
X85322088Y-138741306D01*
X85323603Y-138737646D01*
X85331531Y-138725053D01*
X85402960Y-138582197D01*
X85413469Y-138554733D01*
X85413850Y-138549358D01*
X85415914Y-138544378D01*
X85418796Y-138515114D01*
X85418796Y-138229400D01*
X85415914Y-138200136D01*
X85413852Y-138195158D01*
X85413470Y-138189781D01*
X85402960Y-138162318D01*
X85331531Y-138019460D01*
X85323604Y-138006868D01*
X85322088Y-138003206D01*
X85318704Y-137999083D01*
X85315866Y-137994574D01*
X85312873Y-137991978D01*
X85303433Y-137980476D01*
X85266642Y-137943685D01*
X85303434Y-137906893D01*
X85312872Y-137895392D01*
X85315866Y-137892796D01*
X85318706Y-137888283D01*
X85322088Y-137884163D01*
X85323603Y-137880503D01*
X85331531Y-137867910D01*
X85402960Y-137725054D01*
X85413469Y-137697590D01*
X85413850Y-137692215D01*
X85415914Y-137687235D01*
X85418796Y-137657971D01*
X85418796Y-137586542D01*
X85415914Y-137557278D01*
X85413850Y-137552297D01*
X85413469Y-137546923D01*
X85402960Y-137519459D01*
X85331531Y-137376603D01*
X85323604Y-137364011D01*
X85322088Y-137360349D01*
X85318704Y-137356226D01*
X85315866Y-137351717D01*
X85312873Y-137349121D01*
X85303433Y-137337619D01*
X85232005Y-137266191D01*
X85220503Y-137256751D01*
X85217907Y-137253758D01*
X85213393Y-137250917D01*
X85209274Y-137247536D01*
X85205614Y-137246020D01*
X85193021Y-137238093D01*
X85050163Y-137166664D01*
X85022700Y-137156154D01*
X85017322Y-137155771D01*
X85012345Y-137153710D01*
X84983081Y-137150828D01*
X84697367Y-137150828D01*
X84668103Y-137153710D01*
X84663122Y-137155773D01*
X84657748Y-137156155D01*
X84630284Y-137166664D01*
X84487428Y-137238093D01*
X84474834Y-137246020D01*
X84471175Y-137247536D01*
X84467054Y-137250917D01*
X84462542Y-137253758D01*
X84459945Y-137256751D01*
X84448445Y-137266190D01*
X84377016Y-137337618D01*
X84367576Y-137349120D01*
X84364582Y-137351717D01*
X84361740Y-137356231D01*
X84358361Y-137360349D01*
X84356845Y-137364007D01*
X84348917Y-137376603D01*
X84277489Y-137519460D01*
X84266979Y-137546924D01*
X84266597Y-137552299D01*
X84264535Y-137557278D01*
X84261653Y-137586542D01*
X83561653Y-137586542D01*
X83561653Y-137300828D01*
X83561642Y-137300722D01*
X83561653Y-137300670D01*
X83561622Y-137300516D01*
X83558771Y-137271564D01*
X83553087Y-137257843D01*
X83550175Y-137243281D01*
X83541996Y-137231068D01*
X83536373Y-137217492D01*
X83525874Y-137206993D01*
X83517609Y-137194651D01*
X83505378Y-137186497D01*
X83494989Y-137176108D01*
X83481270Y-137170425D01*
X83468910Y-137162185D01*
X83454491Y-137159332D01*
X83440917Y-137153710D01*
X83426066Y-137153710D01*
X83411496Y-137150828D01*
X83397086Y-137153710D01*
X83382389Y-137153710D01*
X83368667Y-137159393D01*
X83354106Y-137162306D01*
X83341893Y-137170484D01*
X83328317Y-137176108D01*
X83317818Y-137186606D01*
X83305476Y-137194872D01*
X83287044Y-137217380D01*
X83286933Y-137217492D01*
X83286912Y-137217542D01*
X83286846Y-137217623D01*
X83152226Y-137419551D01*
X83037085Y-137534692D01*
X82916000Y-137595236D01*
X82891114Y-137610901D01*
X82852767Y-137655116D01*
X82834260Y-137710639D01*
X82667593Y-137710639D01*
X82667593Y-136984161D01*
X85585463Y-136984161D01*
X85585463Y-139117495D01*
G37*
G36*
X74084286Y-59617495D02*
G01*
X71097868Y-59617495D01*
X71097868Y-57771564D01*
X71264535Y-57771564D01*
X71264535Y-57830092D01*
X71286933Y-57884164D01*
X71328317Y-57925548D01*
X71382389Y-57947946D01*
X71411653Y-57950828D01*
X72009660Y-57950828D01*
X71727338Y-58273481D01*
X71718294Y-58286131D01*
X71715505Y-58288921D01*
X71714408Y-58291566D01*
X71710237Y-58297403D01*
X71702430Y-58320484D01*
X71693107Y-58342993D01*
X71693107Y-58348052D01*
X71691486Y-58352845D01*
X71693107Y-58377154D01*
X71693107Y-58401521D01*
X71695043Y-58406196D01*
X71695380Y-58411241D01*
X71706178Y-58433076D01*
X71715505Y-58455593D01*
X71719081Y-58459169D01*
X71721324Y-58463704D01*
X71739659Y-58479747D01*
X71756889Y-58496977D01*
X71761563Y-58498913D01*
X71765371Y-58502245D01*
X71788452Y-58510051D01*
X71810961Y-58519375D01*
X71818098Y-58520077D01*
X71820813Y-58520996D01*
X71824752Y-58520733D01*
X71840225Y-58522257D01*
X72019101Y-58522257D01*
X72108514Y-58566963D01*
X72145517Y-58603967D01*
X72190225Y-58693381D01*
X72190225Y-58979703D01*
X72145517Y-59069117D01*
X72108514Y-59106121D01*
X72019101Y-59150828D01*
X71661349Y-59150828D01*
X71571935Y-59106121D01*
X71517719Y-59051905D01*
X71494988Y-59033250D01*
X71440916Y-59010853D01*
X71382390Y-59010853D01*
X71328318Y-59033250D01*
X71286932Y-59074636D01*
X71264535Y-59128708D01*
X71264535Y-59187234D01*
X71286932Y-59241306D01*
X71305587Y-59264037D01*
X71377016Y-59335466D01*
X71388520Y-59344907D01*
X71391115Y-59347899D01*
X71395624Y-59350737D01*
X71399747Y-59354121D01*
X71403408Y-59355637D01*
X71416000Y-59363564D01*
X71558858Y-59434992D01*
X71586321Y-59445502D01*
X71591696Y-59445883D01*
X71596675Y-59447946D01*
X71625939Y-59450828D01*
X72054510Y-59450828D01*
X72083774Y-59447946D01*
X72088752Y-59445883D01*
X72094128Y-59445502D01*
X72121591Y-59434992D01*
X72264450Y-59363564D01*
X72277044Y-59355635D01*
X72280704Y-59354120D01*
X72284824Y-59350738D01*
X72289335Y-59347899D01*
X72291929Y-59344907D01*
X72303435Y-59335465D01*
X72374863Y-59264036D01*
X72384301Y-59252535D01*
X72387295Y-59249939D01*
X72390135Y-59245426D01*
X72393517Y-59241306D01*
X72395032Y-59237646D01*
X72402960Y-59225053D01*
X72474389Y-59082197D01*
X72484898Y-59054733D01*
X72485279Y-59049358D01*
X72487343Y-59044378D01*
X72490225Y-59015114D01*
X72490225Y-58657971D01*
X72487343Y-58628707D01*
X72485279Y-58623726D01*
X72484898Y-58618352D01*
X72474389Y-58590888D01*
X72402960Y-58448032D01*
X72395032Y-58435438D01*
X72393517Y-58431779D01*
X72390135Y-58427658D01*
X72387295Y-58423146D01*
X72384301Y-58420549D01*
X72374863Y-58409049D01*
X72303435Y-58337620D01*
X72291929Y-58328177D01*
X72289335Y-58325186D01*
X72284824Y-58322346D01*
X72280704Y-58318965D01*
X72277044Y-58317449D01*
X72264450Y-58309521D01*
X72146177Y-58250386D01*
X72453111Y-57899604D01*
X72462154Y-57886954D01*
X72464945Y-57884164D01*
X72466040Y-57881519D01*
X72470213Y-57875683D01*
X72478018Y-57852603D01*
X72487343Y-57830092D01*
X72487343Y-57825030D01*
X72488963Y-57820240D01*
X72488920Y-57819589D01*
X72619974Y-57819589D01*
X72626494Y-57848262D01*
X73126494Y-59348262D01*
X73138482Y-59375113D01*
X73145504Y-59383210D01*
X73150297Y-59392795D01*
X73164503Y-59405116D01*
X73176829Y-59419328D01*
X73186416Y-59424121D01*
X73194511Y-59431142D01*
X73212353Y-59437089D01*
X73229177Y-59445501D01*
X73239867Y-59446260D01*
X73250035Y-59449650D01*
X73268791Y-59448317D01*
X73287557Y-59449651D01*
X73297727Y-59446260D01*
X73308416Y-59445501D01*
X73325237Y-59437090D01*
X73343081Y-59431142D01*
X73351177Y-59424119D01*
X73360763Y-59419327D01*
X73373086Y-59405118D01*
X73387295Y-59392795D01*
X73392087Y-59383209D01*
X73399110Y-59375113D01*
X73411098Y-59348262D01*
X73911099Y-57848262D01*
X73917619Y-57819588D01*
X73913469Y-57761208D01*
X73887295Y-57708861D01*
X73843081Y-57670514D01*
X73787557Y-57652005D01*
X73729177Y-57656155D01*
X73676829Y-57682328D01*
X73638482Y-57726543D01*
X73626494Y-57753394D01*
X73268796Y-58826486D01*
X72911098Y-57753394D01*
X72899110Y-57726543D01*
X72860763Y-57682329D01*
X72808416Y-57656155D01*
X72750035Y-57652006D01*
X72694511Y-57670514D01*
X72650297Y-57708861D01*
X72624123Y-57761208D01*
X72619974Y-57819589D01*
X72488920Y-57819589D01*
X72487343Y-57795939D01*
X72487343Y-57771564D01*
X72485406Y-57766888D01*
X72485070Y-57761844D01*
X72474271Y-57740008D01*
X72464945Y-57717492D01*
X72461368Y-57713915D01*
X72459126Y-57709381D01*
X72440790Y-57693337D01*
X72423561Y-57676108D01*
X72418886Y-57674171D01*
X72415079Y-57670840D01*
X72392003Y-57663036D01*
X72369489Y-57653710D01*
X72362347Y-57653006D01*
X72359637Y-57652090D01*
X72355702Y-57652352D01*
X72340225Y-57650828D01*
X71411653Y-57650828D01*
X71382389Y-57653710D01*
X71328317Y-57676108D01*
X71286933Y-57717492D01*
X71264535Y-57771564D01*
X71097868Y-57771564D01*
X71097868Y-57484161D01*
X74084286Y-57484161D01*
X74084286Y-59617495D01*
G37*
G36*
X77537086Y-68495535D02*
G01*
X77574090Y-68532539D01*
X77627268Y-68638897D01*
X77690225Y-68890721D01*
X77690225Y-69210935D01*
X77627268Y-69462759D01*
X77574089Y-69569117D01*
X77537084Y-69606122D01*
X77447672Y-69650828D01*
X77375635Y-69650828D01*
X77286221Y-69606121D01*
X77249217Y-69569117D01*
X77196036Y-69462757D01*
X77133082Y-69210936D01*
X77133082Y-68890720D01*
X77196036Y-68638898D01*
X77249217Y-68532538D01*
X77286221Y-68495535D01*
X77375635Y-68450828D01*
X77447672Y-68450828D01*
X77537086Y-68495535D01*
G37*
G36*
X78156892Y-70117495D02*
G01*
X76666415Y-70117495D01*
X76666415Y-68872257D01*
X76833082Y-68872257D01*
X76833082Y-69229400D01*
X76833584Y-69234503D01*
X76833259Y-69236691D01*
X76834878Y-69247641D01*
X76835964Y-69258664D01*
X76836811Y-69260708D01*
X76837561Y-69265780D01*
X76908989Y-69551494D01*
X76909760Y-69553652D01*
X76909837Y-69554733D01*
X76914495Y-69566907D01*
X76918882Y-69579185D01*
X76919526Y-69580055D01*
X76920346Y-69582196D01*
X76991775Y-69725053D01*
X76999702Y-69737646D01*
X77001218Y-69741306D01*
X77004599Y-69745425D01*
X77007440Y-69749939D01*
X77010433Y-69752535D01*
X77019873Y-69764037D01*
X77091302Y-69835466D01*
X77102806Y-69844907D01*
X77105401Y-69847899D01*
X77109910Y-69850737D01*
X77114033Y-69854121D01*
X77117694Y-69855637D01*
X77130286Y-69863564D01*
X77273144Y-69934992D01*
X77300607Y-69945502D01*
X77305982Y-69945883D01*
X77310961Y-69947946D01*
X77340225Y-69950828D01*
X77483082Y-69950828D01*
X77512346Y-69947946D01*
X77517324Y-69945883D01*
X77522700Y-69945502D01*
X77550164Y-69934992D01*
X77693021Y-69863564D01*
X77705614Y-69855636D01*
X77709274Y-69854121D01*
X77713393Y-69850739D01*
X77717907Y-69847899D01*
X77720503Y-69844905D01*
X77732005Y-69835466D01*
X77803434Y-69764037D01*
X77812875Y-69752532D01*
X77815867Y-69749938D01*
X77818705Y-69745428D01*
X77822089Y-69741306D01*
X77823605Y-69737644D01*
X77831532Y-69725053D01*
X77902960Y-69582195D01*
X77903777Y-69580058D01*
X77904424Y-69579186D01*
X77908813Y-69566899D01*
X77913470Y-69554732D01*
X77913546Y-69553650D01*
X77914317Y-69551495D01*
X77985746Y-69265781D01*
X77986496Y-69260708D01*
X77987343Y-69258664D01*
X77988428Y-69247644D01*
X77990048Y-69236692D01*
X77989722Y-69234503D01*
X77990225Y-69229400D01*
X77990225Y-68872257D01*
X77989722Y-68867153D01*
X77990048Y-68864965D01*
X77988428Y-68854012D01*
X77987343Y-68842993D01*
X77986496Y-68840948D01*
X77985746Y-68835876D01*
X77914317Y-68550162D01*
X77913546Y-68548006D01*
X77913470Y-68546924D01*
X77908810Y-68534749D01*
X77904424Y-68522470D01*
X77903777Y-68521597D01*
X77902960Y-68519461D01*
X77831532Y-68376603D01*
X77823603Y-68364008D01*
X77822088Y-68360349D01*
X77818706Y-68356228D01*
X77815867Y-68351718D01*
X77812875Y-68349123D01*
X77803433Y-68337618D01*
X77732004Y-68266190D01*
X77720504Y-68256752D01*
X77717907Y-68253758D01*
X77713390Y-68250915D01*
X77709273Y-68247536D01*
X77705616Y-68246021D01*
X77693021Y-68238093D01*
X77550164Y-68166664D01*
X77522701Y-68156155D01*
X77517326Y-68155773D01*
X77512346Y-68153710D01*
X77483082Y-68150828D01*
X77340225Y-68150828D01*
X77310961Y-68153710D01*
X77305980Y-68155773D01*
X77300606Y-68156155D01*
X77273142Y-68166664D01*
X77130286Y-68238093D01*
X77117692Y-68246020D01*
X77114033Y-68247536D01*
X77109912Y-68250917D01*
X77105400Y-68253758D01*
X77102803Y-68256751D01*
X77091303Y-68266190D01*
X77019874Y-68337618D01*
X77010434Y-68349120D01*
X77007440Y-68351717D01*
X77004598Y-68356231D01*
X77001219Y-68360349D01*
X76999703Y-68364007D01*
X76991775Y-68376603D01*
X76920346Y-68519460D01*
X76919526Y-68521600D01*
X76918882Y-68522471D01*
X76914495Y-68534748D01*
X76909837Y-68546923D01*
X76909760Y-68548003D01*
X76908989Y-68550162D01*
X76837561Y-68835877D01*
X76836811Y-68840948D01*
X76835964Y-68842993D01*
X76834878Y-68854015D01*
X76833259Y-68864966D01*
X76833584Y-68867153D01*
X76833082Y-68872257D01*
X76666415Y-68872257D01*
X76666415Y-67984161D01*
X78156892Y-67984161D01*
X78156892Y-70117495D01*
G37*
D11*
X70931009Y-78785714D02*
X70978628Y-78642857D01*
X70978628Y-78642857D02*
X71026247Y-78595238D01*
X71026247Y-78595238D02*
X71121485Y-78547619D01*
X71121485Y-78547619D02*
X71264342Y-78547619D01*
X71264342Y-78547619D02*
X71359580Y-78595238D01*
X71359580Y-78595238D02*
X71407200Y-78642857D01*
X71407200Y-78642857D02*
X71454819Y-78738095D01*
X71454819Y-78738095D02*
X71454819Y-79119047D01*
X71454819Y-79119047D02*
X70454819Y-79119047D01*
X70454819Y-79119047D02*
X70454819Y-78785714D01*
X70454819Y-78785714D02*
X70502438Y-78690476D01*
X70502438Y-78690476D02*
X70550057Y-78642857D01*
X70550057Y-78642857D02*
X70645295Y-78595238D01*
X70645295Y-78595238D02*
X70740533Y-78595238D01*
X70740533Y-78595238D02*
X70835771Y-78642857D01*
X70835771Y-78642857D02*
X70883390Y-78690476D01*
X70883390Y-78690476D02*
X70931009Y-78785714D01*
X70931009Y-78785714D02*
X70931009Y-79119047D01*
X70454819Y-78261904D02*
X70454819Y-77690476D01*
X71454819Y-77976190D02*
X70454819Y-77976190D01*
X71454819Y-76833333D02*
X71454819Y-77404761D01*
X71454819Y-77119047D02*
X70454819Y-77119047D01*
X70454819Y-77119047D02*
X70597676Y-77214285D01*
X70597676Y-77214285D02*
X70692914Y-77309523D01*
X70692914Y-77309523D02*
X70740533Y-77404761D01*
X65666667Y-96907200D02*
X65809524Y-96954819D01*
X65809524Y-96954819D02*
X66047619Y-96954819D01*
X66047619Y-96954819D02*
X66142857Y-96907200D01*
X66142857Y-96907200D02*
X66190476Y-96859580D01*
X66190476Y-96859580D02*
X66238095Y-96764342D01*
X66238095Y-96764342D02*
X66238095Y-96669104D01*
X66238095Y-96669104D02*
X66190476Y-96573866D01*
X66190476Y-96573866D02*
X66142857Y-96526247D01*
X66142857Y-96526247D02*
X66047619Y-96478628D01*
X66047619Y-96478628D02*
X65857143Y-96431009D01*
X65857143Y-96431009D02*
X65761905Y-96383390D01*
X65761905Y-96383390D02*
X65714286Y-96335771D01*
X65714286Y-96335771D02*
X65666667Y-96240533D01*
X65666667Y-96240533D02*
X65666667Y-96145295D01*
X65666667Y-96145295D02*
X65714286Y-96050057D01*
X65714286Y-96050057D02*
X65761905Y-96002438D01*
X65761905Y-96002438D02*
X65857143Y-95954819D01*
X65857143Y-95954819D02*
X66095238Y-95954819D01*
X66095238Y-95954819D02*
X66238095Y-96002438D01*
X66571429Y-95954819D02*
X66809524Y-96954819D01*
X66809524Y-96954819D02*
X67000000Y-96240533D01*
X67000000Y-96240533D02*
X67190476Y-96954819D01*
X67190476Y-96954819D02*
X67428572Y-95954819D01*
X68333333Y-96954819D02*
X67761905Y-96954819D01*
X68047619Y-96954819D02*
X68047619Y-95954819D01*
X68047619Y-95954819D02*
X67952381Y-96097676D01*
X67952381Y-96097676D02*
X67857143Y-96192914D01*
X67857143Y-96192914D02*
X67761905Y-96240533D01*
X81666667Y-88907200D02*
X81809524Y-88954819D01*
X81809524Y-88954819D02*
X82047619Y-88954819D01*
X82047619Y-88954819D02*
X82142857Y-88907200D01*
X82142857Y-88907200D02*
X82190476Y-88859580D01*
X82190476Y-88859580D02*
X82238095Y-88764342D01*
X82238095Y-88764342D02*
X82238095Y-88669104D01*
X82238095Y-88669104D02*
X82190476Y-88573866D01*
X82190476Y-88573866D02*
X82142857Y-88526247D01*
X82142857Y-88526247D02*
X82047619Y-88478628D01*
X82047619Y-88478628D02*
X81857143Y-88431009D01*
X81857143Y-88431009D02*
X81761905Y-88383390D01*
X81761905Y-88383390D02*
X81714286Y-88335771D01*
X81714286Y-88335771D02*
X81666667Y-88240533D01*
X81666667Y-88240533D02*
X81666667Y-88145295D01*
X81666667Y-88145295D02*
X81714286Y-88050057D01*
X81714286Y-88050057D02*
X81761905Y-88002438D01*
X81761905Y-88002438D02*
X81857143Y-87954819D01*
X81857143Y-87954819D02*
X82095238Y-87954819D01*
X82095238Y-87954819D02*
X82238095Y-88002438D01*
X82571429Y-87954819D02*
X82809524Y-88954819D01*
X82809524Y-88954819D02*
X83000000Y-88240533D01*
X83000000Y-88240533D02*
X83190476Y-88954819D01*
X83190476Y-88954819D02*
X83428572Y-87954819D01*
X83761905Y-88050057D02*
X83809524Y-88002438D01*
X83809524Y-88002438D02*
X83904762Y-87954819D01*
X83904762Y-87954819D02*
X84142857Y-87954819D01*
X84142857Y-87954819D02*
X84238095Y-88002438D01*
X84238095Y-88002438D02*
X84285714Y-88050057D01*
X84285714Y-88050057D02*
X84333333Y-88145295D01*
X84333333Y-88145295D02*
X84333333Y-88240533D01*
X84333333Y-88240533D02*
X84285714Y-88383390D01*
X84285714Y-88383390D02*
X83714286Y-88954819D01*
X83714286Y-88954819D02*
X84333333Y-88954819D01*
X64666667Y-140907200D02*
X64809524Y-140954819D01*
X64809524Y-140954819D02*
X65047619Y-140954819D01*
X65047619Y-140954819D02*
X65142857Y-140907200D01*
X65142857Y-140907200D02*
X65190476Y-140859580D01*
X65190476Y-140859580D02*
X65238095Y-140764342D01*
X65238095Y-140764342D02*
X65238095Y-140669104D01*
X65238095Y-140669104D02*
X65190476Y-140573866D01*
X65190476Y-140573866D02*
X65142857Y-140526247D01*
X65142857Y-140526247D02*
X65047619Y-140478628D01*
X65047619Y-140478628D02*
X64857143Y-140431009D01*
X64857143Y-140431009D02*
X64761905Y-140383390D01*
X64761905Y-140383390D02*
X64714286Y-140335771D01*
X64714286Y-140335771D02*
X64666667Y-140240533D01*
X64666667Y-140240533D02*
X64666667Y-140145295D01*
X64666667Y-140145295D02*
X64714286Y-140050057D01*
X64714286Y-140050057D02*
X64761905Y-140002438D01*
X64761905Y-140002438D02*
X64857143Y-139954819D01*
X64857143Y-139954819D02*
X65095238Y-139954819D01*
X65095238Y-139954819D02*
X65238095Y-140002438D01*
X65571429Y-139954819D02*
X65809524Y-140954819D01*
X65809524Y-140954819D02*
X66000000Y-140240533D01*
X66000000Y-140240533D02*
X66190476Y-140954819D01*
X66190476Y-140954819D02*
X66428572Y-139954819D01*
X67238095Y-139954819D02*
X67047619Y-139954819D01*
X67047619Y-139954819D02*
X66952381Y-140002438D01*
X66952381Y-140002438D02*
X66904762Y-140050057D01*
X66904762Y-140050057D02*
X66809524Y-140192914D01*
X66809524Y-140192914D02*
X66761905Y-140383390D01*
X66761905Y-140383390D02*
X66761905Y-140764342D01*
X66761905Y-140764342D02*
X66809524Y-140859580D01*
X66809524Y-140859580D02*
X66857143Y-140907200D01*
X66857143Y-140907200D02*
X66952381Y-140954819D01*
X66952381Y-140954819D02*
X67142857Y-140954819D01*
X67142857Y-140954819D02*
X67238095Y-140907200D01*
X67238095Y-140907200D02*
X67285714Y-140859580D01*
X67285714Y-140859580D02*
X67333333Y-140764342D01*
X67333333Y-140764342D02*
X67333333Y-140526247D01*
X67333333Y-140526247D02*
X67285714Y-140431009D01*
X67285714Y-140431009D02*
X67238095Y-140383390D01*
X67238095Y-140383390D02*
X67142857Y-140335771D01*
X67142857Y-140335771D02*
X66952381Y-140335771D01*
X66952381Y-140335771D02*
X66857143Y-140383390D01*
X66857143Y-140383390D02*
X66809524Y-140431009D01*
X66809524Y-140431009D02*
X66761905Y-140526247D01*
X82666667Y-140907200D02*
X82809524Y-140954819D01*
X82809524Y-140954819D02*
X83047619Y-140954819D01*
X83047619Y-140954819D02*
X83142857Y-140907200D01*
X83142857Y-140907200D02*
X83190476Y-140859580D01*
X83190476Y-140859580D02*
X83238095Y-140764342D01*
X83238095Y-140764342D02*
X83238095Y-140669104D01*
X83238095Y-140669104D02*
X83190476Y-140573866D01*
X83190476Y-140573866D02*
X83142857Y-140526247D01*
X83142857Y-140526247D02*
X83047619Y-140478628D01*
X83047619Y-140478628D02*
X82857143Y-140431009D01*
X82857143Y-140431009D02*
X82761905Y-140383390D01*
X82761905Y-140383390D02*
X82714286Y-140335771D01*
X82714286Y-140335771D02*
X82666667Y-140240533D01*
X82666667Y-140240533D02*
X82666667Y-140145295D01*
X82666667Y-140145295D02*
X82714286Y-140050057D01*
X82714286Y-140050057D02*
X82761905Y-140002438D01*
X82761905Y-140002438D02*
X82857143Y-139954819D01*
X82857143Y-139954819D02*
X83095238Y-139954819D01*
X83095238Y-139954819D02*
X83238095Y-140002438D01*
X83571429Y-139954819D02*
X83809524Y-140954819D01*
X83809524Y-140954819D02*
X84000000Y-140240533D01*
X84000000Y-140240533D02*
X84190476Y-140954819D01*
X84190476Y-140954819D02*
X84428572Y-139954819D01*
X84714286Y-139954819D02*
X85380952Y-139954819D01*
X85380952Y-139954819D02*
X84952381Y-140954819D01*
X82666667Y-122907200D02*
X82809524Y-122954819D01*
X82809524Y-122954819D02*
X83047619Y-122954819D01*
X83047619Y-122954819D02*
X83142857Y-122907200D01*
X83142857Y-122907200D02*
X83190476Y-122859580D01*
X83190476Y-122859580D02*
X83238095Y-122764342D01*
X83238095Y-122764342D02*
X83238095Y-122669104D01*
X83238095Y-122669104D02*
X83190476Y-122573866D01*
X83190476Y-122573866D02*
X83142857Y-122526247D01*
X83142857Y-122526247D02*
X83047619Y-122478628D01*
X83047619Y-122478628D02*
X82857143Y-122431009D01*
X82857143Y-122431009D02*
X82761905Y-122383390D01*
X82761905Y-122383390D02*
X82714286Y-122335771D01*
X82714286Y-122335771D02*
X82666667Y-122240533D01*
X82666667Y-122240533D02*
X82666667Y-122145295D01*
X82666667Y-122145295D02*
X82714286Y-122050057D01*
X82714286Y-122050057D02*
X82761905Y-122002438D01*
X82761905Y-122002438D02*
X82857143Y-121954819D01*
X82857143Y-121954819D02*
X83095238Y-121954819D01*
X83095238Y-121954819D02*
X83238095Y-122002438D01*
X83571429Y-121954819D02*
X83809524Y-122954819D01*
X83809524Y-122954819D02*
X84000000Y-122240533D01*
X84000000Y-122240533D02*
X84190476Y-122954819D01*
X84190476Y-122954819D02*
X84428572Y-121954819D01*
X85285714Y-121954819D02*
X84809524Y-121954819D01*
X84809524Y-121954819D02*
X84761905Y-122431009D01*
X84761905Y-122431009D02*
X84809524Y-122383390D01*
X84809524Y-122383390D02*
X84904762Y-122335771D01*
X84904762Y-122335771D02*
X85142857Y-122335771D01*
X85142857Y-122335771D02*
X85238095Y-122383390D01*
X85238095Y-122383390D02*
X85285714Y-122431009D01*
X85285714Y-122431009D02*
X85333333Y-122526247D01*
X85333333Y-122526247D02*
X85333333Y-122764342D01*
X85333333Y-122764342D02*
X85285714Y-122859580D01*
X85285714Y-122859580D02*
X85238095Y-122907200D01*
X85238095Y-122907200D02*
X85142857Y-122954819D01*
X85142857Y-122954819D02*
X84904762Y-122954819D01*
X84904762Y-122954819D02*
X84809524Y-122907200D01*
X84809524Y-122907200D02*
X84761905Y-122859580D01*
X81666667Y-104907200D02*
X81809524Y-104954819D01*
X81809524Y-104954819D02*
X82047619Y-104954819D01*
X82047619Y-104954819D02*
X82142857Y-104907200D01*
X82142857Y-104907200D02*
X82190476Y-104859580D01*
X82190476Y-104859580D02*
X82238095Y-104764342D01*
X82238095Y-104764342D02*
X82238095Y-104669104D01*
X82238095Y-104669104D02*
X82190476Y-104573866D01*
X82190476Y-104573866D02*
X82142857Y-104526247D01*
X82142857Y-104526247D02*
X82047619Y-104478628D01*
X82047619Y-104478628D02*
X81857143Y-104431009D01*
X81857143Y-104431009D02*
X81761905Y-104383390D01*
X81761905Y-104383390D02*
X81714286Y-104335771D01*
X81714286Y-104335771D02*
X81666667Y-104240533D01*
X81666667Y-104240533D02*
X81666667Y-104145295D01*
X81666667Y-104145295D02*
X81714286Y-104050057D01*
X81714286Y-104050057D02*
X81761905Y-104002438D01*
X81761905Y-104002438D02*
X81857143Y-103954819D01*
X81857143Y-103954819D02*
X82095238Y-103954819D01*
X82095238Y-103954819D02*
X82238095Y-104002438D01*
X82571429Y-103954819D02*
X82809524Y-104954819D01*
X82809524Y-104954819D02*
X83000000Y-104240533D01*
X83000000Y-104240533D02*
X83190476Y-104954819D01*
X83190476Y-104954819D02*
X83428572Y-103954819D01*
X83714286Y-103954819D02*
X84333333Y-103954819D01*
X84333333Y-103954819D02*
X84000000Y-104335771D01*
X84000000Y-104335771D02*
X84142857Y-104335771D01*
X84142857Y-104335771D02*
X84238095Y-104383390D01*
X84238095Y-104383390D02*
X84285714Y-104431009D01*
X84285714Y-104431009D02*
X84333333Y-104526247D01*
X84333333Y-104526247D02*
X84333333Y-104764342D01*
X84333333Y-104764342D02*
X84285714Y-104859580D01*
X84285714Y-104859580D02*
X84238095Y-104907200D01*
X84238095Y-104907200D02*
X84142857Y-104954819D01*
X84142857Y-104954819D02*
X83857143Y-104954819D01*
X83857143Y-104954819D02*
X83761905Y-104907200D01*
X83761905Y-104907200D02*
X83714286Y-104859580D01*
X64666667Y-122907200D02*
X64809524Y-122954819D01*
X64809524Y-122954819D02*
X65047619Y-122954819D01*
X65047619Y-122954819D02*
X65142857Y-122907200D01*
X65142857Y-122907200D02*
X65190476Y-122859580D01*
X65190476Y-122859580D02*
X65238095Y-122764342D01*
X65238095Y-122764342D02*
X65238095Y-122669104D01*
X65238095Y-122669104D02*
X65190476Y-122573866D01*
X65190476Y-122573866D02*
X65142857Y-122526247D01*
X65142857Y-122526247D02*
X65047619Y-122478628D01*
X65047619Y-122478628D02*
X64857143Y-122431009D01*
X64857143Y-122431009D02*
X64761905Y-122383390D01*
X64761905Y-122383390D02*
X64714286Y-122335771D01*
X64714286Y-122335771D02*
X64666667Y-122240533D01*
X64666667Y-122240533D02*
X64666667Y-122145295D01*
X64666667Y-122145295D02*
X64714286Y-122050057D01*
X64714286Y-122050057D02*
X64761905Y-122002438D01*
X64761905Y-122002438D02*
X64857143Y-121954819D01*
X64857143Y-121954819D02*
X65095238Y-121954819D01*
X65095238Y-121954819D02*
X65238095Y-122002438D01*
X65571429Y-121954819D02*
X65809524Y-122954819D01*
X65809524Y-122954819D02*
X66000000Y-122240533D01*
X66000000Y-122240533D02*
X66190476Y-122954819D01*
X66190476Y-122954819D02*
X66428572Y-121954819D01*
X67238095Y-122288152D02*
X67238095Y-122954819D01*
X67000000Y-121907200D02*
X66761905Y-122621485D01*
X66761905Y-122621485D02*
X67380952Y-122621485D01*
D12*
%TO.C,BT1*%
X59510000Y-72720000D02*
X80490000Y-72720000D01*
X59510000Y-149680000D02*
X59510000Y-72720000D01*
X70000000Y-69570000D02*
X70000000Y-71570000D01*
X70000000Y-150830000D02*
X70000000Y-152830000D01*
X71000000Y-70570000D02*
X69000000Y-70570000D01*
X80490000Y-72720000D02*
X80490000Y-149680000D01*
X80490000Y-149680000D02*
X59510000Y-149680000D01*
D13*
%TO.C,LED7*%
X75413000Y-136847000D02*
X75032000Y-136847000D01*
X75032000Y-136447000D01*
X75413000Y-136847000D01*
G36*
X75413000Y-136847000D02*
G01*
X75032000Y-136847000D01*
X75032000Y-136447000D01*
X75413000Y-136847000D01*
G37*
%TO.C,LED6*%
X57113000Y-136697000D02*
X56732000Y-136697000D01*
X56732000Y-136297000D01*
X57113000Y-136697000D01*
G36*
X57113000Y-136697000D02*
G01*
X56732000Y-136697000D01*
X56732000Y-136297000D01*
X57113000Y-136697000D01*
G37*
%TO.C,LED1*%
X58063000Y-92572000D02*
X57682000Y-92572000D01*
X57682000Y-92172000D01*
X58063000Y-92572000D01*
G36*
X58063000Y-92572000D02*
G01*
X57682000Y-92572000D01*
X57682000Y-92172000D01*
X58063000Y-92572000D01*
G37*
D11*
%TO.C,SW1*%
X59700000Y-103225000D02*
X59700000Y-100575000D01*
X59850000Y-100440000D02*
X59850000Y-103370000D01*
X59950000Y-100330000D02*
X59950000Y-103450000D01*
X60050000Y-100230000D02*
X60050000Y-103560000D01*
X60150000Y-100130000D02*
X60150000Y-103660000D01*
X60300000Y-99990000D02*
X60300000Y-103820000D01*
X60450000Y-99830000D02*
X60450000Y-103950000D01*
X60600000Y-99700000D02*
X60600000Y-104090000D01*
X60700000Y-99575000D02*
X59700000Y-100575000D01*
X60700000Y-104225000D02*
X59700000Y-103225000D01*
X60750000Y-99600000D02*
X60750000Y-104200000D01*
X60900000Y-99600000D02*
X60900000Y-104200000D01*
X61050000Y-99600000D02*
X61050000Y-104200000D01*
X61200000Y-99600000D02*
X61200000Y-104200000D01*
X61350000Y-99600000D02*
X61350000Y-104200000D01*
X61500000Y-99600000D02*
X61500000Y-104200000D01*
X61650000Y-99600000D02*
X61650000Y-104200000D01*
X61800000Y-99600000D02*
X61800000Y-104200000D01*
X61950000Y-99600000D02*
X61950000Y-104200000D01*
X62100000Y-99600000D02*
X62100000Y-104200000D01*
X62250000Y-99600000D02*
X62250000Y-104200000D01*
X62400000Y-99600000D02*
X62400000Y-104200000D01*
X62550000Y-99600000D02*
X62550000Y-104200000D01*
X62700000Y-99600000D02*
X62700000Y-104200000D01*
X62850000Y-99600000D02*
X62850000Y-104200000D01*
X63000000Y-99600000D02*
X63000000Y-104200000D01*
X63110000Y-99600000D02*
X63110000Y-104200000D01*
X63200000Y-99600000D02*
X63200000Y-104200000D01*
X63225000Y-104225000D02*
X60700000Y-104225000D01*
X63225000Y-104225000D02*
X64300000Y-103280000D01*
X63275000Y-99575000D02*
X60700000Y-99575000D01*
X63350000Y-99650000D02*
X63350000Y-104110000D01*
X63500000Y-99600000D02*
X63500000Y-103980000D01*
X63650000Y-99550000D02*
X63650000Y-103850000D01*
X63800000Y-99500000D02*
X63800000Y-103700000D01*
X63950000Y-99400000D02*
X63950000Y-103580000D01*
X64100000Y-99350000D02*
X64100000Y-103350000D01*
X64100000Y-99450000D02*
X64090000Y-103450000D01*
X64200000Y-99250000D02*
X64200000Y-103270000D01*
X64200000Y-99400000D02*
X64200000Y-103360000D01*
X64300000Y-99050000D02*
X64300000Y-103280000D01*
X64400000Y-98900000D02*
X64400000Y-102730000D01*
X64450000Y-98076887D02*
X64450000Y-98400000D01*
X64500000Y-97950000D02*
X64510000Y-102500000D01*
X64650000Y-97750000D02*
X64650000Y-102320000D01*
X64800000Y-97560000D02*
X64800000Y-102230000D01*
X64950000Y-97480000D02*
X64950000Y-102140000D01*
X65100000Y-97430000D02*
X65100000Y-102070000D01*
X65250000Y-97400000D02*
X65250000Y-102040000D01*
X65400000Y-97380000D02*
X65400000Y-102020000D01*
X65550000Y-97390000D02*
X65550000Y-102020000D01*
X65700000Y-97450000D02*
X65700000Y-102000000D01*
X65850000Y-97400000D02*
X65850000Y-102010000D01*
X66000000Y-97400000D02*
X66000000Y-102020000D01*
X66150000Y-97450000D02*
X66150000Y-102000000D01*
X66300000Y-97400000D02*
X66300000Y-102000000D01*
X66450000Y-97400000D02*
X66450000Y-102000000D01*
X66600000Y-97400000D02*
X66600000Y-102000000D01*
X66750000Y-97400000D02*
X66750000Y-102000000D01*
X66900000Y-97400000D02*
X66900000Y-102000000D01*
X67050000Y-97400000D02*
X67050000Y-102000000D01*
X67200000Y-97400000D02*
X67200000Y-102000000D01*
X67350000Y-97400000D02*
X67350000Y-102000000D01*
X67500000Y-97400000D02*
X67500000Y-102000000D01*
X67650000Y-97400000D02*
X67650000Y-102000000D01*
X67800000Y-97400000D02*
X67800000Y-102000000D01*
X67950000Y-97400000D02*
X67950000Y-102000000D01*
X68100000Y-97400000D02*
X68100000Y-102000000D01*
X68250000Y-97400000D02*
X68250000Y-102000000D01*
X68275000Y-97375000D02*
X65311204Y-97375000D01*
X68275000Y-102025000D02*
X65475000Y-102025000D01*
X68400000Y-97500000D02*
X68400000Y-102010000D01*
X68550000Y-97650000D02*
X68550000Y-101970000D01*
X68700000Y-97800000D02*
X68700000Y-101920000D01*
X68850000Y-97700000D02*
X68850000Y-101840000D01*
X69000000Y-97730000D02*
X69000000Y-101700000D01*
X69150000Y-97850000D02*
X69150000Y-101530000D01*
X69305000Y-101025000D02*
X69305000Y-98375000D01*
D14*
X72200000Y-97555000D02*
X67800000Y-97555000D01*
X72200000Y-99055000D02*
X72200000Y-97555000D01*
D11*
X64300000Y-103200000D02*
G75*
G02*
X65475000Y-102025000I1175000J0D01*
G01*
X64450000Y-98076887D02*
G75*
G02*
X65311204Y-97375004I900030J-225043D01*
G01*
X64450000Y-98400000D02*
G75*
G02*
X63275000Y-99575000I-1175000J0D01*
G01*
X68305000Y-97375000D02*
G75*
G02*
X69305000Y-98375000I0J-1000000D01*
G01*
X69305000Y-101025000D02*
G75*
G02*
X68305000Y-102025000I-1000000J0D01*
G01*
X72500000Y-96600000D02*
G75*
G02*
X71500000Y-96600000I-500000J0D01*
G01*
X71500000Y-96600000D02*
G75*
G02*
X72500000Y-96600000I500000J0D01*
G01*
%TO.C,SW2*%
X75700000Y-95225000D02*
X75700000Y-92575000D01*
X75850000Y-92440000D02*
X75850000Y-95370000D01*
X75950000Y-92330000D02*
X75950000Y-95450000D01*
X76050000Y-92230000D02*
X76050000Y-95560000D01*
X76150000Y-92130000D02*
X76150000Y-95660000D01*
X76300000Y-91990000D02*
X76300000Y-95820000D01*
X76450000Y-91830000D02*
X76450000Y-95950000D01*
X76600000Y-91700000D02*
X76600000Y-96090000D01*
X76700000Y-91575000D02*
X75700000Y-92575000D01*
X76700000Y-96225000D02*
X75700000Y-95225000D01*
X76750000Y-91600000D02*
X76750000Y-96200000D01*
X76900000Y-91600000D02*
X76900000Y-96200000D01*
X77050000Y-91600000D02*
X77050000Y-96200000D01*
X77200000Y-91600000D02*
X77200000Y-96200000D01*
X77350000Y-91600000D02*
X77350000Y-96200000D01*
X77500000Y-91600000D02*
X77500000Y-96200000D01*
X77650000Y-91600000D02*
X77650000Y-96200000D01*
X77800000Y-91600000D02*
X77800000Y-96200000D01*
X77950000Y-91600000D02*
X77950000Y-96200000D01*
X78100000Y-91600000D02*
X78100000Y-96200000D01*
X78250000Y-91600000D02*
X78250000Y-96200000D01*
X78400000Y-91600000D02*
X78400000Y-96200000D01*
X78550000Y-91600000D02*
X78550000Y-96200000D01*
X78700000Y-91600000D02*
X78700000Y-96200000D01*
X78850000Y-91600000D02*
X78850000Y-96200000D01*
X79000000Y-91600000D02*
X79000000Y-96200000D01*
X79110000Y-91600000D02*
X79110000Y-96200000D01*
X79200000Y-91600000D02*
X79200000Y-96200000D01*
X79225000Y-96225000D02*
X76700000Y-96225000D01*
X79225000Y-96225000D02*
X80300000Y-95280000D01*
X79275000Y-91575000D02*
X76700000Y-91575000D01*
X79350000Y-91650000D02*
X79350000Y-96110000D01*
X79500000Y-91600000D02*
X79500000Y-95980000D01*
X79650000Y-91550000D02*
X79650000Y-95850000D01*
X79800000Y-91500000D02*
X79800000Y-95700000D01*
X79950000Y-91400000D02*
X79950000Y-95580000D01*
X80100000Y-91350000D02*
X80100000Y-95350000D01*
X80100000Y-91450000D02*
X80090000Y-95450000D01*
X80200000Y-91250000D02*
X80200000Y-95270000D01*
X80200000Y-91400000D02*
X80200000Y-95360000D01*
X80300000Y-91050000D02*
X80300000Y-95280000D01*
X80400000Y-90900000D02*
X80400000Y-94730000D01*
X80450000Y-90076887D02*
X80450000Y-90400000D01*
X80500000Y-89950000D02*
X80510000Y-94500000D01*
X80650000Y-89750000D02*
X80650000Y-94320000D01*
X80800000Y-89560000D02*
X80800000Y-94230000D01*
X80950000Y-89480000D02*
X80950000Y-94140000D01*
X81100000Y-89430000D02*
X81100000Y-94070000D01*
X81250000Y-89400000D02*
X81250000Y-94040000D01*
X81400000Y-89380000D02*
X81400000Y-94020000D01*
X81550000Y-89390000D02*
X81550000Y-94020000D01*
X81700000Y-89450000D02*
X81700000Y-94000000D01*
X81850000Y-89400000D02*
X81850000Y-94010000D01*
X82000000Y-89400000D02*
X82000000Y-94020000D01*
X82150000Y-89450000D02*
X82150000Y-94000000D01*
X82300000Y-89400000D02*
X82300000Y-94000000D01*
X82450000Y-89400000D02*
X82450000Y-94000000D01*
X82600000Y-89400000D02*
X82600000Y-94000000D01*
X82750000Y-89400000D02*
X82750000Y-94000000D01*
X82900000Y-89400000D02*
X82900000Y-94000000D01*
X83050000Y-89400000D02*
X83050000Y-94000000D01*
X83200000Y-89400000D02*
X83200000Y-94000000D01*
X83350000Y-89400000D02*
X83350000Y-94000000D01*
X83500000Y-89400000D02*
X83500000Y-94000000D01*
X83650000Y-89400000D02*
X83650000Y-94000000D01*
X83800000Y-89400000D02*
X83800000Y-94000000D01*
X83950000Y-89400000D02*
X83950000Y-94000000D01*
X84100000Y-89400000D02*
X84100000Y-94000000D01*
X84250000Y-89400000D02*
X84250000Y-94000000D01*
X84275000Y-89375000D02*
X81311204Y-89375000D01*
X84275000Y-94025000D02*
X81475000Y-94025000D01*
X84400000Y-89500000D02*
X84400000Y-94010000D01*
X84550000Y-89650000D02*
X84550000Y-93970000D01*
X84700000Y-89800000D02*
X84700000Y-93920000D01*
X84850000Y-89700000D02*
X84850000Y-93840000D01*
X85000000Y-89730000D02*
X85000000Y-93700000D01*
X85150000Y-89850000D02*
X85150000Y-93530000D01*
X85305000Y-93025000D02*
X85305000Y-90375000D01*
D14*
X88200000Y-89555000D02*
X83800000Y-89555000D01*
X88200000Y-91055000D02*
X88200000Y-89555000D01*
D11*
X80300000Y-95200000D02*
G75*
G02*
X81475000Y-94025000I1175000J0D01*
G01*
X80450000Y-90076887D02*
G75*
G02*
X81311204Y-89375004I900030J-225043D01*
G01*
X80450000Y-90400000D02*
G75*
G02*
X79275000Y-91575000I-1175000J0D01*
G01*
X84305000Y-89375000D02*
G75*
G02*
X85305000Y-90375000I0J-1000000D01*
G01*
X85305000Y-93025000D02*
G75*
G02*
X84305000Y-94025000I-1000000J0D01*
G01*
X88500000Y-88600000D02*
G75*
G02*
X87500000Y-88600000I-500000J0D01*
G01*
X87500000Y-88600000D02*
G75*
G02*
X88500000Y-88600000I500000J0D01*
G01*
%TO.C,SW6*%
X58700000Y-147225000D02*
X58700000Y-144575000D01*
X58850000Y-144440000D02*
X58850000Y-147370000D01*
X58950000Y-144330000D02*
X58950000Y-147450000D01*
X59050000Y-144230000D02*
X59050000Y-147560000D01*
X59150000Y-144130000D02*
X59150000Y-147660000D01*
X59300000Y-143990000D02*
X59300000Y-147820000D01*
X59450000Y-143830000D02*
X59450000Y-147950000D01*
X59600000Y-143700000D02*
X59600000Y-148090000D01*
X59700000Y-143575000D02*
X58700000Y-144575000D01*
X59700000Y-148225000D02*
X58700000Y-147225000D01*
X59750000Y-143600000D02*
X59750000Y-148200000D01*
X59900000Y-143600000D02*
X59900000Y-148200000D01*
X60050000Y-143600000D02*
X60050000Y-148200000D01*
X60200000Y-143600000D02*
X60200000Y-148200000D01*
X60350000Y-143600000D02*
X60350000Y-148200000D01*
X60500000Y-143600000D02*
X60500000Y-148200000D01*
X60650000Y-143600000D02*
X60650000Y-148200000D01*
X60800000Y-143600000D02*
X60800000Y-148200000D01*
X60950000Y-143600000D02*
X60950000Y-148200000D01*
X61100000Y-143600000D02*
X61100000Y-148200000D01*
X61250000Y-143600000D02*
X61250000Y-148200000D01*
X61400000Y-143600000D02*
X61400000Y-148200000D01*
X61550000Y-143600000D02*
X61550000Y-148200000D01*
X61700000Y-143600000D02*
X61700000Y-148200000D01*
X61850000Y-143600000D02*
X61850000Y-148200000D01*
X62000000Y-143600000D02*
X62000000Y-148200000D01*
X62110000Y-143600000D02*
X62110000Y-148200000D01*
X62200000Y-143600000D02*
X62200000Y-148200000D01*
X62225000Y-148225000D02*
X59700000Y-148225000D01*
X62225000Y-148225000D02*
X63300000Y-147280000D01*
X62275000Y-143575000D02*
X59700000Y-143575000D01*
X62350000Y-143650000D02*
X62350000Y-148110000D01*
X62500000Y-143600000D02*
X62500000Y-147980000D01*
X62650000Y-143550000D02*
X62650000Y-147850000D01*
X62800000Y-143500000D02*
X62800000Y-147700000D01*
X62950000Y-143400000D02*
X62950000Y-147580000D01*
X63100000Y-143350000D02*
X63100000Y-147350000D01*
X63100000Y-143450000D02*
X63090000Y-147450000D01*
X63200000Y-143250000D02*
X63200000Y-147270000D01*
X63200000Y-143400000D02*
X63200000Y-147360000D01*
X63300000Y-143050000D02*
X63300000Y-147280000D01*
X63400000Y-142900000D02*
X63400000Y-146730000D01*
X63450000Y-142076887D02*
X63450000Y-142400000D01*
X63500000Y-141950000D02*
X63510000Y-146500000D01*
X63650000Y-141750000D02*
X63650000Y-146320000D01*
X63800000Y-141560000D02*
X63800000Y-146230000D01*
X63950000Y-141480000D02*
X63950000Y-146140000D01*
X64100000Y-141430000D02*
X64100000Y-146070000D01*
X64250000Y-141400000D02*
X64250000Y-146040000D01*
X64400000Y-141380000D02*
X64400000Y-146020000D01*
X64550000Y-141390000D02*
X64550000Y-146020000D01*
X64700000Y-141450000D02*
X64700000Y-146000000D01*
X64850000Y-141400000D02*
X64850000Y-146010000D01*
X65000000Y-141400000D02*
X65000000Y-146020000D01*
X65150000Y-141450000D02*
X65150000Y-146000000D01*
X65300000Y-141400000D02*
X65300000Y-146000000D01*
X65450000Y-141400000D02*
X65450000Y-146000000D01*
X65600000Y-141400000D02*
X65600000Y-146000000D01*
X65750000Y-141400000D02*
X65750000Y-146000000D01*
X65900000Y-141400000D02*
X65900000Y-146000000D01*
X66050000Y-141400000D02*
X66050000Y-146000000D01*
X66200000Y-141400000D02*
X66200000Y-146000000D01*
X66350000Y-141400000D02*
X66350000Y-146000000D01*
X66500000Y-141400000D02*
X66500000Y-146000000D01*
X66650000Y-141400000D02*
X66650000Y-146000000D01*
X66800000Y-141400000D02*
X66800000Y-146000000D01*
X66950000Y-141400000D02*
X66950000Y-146000000D01*
X67100000Y-141400000D02*
X67100000Y-146000000D01*
X67250000Y-141400000D02*
X67250000Y-146000000D01*
X67275000Y-141375000D02*
X64311204Y-141375000D01*
X67275000Y-146025000D02*
X64475000Y-146025000D01*
X67400000Y-141500000D02*
X67400000Y-146010000D01*
X67550000Y-141650000D02*
X67550000Y-145970000D01*
X67700000Y-141800000D02*
X67700000Y-145920000D01*
X67850000Y-141700000D02*
X67850000Y-145840000D01*
X68000000Y-141730000D02*
X68000000Y-145700000D01*
X68150000Y-141850000D02*
X68150000Y-145530000D01*
X68305000Y-145025000D02*
X68305000Y-142375000D01*
D14*
X71200000Y-141555000D02*
X66800000Y-141555000D01*
X71200000Y-143055000D02*
X71200000Y-141555000D01*
D11*
X63300000Y-147200000D02*
G75*
G02*
X64475000Y-146025000I1175000J0D01*
G01*
X63450000Y-142076887D02*
G75*
G02*
X64311204Y-141375004I900030J-225043D01*
G01*
X63450000Y-142400000D02*
G75*
G02*
X62275000Y-143575000I-1175000J0D01*
G01*
X67305000Y-141375000D02*
G75*
G02*
X68305000Y-142375000I0J-1000000D01*
G01*
X68305000Y-145025000D02*
G75*
G02*
X67305000Y-146025000I-1000000J0D01*
G01*
X71500000Y-140600000D02*
G75*
G02*
X70500000Y-140600000I-500000J0D01*
G01*
X70500000Y-140600000D02*
G75*
G02*
X71500000Y-140600000I500000J0D01*
G01*
D13*
%TO.C,LED5*%
X75063000Y-118572000D02*
X74682000Y-118572000D01*
X74682000Y-118172000D01*
X75063000Y-118572000D01*
G36*
X75063000Y-118572000D02*
G01*
X74682000Y-118572000D01*
X74682000Y-118172000D01*
X75063000Y-118572000D01*
G37*
D11*
%TO.C,SW7*%
X76700000Y-147225000D02*
X76700000Y-144575000D01*
X76850000Y-144440000D02*
X76850000Y-147370000D01*
X76950000Y-144330000D02*
X76950000Y-147450000D01*
X77050000Y-144230000D02*
X77050000Y-147560000D01*
X77150000Y-144130000D02*
X77150000Y-147660000D01*
X77300000Y-143990000D02*
X77300000Y-147820000D01*
X77450000Y-143830000D02*
X77450000Y-147950000D01*
X77600000Y-143700000D02*
X77600000Y-148090000D01*
X77700000Y-143575000D02*
X76700000Y-144575000D01*
X77700000Y-148225000D02*
X76700000Y-147225000D01*
X77750000Y-143600000D02*
X77750000Y-148200000D01*
X77900000Y-143600000D02*
X77900000Y-148200000D01*
X78050000Y-143600000D02*
X78050000Y-148200000D01*
X78200000Y-143600000D02*
X78200000Y-148200000D01*
X78350000Y-143600000D02*
X78350000Y-148200000D01*
X78500000Y-143600000D02*
X78500000Y-148200000D01*
X78650000Y-143600000D02*
X78650000Y-148200000D01*
X78800000Y-143600000D02*
X78800000Y-148200000D01*
X78950000Y-143600000D02*
X78950000Y-148200000D01*
X79100000Y-143600000D02*
X79100000Y-148200000D01*
X79250000Y-143600000D02*
X79250000Y-148200000D01*
X79400000Y-143600000D02*
X79400000Y-148200000D01*
X79550000Y-143600000D02*
X79550000Y-148200000D01*
X79700000Y-143600000D02*
X79700000Y-148200000D01*
X79850000Y-143600000D02*
X79850000Y-148200000D01*
X80000000Y-143600000D02*
X80000000Y-148200000D01*
X80110000Y-143600000D02*
X80110000Y-148200000D01*
X80200000Y-143600000D02*
X80200000Y-148200000D01*
X80225000Y-148225000D02*
X77700000Y-148225000D01*
X80225000Y-148225000D02*
X81300000Y-147280000D01*
X80275000Y-143575000D02*
X77700000Y-143575000D01*
X80350000Y-143650000D02*
X80350000Y-148110000D01*
X80500000Y-143600000D02*
X80500000Y-147980000D01*
X80650000Y-143550000D02*
X80650000Y-147850000D01*
X80800000Y-143500000D02*
X80800000Y-147700000D01*
X80950000Y-143400000D02*
X80950000Y-147580000D01*
X81100000Y-143350000D02*
X81100000Y-147350000D01*
X81100000Y-143450000D02*
X81090000Y-147450000D01*
X81200000Y-143250000D02*
X81200000Y-147270000D01*
X81200000Y-143400000D02*
X81200000Y-147360000D01*
X81300000Y-143050000D02*
X81300000Y-147280000D01*
X81400000Y-142900000D02*
X81400000Y-146730000D01*
X81450000Y-142076887D02*
X81450000Y-142400000D01*
X81500000Y-141950000D02*
X81510000Y-146500000D01*
X81650000Y-141750000D02*
X81650000Y-146320000D01*
X81800000Y-141560000D02*
X81800000Y-146230000D01*
X81950000Y-141480000D02*
X81950000Y-146140000D01*
X82100000Y-141430000D02*
X82100000Y-146070000D01*
X82250000Y-141400000D02*
X82250000Y-146040000D01*
X82400000Y-141380000D02*
X82400000Y-146020000D01*
X82550000Y-141390000D02*
X82550000Y-146020000D01*
X82700000Y-141450000D02*
X82700000Y-146000000D01*
X82850000Y-141400000D02*
X82850000Y-146010000D01*
X83000000Y-141400000D02*
X83000000Y-146020000D01*
X83150000Y-141450000D02*
X83150000Y-146000000D01*
X83300000Y-141400000D02*
X83300000Y-146000000D01*
X83450000Y-141400000D02*
X83450000Y-146000000D01*
X83600000Y-141400000D02*
X83600000Y-146000000D01*
X83750000Y-141400000D02*
X83750000Y-146000000D01*
X83900000Y-141400000D02*
X83900000Y-146000000D01*
X84050000Y-141400000D02*
X84050000Y-146000000D01*
X84200000Y-141400000D02*
X84200000Y-146000000D01*
X84350000Y-141400000D02*
X84350000Y-146000000D01*
X84500000Y-141400000D02*
X84500000Y-146000000D01*
X84650000Y-141400000D02*
X84650000Y-146000000D01*
X84800000Y-141400000D02*
X84800000Y-146000000D01*
X84950000Y-141400000D02*
X84950000Y-146000000D01*
X85100000Y-141400000D02*
X85100000Y-146000000D01*
X85250000Y-141400000D02*
X85250000Y-146000000D01*
X85275000Y-141375000D02*
X82311204Y-141375000D01*
X85275000Y-146025000D02*
X82475000Y-146025000D01*
X85400000Y-141500000D02*
X85400000Y-146010000D01*
X85550000Y-141650000D02*
X85550000Y-145970000D01*
X85700000Y-141800000D02*
X85700000Y-145920000D01*
X85850000Y-141700000D02*
X85850000Y-145840000D01*
X86000000Y-141730000D02*
X86000000Y-145700000D01*
X86150000Y-141850000D02*
X86150000Y-145530000D01*
X86305000Y-145025000D02*
X86305000Y-142375000D01*
D14*
X89200000Y-141555000D02*
X84800000Y-141555000D01*
X89200000Y-143055000D02*
X89200000Y-141555000D01*
D11*
X81300000Y-147200000D02*
G75*
G02*
X82475000Y-146025000I1175000J0D01*
G01*
X81450000Y-142076887D02*
G75*
G02*
X82311204Y-141375004I900030J-225043D01*
G01*
X81450000Y-142400000D02*
G75*
G02*
X80275000Y-143575000I-1175000J0D01*
G01*
X85305000Y-141375000D02*
G75*
G02*
X86305000Y-142375000I0J-1000000D01*
G01*
X86305000Y-145025000D02*
G75*
G02*
X85305000Y-146025000I-1000000J0D01*
G01*
X89500000Y-140600000D02*
G75*
G02*
X88500000Y-140600000I-500000J0D01*
G01*
X88500000Y-140600000D02*
G75*
G02*
X89500000Y-140600000I500000J0D01*
G01*
%TO.C,SW5*%
X76700000Y-129225000D02*
X76700000Y-126575000D01*
X76850000Y-126440000D02*
X76850000Y-129370000D01*
X76950000Y-126330000D02*
X76950000Y-129450000D01*
X77050000Y-126230000D02*
X77050000Y-129560000D01*
X77150000Y-126130000D02*
X77150000Y-129660000D01*
X77300000Y-125990000D02*
X77300000Y-129820000D01*
X77450000Y-125830000D02*
X77450000Y-129950000D01*
X77600000Y-125700000D02*
X77600000Y-130090000D01*
X77700000Y-125575000D02*
X76700000Y-126575000D01*
X77700000Y-130225000D02*
X76700000Y-129225000D01*
X77750000Y-125600000D02*
X77750000Y-130200000D01*
X77900000Y-125600000D02*
X77900000Y-130200000D01*
X78050000Y-125600000D02*
X78050000Y-130200000D01*
X78200000Y-125600000D02*
X78200000Y-130200000D01*
X78350000Y-125600000D02*
X78350000Y-130200000D01*
X78500000Y-125600000D02*
X78500000Y-130200000D01*
X78650000Y-125600000D02*
X78650000Y-130200000D01*
X78800000Y-125600000D02*
X78800000Y-130200000D01*
X78950000Y-125600000D02*
X78950000Y-130200000D01*
X79100000Y-125600000D02*
X79100000Y-130200000D01*
X79250000Y-125600000D02*
X79250000Y-130200000D01*
X79400000Y-125600000D02*
X79400000Y-130200000D01*
X79550000Y-125600000D02*
X79550000Y-130200000D01*
X79700000Y-125600000D02*
X79700000Y-130200000D01*
X79850000Y-125600000D02*
X79850000Y-130200000D01*
X80000000Y-125600000D02*
X80000000Y-130200000D01*
X80110000Y-125600000D02*
X80110000Y-130200000D01*
X80200000Y-125600000D02*
X80200000Y-130200000D01*
X80225000Y-130225000D02*
X77700000Y-130225000D01*
X80225000Y-130225000D02*
X81300000Y-129280000D01*
X80275000Y-125575000D02*
X77700000Y-125575000D01*
X80350000Y-125650000D02*
X80350000Y-130110000D01*
X80500000Y-125600000D02*
X80500000Y-129980000D01*
X80650000Y-125550000D02*
X80650000Y-129850000D01*
X80800000Y-125500000D02*
X80800000Y-129700000D01*
X80950000Y-125400000D02*
X80950000Y-129580000D01*
X81100000Y-125350000D02*
X81100000Y-129350000D01*
X81100000Y-125450000D02*
X81090000Y-129450000D01*
X81200000Y-125250000D02*
X81200000Y-129270000D01*
X81200000Y-125400000D02*
X81200000Y-129360000D01*
X81300000Y-125050000D02*
X81300000Y-129280000D01*
X81400000Y-124900000D02*
X81400000Y-128730000D01*
X81450000Y-124076887D02*
X81450000Y-124400000D01*
X81500000Y-123950000D02*
X81510000Y-128500000D01*
X81650000Y-123750000D02*
X81650000Y-128320000D01*
X81800000Y-123560000D02*
X81800000Y-128230000D01*
X81950000Y-123480000D02*
X81950000Y-128140000D01*
X82100000Y-123430000D02*
X82100000Y-128070000D01*
X82250000Y-123400000D02*
X82250000Y-128040000D01*
X82400000Y-123380000D02*
X82400000Y-128020000D01*
X82550000Y-123390000D02*
X82550000Y-128020000D01*
X82700000Y-123450000D02*
X82700000Y-128000000D01*
X82850000Y-123400000D02*
X82850000Y-128010000D01*
X83000000Y-123400000D02*
X83000000Y-128020000D01*
X83150000Y-123450000D02*
X83150000Y-128000000D01*
X83300000Y-123400000D02*
X83300000Y-128000000D01*
X83450000Y-123400000D02*
X83450000Y-128000000D01*
X83600000Y-123400000D02*
X83600000Y-128000000D01*
X83750000Y-123400000D02*
X83750000Y-128000000D01*
X83900000Y-123400000D02*
X83900000Y-128000000D01*
X84050000Y-123400000D02*
X84050000Y-128000000D01*
X84200000Y-123400000D02*
X84200000Y-128000000D01*
X84350000Y-123400000D02*
X84350000Y-128000000D01*
X84500000Y-123400000D02*
X84500000Y-128000000D01*
X84650000Y-123400000D02*
X84650000Y-128000000D01*
X84800000Y-123400000D02*
X84800000Y-128000000D01*
X84950000Y-123400000D02*
X84950000Y-128000000D01*
X85100000Y-123400000D02*
X85100000Y-128000000D01*
X85250000Y-123400000D02*
X85250000Y-128000000D01*
X85275000Y-123375000D02*
X82311204Y-123375000D01*
X85275000Y-128025000D02*
X82475000Y-128025000D01*
X85400000Y-123500000D02*
X85400000Y-128010000D01*
X85550000Y-123650000D02*
X85550000Y-127970000D01*
X85700000Y-123800000D02*
X85700000Y-127920000D01*
X85850000Y-123700000D02*
X85850000Y-127840000D01*
X86000000Y-123730000D02*
X86000000Y-127700000D01*
X86150000Y-123850000D02*
X86150000Y-127530000D01*
X86305000Y-127025000D02*
X86305000Y-124375000D01*
D14*
X89200000Y-123555000D02*
X84800000Y-123555000D01*
X89200000Y-125055000D02*
X89200000Y-123555000D01*
D11*
X81300000Y-129200000D02*
G75*
G02*
X82475000Y-128025000I1175000J0D01*
G01*
X81450000Y-124076887D02*
G75*
G02*
X82311204Y-123375004I900030J-225043D01*
G01*
X81450000Y-124400000D02*
G75*
G02*
X80275000Y-125575000I-1175000J0D01*
G01*
X85305000Y-123375000D02*
G75*
G02*
X86305000Y-124375000I0J-1000000D01*
G01*
X86305000Y-127025000D02*
G75*
G02*
X85305000Y-128025000I-1000000J0D01*
G01*
X89500000Y-122600000D02*
G75*
G02*
X88500000Y-122600000I-500000J0D01*
G01*
X88500000Y-122600000D02*
G75*
G02*
X89500000Y-122600000I500000J0D01*
G01*
D13*
%TO.C,LED2*%
X74063000Y-84572000D02*
X73682000Y-84572000D01*
X73682000Y-84172000D01*
X74063000Y-84572000D01*
G36*
X74063000Y-84572000D02*
G01*
X73682000Y-84572000D01*
X73682000Y-84172000D01*
X74063000Y-84572000D01*
G37*
%TO.C,LED4*%
X57063000Y-118647000D02*
X56682000Y-118647000D01*
X56682000Y-118247000D01*
X57063000Y-118647000D01*
G36*
X57063000Y-118647000D02*
G01*
X56682000Y-118647000D01*
X56682000Y-118247000D01*
X57063000Y-118647000D01*
G37*
D11*
%TO.C,SW3*%
X75700000Y-111225000D02*
X75700000Y-108575000D01*
X75850000Y-108440000D02*
X75850000Y-111370000D01*
X75950000Y-108330000D02*
X75950000Y-111450000D01*
X76050000Y-108230000D02*
X76050000Y-111560000D01*
X76150000Y-108130000D02*
X76150000Y-111660000D01*
X76300000Y-107990000D02*
X76300000Y-111820000D01*
X76450000Y-107830000D02*
X76450000Y-111950000D01*
X76600000Y-107700000D02*
X76600000Y-112090000D01*
X76700000Y-107575000D02*
X75700000Y-108575000D01*
X76700000Y-112225000D02*
X75700000Y-111225000D01*
X76750000Y-107600000D02*
X76750000Y-112200000D01*
X76900000Y-107600000D02*
X76900000Y-112200000D01*
X77050000Y-107600000D02*
X77050000Y-112200000D01*
X77200000Y-107600000D02*
X77200000Y-112200000D01*
X77350000Y-107600000D02*
X77350000Y-112200000D01*
X77500000Y-107600000D02*
X77500000Y-112200000D01*
X77650000Y-107600000D02*
X77650000Y-112200000D01*
X77800000Y-107600000D02*
X77800000Y-112200000D01*
X77950000Y-107600000D02*
X77950000Y-112200000D01*
X78100000Y-107600000D02*
X78100000Y-112200000D01*
X78250000Y-107600000D02*
X78250000Y-112200000D01*
X78400000Y-107600000D02*
X78400000Y-112200000D01*
X78550000Y-107600000D02*
X78550000Y-112200000D01*
X78700000Y-107600000D02*
X78700000Y-112200000D01*
X78850000Y-107600000D02*
X78850000Y-112200000D01*
X79000000Y-107600000D02*
X79000000Y-112200000D01*
X79110000Y-107600000D02*
X79110000Y-112200000D01*
X79200000Y-107600000D02*
X79200000Y-112200000D01*
X79225000Y-112225000D02*
X76700000Y-112225000D01*
X79225000Y-112225000D02*
X80300000Y-111280000D01*
X79275000Y-107575000D02*
X76700000Y-107575000D01*
X79350000Y-107650000D02*
X79350000Y-112110000D01*
X79500000Y-107600000D02*
X79500000Y-111980000D01*
X79650000Y-107550000D02*
X79650000Y-111850000D01*
X79800000Y-107500000D02*
X79800000Y-111700000D01*
X79950000Y-107400000D02*
X79950000Y-111580000D01*
X80100000Y-107350000D02*
X80100000Y-111350000D01*
X80100000Y-107450000D02*
X80090000Y-111450000D01*
X80200000Y-107250000D02*
X80200000Y-111270000D01*
X80200000Y-107400000D02*
X80200000Y-111360000D01*
X80300000Y-107050000D02*
X80300000Y-111280000D01*
X80400000Y-106900000D02*
X80400000Y-110730000D01*
X80450000Y-106076887D02*
X80450000Y-106400000D01*
X80500000Y-105950000D02*
X80510000Y-110500000D01*
X80650000Y-105750000D02*
X80650000Y-110320000D01*
X80800000Y-105560000D02*
X80800000Y-110230000D01*
X80950000Y-105480000D02*
X80950000Y-110140000D01*
X81100000Y-105430000D02*
X81100000Y-110070000D01*
X81250000Y-105400000D02*
X81250000Y-110040000D01*
X81400000Y-105380000D02*
X81400000Y-110020000D01*
X81550000Y-105390000D02*
X81550000Y-110020000D01*
X81700000Y-105450000D02*
X81700000Y-110000000D01*
X81850000Y-105400000D02*
X81850000Y-110010000D01*
X82000000Y-105400000D02*
X82000000Y-110020000D01*
X82150000Y-105450000D02*
X82150000Y-110000000D01*
X82300000Y-105400000D02*
X82300000Y-110000000D01*
X82450000Y-105400000D02*
X82450000Y-110000000D01*
X82600000Y-105400000D02*
X82600000Y-110000000D01*
X82750000Y-105400000D02*
X82750000Y-110000000D01*
X82900000Y-105400000D02*
X82900000Y-110000000D01*
X83050000Y-105400000D02*
X83050000Y-110000000D01*
X83200000Y-105400000D02*
X83200000Y-110000000D01*
X83350000Y-105400000D02*
X83350000Y-110000000D01*
X83500000Y-105400000D02*
X83500000Y-110000000D01*
X83650000Y-105400000D02*
X83650000Y-110000000D01*
X83800000Y-105400000D02*
X83800000Y-110000000D01*
X83950000Y-105400000D02*
X83950000Y-110000000D01*
X84100000Y-105400000D02*
X84100000Y-110000000D01*
X84250000Y-105400000D02*
X84250000Y-110000000D01*
X84275000Y-105375000D02*
X81311204Y-105375000D01*
X84275000Y-110025000D02*
X81475000Y-110025000D01*
X84400000Y-105500000D02*
X84400000Y-110010000D01*
X84550000Y-105650000D02*
X84550000Y-109970000D01*
X84700000Y-105800000D02*
X84700000Y-109920000D01*
X84850000Y-105700000D02*
X84850000Y-109840000D01*
X85000000Y-105730000D02*
X85000000Y-109700000D01*
X85150000Y-105850000D02*
X85150000Y-109530000D01*
X85305000Y-109025000D02*
X85305000Y-106375000D01*
D14*
X88200000Y-105555000D02*
X83800000Y-105555000D01*
X88200000Y-107055000D02*
X88200000Y-105555000D01*
D11*
X80300000Y-111200000D02*
G75*
G02*
X81475000Y-110025000I1175000J0D01*
G01*
X80450000Y-106076887D02*
G75*
G02*
X81311204Y-105375004I900030J-225043D01*
G01*
X80450000Y-106400000D02*
G75*
G02*
X79275000Y-107575000I-1175000J0D01*
G01*
X84305000Y-105375000D02*
G75*
G02*
X85305000Y-106375000I0J-1000000D01*
G01*
X85305000Y-109025000D02*
G75*
G02*
X84305000Y-110025000I-1000000J0D01*
G01*
X88500000Y-104600000D02*
G75*
G02*
X87500000Y-104600000I-500000J0D01*
G01*
X87500000Y-104600000D02*
G75*
G02*
X88500000Y-104600000I500000J0D01*
G01*
D13*
%TO.C,LED3*%
X74063000Y-100572000D02*
X73682000Y-100572000D01*
X73682000Y-100172000D01*
X74063000Y-100572000D01*
G36*
X74063000Y-100572000D02*
G01*
X73682000Y-100572000D01*
X73682000Y-100172000D01*
X74063000Y-100572000D01*
G37*
D11*
%TO.C,SW4*%
X58700000Y-129225000D02*
X58700000Y-126575000D01*
X58850000Y-126440000D02*
X58850000Y-129370000D01*
X58950000Y-126330000D02*
X58950000Y-129450000D01*
X59050000Y-126230000D02*
X59050000Y-129560000D01*
X59150000Y-126130000D02*
X59150000Y-129660000D01*
X59300000Y-125990000D02*
X59300000Y-129820000D01*
X59450000Y-125830000D02*
X59450000Y-129950000D01*
X59600000Y-125700000D02*
X59600000Y-130090000D01*
X59700000Y-125575000D02*
X58700000Y-126575000D01*
X59700000Y-130225000D02*
X58700000Y-129225000D01*
X59750000Y-125600000D02*
X59750000Y-130200000D01*
X59900000Y-125600000D02*
X59900000Y-130200000D01*
X60050000Y-125600000D02*
X60050000Y-130200000D01*
X60200000Y-125600000D02*
X60200000Y-130200000D01*
X60350000Y-125600000D02*
X60350000Y-130200000D01*
X60500000Y-125600000D02*
X60500000Y-130200000D01*
X60650000Y-125600000D02*
X60650000Y-130200000D01*
X60800000Y-125600000D02*
X60800000Y-130200000D01*
X60950000Y-125600000D02*
X60950000Y-130200000D01*
X61100000Y-125600000D02*
X61100000Y-130200000D01*
X61250000Y-125600000D02*
X61250000Y-130200000D01*
X61400000Y-125600000D02*
X61400000Y-130200000D01*
X61550000Y-125600000D02*
X61550000Y-130200000D01*
X61700000Y-125600000D02*
X61700000Y-130200000D01*
X61850000Y-125600000D02*
X61850000Y-130200000D01*
X62000000Y-125600000D02*
X62000000Y-130200000D01*
X62110000Y-125600000D02*
X62110000Y-130200000D01*
X62200000Y-125600000D02*
X62200000Y-130200000D01*
X62225000Y-130225000D02*
X59700000Y-130225000D01*
X62225000Y-130225000D02*
X63300000Y-129280000D01*
X62275000Y-125575000D02*
X59700000Y-125575000D01*
X62350000Y-125650000D02*
X62350000Y-130110000D01*
X62500000Y-125600000D02*
X62500000Y-129980000D01*
X62650000Y-125550000D02*
X62650000Y-129850000D01*
X62800000Y-125500000D02*
X62800000Y-129700000D01*
X62950000Y-125400000D02*
X62950000Y-129580000D01*
X63100000Y-125350000D02*
X63100000Y-129350000D01*
X63100000Y-125450000D02*
X63090000Y-129450000D01*
X63200000Y-125250000D02*
X63200000Y-129270000D01*
X63200000Y-125400000D02*
X63200000Y-129360000D01*
X63300000Y-125050000D02*
X63300000Y-129280000D01*
X63400000Y-124900000D02*
X63400000Y-128730000D01*
X63450000Y-124076887D02*
X63450000Y-124400000D01*
X63500000Y-123950000D02*
X63510000Y-128500000D01*
X63650000Y-123750000D02*
X63650000Y-128320000D01*
X63800000Y-123560000D02*
X63800000Y-128230000D01*
X63950000Y-123480000D02*
X63950000Y-128140000D01*
X64100000Y-123430000D02*
X64100000Y-128070000D01*
X64250000Y-123400000D02*
X64250000Y-128040000D01*
X64400000Y-123380000D02*
X64400000Y-128020000D01*
X64550000Y-123390000D02*
X64550000Y-128020000D01*
X64700000Y-123450000D02*
X64700000Y-128000000D01*
X64850000Y-123400000D02*
X64850000Y-128010000D01*
X65000000Y-123400000D02*
X65000000Y-128020000D01*
X65150000Y-123450000D02*
X65150000Y-128000000D01*
X65300000Y-123400000D02*
X65300000Y-128000000D01*
X65450000Y-123400000D02*
X65450000Y-128000000D01*
X65600000Y-123400000D02*
X65600000Y-128000000D01*
X65750000Y-123400000D02*
X65750000Y-128000000D01*
X65900000Y-123400000D02*
X65900000Y-128000000D01*
X66050000Y-123400000D02*
X66050000Y-128000000D01*
X66200000Y-123400000D02*
X66200000Y-128000000D01*
X66350000Y-123400000D02*
X66350000Y-128000000D01*
X66500000Y-123400000D02*
X66500000Y-128000000D01*
X66650000Y-123400000D02*
X66650000Y-128000000D01*
X66800000Y-123400000D02*
X66800000Y-128000000D01*
X66950000Y-123400000D02*
X66950000Y-128000000D01*
X67100000Y-123400000D02*
X67100000Y-128000000D01*
X67250000Y-123400000D02*
X67250000Y-128000000D01*
X67275000Y-123375000D02*
X64311204Y-123375000D01*
X67275000Y-128025000D02*
X64475000Y-128025000D01*
X67400000Y-123500000D02*
X67400000Y-128010000D01*
X67550000Y-123650000D02*
X67550000Y-127970000D01*
X67700000Y-123800000D02*
X67700000Y-127920000D01*
X67850000Y-123700000D02*
X67850000Y-127840000D01*
X68000000Y-123730000D02*
X68000000Y-127700000D01*
X68150000Y-123850000D02*
X68150000Y-127530000D01*
X68305000Y-127025000D02*
X68305000Y-124375000D01*
D14*
X71200000Y-123555000D02*
X66800000Y-123555000D01*
X71200000Y-125055000D02*
X71200000Y-123555000D01*
D11*
X63300000Y-129200000D02*
G75*
G02*
X64475000Y-128025000I1175000J0D01*
G01*
X63450000Y-124076887D02*
G75*
G02*
X64311204Y-123375004I900030J-225043D01*
G01*
X63450000Y-124400000D02*
G75*
G02*
X62275000Y-125575000I-1175000J0D01*
G01*
X67305000Y-123375000D02*
G75*
G02*
X68305000Y-124375000I0J-1000000D01*
G01*
X68305000Y-127025000D02*
G75*
G02*
X67305000Y-128025000I-1000000J0D01*
G01*
X71500000Y-122600000D02*
G75*
G02*
X70500000Y-122600000I-500000J0D01*
G01*
X70500000Y-122600000D02*
G75*
G02*
X71500000Y-122600000I500000J0D01*
G01*
%TD*%
%LPC*%
D15*
%TO.C,BT1*%
X70000000Y-83395000D03*
X70000000Y-139010000D03*
D16*
X70000000Y-74900000D03*
X70000000Y-147800000D03*
%TD*%
D17*
%TO.C,LED7*%
X77750000Y-135200000D03*
D18*
X78025000Y-135200000D03*
D19*
X78650000Y-135200000D03*
D20*
X79350000Y-133700000D03*
X79350000Y-136700000D03*
D19*
X79600000Y-135200000D03*
X80025000Y-135200000D03*
D18*
X80675000Y-135200000D03*
D17*
X80950000Y-135200000D03*
D21*
X82150000Y-134342500D03*
X82150000Y-136042500D03*
X76550000Y-136042500D03*
X76550000Y-134342500D03*
%TD*%
D17*
%TO.C,LED6*%
X59450000Y-135050000D03*
D18*
X59725000Y-135050000D03*
D19*
X60350000Y-135050000D03*
D20*
X61050000Y-133550000D03*
X61050000Y-136550000D03*
D19*
X61300000Y-135050000D03*
X61725000Y-135050000D03*
D18*
X62375000Y-135050000D03*
D17*
X62650000Y-135050000D03*
D21*
X63850000Y-134192500D03*
X63850000Y-135892500D03*
X58250000Y-135892500D03*
X58250000Y-134192500D03*
%TD*%
D17*
%TO.C,LED1*%
X60400000Y-90925000D03*
D18*
X60675000Y-90925000D03*
D19*
X61300000Y-90925000D03*
D20*
X62000000Y-89425000D03*
X62000000Y-92425000D03*
D19*
X62250000Y-90925000D03*
X62675000Y-90925000D03*
D18*
X63325000Y-90925000D03*
D17*
X63600000Y-90925000D03*
D21*
X64800000Y-90067500D03*
X64800000Y-91767500D03*
X59200000Y-91767500D03*
X59200000Y-90067500D03*
%TD*%
D22*
%TO.C,U1*%
X77620000Y-71620000D03*
X75080000Y-71620000D03*
X72540000Y-71620000D03*
X70000000Y-71620000D03*
X67460000Y-71620000D03*
X64920000Y-71620000D03*
X62380000Y-71620000D03*
X62380000Y-56380000D03*
X64920000Y-56380000D03*
X67460000Y-56380000D03*
X70000000Y-56380000D03*
X72540000Y-56380000D03*
X75080000Y-56380000D03*
X77620000Y-56380000D03*
%TD*%
D23*
%TO.C,SW1*%
X57000000Y-90450000D03*
D24*
X62000000Y-96000000D03*
D25*
X62000000Y-101900000D03*
X67000000Y-99700000D03*
D26*
X70350000Y-99700000D03*
X58450000Y-101900000D03*
%TD*%
D23*
%TO.C,SW2*%
X73000000Y-82450000D03*
D24*
X78000000Y-88000000D03*
D25*
X78000000Y-93900000D03*
X83000000Y-91700000D03*
D26*
X86350000Y-91700000D03*
X74450000Y-93900000D03*
%TD*%
D23*
%TO.C,SW6*%
X56000000Y-134450000D03*
D24*
X61000000Y-140000000D03*
D25*
X61000000Y-145900000D03*
X66000000Y-143700000D03*
D26*
X69350000Y-143700000D03*
X57450000Y-145900000D03*
%TD*%
D17*
%TO.C,LED5*%
X77400000Y-116925000D03*
D18*
X77675000Y-116925000D03*
D19*
X78300000Y-116925000D03*
D20*
X79000000Y-115425000D03*
X79000000Y-118425000D03*
D19*
X79250000Y-116925000D03*
X79675000Y-116925000D03*
D18*
X80325000Y-116925000D03*
D17*
X80600000Y-116925000D03*
D21*
X81800000Y-116067500D03*
X81800000Y-117767500D03*
X76200000Y-117767500D03*
X76200000Y-116067500D03*
%TD*%
D23*
%TO.C,SW7*%
X74000000Y-134450000D03*
D24*
X79000000Y-140000000D03*
D25*
X79000000Y-145900000D03*
X84000000Y-143700000D03*
D26*
X87350000Y-143700000D03*
X75450000Y-145900000D03*
%TD*%
D23*
%TO.C,SW5*%
X74000000Y-116450000D03*
D24*
X79000000Y-122000000D03*
D25*
X79000000Y-127900000D03*
X84000000Y-125700000D03*
D26*
X87350000Y-125700000D03*
X75450000Y-127900000D03*
%TD*%
D17*
%TO.C,LED2*%
X76400000Y-82925000D03*
D18*
X76675000Y-82925000D03*
D19*
X77300000Y-82925000D03*
D20*
X78000000Y-81425000D03*
X78000000Y-84425000D03*
D19*
X78250000Y-82925000D03*
X78675000Y-82925000D03*
D18*
X79325000Y-82925000D03*
D17*
X79600000Y-82925000D03*
D21*
X80800000Y-82067500D03*
X80800000Y-83767500D03*
X75200000Y-83767500D03*
X75200000Y-82067500D03*
%TD*%
D17*
%TO.C,LED4*%
X59400000Y-117000000D03*
D18*
X59675000Y-117000000D03*
D19*
X60300000Y-117000000D03*
D20*
X61000000Y-115500000D03*
X61000000Y-118500000D03*
D19*
X61250000Y-117000000D03*
X61675000Y-117000000D03*
D18*
X62325000Y-117000000D03*
D17*
X62600000Y-117000000D03*
D21*
X63800000Y-116142500D03*
X63800000Y-117842500D03*
X58200000Y-117842500D03*
X58200000Y-116142500D03*
%TD*%
D23*
%TO.C,SW3*%
X73000000Y-98450000D03*
D24*
X78000000Y-104000000D03*
D25*
X78000000Y-109900000D03*
X83000000Y-107700000D03*
D26*
X86350000Y-107700000D03*
X74450000Y-109900000D03*
%TD*%
D17*
%TO.C,LED3*%
X76400000Y-98925000D03*
D18*
X76675000Y-98925000D03*
D19*
X77300000Y-98925000D03*
D20*
X78000000Y-97425000D03*
X78000000Y-100425000D03*
D19*
X78250000Y-98925000D03*
X78675000Y-98925000D03*
D18*
X79325000Y-98925000D03*
D17*
X79600000Y-98925000D03*
D21*
X80800000Y-98067500D03*
X80800000Y-99767500D03*
X75200000Y-99767500D03*
X75200000Y-98067500D03*
%TD*%
D23*
%TO.C,SW4*%
X56000000Y-116450000D03*
D24*
X61000000Y-122000000D03*
D25*
X61000000Y-127900000D03*
X66000000Y-125700000D03*
D26*
X69350000Y-125700000D03*
X57450000Y-127900000D03*
%TD*%
D27*
%TO.C,J4*%
X82550000Y-62000000D03*
D28*
X82550000Y-64000000D03*
X82550000Y-66000000D03*
%TD*%
D29*
%TO.C,J1*%
X57450000Y-65000000D03*
D28*
X57450000Y-63000000D03*
%TD*%
D30*
%TO.C,OL1*%
X73810000Y-52500000D03*
D31*
X71270000Y-52500000D03*
X68730000Y-52500000D03*
X66190000Y-52500000D03*
D32*
X81000000Y-53000000D03*
X59000000Y-53000000D03*
X59000000Y-75000000D03*
X81000000Y-75000000D03*
%TD*%
%LPD*%
M02*
