M48
; DRILL file {KiCad 8.0.7} date 2025-04-08T15:01:58+0900
; FORMAT={-:-/ absolute / inch / decimal}
; #@! TF.CreationDate,2025-04-08T15:01:58+09:00
; #@! TF.GenerationSoftware,Kicad,Pcbnew,8.0.7
; #@! TF.FileFunction,Plated,1,2,PTH
FMAT,2
INCH
; #@! TA.AperFunction,Plated,PTH,ViaDrill
T1C0.0118
; #@! TA.AperFunction,Plated,PTH,ComponentDrill
T2C0.0295
; #@! TA.AperFunction,Plated,PTH,ComponentDrill
T3C0.0320
; #@! TA.AperFunction,Plated,PTH,ComponentDrill
T4C0.0394
; #@! TA.AperFunction,Plated,PTH,ComponentDrill
T5C0.0543
; #@! TA.AperFunction,Plated,PTH,ComponentDrill
T6C0.0787
%
G90
G05
T1
X2.1654Y-5.0394
X2.1654Y-5.748
X2.2047Y-4.0157
X2.2047Y-4.6457
X2.2047Y-5.3543
X2.2441Y-3.622
X2.2835Y-3.3858
X2.285Y-3.778
X2.5984Y-4.5669
X2.5984Y-5.2756
X2.5984Y-5.3543
X2.6378Y-3.5433
X2.6575Y-2.6969
X2.7165Y-3.5827
X2.7165Y-5.1575
X2.7559Y-4.0551
X2.8346Y-3.7008
X2.8346Y-4.3307
X2.874Y-3.3071
X2.874Y-3.937
X2.874Y-5.0394
X2.874Y-5.748
X2.9134Y-4.6457
X2.9134Y-5.3543
X2.9528Y-3.189
X2.9528Y-5.3543
X3.2677Y-3.2874
X3.2677Y-3.8583
X3.3071Y-4.5669
X3.3071Y-5.2756
X3.3996Y-3.3143
T2
X2.2618Y-2.4803
X2.2618Y-2.5591
X3.25Y-2.4409
X3.25Y-2.5197
X3.25Y-2.5984
T3
X2.4559Y-2.2197
X2.4559Y-2.8197
X2.5559Y-2.2197
X2.5559Y-2.8197
X2.6559Y-2.2197
X2.6559Y-2.8197
X2.7559Y-2.2197
X2.7559Y-2.8197
X2.8559Y-2.2197
X2.8559Y-2.8197
X2.9559Y-2.2197
X2.9559Y-2.8197
X3.0559Y-2.2197
X3.0559Y-2.8197
T4
X2.6059Y-2.0669
X2.7059Y-2.0669
X2.8059Y-2.0669
X2.9059Y-2.0669
T6
X2.3228Y-2.0866
X2.3228Y-2.9528
X3.189Y-2.0866
X3.189Y-2.9528
T5
G00X2.776Y-2.9488
M15
G01X2.7358Y-2.9488
M16
G05
G00X2.776Y-5.8189
M15
G01X2.7358Y-5.8189
M16
G05
M30
